<svg width="22" height="18" viewBox="0 0 22 18" fill="none" xmlns="http://www.w3.org/2000/svg">
<path d="M2.40625 0.750977H19.5938C20.922 0.750977 22 1.82898 22 3.15723V14.8447C22 15.4829 21.7465 16.0949 21.2952 16.5462C20.844 16.9975 20.2319 17.251 19.5938 17.251H2.40625C1.76807 17.251 1.15603 16.9975 0.704774 16.5462C0.253515 16.0949 0 15.4829 0 14.8447L0 3.15723C0 1.82898 1.078 0.750977 2.40625 0.750977ZM2.0625 14.8461C2.0625 15.0359 2.2165 15.1899 2.40625 15.1899H19.5938C19.6849 15.1899 19.7724 15.1536 19.8368 15.0892C19.9013 15.0247 19.9375 14.9373 19.9375 14.8461V5.98835L11.5225 10.9219C11.3641 11.0149 11.1837 11.064 11 11.064C10.8163 11.064 10.6359 11.0149 10.4775 10.9219L2.0625 5.98835V14.8461ZM19.9375 3.59723V3.15723C19.9375 3.06606 19.9013 2.97862 19.8368 2.91416C19.7724 2.84969 19.6849 2.81348 19.5938 2.81348H2.40625C2.31508 2.81348 2.22765 2.84969 2.16318 2.91416C2.09872 2.97862 2.0625 3.06606 2.0625 3.15723V3.59723L11 8.83598L19.9375 3.59723Z" fill="#7A8192"/>
</svg>
