<svg width="1145" height="1129" viewBox="0 0 1145 1129" fill="none" xmlns="http://www.w3.org/2000/svg">
<g opacity="0.8" filter="url(#filter0_d_1740_490)">
<path d="M1114 552.5C1114 851.562 871.562 1094 572.5 1094C273.438 1094 31 851.562 31 552.5C31 253.438 273.438 11 572.5 11C871.562 11 1114 253.438 1114 552.5Z" fill="url(#paint0_radial_1740_490)"/>
<path d="M1113 552.5C1113 851.01 871.01 1093 572.5 1093C273.99 1093 32 851.01 32 552.5C32 253.99 273.99 12 572.5 12C871.01 12 1113 253.99 1113 552.5Z" stroke="url(#paint1_linear_1740_490)" stroke-width="2"/>
</g>
<defs>
<filter id="filter0_d_1740_490" x="0" y="0" width="1145" height="1145" filterUnits="userSpaceOnUse" color-interpolation-filters="sRGB">
<feFlood flood-opacity="0" result="BackgroundImageFix"/>
<feColorMatrix in="SourceAlpha" type="matrix" values="0 0 0 0 0 0 0 0 0 0 0 0 0 0 0 0 0 0 127 0" result="hardAlpha"/>
<feOffset dy="20"/>
<feGaussianBlur stdDeviation="15.5"/>
<feComposite in2="hardAlpha" operator="out"/>
<feColorMatrix type="matrix" values="0 0 0 0 0.47451 0 0 0 0 0.286275 0 0 0 0 1 0 0 0 0.61 0"/>
<feBlend mode="normal" in2="BackgroundImageFix" result="effect1_dropShadow_1740_490"/>
<feBlend mode="normal" in="SourceGraphic" in2="effect1_dropShadow_1740_490" result="shape"/>
</filter>
<radialGradient id="paint0_radial_1740_490" cx="0" cy="0" r="1" gradientUnits="userSpaceOnUse" gradientTransform="translate(571.723 11) rotate(90) scale(1083)">
<stop offset="0.723958" stop-color="#020337"/>
<stop offset="1" stop-color="#3977F8"/>
</radialGradient>
<linearGradient id="paint1_linear_1740_490" x1="571.723" y1="1094" x2="571.723" y2="11" gradientUnits="userSpaceOnUse">
<stop stop-color="#3977F8"/>
<stop offset="1" stop-color="#3977F8" stop-opacity="0"/>
</linearGradient>
</defs>
</svg>