<?xml version="1.0" encoding="utf-8"?>
<!-- Generator: Adobe Illustrator 24.0.3, SVG Export Plug-In . SVG Version: 6.00 Build 0)  -->
<svg version="1.1" id="Layer_1" xmlns="http://www.w3.org/2000/svg" xmlns:xlink="http://www.w3.org/1999/xlink" x="0px" y="0px"
	 viewBox="0 0 689.6 180.8" style="enable-background:new 0 0 689.6 180.8;" xml:space="preserve">
<style type="text/css">
	.st0{fill:#FFFFFF;}
	.st1{fill:url(#SVGID_1_);}
	.st2{fill:url(#SVGID_2_);}
</style>
<g>
	<g>
		<g>
			<path class="st0" d="M264.1,126.8l-27.5-73.5c-0.1-0.3-0.4-0.6-0.8-0.6h-18.3c-0.4,0-0.7,0.2-0.8,0.5l-27.8,73.5
				c-0.2,0.6,0.2,1.1,0.8,1.1h15.9c0.4,0,0.7-0.2,0.8-0.6l5-14.1c0.1-0.3,0.4-0.6,0.8-0.6h28c0.4,0,0.7,0.2,0.8,0.6l5,14.1
				c0.1,0.3,0.4,0.6,0.8,0.6h16.5C263.9,128,264.3,127.4,264.1,126.8z M234.8,97.4h-17.1c-0.3,0-0.5-0.3-0.4-0.6l8.7-24.3
				c0.1-0.4,0.7-0.4,0.8,0l8.5,24.3C235.3,97.1,235.1,97.4,234.8,97.4z"/>
			<g>
				<path class="st0" d="M277.3,49.7c5.3,0,9.6,4.2,9.6,9.4s-4.3,9.4-9.6,9.4c-5.1,0-9.4-4.2-9.4-9.4S272.2,49.7,277.3,49.7z"/>
				<path class="st0" d="M269.3,127.1v-51c0-0.5,0.4-0.8,0.9-0.8h14.5c0.5,0,0.9,0.4,0.9,0.8v51c0,0.5-0.4,0.8-0.9,0.8h-14.5
					C269.7,128,269.3,127.6,269.3,127.1z"/>
			</g>
			<g>
				<path class="st0" d="M327.2,90.1c0,0.5-0.5,0.9-1,0.8c-1.4-0.3-2.8-0.3-4.1-0.3c-6.5,0-12.4,3.8-12.4,14.3v22.2
					c0,0.5-0.4,0.8-0.9,0.8h-14.5c-0.5,0-0.9-0.4-0.9-0.8v-51c0-0.5,0.4-0.8,0.9-0.8h14c0.5,0,0.9,0.4,0.9,0.8v6.3
					c2.8-5.9,9.5-7.6,13.8-7.6c1.3,0,2.6,0.1,3.6,0.4c0.4,0.1,0.7,0.4,0.7,0.8V90.1z"/>
			</g>
			<g>
				<path class="st0" d="M384.8,75.8l9.7,29.4c0.1,0.4,0.7,0.4,0.8,0l8.3-29.3c0.1-0.4,0.4-0.6,0.8-0.6h14.1c0.6,0,1,0.6,0.8,1.1
					l-15.9,51c-0.1,0.4-0.4,0.6-0.8,0.6h-14.9c-0.4,0-0.7-0.2-0.8-0.6L376,95.1c-0.1-0.4-0.7-0.4-0.8,0l-10.7,32.3
					c-0.1,0.3-0.4,0.6-0.8,0.6h-15.2c-0.4,0-0.7-0.2-0.8-0.6l-16.1-51c-0.2-0.5,0.2-1.1,0.8-1.1h15c0.4,0,0.7,0.3,0.8,0.6l8.3,29.2
					c0.1,0.4,0.7,0.4,0.8,0l9.8-29.3c0.1-0.3,0.4-0.6,0.8-0.6H384C384.3,75.2,384.6,75.5,384.8,75.8z"/>
			</g>
			<path class="st0" d="M474.7,75.2h-14c-0.5,0-0.9,0.4-0.9,0.8v5.2c-1.1-2.4-5.2-7.6-14.7-7.6c-15.7,0-25.8,12.1-25.8,27.8
				c0,16.2,10.8,28,26.3,28c6.6,0,11.9-3.2,14.3-8.3c0,0.3-0.1,4.2-0.1,5.9c0,0.5,0.4,0.9,0.9,0.9h14c0.5,0,0.9-0.4,0.9-0.8v-51
				C475.6,75.6,475.2,75.2,474.7,75.2z M447.8,115.5c-6.7,0-12.2-5.3-12.2-14c0-9.1,5.2-13.9,12.2-13.9c6.6,0,12.1,4.8,12.1,13.9
				C459.9,110.4,454.3,115.5,447.8,115.5z"/>
			<g>
				<path class="st0" d="M483.7,127.1V52c0-0.5,0.4-0.8,0.9-0.8h14.5c0.5,0,0.9,0.4,0.9,0.8v75.1c0,0.5-0.4,0.8-0.9,0.8h-14.5
					C484.1,128,483.7,127.6,483.7,127.1z"/>
			</g>
			<g>
				<path class="st0" d="M507.6,127.1V52c0-0.5,0.4-0.8,0.9-0.8h14.5c0.5,0,0.9,0.4,0.9,0.8v75.1c0,0.5-0.4,0.8-0.9,0.8h-14.5
					C508,128,507.6,127.6,507.6,127.1z"/>
			</g>
			<g>
				<path class="st0" d="M599.1,101.2l-17.3-24.6c-0.4-0.6,0-1.3,0.7-1.3h17c0.3,0,0.6,0.1,0.7,0.4l8.9,13.5c0.2,0.3,0.5,0.3,0.7,0
					l8.7-13.5c0.2-0.2,0.4-0.4,0.7-0.4h16c0.7,0,1.1,0.8,0.7,1.3l-17,24c-0.2,0.3-0.2,0.7,0,1c5.6,7.9,12,17.1,17.7,25.1
					c0.4,0.6,0,1.3-0.7,1.3H619c-0.3,0-0.6-0.1-0.7-0.4l-9.2-13.9c-0.2-0.3-0.5-0.3-0.7,0c-2.8,4.1-6.4,9.8-9.1,13.9
					c-0.2,0.2-0.4,0.4-0.7,0.4h-15.7c-0.7,0-1.1-0.8-0.7-1.3l17-24.5C599.3,101.8,599.3,101.5,599.1,101.2z"/>
			</g>
			<path class="st0" d="M545.4,105.7h18.5h18c0.1-0.3,0.3-2.8,0.3-5c0-17-10.1-27.1-26.6-27.1c-13.8,0-26.4,10.8-26.4,27.8
				c0,17.7,13,28.1,27.6,28.1c13.2,0,21.6-7.4,24.3-16.3c0-0.1,0.1-0.4,0.2-0.9c0.1-0.5-0.3-1-0.8-1l-13.5,0c-0.3,0-0.5,0.1-0.7,0.4
				c-1.8,2.6-4.8,4.2-9.3,4.2c-6.1,0-11.4-4-12-9.7C544.9,105.9,545.1,105.7,545.4,105.7z M555.8,86.4c7.4,0,10.2,4.5,10.6,8.4
				c0,0.3-0.2,0.5-0.4,0.5h-20.3c-0.3,0-0.5-0.2-0.4-0.5C545.8,91,549.2,86.4,555.8,86.4z"/>
		</g>
	</g>
	<g>
		<linearGradient id="SVGID_1_" gradientUnits="userSpaceOnUse" x1="52.7314" y1="89.4939" x2="172.7314" y2="89.4939">
			<stop  offset="0" style="stop-color:#EF4749"/>
			<stop  offset="1" style="stop-color:#F68D41"/>
		</linearGradient>
		<path class="st1" d="M168.2,81c-4.3-4.2-10.3-5.4-15.8-3.1l-24.8,10.1l-27-32.3c-3.9-4.7-9.9-6.9-15.9-5.9
			c-6,1.1-10.9,5.1-13,10.9l-18.1,48.8c-2.4,6.4-0.1,13.7,5.7,17.5c4.1,2.7,9.3,3,13.8,1.2l24.5-10c4.1-1.7,6.4-6.3,5-10.5
			c-1.5-4.6-6.6-7-11-5.2L73,110.2c-0.8,0.3-1.7-0.5-1.4-1.3l15.3-41.3c0.3-0.7,1.3-0.9,1.8-0.3l47,56.2c3.2,3.8,7.8,5.9,12.6,5.9
			c1.1,0,2.1-0.1,3.2-0.3c5.8-1.1,10.5-5.4,12.5-11l7.8-21.3C173.9,91.2,172.5,85.1,168.2,81z M153.9,97.2l-5.1,13.8
			c-0.3,0.8-1.3,0.9-1.8,0.3l-8.2-9.8l13.7-5.6C153.4,95.5,154.3,96.3,153.9,97.2z"/>
		<linearGradient id="SVGID_2_" gradientUnits="userSpaceOnUse" x1="156.2128" y1="90.994" x2="156.2139" y2="90.994">
			<stop  offset="0" style="stop-color:#EF4749"/>
			<stop  offset="1" style="stop-color:#F68D41"/>
		</linearGradient>
		<path class="st2" d="M156.2,91C156.2,91,156.2,91,156.2,91L156.2,91z"/>
	</g>
</g>
</svg>
