<svg xmlns="http://www.w3.org/2000/svg" width="100" height="32" viewBox="0 0 154 50" fill="none">
  <path fill="#4F46E5" d="M29.71 36.1c-.117 0-2.007-.033-2.119.002a.87.87 0 0 0-.612.912c.467 4.86 4.617 8.661 9.67 8.661 5.364 0 9.713-4.287 9.713-9.575 0-4.98-3.856-9.07-8.786-9.532a.88.88 0 0 0-.925.604c-.035.11-.003 1.973-.003 2.089v.746c0 3.365-2.767 6.093-6.18 6.093zM14.237 29.62c0-.116.033-1.978-.002-2.088a.88.88 0 0 0-.925-.604c-4.93.46-8.787 4.552-8.787 9.532 0 5.288 4.35 9.575 9.714 9.575 5.052 0 9.202-3.801 9.67-8.66a.87.87 0 0 0-.613-.913c-.112-.035-2.002-.002-2.119-.002h-.757c-3.414 0-6.181-2.728-6.181-6.094zM29.824 13.673c-.117 0-2.006.033-2.118-.002a.87.87 0 0 1-.613-.912c.467-4.86 4.618-8.661 9.67-8.661 5.364 0 9.713 4.287 9.713 9.575 0 4.98-3.856 9.07-8.785 9.531a.88.88 0 0 1-.926-.604c-.035-.11-.002-1.973-.002-2.088v-.746c0-3.365-2.768-6.093-6.182-6.093zM14.351 20.381c0 .116.034 1.978-.002 2.089a.88.88 0 0 1-.925.604c-4.93-.461-8.786-4.552-8.786-9.532 0-5.288 4.349-9.575 9.713-9.575 5.052 0 9.202 3.8 9.67 8.66a.87.87 0 0 1-.613.912c-.112.035-2.001.003-2.119.003h-.757c-3.413 0-6.18 2.728-6.18 6.093z"/>
  <path fill="#FFFFFF" d="m64.097 38.696 10.678-26.98h4.446l11.058 26.98h-4.94l-2.546-6.422H71.545l-2.432 6.422zm9.006-10.64h8.056l-4.104-10.678zM93.528 38.696V10.5h4.522v28.196zM103.028 38.696V10.5h4.522v28.196zM121.914 39.114c-5.928 0-10.526-4.636-10.526-10.716 0-6.004 4.598-10.64 10.526-10.64 6.004 0 10.564 4.674 10.564 10.64 0 6.042-4.598 10.716-10.564 10.716m0-4.18c3.382 0 5.852-2.774 5.852-6.498s-2.47-6.498-5.852-6.498c-3.306 0-5.814 2.774-5.814 6.498s2.508 6.498 5.814 6.498M138.318 45.194l3.116-7.752-8.056-19.266h4.94l5.586 13.908 5.396-13.908h4.712l-11.02 27.018z"/>
</svg>