<?xml version="1.0" encoding="UTF-8"?>
<svg version="1.1" xmlns="http://www.w3.org/2000/svg" width="400" height="150">
<path d="M0 0 C47.75359343 0 47.75359343 0 53.05859375 4.90234375 C53.74115234 5.90974609 53.74115234 5.90974609 54.4375 6.9375 C54.91058594 7.60652344 55.38367188 8.27554687 55.87109375 8.96484375 C57.98413563 12.77416838 58.13435537 16.32788754 58.17700195 20.63549805 C58.19625481 22.33327644 58.19625481 22.33327644 58.21589661 24.06535339 C58.22328354 25.28515396 58.23067047 26.50495453 58.23828125 27.76171875 C58.246353 29.0220845 58.25442474 30.28245026 58.26274109 31.58100891 C58.27657277 34.24992538 58.28759126 36.91871876 58.29516602 39.58764648 C58.30619939 42.98582307 58.34057324 46.38333925 58.38033772 49.78128338 C58.41297146 53.04552872 58.41729713 56.30983519 58.42578125 59.57421875 C58.44328934 60.78389816 58.46079742 61.99357758 58.47883606 63.23991394 C58.45783417 71.47832834 57.52184414 78.28778591 51.6875 84.4375 C45.00585095 88.32217968 38.10842675 88.38850679 30.5625 88.625 C25.3340625 88.810625 25.3340625 88.810625 20 89 C20 98.57 20 108.14 20 118 C13.4 118 6.8 118 0 118 C0 79.06 0 40.12 0 0 Z M20 17 C20 34.82 20 52.64 20 71 C22.95587111 72.47793555 25.64997645 72.17053651 28.9375 72.1875 C30.80728516 72.20876953 30.80728516 72.20876953 32.71484375 72.23046875 C36.14276297 72.26240498 36.14276297 72.26240498 39 70 C39.45178842 67.71621586 39.45178842 67.71621586 39.37231445 65.03125 C39.37854324 63.99677734 39.38477203 62.96230469 39.39118958 61.89648438 C39.38197983 60.77564453 39.37277008 59.65480469 39.36328125 58.5 C39.36377975 57.35337891 39.36427826 56.20675781 39.36479187 55.02539062 C39.36244812 52.59763865 39.35270204 50.1698844 39.33618164 47.7421875 C39.31259749 44.01540514 39.31561759 40.28933794 39.32226562 36.5625 C39.31668897 34.20832905 39.30957917 31.85416112 39.30078125 29.5 C39.30169266 28.37916016 39.30260406 27.25832031 39.30354309 26.10351562 C39.28924507 24.55180664 39.28924507 24.55180664 39.2746582 22.96875 C39.26774712 21.59879883 39.26774712 21.59879883 39.26069641 20.20117188 C39.20578019 17.7930909 39.20578019 17.7930909 37 16 C34.45770841 15.82798715 32.03850004 15.76742383 29.5 15.8125 C28.81035156 15.81314453 28.12070313 15.81378906 27.41015625 15.81445312 C23.57764806 15.79634391 23.57764806 15.79634391 20 17 Z " fill="#FFFFFF" transform="translate(158,22)"/>
<path d="M0 0 C46.15346535 0 46.15346535 0 52.0234375 4.578125 C52.46945313 5.12984375 52.91546875 5.6815625 53.375 6.25 C53.83648437 6.79140625 54.29796875 7.3328125 54.7734375 7.890625 C58.64845189 14.55466249 58.30688898 21.69539514 58.30078125 29.1796875 C58.30506638 30.34702423 58.3093515 31.51436096 58.31376648 32.71707153 C58.31949448 35.17970127 58.32002136 37.64234791 58.31567383 40.10498047 C58.31251647 43.8554395 58.33598452 47.60510724 58.36132812 51.35546875 C58.36360165 53.75520734 58.36430437 56.15494805 58.36328125 58.5546875 C58.372491 59.66746063 58.38170074 60.78023376 58.39118958 61.92672729 C58.34880566 69.12486527 57.88590957 76.20569274 53.38671875 82.12109375 C52.54560547 82.77271484 52.54560547 82.77271484 51.6875 83.4375 C51.13449219 83.88996094 50.58148438 84.34242187 50.01171875 84.80859375 C43.62217062 88.59269507 37.32120414 88.23932181 30.125 88.125 C26.45375 88.08375 22.7825 88.0425 19 88 C19 97.9 19 107.8 19 118 C12.73 118 6.46 118 0 118 C0 79.06 0 40.12 0 0 Z M19 18 C18.68691589 20.28981803 18.68691589 20.28981803 18.7253418 22.96875 C18.71580978 24.00322266 18.70627777 25.03769531 18.69645691 26.10351562 C18.69736832 27.22435547 18.69827972 28.34519531 18.69921875 29.5 C18.69493362 30.64662109 18.6906485 31.79324219 18.68623352 32.97460938 C18.68048262 35.40233702 18.67999552 37.8300819 18.68432617 40.2578125 C18.687487 43.98467194 18.66403237 47.71073876 18.63867188 51.4375 C18.63639917 53.79166566 18.63569525 56.14583347 18.63671875 58.5 C18.627509 59.62083984 18.61829926 60.74167969 18.60881042 61.89648438 C18.61503922 62.93095703 18.62126801 63.96542969 18.62768555 65.03125 C18.62705612 65.94455078 18.6264267 66.85785156 18.6257782 67.79882812 C18.74927139 68.52521484 18.87276459 69.25160156 19 70 C22.70241282 72.46827522 24.6591111 72.23759026 29.0625 72.1875 C30.31160156 72.18105469 31.56070313 72.17460938 32.84765625 72.16796875 C35.90155979 72.21546558 35.90155979 72.21546558 38 71 C38 53.18 38 35.36 38 17 C34.96576019 15.4828801 31.82495206 15.81560743 28.5 15.8125 C27.81035156 15.80025391 27.12070313 15.78800781 26.41015625 15.77539062 C22.24844358 15.63199213 22.24844358 15.63199213 19 18 Z " fill="#FFFFFF" transform="translate(94,22)"/>
<path d="M0 0 C3.96567985 -0.06939297 7.92978564 -0.12896219 11.89575195 -0.16479492 C13.89744576 -0.18705458 15.89894275 -0.22520146 17.90039062 -0.26367188 C34.11317163 -0.38618659 34.11317163 -0.38618659 39.86889648 4.62817383 C45.27982208 10.22269192 46.25420497 16.69550542 46.22705078 24.31225586 C46.22734283 25.00578156 46.22763489 25.69930725 46.22793579 26.41384888 C46.22655474 28.68097941 46.21105222 30.94777142 46.1953125 33.21484375 C46.191578 34.79667481 46.18873309 36.3785082 46.18673706 37.96034241 C46.17913501 42.10481253 46.15951633 46.2491404 46.1373291 50.39355469 C46.11679647 54.63018876 46.10771954 58.86684603 46.09765625 63.10351562 C46.07626689 71.40240872 46.0421728 79.70118661 46 88 C40.02267229 88.09931654 34.0458312 88.17167995 28.06787109 88.21972656 C26.03686143 88.23976836 24.00590894 88.26700947 21.97509766 88.30175781 C19.04575444 88.35060414 16.117178 88.37304343 13.1875 88.390625 C12.28821777 88.41127014 11.38893555 88.43191528 10.46240234 88.45318604 C2.85792424 88.45585665 -2.35771863 86.52739957 -7.875 81.25 C-12.45700004 74.24223523 -12.33894595 66.68140718 -12.3125 58.5625 C-12.32861328 57.57701172 -12.34472656 56.59152344 -12.36132812 55.57617188 C-12.3665594 47.6821775 -11.1054676 41.34397795 -6.875 34.625 C-0.45835714 28.76632609 7.71900126 28.51571674 16.0625 28.3125 C17.50399414 28.26125977 17.50399414 28.26125977 18.97460938 28.20898438 C21.31602268 28.12744262 23.65798845 28.06202588 26 28 C26 24.37 26 20.74 26 17 C13.13 16.505 13.13 16.505 0 16 C0 10.72 0 5.44 0 0 Z M8 47 C7.72191783 49.52377655 7.72191783 49.52377655 7.8046875 52.4453125 C7.81113281 53.52167969 7.81757813 54.59804687 7.82421875 55.70703125 C7.84097656 56.83496094 7.85773438 57.96289062 7.875 59.125 C7.88402344 60.26066406 7.89304687 61.39632812 7.90234375 62.56640625 C7.92596902 65.37781299 7.95890987 68.18880298 8 71 C11.03423981 72.5171199 14.17504794 72.18439257 17.5 72.1875 C18.18964844 72.19974609 18.87929688 72.21199219 19.58984375 72.22460938 C21.39477494 72.22988695 23.19917842 72.12184458 25 72 C28.04822999 68.95177001 27.29337257 65.91194693 27.32226562 61.74609375 C27.31743164 60.13927734 27.31743164 60.13927734 27.3125 58.5 C27.32861328 57.42878906 27.34472656 56.35757813 27.36132812 55.25390625 C27.36197266 54.23167969 27.36261719 53.20945312 27.36328125 52.15625 C27.36626221 51.21587891 27.36924316 50.27550781 27.37231445 49.30664062 C27.24945068 48.54544922 27.12658691 47.78425781 27 47 C23.30905532 44.53937021 21.32955805 44.73183223 16.9375 44.75 C15.68839844 44.74484375 14.43929688 44.7396875 13.15234375 44.734375 C9.90308398 44.66675772 9.90308398 44.66675772 8 47 Z " fill="#FFFFFF" transform="translate(260,22)"/>
<path d="M0 0 C44.17857143 0 44.17857143 0 51.8125 4.75 C56.60416613 9.67857088 57.37475923 14.92194921 57.34057617 21.58764648 C57.34123329 22.6718261 57.34123329 22.6718261 57.34190369 23.77790833 C57.33983076 26.1425882 57.31657197 28.50653932 57.29296875 30.87109375 C57.28736744 32.52018344 57.28309987 34.16927815 57.28010559 35.81837463 C57.26869886 40.14047234 57.23926807 44.46226343 57.20599365 48.78424072 C57.17520239 53.20182143 57.16158097 57.61945209 57.14648438 62.03710938 C57.11439389 70.69156204 57.06166053 79.34570745 57 88 C50.73 88 44.46 88 38 88 C37.67 64.9 37.34 41.8 37 18 C34.01316593 16.50658297 31.25600226 16.86824822 27.9375 16.875 C26.66777344 16.87242188 25.39804687 16.86984375 24.08984375 16.8671875 C21.12899299 16.64564416 21.12899299 16.64564416 20 18 C19.87598086 20.17731389 19.8219849 22.35863454 19.79467773 24.53930664 C19.77982834 25.56365059 19.77982834 25.56365059 19.76467896 26.60868835 C19.73298065 28.87580853 19.70827387 31.14294969 19.68359375 33.41015625 C19.6630314 34.97815001 19.64203512 36.54613813 19.62062073 38.11412048 C19.56532576 42.24870248 19.51594938 46.38333511 19.46777344 50.51800537 C19.41761247 54.73405483 19.36189826 58.95003043 19.30664062 63.16601562 C19.19896827 71.44394976 19.09805655 79.72194637 19 88 C12.73 88 6.46 88 0 88 C0 58.96 0 29.92 0 0 Z " fill="#FFFFFF" transform="translate(313,22)"/>
<path d="M0 0 C4.12638651 -0.06928634 8.25127005 -0.12889011 12.37792969 -0.16479492 C13.77839031 -0.17977914 15.17880483 -0.20017379 16.57910156 -0.22631836 C33.5805673 -0.53554616 33.5805673 -0.53554616 40.8125 5.25 C46.05577452 11.84154511 46.51260059 17.89990047 46.6875 26.0625 C46.72093506 27.18052002 46.75437012 28.29854004 46.78881836 29.45043945 C47.28050234 48.95816086 47.07527009 68.48831883 47 88 C40.4 88 33.8 88 27 88 C26.93941406 85.05191406 26.87882812 82.10382813 26.81640625 79.06640625 C26.75466765 76.22352398 26.69125895 73.38068356 26.62768555 70.5378418 C26.58426856 68.55610854 26.54259863 66.57433622 26.50268555 64.5925293 C26.44514617 61.7503683 26.38140555 58.90840517 26.31640625 56.06640625 C26.29969376 55.17474258 26.28298126 54.28307892 26.26576233 53.36439514 C26.563413 49.36051605 26.563413 49.36051605 25 46 C22.68925832 45.90067608 20.37537058 45.87030382 18.0625 45.875 C16.79535156 45.87242188 15.52820313 45.86984375 14.22265625 45.8671875 C11.10845111 45.77493931 11.10845111 45.77493931 9 47 C8.97112764 50.81248426 8.95324508 54.6249407 8.9375 58.4375 C8.92912109 59.52611328 8.92074219 60.61472656 8.91210938 61.73632812 C8.90888672 62.77080078 8.90566406 63.80527344 8.90234375 64.87109375 C8.89710693 65.82943115 8.89187012 66.78776855 8.88647461 67.77514648 C8.7494687 69.97285339 8.7494687 69.97285339 10 71 C12.34987262 71.23527773 14.70556039 71.41386417 17.0625 71.5625 C18.99802734 71.68818359 18.99802734 71.68818359 20.97265625 71.81640625 C21.97167969 71.87699219 22.97070312 71.93757813 24 72 C24 72.66 24 73.32 24 74 C22.4609375 75.48046875 22.4609375 75.48046875 20.375 77.1875 C17.46202663 79.60649013 15.28520688 81.90246198 13.125 85 C11.283128 87.23943454 10.5185706 87.92263947 7.6171875 88.35546875 C2.17630422 88.00627773 -1.89178807 86.71695365 -6 83 C-11.13571757 75.75054658 -11.21503734 69.37495512 -11.24023438 60.76806641 C-11.2498982 58.77103695 -11.28108516 56.77414948 -11.3125 54.77734375 C-11.36789014 41.10982634 -11.36789014 41.10982634 -6.421875 35.07421875 C-5.59429687 34.38779297 -5.59429687 34.38779297 -4.75 33.6875 C-4.20859375 33.21699219 -3.6671875 32.74648438 -3.109375 32.26171875 C3.22867573 28.47062544 9.77870341 28.747776 16.9375 28.875 C18.3925293 28.88853516 18.3925293 28.88853516 19.87695312 28.90234375 C22.25156407 28.92573893 24.62564776 28.95851824 27 29 C26.85962479 27.18706911 26.71255111 25.3746557 26.5625 23.5625 C26.48128906 22.55316406 26.40007812 21.54382813 26.31640625 20.50390625 C26.26788532 18.06359221 26.26788532 18.06359221 25 17 C23.14825294 16.84213692 21.2909089 16.74892644 19.43359375 16.68359375 C18.30888672 16.64169922 17.18417969 16.59980469 16.02539062 16.55664062 C14.84138672 16.51732422 13.65738281 16.47800781 12.4375 16.4375 C11.24962891 16.39431641 10.06175781 16.35113281 8.83789062 16.30664062 C5.89207803 16.20016547 2.94605498 16.09954319 0 16 C0 10.72 0 5.44 0 0 Z " fill="#FFFFFF" transform="translate(41,22)"/>
<path d="M0 0 C-0.33 25.08 -0.66 50.16 -1 76 C-7.27 76 -13.54 76 -20 76 C-20.1734535 68.17133827 -20.30026959 60.34380267 -20.38452148 52.51367188 C-20.41569648 49.85124622 -20.46734897 47.19147282 -20.52807617 44.52929688 C-20.61330214 40.69627679 -20.6527635 36.86504696 -20.68359375 33.03125 C-20.71972275 31.84760864 -20.75585175 30.66396729 -20.79307556 29.44445801 C-20.79582461 23.61816132 -20.55483891 19.89706443 -16.64599609 15.3984375 C-15.44869984 14.2465791 -14.23402415 13.11242101 -13 12 C-11.98035554 10.87636331 -10.97143525 9.7427581 -9.98046875 8.59375 C-9.05034821 7.56171611 -8.11937432 6.53045059 -7.1875 5.5 C-6.71119141 4.96375 -6.23488281 4.4275 -5.74414062 3.875 C-2.22995057 0 -2.22995057 0 0 0 Z " fill="#FFFFFF" transform="translate(243,34)"/>
<path d="M0 0 C6.27 0 12.54 0 19 0 C19.94758714 8.53574557 19.94758714 8.53574557 17.51611328 12.29296875 C15.45620758 14.4904723 13.31949739 16.50571173 11.0625 18.5 C9.57290953 19.88400891 8.08456357 21.26935886 6.59765625 22.65625 C5.93258057 23.25244141 5.26750488 23.84863281 4.58227539 24.46289062 C2.89711254 25.93083384 2.89711254 25.93083384 2 28 C1.34 28 0.68 28 0 28 C0 18.76 0 9.52 0 0 Z " fill="#FFFFFF" transform="translate(223,10)"/>
</svg>
