<?xml version="1.0" encoding="UTF-8"?>
<svg id="Layer_2" xmlns="http://www.w3.org/2000/svg" viewBox="0 0 311.07 190.66">
  <defs>
    <style>
      .cls-1 {
        fill: #fff;
      }
    </style>
  </defs>
  <g id="Layer_1-2" data-name="Layer_1">
    <path class="cls-1" d="M310.3,120.59c-.21-.74-.56-1.46-.85-2.17-.49-.88-.99-1.72-1.6-2.48-.61-.74-1.4-1.3-2.13-1.88-.73-.57-1.49-1.21-2.32-1.59-1.01-.44-2.08-.8-3.15-.95-.91-.16-1.85,0-2.8.03-.93.08-1.85.08-2.8.35-.79.21-1.48.51-2.25.86-.72.41-1.39,1.03-2.15,1.39-.95.42-1.96.44-2.84.81-.91.32-1.73.82-2.6,1.14-.89.28-1.87.34-2.83.6-.8.22-1.53.62-2.44.78-.81.23-1.67.5-2.53.7-.72.13-1.45.4-2.24.58-.64.12-1.37.15-2.04.28-1,.18-2.04.42-3.07.52-.92.06-1.8-.19-2.68-.19-.92,0-1.8-.01-2.75-.08-.88-.05-1.8-.16-2.68-.3-.88-.12-1.77-.44-2.68-.61-.88-.2-1.71-.51-2.65-.76-.88-.22-1.83-.31-2.68-.61-.92-.32-1.75-.73-2.6-1.1-.84-.36-1.79-.6-2.65-1.01-.81-.41-1.71-.77-2.53-1.24-.69-.38-1.31-.89-1.97-1.32-.52-.37-1.01-.91-1.6-1.29-.81-.61-1.88-.8-2.71-1.42-.76-.63-1.59-1.25-2.29-1.91-.76-.67-1.23-1.63-1.89-2.34-.71-.71-1.56-1.25-2.17-2.02-.64-.73-1.07-1.61-1.65-2.4-.57-.79-1.16-1.55-1.68-2.35-.52-.82-.85-1.7-1.28-2.55-.49-.85-.87-1.72-1.24-2.6-.36-.85-.55-1.82-.89-2.71-.27-.87-.88-1.7-1.11-2.63-.17-.73,0-1.52-.13-2.25-.15-1.04-.68-2.06-.77-3.12-.09-1.07-.28-2.16-.28-3.21s.03-2.16.12-3.22c.08-.91.75-1.74.89-2.66.15-.9.27-1.79.41-2.69.28-.9.32-1.83.61-2.71.28-.87.47-1.79.84-2.65.29-.87.53-1.77.92-2.62.4-.83,1.07-1.58,1.51-2.41.45-.83.95-1.62,1.49-2.44.39-.65.93-1.2,1.39-1.86.57-.82,1.19-1.62,1.79-2.38.64-.79,1.07-1.74,1.73-2.48.67-.76,1.39-1.43,2.09-2.13.72-.71,1.49-1.36,2.21-1.99.76-.68,1.64-1.12,2.47-1.7.79-.6,1.6-1.11,2.48-1.63.68-.44,1.25-1.12,1.92-1.48.69-.4,1.39-.88,2.15-1.22.71-.37,1.53-.58,2.25-.87.45-.2.88-.45,1.27-.73.28-.12.53-.22.83-.29.31-.06.6-.17.92-.32.51-.1,1-.16,1.52-.3.17-.05.39-.07.61-.13.39.09.79.21,1.12.13,0,0,.4.3.79.24,1.04-.18,2.01-.31,2.96-.48.67-.1,1.25-.73,1.76-1.15.31-.04.57-.07.83-.1.93-.11,1.83.05,2.71-.04.43-.06.85-.22,1.31-.37.43.05.81.11,1.25.09.55-.04,1.15-.21,1.67-.33.4,0,.76.07,1.12.04.31,0,.57-.02.85-.02.48.21,1.04.48,1.49.5.8,0,1.56,0,2.35.06.23.01.44.07.64.15l1.44.46c.85.07,1.79-.72,2.64-.96.09-.03.19-.03.28-.04h.17l2.44-.25c.12-.02.19-.02.2-.07.31-.06.53-.21.75-.34.71-.19,1.33-.35,1.95-.72.91-.61,1.63-1.47,2.39-2.28.61-.67,1.43-1.3,1.88-2.1.52-.81.79-1.77,1.09-2.66.11-.54.15-1.13.2-1.71.07-.24.12-.46.19-.69.09-1-.11-1.99-.2-2.93-.12-.95-.21-1.93-.56-2.83-.17-.52-.43-.97-.68-1.43,0-.48,0-.94-.21-1.29-.61-.91-1.59-1.61-2.41-2.35-.19-.2-.45-.3-.73-.41-.52-.38-1.09-.73-1.68-1.04-.79-.46-1.52-1.12-2.47-1.38-.69-.24-1.52-.45-2.32-.55-1.04-.11-2.16.11-3.2.06-.17-.05-.39-.07-.6-.08-.79-.22-1.59-.71-2.35-.72-.49-.04-.92.2-1.37.45-.55,0-1.12,0-1.64-.01-.97,0-1.95-.05-2.96,0-.93.04-1.95-.1-2.95,0-1,.05-1.97.54-3.01.66-.83.09-1.71.09-2.61.21-.76.1-1.52.4-2.32.56-.12,0-.21,0-.33.01-.31.05-.55.06-.88.08-.61-.03-1.28-.13-1.91-.04-.23.05-.47.08-.68.17-.43-.09-.89-.21-1.28-.15-.16.03-.45.2-.92.31-1.05.21-2.13.32-3.16.53-.57.11-1.09.46-1.64.79h-.03c-.61.18-1.21.43-1.79.68-.83.17-1.72.29-2.53.48-1,.23-1.95.94-2.97,1.16-1.04.23-2.25-.42-3.27-.19-1,.25-1.88,1.21-2.89,1.46-1,.26-2.24-.35-3.25-.09-1.03.23-1.79,1.48-2.83,1.73-1,.25-2.28-.53-3.31-.27-1.01.28-1.87,1.04-2.89,1.32-1,.28-2.2,0-3.2.26-1,.29-1.85,1.12-2.85,1.41-1.03.29-2.19.02-3.23.33-1.01.29-1.67,1.62-2.67,1.92-1,.3-2.32-.48-3.33-.17-1.03.31-1.65,1.75-2.67,2.05-.97.31-2.03.48-3.04.79-.97.33-2.03.43-3.04.77-1,.31-2.04.48-3.04.81-1,.32-2.04.5-3.04.83-.97.32-1.64,1.58-2.64,1.93-1.01.36-2.07.39-3.08.73-.97.36-2.09.31-3.07.67-1,.37-2,.63-2.95.99-1,.37-1.99.83-2.96,1.21-.96.36-1.88.86-2.85,1.25-.96.37-1.88.88-2.84,1.27-.99.39-1.8,1.11-2.8,1.51-.92.37-2.08.37-3.01.77-.79.32-1.52.9-2.35,1.23-.79.32-1.71.39-2.49.71-.79.35-1.83.14-2.6.51-.99.42-1.37,2.05-2.35,2.46-.76.36-1.92-.08-2.75.27-.72.37-1.79.24-2.55.59-.8.37-1.31,1.33-2.09,1.71-.76.34-1.47.97-2.25,1.35-.92.42-1.83.96-2.72,1.42-.35.15-.68.26-1.04.35-.21-.85-.47-.94-.65-2.06-.12-.62.21-.7.12-1.34-.16-.99-.75-1.87-1.13-2.75-.37-.88-.59-1.89-1.17-2.65-.59-.76-1.59-1.11-2.29-1.7-.81-.72-1.68-1.31-2.65-1.76-.81-.44-1.65-.74-2.59-.97-.85-.19-1.73-.32-2.72-.32-.79,0-1.52,0-2.31.16-.97.17-1.92.44-2.79.81-.89.39-1.63.94-2.39,1.51-.76.57-1.36,1.2-1.97,1.92-.72.83-1.6,1.5-2.08,2.48-.36.84-.49,1.79-.69,2.71-.21.89-.27,1.81-.27,2.75,0,.77-.21,1.55-.08,2.35.25,1.41.57,1.38.8,2.81.28,1.44-.08,1.53.16,3,.23,1.37.4,1.33.69,2.72.21,1.34.12,1.44.33,2.68-.55.12-1.15.22-1.57.5-.79.42-1.23,1.37-1.97,1.81-.89.51-2.16.35-3.08.86-.69.43-.93,1.72-1.67,2.15-.75.45-2.05-.1-2.8.33-.88.54-1.45,1.61-2.29,2.14-.73.44-1.11,1.48-1.83,1.94-.69.45-1.43.88-2.19,1.35-.71.44-1.95.04-2.68.51-.84.55-1.69,1.09-2.61,1.65-.67.45-1.15,1.27-1.88,1.74-.67.49-1.29,1.05-2.03,1.55-.67.49-1.4.95-2.11,1.42-.81.58-1.55,1.35-2.36,1.93-.67.48-1.71.48-2.43.97-.19-.81.15-1.25-.41-2.29-.61-1.17-.61-1.18-1.23-2.35-.64-1.21-1.28-.89-1.89-2.11-.67-1.27-.16-1.53-.8-2.81-.6-1.16-1.07-.93-1.65-2.13-.67-1.19-.09-1.46-.8-2.69-.64-1.25-.76-1.16-1.37-2.41q-.68-1.17-1.29-2.34c-.64-1.2-.61-1.23-1.25-2.41-.68-1.28-1.19-.99-1.84-2.25-.61-1.18-.25-1.35-.89-2.52-.65-1.21-.95-1.06-1.6-2.27-.67-1.27-.57-1.32-1.25-2.6-.61-1.2-.09-1.45-.71-2.6-.67-1.26-.76-1.2-1.37-2.43-.61-1.17-.73-1.11-1.36-2.25-.61-1.21-1.09-.97-1.71-2.16-.68-1.28-.01-1.63-.68-2.91-.61-1.19-1.01-.97-1.63-2.14-.68-1.24-.85-1.18-1.53-2.43-.61-1.18-.07-1.45-.68-2.63q-.64-1.25-1.32-2.49c-.6-1.17-.71-1.12-1.31-2.28-.68-1.27-1.13-1.02-1.77-2.29-.63-1.19-.29-1.38-.91-2.54-.55-1.11-1.03-.83-1.61-1.92-.65-1.2-.01-1.55-.59-2.76-.61-1.14-.56-1.17-1.16-2.32-.56-1.03-.96-.81-1.47-1.85-.65-1.24-.51-1.35-1.15-2.57-.65-1.2-.89-1.06-1.53-2.27-.49-.88-.16-1.06-.59-1.93-.33-.66-.4-.63-.73-1.29-.45-.85-1.07-1.67-1.68-2.38-.64-.74-1.32-1.47-2.08-2.03-.77-.54-1.89-.45-2.75-.81-.88-.36-1.56-1.35-2.44-1.52-.79-.14-1.64.53-2.44.53-.72,0-1.43-.14-2.21,0-.95.17-1.8.48-2.68.86-.91.38-2,.36-2.77.91-.72.57-1.48,1.27-2.12,1.99-.57.68-.93,1.66-1.36,2.5-.36.68-.88,1.35-1.15,2.09-.21.71.11,1.54-.03,2.29-.2,1.4-.72,1.32-.89,2.73-.17,1.43.25,1.46.04,2.88-.17,1.45-.64,1.41-.81,2.85-.17,1.37.59,1.44.37,2.81-.17,1.37-.2,1.37-.39,2.78-.17,1.4-.2,1.4-.39,2.83-.2,1.43-.2,1.4-.39,2.86-.17,1.34-.56,1.29-.71,2.66-.19,1.35-.24,1.34-.45,2.74-.17,1.39.28,1.46.13,2.88-.21,1.42-.05,1.45-.27,2.87-.17,1.36-.69,1.28-.89,2.63-.19,1.37-.36,1.36-.53,2.71q-.19,1.42-.36,2.82c-.12,1.45-.09,1.45-.27,2.88-.21,1.35-.03,1.37-.2,2.71-.17,1.39-.36,1.36-.55,2.73-.2,1.41-.23,1.41-.41,2.83-.2,1.44.53,1.53.35,2.98-.17,1.32-.51,1.31-.63,2.65-.19,1.4-.79,1.31-.96,2.7-.17,1.41.16,1.44-.05,2.86-.17,1.35-.15,1.35-.29,2.67-.2,1.37.01,1.38-.15,2.75q-.15,1.41-.35,2.8c-.17,1.42.07,1.44-.12,2.89-.17,1.33-.2,1.33-.37,2.68-.19,1.37-.29,1.37-.45,2.74-.2,1.42-.45,1.41-.63,2.82-.17,1.33.01,1.34-.17,2.67-.21,1.35.09,1.42-.01,2.77-.19,1.42-.36,1.4-.55,2.79-.19,1.33-.17,1.33-.35,2.65-.19,1.37-.6,1.3-.81,2.65-.17,1.42.16,1.45-.03,2.87-.17,1.31-.63,1.24-.8,2.54-.19,1.37.49,1.45.33,2.79-.2,1.42-.37,1.4-.56,2.82-.17,1.3-.24,1.29-.41,2.58-.19,1.37-.12,1.37-.29,2.73-.21,1.44.03,1.46-.12,2.89-.17,1.33-.75,1.25-.93,2.56-.17,1.4.08,1.44-.11,2.82-.15,1.29-.67,1.22-.84,2.49-.19,1.37.71,1.49.52,2.83-.17,1.43-.79,1.34-.96,2.79-.15,1.29-.48,1.28-.65,2.6-.17,1.42.73,1.54.55,2.93-.13,1.31-.36,1.27-.53,2.58-.17,1.43-.15,1.43-.32,2.82-.19,1.3-.05,1.33-.23,2.62-.19,1.42-.55,1.36-.72,2.79-.19,1.33-.67,1.27-.85,2.57-.17,1.22.16,1.26.01,2.48-.21,1.34.07,1.37-.08,2.73-.17,1.26-.21,1.26-.36,2.51-.15,1.17-.39,1.15-.56,2.34-.16,1.35,0,1.38-.15,2.76-.21,1.33-.24,1.33-.45,2.69,0,.23-.03.41-.08.57-.16.16-.31.33-.37.56-.08.23-.08.5,0,.77-.11.78.01.81-.11,1.57-.12.99.11,1.99.2,2.94.09.96.37,1.87.64,2.77.35.9.23,2.03.72,2.81.61.93,1.52,1.67,2.32,2.39.67.67,1.35,1.44,2.17,1.93.21.15.52.21.81.27.61.36,1.25.74,1.93.94.36.13.81.12,1.27.09.31.23.61.45.95.49,1.01.13,2.04-.49,3.01-.6.92-.1,1.99.18,2.89-.12.88-.31,1.57-1.14,2.39-1.62.63-.4,1.13-.83,1.68-1.31.61-.13,1.21-.23,1.52-.62.28-.27.28-.73.28-1.19.27-.35.55-.67.76-1.06.25-.35.45-.75.59-1.16.55-.25,1.16-.5,1.4-.94.52-.81.03-2.2.53-3.03.52-.78,1.73-1.13,2.32-1.91.51-.79,1.17-1.49,1.72-2.27.52-.79.05-2.28.6-3.09.52-.79,1.29-1.41,1.88-2.18.56-.79,1.64-1.18,2.21-1.96.57-.79,1.55-1.25,2.12-2.03.57-.78,1.03-1.64,1.64-2.39.57-.76.29-2.22.91-3,.6-.75,1.81-1.03,2.41-1.78.61-.75.88-1.79,1.48-2.55.65-.73,1.92-.93,2.53-1.69.65-.76.81-1.88,1.48-2.62.67-.73,1.45-1.33,2.12-2.04.64-.75,1.67-1.12,2.37-1.84.67-.72.65-2.06,1.32-2.77.69-.72,1.03-1.75,1.73-2.46.69-.72,1.91-.94,2.55-1.65.72-.71,1.43-1.42,2.12-2.12.71-.71,1.55-1.25,2.25-1.96.72-.69,1.05-1.78,1.77-2.49.71-.69,1.75-1.04,2.47-1.74.73-.69,1.73-1.09,2.49-1.76.69-.69,1.45-1.36,2.24-2,.71-.69,1.04-1.88,1.79-2.57.71-.66,1.95-.81,2.71-1.45.79-.69,1.15-1.75,1.91-2.41.15-.1.33-.22.49-.3.08.2.17.38.28.58.51.94.64,2.07,1.16,2.98.48.96.52,2.12,1.01,3.04.33.74,1.04,1.29,1.41,2.01.36.71.83,1.38,1.19,2.09.37.72.56,1.56.93,2.28.4.72,1.19,1.24,1.52,1.96.4.73.75,1.5,1.13,2.23.37.72.68,1.5,1.05,2.23.43.73.43,1.68.83,2.39.37.78,1.29,1.23,1.69,1.96.39.76.6,1.59.97,2.32.44.78.57,1.65.92,2.39.4.77.89,1.5,1.29,2.21.4.79,1.04,1.4,1.43,2.11.4.8.96,1.45,1.36,2.14.43.81.52,1.72.87,2.43.45.76.93,1.43,1.35,2.09.27.56.69.92.97,1.39.4.81.13,1.77.4,2.24.31.61.92.11,1.13.56.47.9.44,2.09,1.08,2.8.61.73,1.56,1.21,2.33,1.75.77.57,1.69.8,2.51,1.16,1.01.43,1.96,1.18,3.05,1.34.89.12,1.8-.43,2.68-.52l2.56-.02c.09-.05.24-.05.33-.08.73-.22,1.36-.78,2.09-1.16.85-.47,1.67-.96,2.36-1.6.73-.62,1.23-1.4,1.77-2.17.57-.78,1.03-1.5,1.39-2.36.45-1.01.91-1.94,1.08-3.04.12-.91.6-1.86.55-2.77-.12-.93-.32-1.94-.56-2.84-.23-.74-.56-1.54-.93-2.25-.67-1.23-.88-1.12-1.55-2.37-.65-1.28-1.08-1.03-1.77-2.31-.68-1.26-.32-1.47-1-2.75-.67-1.21-.45-1.33-1.11-2.54-.64-1.23-.57-1.26-1.25-2.49-.64-1.27-.85-1.15-1.51-2.41-.69-1.28-.48-1.38-1.16-2.68-.61-1.21-1.04-.99-1.68-2.2-.64-1.2-.28-1.43-.95-2.64-.68-1.25-.68-1.23-1.32-2.49-.68-1.27-.8-1.23-1.48-2.5-.61-1.21-.43-1.28-1.13-2.49-.61-1.22-.4-1.34-1.04-2.57-.65-1.26-1.36-.88-2.03-2.14-.67-1.28-.52-1.33-1.23-2.62-.64-1.2-.43-1.31-1.08-2.49q-.64-1.24-1.31-2.47c-.63-1.25-.75-1.21-1.39-2.45-.64-1.29-.21-1.55-.87-2.84-.08-.06-.12-.12-.15-.17.57-.1,1.12-.11,1.49-.4.75-.51,1.05-1.62,1.75-2.12.76-.53,1.8-.55,2.53-1.05.72-.52,1.44-1.07,2.15-1.61.76-.48,1.49-.96,2.23-1.47.79-.49,1.01-1.66,1.81-2.15.69-.5,1.57-.89,2.31-1.35.73-.5,1.85-.36,2.64-.86.76-.47.97-1.82,1.76-2.29.73-.49,1.65-.75,2.37-1.25.76-.46,1.55-.93,2.33-1.41.64-.38,1.63-.32,2.35-.57.07.54.07.9.19,1.87.29,1.37.61,1.29.89,2.65.25,1.41.13,1.44.37,2.85.32,1.48.53,1.42.77,2.9.25,1.37-.17,1.45.05,2.83q.31,1.43.55,2.88c.25,1.34.56,1.27.81,2.62.25,1.41-.09,1.47.19,2.87.25,1.49.61,1.42.89,2.91.23,1.4.19,1.4.44,2.78.31,1.49-.2,1.56.11,3.05.21,1.36.83,1.24,1.07,2.64.25,1.25.19,1.26.41,2.55.21,1.34.09,1.35.4,2.72.21,1.48.21,1.49.47,2.97.21,1.37,0,1.44.29,2.8.21,1.28.52,1.21.73,2.51.23,1.43.25,1.43.53,2.85.21,1.32-.15,1.38.11,2.7.21,1.27.52,1.2.73,2.42.31,1.45.25,1.45.52,2.89.2,1.08-.11,1.13.11,2.22.23,1.31.36,1.26.59,2.58q.25,1.27.51,2.53c.09.62,0,.64.09,1.25.19,1.01.79,1.82,1.2,2.72.37.9.71,1.73,1.28,2.51.59.74,1.29,1.33,2.03,1.95.83.7,1.52,1.51,2.53,1.98.83.39,1.73.71,2.64.9.92.24,1.84.18,2.8.18.77,0,1.59.31,2.41.17.95-.19,1.83-.79,2.71-1.17.85-.38,1.64-.92,2.4-1.48.76-.57,1.79-.91,2.4-1.58.69-.85.84-2.06,1.33-3.04.39-.84.91-1.62,1.13-2.53.19-.89.61-1.81.61-2.76.03-.77-.04-1.63-.2-2.4-.25-1.43-.37-1.42-.63-2.85-.24-1.46-.55-1.41-.83-2.88-.25-1.38-.07-1.41-.35-2.8-.24-1.4-.35-1.38-.63-2.81-.24-1.46-.19-1.48-.43-2.92-.25-1.37-.04-1.41-.29-2.77-.25-1.41-.55-1.34-.8-2.76-.24-1.43.16-1.51-.13-2.97-.24-1.37-.59-1.31-.83-2.65-.28-1.4.05-1.43-.23-2.86-.24-1.44-.21-1.44-.47-2.91-.24-1.34-.47-1.29-.68-2.66-.25-1.38-.52-1.35-.77-2.77-.25-1.44-.31-1.43-.61-2.87-.23-1.35-.01-1.4-.23-2.73-.29-1.44-.49-1.4-.8-2.79-.25-1.49-.07-1.51-.32-3-.28-1.37,0-1.43-.23-2.8-.28-1.43-.73-1.35-.99-2.78-.21-1.35-.03-1.38-.31-2.73-.25-1.41-.31-1.4-.56-2.78-.29-1.51.11-1.59-.17-3.06-.21-1.4-.16-1.4-.43-2.8-.25-1.46-.23-1.46-.47-2.95-.29-1.37-.61-1.29-.91-2.69-.21-1.26-.24-1.26-.47-2.53-.05-.42-.09-.71-.15-.94.31-.17.57-.34.88-.49.76-.4,1.43-1.22,2.19-1.65.88-.4,1.52-1.13,2.33-1.55.85-.4,1.61-.9,2.44-1.3.85-.38,2.16.33,3.04-.06.81-.41,1.24-1.72,2.05-2.11.83-.37,1.89-.23,2.75-.62.88-.37,1.73-.65,2.57-1.04.83-.37,1.52-1.07,2.4-1.44.85-.38,1.49-1.23,2.31-1.59.85-.36,2.05,0,2.89-.39.85-.36,1.83-.37,2.68-.74.88-.37,1.31-1.82,2.16-2.15.83-.37,1.79-.53,2.64-.9.85-.33,1.64-.92,2.49-1.25.85-.34,1.83-.49,2.68-.82.91-.34,1.81-.43,2.73-.76.85-.32,2.04.11,2.88-.21.89-.3,1.61-1.04,2.51-1.36.84-.31,1.57-1.13,2.43-1.44.88-.31,1.92-.25,2.8-.57.88-.29,1.95-.04,2.87-.35.87-.29,1.41-1.59,2.31-1.89.51-.14,1-.16,1.55-.16v.03c-.49.88-1.31,1.58-1.69,2.46-.33.9-.61,1.86-.91,2.77-.36.9-.36,1.9-.63,2.83-.33.92-.88,1.76-1.12,2.69-.28.9-.23,1.91-.44,2.83-.21.93-.55,1.83-.72,2.77-.21.93-.64,1.83-.76,2.78-.11.96.32,1.95.24,2.9-.09.78-.33,1.56-.36,2.35-.07.77-.24,1.55-.24,2.34-.07.77.31,1.56.31,2.37.04.79-.01,1.55.04,2.34.07.8.01,1.6.11,2.38.09.79.09,1.58.23,2.34.05.73.45,1.4.57,2.1.17.93.25,1.85.47,2.75.23.93.01,1.94.27,2.85.24.88.64,1.75.96,2.63.27.88.67,1.72,1.01,2.6.31.85.76,1.67,1.13,2.53.4.84.59,1.76,1.01,2.59.4.84.76,1.69,1.19,2.51.44.82,1.05,1.56,1.51,2.35.49.8.87,1.66,1.37,2.43.47.76.93,1.6,1.48,2.35.55.75,1.47,1.21,2.08,1.94.56.73.76,1.74,1.37,2.44.61.71,1.47,1.2,2.11,1.86.65.7,1.13,1.52,1.8,2.19.65.65,1.47,1.17,2.17,1.82.71.63,1.56,1.05,2.29,1.66.61.5.88,1.4,1.47,1.9.64.5,1.53.64,2.13,1.09.52.38,1.08.74,1.56,1.09.8.58,1.52,1.28,2.41,1.79.83.54,1.68,1.05,2.51,1.54.85.51,1.64,1.12,2.49,1.56.92.47,1.93.66,2.8,1.08.87.41,1.75.85,2.65,1.24.89.39,1.75.91,2.67,1.25.91.33,1.8.88,2.68,1.19.95.3,1.88.49,2.84.78.97.25,1.92.36,2.85.57.92.22,1.92.13,2.89.32.95.18,1.84.89,2.79,1.04.93.13,1.93-.09,2.92.02.91.07,1.88.05,2.85.09.8.05,1.6.19,2.36.21.79.01,1.6.18,2.4.17.79-.05,1.61-.16,2.37-.19.81-.05,1.55-.3,2.4-.36.72-.09,1.55.05,2.35-.06.79-.11,1.49-.31,2.24-.43,1.01-.19,2.01-.03,2.93-.21,1.12-.22,2.15-.68,3.23-.9,1.03-.21,2-.71,3-.94,1.01-.28,2.11-.13,3.04-.41.99-.25,1.8-.86,2.71-1.17.95-.28,1.83-.55,2.75-.9.88-.3,1.73-.56,2.61-.92.88-.36,1.6-.96,2.43-1.33.73-.34,1.52-.48,2.21-.83.61-.29,1.13-.7,1.75-.99.88-.44,1.91-.69,2.63-1.32.73-.61,1.44-1.33,1.99-2.09.57-.74,1.08-1.57,1.48-2.42.41-1.01.63-2.12.81-3.21.12-.91.41-1.87.32-2.8-.04-.93-.49-1.81-.75-2.73"/>
  </g>
</svg>