<?xml version="1.0" standalone="no"?>
<!DOCTYPE svg PUBLIC "-//W3C//DTD SVG 20010904//EN"
 "http://www.w3.org/TR/2001/REC-SVG-20010904/DTD/svg10.dtd">
<svg version="1.0" xmlns="http://www.w3.org/2000/svg"
 width="250.000000pt" height="79.000000pt" viewBox="0 0 250.000000 79.000000"
 preserveAspectRatio="xMidYMid meet">

<g transform="translate(0.000000,79.000000) scale(0.100000,-0.100000)"
fill="#000000" stroke="none">
<path d="M147 758 c-8 -13 -45 -180 -82 -371 l-68 -348 20 -21 c30 -30 66 -17
101 35 32 45 167 178 200 196 17 9 24 1 65 -90 26 -54 53 -102 62 -105 8 -4
26 -3 40 0 32 8 42 46 22 89 -52 113 -78 180 -70 187 4 4 29 20 56 35 l47 27
1 -29 c0 -15 8 -84 17 -153 16 -114 19 -125 41 -137 28 -13 55 -4 70 25 5 10
4 56 -4 117 -7 55 -15 127 -19 161 l-5 61 82 31 c45 17 100 34 121 38 36 6 39
5 31 -12 -5 -10 -10 -53 -13 -95 -4 -82 9 -123 63 -187 41 -49 137 -92 205
-92 71 0 157 25 170 50 24 44 -31 96 -77 72 -10 -6 -38 -13 -63 -17 -38 -5
-54 -2 -100 22 -109 56 -133 171 -52 256 42 44 76 58 150 58 74 1 102 16 102
55 0 34 -36 54 -100 54 -92 0 -309 -46 -448 -95 l-74 -26 -20 26 c-39 50 -105
21 -95 -42 5 -31 3 -35 -33 -52 -21 -10 -54 -28 -72 -39 l-34 -21 -68 157
c-87 198 -89 202 -126 202 -20 0 -34 -7 -43 -22z m108 -306 c20 -46 33 -88 29
-92 -5 -4 -38 -32 -73 -61 l-64 -52 7 34 c3 19 16 87 28 152 12 64 25 114 29
110 3 -5 23 -46 44 -91z"/>
</g>
</svg>
