<?xml version="1.0" encoding="UTF-8"?>
<svg version="1.1" xmlns="http://www.w3.org/2000/svg" width="400" height="150">
<path d="M0 0 C2.32739258 0.20751953 2.32739258 0.20751953 5 1 C6.51049805 3.01513672 6.51049805 3.01513672 7.76171875 5.6796875 C8.23633545 6.66275879 8.71095215 7.64583008 9.19995117 8.65869141 C9.69084229 9.72007324 10.1817334 10.78145508 10.6875 11.875 C11.73747517 14.06871861 12.78958934 16.2614146 13.84375 18.453125 C14.36839844 19.55333984 14.89304688 20.65355469 15.43359375 21.78710938 C18.10255079 27.26146639 21.01564577 32.6057622 23.96557617 37.93310547 C24.35205322 38.64869629 24.73853027 39.36428711 25.13671875 40.1015625 C25.47405029 40.71338379 25.81138184 41.32520508 26.15893555 41.95556641 C27 44 27 44 28 50 C21.07 50 14.14 50 7 50 C4.69 45.38 2.38 40.76 0 36 C-0.144375 37.753125 -0.28875 39.50625 -0.4375 41.3125 C-0.69685358 44.46179353 -0.99740493 46.99221479 -2 50 C-8.6 50 -15.2 50 -22 50 C-22 44.38387969 -21.92140167 43.11081545 -19.375 38.6015625 C-18.56289063 37.14169922 -18.56289063 37.14169922 -17.734375 35.65234375 C-17.16203125 34.65332031 -16.5896875 33.65429688 -16 32.625 C-15.14148438 31.09166016 -15.14148438 31.09166016 -14.265625 29.52734375 C-12.85494465 27.01163046 -11.43288866 24.50310914 -10 22 C-6.125 22.875 -6.125 22.875 -5 24 C-4.97421875 23.10539062 -4.9484375 22.21078125 -4.921875 21.2890625 C-4.5531813 13.42918313 -3.50234789 7.06985575 0 0 Z M-2 31 C-1 33 -1 33 -1 33 Z " fill="#FFFFFF" transform="translate(22,46)"/>
<path d="M0 0 C5.28 0 10.56 0 16 0 C19.3 5.94 22.6 11.88 26 18 C26.33 12.06 26.66 6.12 27 0 C30.3 0 33.6 0 37 0 C37 13.86 37 27.72 37 42 C33.04 42 29.08 42 25 42 C20.71 33.75 16.42 25.5 12 17 C11.67 25.25 11.34 33.5 11 42 C7.37 42 3.74 42 0 42 C0 28.14 0 14.28 0 0 Z " fill="#FFFFFF" transform="translate(361,54)"/>
<path d="M0 0 C4.95 0 9.9 0 15 0 C18.86651312 10.73189046 18.86651312 10.73189046 20.42944336 15.08056641 C23.05345614 22.38229217 23.05345614 22.38229217 25.7109375 29.671875 C26.15695313 30.89390625 26.60296875 32.1159375 27.0625 33.375 C27.44535156 34.41398437 27.82820313 35.45296875 28.22265625 36.5234375 C29 39 29 39 29 42 C24.71 42 20.42 42 16 42 C15.34 40.02 14.68 38.04 14 36 C10.04 36 6.08 36 2 36 C1.34 37.98 0.68 39.96 0 42 C-4.29 42 -8.58 42 -13 42 C-12.42147831 36.9089274 -11.29178998 32.52200224 -9.53125 27.67578125 C-9.29088013 27.00709518 -9.05051025 26.33840912 -8.80285645 25.64945984 C-8.04151449 23.53480816 -7.27121705 21.42356785 -6.5 19.3125 C-5.7304711 17.19015182 -4.96286021 15.06713166 -4.19714355 12.94340515 C-3.50416363 11.02387572 -2.80593309 9.10624424 -2.10742188 7.1887207 C-0.91100269 3.89664318 -0.91100269 3.89664318 0 0 Z M8 13 C7.51801537 14.24891614 7.03954323 15.49918808 6.5625 16.75 C6.29566406 17.44609375 6.02882812 18.1421875 5.75390625 18.859375 C5.03853307 20.89059003 4.48634348 22.9035291 4 25 C6.90073181 25.67801034 6.90073181 25.67801034 10 26 C10.66 25.34 11.32 24.68 12 24 C11.01 20.37 10.02 16.74 9 13 C8.67 13 8.34 13 8 13 Z " fill="#FFFFFF" transform="translate(184,54)"/>
<path d="M0 0 C4.95 0 9.9 0 15 0 C18.81009937 10.133243 22.50100021 20.29576755 25.9375 30.5625 C26.24373291 31.47217529 26.54996582 32.38185059 26.86547852 33.3190918 C27.14576904 34.16383057 27.42605957 35.00856934 27.71484375 35.87890625 C27.96355225 36.6272876 28.21226074 37.37566895 28.46850586 38.14672852 C29 40 29 40 29 42 C24.71 42 20.42 42 16 42 C15.34 40.02 14.68 38.04 14 36 C10.04 36 6.08 36 2 36 C1.01 37.98 0.02 39.96 -1 42 C-4.96 42 -8.92 42 -13 42 C-12.39969594 36.57860112 -11.08850043 31.79435998 -9.27734375 26.66015625 C-9.01240616 25.89319931 -8.74746857 25.12624237 -8.47450256 24.33604431 C-7.63474324 21.90943157 -6.7862807 19.48597007 -5.9375 17.0625 C-5.36335241 15.40840429 -4.78977887 13.75410921 -4.21679688 12.09960938 C-2.81782552 8.0640704 -1.4110456 4.03133221 0 0 Z M7 13 C6.47212358 14.97729981 5.95287097 16.95690392 5.4375 18.9375 C5.14746094 20.03964844 4.85742188 21.14179687 4.55859375 22.27734375 C4.37425781 23.17582031 4.18992187 24.07429688 4 25 C4.33 25.33 4.66 25.66 5 26 C7.33944736 25.71269945 9.6739143 25.38063221 12 25 C11.55149342 23.18504338 11.09090429 21.37306866 10.625 19.5625 C10.24214844 18.04849609 10.24214844 18.04849609 9.8515625 16.50390625 C9.27426046 13.84429676 9.27426046 13.84429676 7 13 Z " fill="#FFFFFF" transform="translate(328,54)"/>
<path d="M0 0 C4.62 0 9.24 0 14 0 C14.43570313 1.1859375 14.87140625 2.371875 15.3203125 3.59375 C15.60567871 4.36944336 15.89104492 5.14513672 16.18505859 5.94433594 C16.81636999 7.66084704 17.44689252 9.37764847 18.07666016 11.09472656 C19.61043149 15.26763437 21.15791599 19.43307932 22.765625 23.578125 C23.03745605 24.28388672 23.30928711 24.98964844 23.58935547 25.71679688 C24.09793115 27.03296165 24.61221788 28.34693979 25.13330078 29.65820312 C26.73139171 33.81168476 27.51590196 37.60934332 28 42 C24.04 42 20.08 42 16 42 C15.01 40.02 14.02 38.04 13 36 C12.22914062 36.01160156 11.45828125 36.02320313 10.6640625 36.03515625 C9.15972656 36.04869141 9.15972656 36.04869141 7.625 36.0625 C6.62726563 36.07410156 5.62953125 36.08570313 4.6015625 36.09765625 C2 36 2 36 0 35 C-0.33 37.31 -0.66 39.62 -1 42 C-5.29 42 -9.58 42 -14 42 C-11.88740076 31.05289485 -8.15554002 20.52381055 -3.9140625 10.23046875 C-2.52862426 6.84976261 -1.26885977 3.42592138 0 0 Z M7 13 C6.51801537 14.24891614 6.03954323 15.49918808 5.5625 16.75 C5.29566406 17.44609375 5.02882813 18.1421875 4.75390625 18.859375 C4.03853307 20.89059003 3.48634348 22.9035291 3 25 C5.90073181 25.67801034 5.90073181 25.67801034 9 26 C9.66 25.34 10.32 24.68 11 24 C10.01 20.37 9.02 16.74 8 13 C7.67 13 7.34 13 7 13 Z " fill="#FFFFFF" transform="translate(81,54)"/>
<path d="M0 0 C0 3.63 0 7.26 0 11 C-0.95261719 10.7834375 -1.90523438 10.566875 -2.88671875 10.34375 C-4.76810547 9.92609375 -4.76810547 9.92609375 -6.6875 9.5 C-7.92886719 9.2215625 -9.17023438 8.943125 -10.44921875 8.65625 C-13.42398218 8.10645874 -15.99368602 7.86204295 -19 8 C-19 9.32 -19 10.64 -19 12 C-18.3709375 12.09796875 -17.741875 12.1959375 -17.09375 12.296875 C-10.55985996 13.43833772 -3.97049826 14.78939219 0.69140625 19.828125 C3.01161364 23.67897666 2.7504924 27.66078939 2 32 C0.59825176 34.63736336 -0.73688868 35.95242309 -3 38 C-3.66 38 -4.32 38 -5 38 C-5 38.66 -5 39.32 -5 40 C-8.3956697 40.08745946 -11.79104773 40.14054444 -15.1875 40.1875 C-16.14720703 40.21263672 -17.10691406 40.23777344 -18.09570312 40.26367188 C-22.14295916 40.30568491 -25.33097584 40.24508806 -29.15625 38.84375 C-31 37 -31 37 -31.48828125 34.30078125 C-31.43027344 33.31464844 -31.37226563 32.32851562 -31.3125 31.3125 C-31.26738281 30.31863281 -31.22226563 29.32476562 -31.17578125 28.30078125 C-31.11777344 27.54152344 -31.05976563 26.78226563 -31 26 C-28.1351798 26.5417292 -25.47182872 27.16941343 -22.6875 28.0625 C-18.54963612 29.11449929 -15.24686823 29.14901292 -11 29 C-11 28.01 -11 27.02 -11 26 C-11.88042969 25.76925781 -12.76085937 25.53851563 -13.66796875 25.30078125 C-22.12958142 22.92476792 -26.13077783 21.30383326 -31 14 C-31.52387626 10.07092807 -31.80380769 7.51896012 -29.9375 3.9921875 C-27.03145171 0.21748347 -24.18870279 -2.00123188 -19.34765625 -2.859375 C-12.44878272 -3.27261867 -6.41507209 -2.56602884 0 0 Z " fill="#FFFFFF" transform="translate(287,56)"/>
<path d="M0 0 C0 3.63 0 7.26 0 11 C-0.86882812 10.7834375 -1.73765625 10.566875 -2.6328125 10.34375 C-3.78523438 10.0653125 -4.93765625 9.786875 -6.125 9.5 C-7.26195312 9.2215625 -8.39890625 8.943125 -9.5703125 8.65625 C-12.81466698 8.03546235 -15.70814457 7.87993232 -19 8 C-18.67 8.99 -18.34 9.98 -18 11 C-15.41343802 12.11118513 -15.41343802 12.11118513 -12.3125 12.9375 C-6.83143304 14.65155542 -2.27973934 16.09851357 1.375 20.75 C2.66138767 25.38099562 2.71891963 29.41837681 0.75 33.75 C-0.11625 34.86375 -0.11625 34.86375 -1 36 C-1.48082031 36.69738281 -1.96164063 37.39476562 -2.45703125 38.11328125 C-6.48558303 41.10220677 -10.55956197 40.54057844 -15.4375 40.4375 C-16.37916016 40.44458984 -17.32082031 40.45167969 -18.29101562 40.45898438 C-27.56845677 40.37387024 -27.56845677 40.37387024 -31 37 C-31.48828125 34.30078125 -31.48828125 34.30078125 -31.3125 31.3125 C-31.26738281 30.31863281 -31.22226563 29.32476562 -31.17578125 28.30078125 C-31.11777344 27.54152344 -31.05976563 26.78226563 -31 26 C-28.1351798 26.5417292 -25.47182872 27.16941343 -22.6875 28.0625 C-18.54963612 29.11449929 -15.24686823 29.14901292 -11 29 C-11 28.01 -11 27.02 -11 26 C-11.88042969 25.75765625 -12.76085937 25.5153125 -13.66796875 25.265625 C-15.41013672 24.76289062 -15.41013672 24.76289062 -17.1875 24.25 C-18.33605469 23.92515625 -19.48460937 23.6003125 -20.66796875 23.265625 C-24.72595703 21.72425548 -27.69638935 19.73814753 -30.3125 16.25 C-31.37583342 12.76999972 -31.64461977 9.55912405 -31 6 C-28.11298958 1.06414347 -25.08659237 -1.04077353 -19.60546875 -2.6015625 C-12.68352829 -3.66009013 -6.43553055 -2.57421222 0 0 Z " fill="#FFFFFF" transform="translate(248,56)"/>
<path d="M0 0 C10.56 0 21.12 0 32 0 C32 3.3 32 6.6 32 10 C28.37 10 24.74 10 21 10 C21.33 20.56 21.66 31.12 22 42 C18.37 42 14.74 42 11 42 C11 31.44 11 20.88 11 10 C7.37 10 3.74 10 0 10 C0 6.7 0 3.4 0 0 Z " fill="#FFFFFF" transform="translate(107,54)"/>
<path d="M0 0 C3.63 0 7.26 0 11 0 C11 10.56 11 21.12 11 32 C15.29 32 19.58 32 24 32 C23.01 35.3 22.02 38.6 21 42 C14.07 42 7.14 42 0 42 C0 28.14 0 14.28 0 0 Z " fill="#FFFFFF" transform="translate(145,54)"/>
<path d="M0 0 C3.63 0 7.26 0 11 0 C11 13.86 11 27.72 11 42 C7.37 42 3.74 42 0 42 C0 28.14 0 14.28 0 0 Z " fill="#FFFFFF" transform="translate(298,54)"/>
</svg>
