<svg width="17" height="17" viewBox="0 0 17 17" fill="none" xmlns="http://www.w3.org/2000/svg">
<path d="M2.125 2.65625C2.125 1.95177 2.40486 1.27614 2.903 0.777998C3.40114 0.279854 4.07677 0 4.78125 0L14.0781 0C14.2895 0 14.4922 0.0839562 14.6416 0.233399C14.791 0.382842 14.875 0.585531 14.875 0.796875V14.0781C14.875 14.2895 14.791 14.4922 14.6416 14.6416C14.4922 14.791 14.2895 14.875 14.0781 14.875H11.4219C11.2105 14.875 11.0078 14.791 10.8584 14.6416C10.709 14.4922 10.625 14.2895 10.625 14.0781C10.625 13.8668 10.709 13.6641 10.8584 13.5146C11.0078 13.3652 11.2105 13.2812 11.4219 13.2812H13.2813V11.1562H4.78125C4.57203 11.1563 4.36747 11.2181 4.19323 11.3339C4.01898 11.4497 3.88282 11.6144 3.8018 11.8073C3.72078 12.0002 3.69852 12.2127 3.7378 12.4182C3.77709 12.6238 3.87617 12.8131 4.02263 12.9625C4.09588 13.0373 4.15368 13.1258 4.19274 13.2229C4.2318 13.32 4.25134 13.4239 4.25026 13.5286C4.24917 13.6333 4.22748 13.7367 4.18642 13.833C4.14535 13.9293 4.08573 14.0166 4.01094 14.0898C3.93615 14.1631 3.84767 14.2209 3.75054 14.2599C3.65341 14.299 3.54954 14.3185 3.44486 14.3174C3.34018 14.3164 3.23674 14.2947 3.14044 14.2536C3.04415 14.2125 2.95688 14.1529 2.88363 14.0781C2.3967 13.5818 2.12425 12.914 2.125 12.2188V2.65625ZM13.2813 1.59375H4.78125C4.49946 1.59375 4.22921 1.70569 4.02995 1.90495C3.83069 2.10421 3.71875 2.37446 3.71875 2.65625V9.7835C4.0538 9.63709 4.41561 9.56183 4.78125 9.5625H13.2813V1.59375ZM5.3125 13.0156C5.3125 12.9452 5.34049 12.8776 5.3903 12.8278C5.44012 12.778 5.50768 12.75 5.57813 12.75H9.29688C9.36732 12.75 9.43489 12.778 9.4847 12.8278C9.53452 12.8776 9.5625 12.9452 9.5625 13.0156V16.4688C9.5625 16.5181 9.54876 16.5664 9.52283 16.6084C9.4969 16.6504 9.45979 16.6843 9.41567 16.7063C9.37155 16.7284 9.32215 16.7377 9.27302 16.7333C9.22389 16.7289 9.17697 16.7108 9.1375 16.6812L7.59688 15.5263C7.55097 15.4917 7.49502 15.4729 7.4375 15.4729C7.37999 15.4729 7.32404 15.4917 7.27813 15.5263L5.7375 16.6812C5.69804 16.7108 5.65111 16.7289 5.60198 16.7333C5.55285 16.7377 5.50346 16.7284 5.45934 16.7063C5.41521 16.6843 5.37811 16.6504 5.35217 16.6084C5.32624 16.5664 5.3125 16.5181 5.3125 16.4688V13.0156Z" fill="#7A8193"/>
</svg>
