<?xml version="1.0" encoding="UTF-8"?>
<svg version="1.1" xmlns="http://www.w3.org/2000/svg" width="400" height="150">
<path d="M0 0 C1.02931641 -0.03287109 2.05863281 -0.06574219 3.11914062 -0.09960938 C11.24995298 -0.15618049 18.05977723 1.58547698 24.13208008 7.25219727 C29.51826164 13.08814316 30.6593413 18.54481402 30.49609375 26.37109375 C29.76385106 33.64717618 26.44359465 39.12581746 21.125 44.0546875 C17.85735758 46.38683552 15.17289327 46.97253745 11.1875 47.4375 C9.7025 46.4475 9.7025 46.4475 8.1875 45.4375 C8.62894932 41.35409378 9.74459821 37.91244196 11.25 34.125 C13.64855492 27.68216634 14.2994856 22.59788013 12 16.0625 C9.90160041 13.02343853 8.61890129 11.81006052 5.1875 10.4375 C-3.0810674 9.45648353 -10.12869361 12.34142674 -16.875 17.0625 C-32.83206599 30.00152936 -40.33704691 47.40034195 -42.8125 67.4375 C-43.66456896 79.68351432 -42.18561318 94.57214569 -34.2109375 104.4140625 C-27.97866109 110.19101278 -20.99071679 112.05165835 -12.61328125 111.78515625 C-1.61988399 110.4205644 7.08807497 103.4948024 14.109375 95.3125 C19.87584837 87.33482256 24.19485902 78.21281252 27.75 69.0625 C32.04910109 58.36610173 39.13061671 49.65034214 49.40625 44.27734375 C54.4507985 42.22577561 58.67240291 42.19880024 63.9453125 43.48828125 C67.56705621 45.02152815 69.06367599 47.18096985 71.1875 50.4375 C72.01894531 49.80521484 72.01894531 49.80521484 72.8671875 49.16015625 C73.59164062 48.61230469 74.31609375 48.06445312 75.0625 47.5 C75.78179687 46.95472656 76.50109375 46.40945312 77.2421875 45.84765625 C81.06849789 43.07396538 84.57060752 42.94754406 89.1875 43.4375 C91.25 44.4375 91.25 44.4375 92.1875 46.4375 C91.71628074 51.70716184 90.74430851 56.60733991 89.375 61.7265625 C89.01780986 63.0949427 88.66105311 64.46343609 88.3046875 65.83203125 C87.75027246 67.9391007 87.19220983 70.04499991 86.62597656 72.14892578 C83.81511715 82.6390136 82.1875 92.51095988 82.1875 103.4375 C87.45509547 102.48933282 90.36020337 101.11330364 93.65234375 96.85546875 C102.67405191 82.64570449 107.37591236 66.31964315 108.4375 49.6328125 C109.1875 46.4375 109.1875 46.4375 111.53125 44.5234375 C115.05901459 43.08120433 117.40880308 42.89768615 121.1875 43.4375 C124.31242459 45.4754943 125.84331765 47.04403953 126.75 50.71484375 C127.41446294 56.10529936 127.07745177 61.09778941 126.1875 66.4375 C126.89712891 65.40302734 126.89712891 65.40302734 127.62109375 64.34765625 C141.43769524 44.71353834 141.43769524 44.71353834 153.1875 42.4375 C157.13225056 42.94650007 159.27780594 43.79825553 162.5 46.0625 C167.82164746 53.55222606 165.96642551 61.98256267 164.55371094 70.48486328 C163.8565958 74.2018812 162.84083916 77.82922936 161.8515625 81.4765625 C160.46100474 87.67681416 160.1875 94.09495257 160.1875 100.4375 C167.37717658 98.59828041 171.24816462 94.17166433 174.92578125 87.9765625 C179.72667231 78.31532663 181.75367394 68.64224732 182.6328125 57.99609375 C183.46272721 52.67178178 185.20662579 49.41837421 189 45.625 C192.34405577 43.33005977 194.16351344 42.52311674 198.1875 42.4375 C199.87036689 43.06214491 201.54047102 43.72369486 203.1875 44.4375 C203.17702637 45.10467041 203.16655273 45.77184082 203.15576172 46.45922852 C202.98998087 58.7385531 203.00834475 70.94469695 204.0625 83.1875 C204.14097168 84.13181885 204.21944336 85.0761377 204.30029297 86.04907227 C204.74845163 90.77968375 205.43001943 94.97733922 207.1875 99.4375 C214.84561743 96.95872264 217.88110912 90.03469802 221.4140625 83.21875 C223.39114044 79.31649728 225.30203265 75.38473814 227.1875 71.4375 C226.69096924 71.07994629 226.19443848 70.72239258 225.68286133 70.35400391 C220.25711711 66.33915051 217.81208483 61.94545225 216.1875 55.4375 C215.13333101 48.34087785 216.45588375 42.54817256 220.1875 36.4375 C224.21834759 31.70125408 226.8881394 29.66001877 233.0625 29.0625 C237.38666463 29.18351207 239.91179454 30.55175947 243.1875 33.4375 C247.16807632 41.3577563 245.74596388 50.44731469 243.25 58.625 C242.34075086 61.32015784 241.45876771 63.89496459 240.1875 66.4375 C250.11831687 64.92873644 255.05703984 60.94156073 261.44921875 53.4296875 C266.76484194 47.33762496 271.98699862 43.53924675 280.1875 42.4375 C285.20863157 42.62847806 288.31456721 43.71005601 292.1875 46.9375 C294.1875 49.4375 294.1875 49.4375 295.1875 51.4375 C295.74179687 50.94378906 296.29609375 50.45007812 296.8671875 49.94140625 C297.59164063 49.30074219 298.31609375 48.66007812 299.0625 48 C299.78179687 47.36191406 300.50109375 46.72382812 301.2421875 46.06640625 C304.51180286 43.32859579 306.98443967 43.24103037 311.21484375 43.01171875 C313.1875 43.4375 313.1875 43.4375 314.84985352 45.18066406 C316.4961747 47.95828644 316.32860555 48.88812379 315.5625 51.97265625 C315.35238281 52.85195801 315.14226562 53.73125977 314.92578125 54.63720703 C314.68214844 55.56130371 314.43851562 56.48540039 314.1875 57.4375 C313.95417969 58.35772949 313.72085937 59.27795898 313.48046875 60.22607422 C312.48475801 64.08711565 311.44254111 67.93500936 310.3984375 71.78320312 C308.03353662 80.65158141 305.86390827 89.39048446 306.0625 98.625 C306.08054687 99.73230469 306.09859375 100.83960937 306.1171875 101.98046875 C306.14039063 102.79128906 306.16359375 103.60210937 306.1875 104.4375 C311.44430047 102.96559587 313.61071568 101.34814466 316.4375 96.625 C317.37748443 94.90839742 318.29608193 93.17981713 319.1875 91.4375 C319.53039062 90.78136719 319.87328125 90.12523438 320.2265625 89.44921875 C320.90357915 88.1236581 321.55031787 86.78266226 322.1875 85.4375 C323.5075 85.7675 324.8275 86.0975 326.1875 86.4375 C326.69801873 93.35786495 326.44292741 98.75980407 322.1875 104.4375 C316.50265207 110.5284085 310.71999905 115.38926141 302.125 115.8125 C296.72382474 115.29810236 293.62613471 113.99602094 289.9375 110 C288.46650518 107.8460433 287.31904471 105.77503314 286.1875 103.4375 C285.40375 104.489375 284.62 105.54125 283.8125 106.625 C279.53231145 111.57994769 274.25777701 114.68178082 267.7890625 115.8828125 C262.44924943 116.15618177 258.2249944 115.00177186 254.1875 111.4375 C247.78653109 104.06874534 246.89705575 95.68775785 247.4375 86.25 C247.87606676 81.40462992 248.55241636 77.01573418 250.1875 72.4375 C249.3625 72.7675 248.5375 73.0975 247.6875 73.4375 C243.6001017 74.60532809 240.41826656 74.5833885 236.1875 74.4375 C235.92195313 75.14519531 235.65640625 75.85289063 235.3828125 76.58203125 C231.50300789 85.85045337 225.66215483 93.83458849 219.1875 101.4375 C218.58808594 102.17097656 217.98867188 102.90445313 217.37109375 103.66015625 C212.81008519 109.11908149 208.27271763 114.0879902 201.0625 115.5625 C197.1875 115.4375 197.1875 115.4375 194.4375 113.5 C188.3258913 105.18142149 186.44219416 96.31977654 184.1875 86.4375 C183.47787109 87.88769531 183.47787109 87.88769531 182.75390625 89.3671875 C177.6968759 99.43332041 172.03787263 110.30495313 161.09375 114.88671875 C156.71472805 116.15196894 153.34926943 115.80926622 149.0625 114.4375 C144.98146455 111.59851882 142.78828342 109.19897921 141.1875 104.4375 C139.84812665 93.59439924 141.68646536 83.40857461 144.21484375 72.875 C145.26484285 68.41623603 145.7578999 63.99578312 146.1875 59.4375 C132.51490065 66.06663908 125.55040746 84.57240396 120.38671875 97.94140625 C119.2784391 101.17238437 118.41477789 104.36694214 117.625 107.6875 C116.75865774 111.07731592 116.47419081 112.16630599 113.875 114.625 C110.64155824 115.60255216 108.54274686 115.99670781 105.1875 115.4375 C100.58318981 111.98426736 99.35257358 108.83920478 98.1875 103.4375 C97.5275 104.324375 96.8675 105.21125 96.1875 106.125 C92.46819466 110.60941958 87.69118356 113.60293881 82.1875 115.4375 C76.97112152 115.87219821 73.38456147 115.7635068 68.796875 112.859375 C65.8349298 110.24251079 64.01298385 106.9033956 62.1875 103.4375 C61.74019531 103.98019531 61.29289062 104.52289063 60.83203125 105.08203125 C55.91767694 110.89752516 51.85921017 114.79799109 44.07421875 115.67578125 C38.18893993 115.87439634 34.93966094 114.9783258 30.1875 111.4375 C26.67400142 107.14322396 24.9747857 102.62062854 23.1875 97.4375 C22.36958984 98.59765625 22.36958984 98.59765625 21.53515625 99.78125 C12.87789374 111.73863138 2.91392355 121.49612143 -11.8125 125.4375 C-24.99829939 126.89411802 -36.74163602 125.11100147 -47.68359375 117.2421875 C-56.06407336 110.13800112 -59.76265221 101.83054354 -62.8125 91.4375 C-62.99208252 90.83921387 -63.17166504 90.24092773 -63.35668945 89.62451172 C-64.42150721 84.5154397 -64.04102427 79.13462641 -64.0625 73.9375 C-64.083125 72.720625 -64.10375 71.50375 -64.125 70.25 C-64.17257741 59.1168871 -62.32210865 49.26017574 -57.125 39.375 C-56.77542236 38.69872559 -56.42584473 38.02245117 -56.06567383 37.32568359 C-46.96632546 20.14686451 -33.84840661 8.00973756 -15.59765625 1.24609375 C-10.37566638 0.13056031 -5.32648922 0.02968322 0 0 Z M231.1875 39.4375 C227.9482933 45.39764034 227.86852128 49.82025083 229.1875 56.4375 C230.11644954 59.40125149 230.11644954 59.40125149 231.1875 61.4375 C234.87873571 57.74626429 235.07456238 51.84095379 235.3125 46.77734375 C235.3125 44.66365178 235.25564816 42.55009309 235.1875 40.4375 C233.8675 40.1075 232.5475 39.7775 231.1875 39.4375 Z M52.1875 60.4375 C45.15378617 71.7012795 41.51143927 84.12760598 43.1875 97.4375 C44.35197703 99.71040971 45.3805714 101.6305714 47.1875 103.4375 C50.54907348 103.50341321 53.08685498 103.33211294 55.7734375 101.1484375 C63.58795817 91.76274337 67.29530108 77.80785946 67.4375 65.875 C67.46328125 64.57433594 67.4890625 63.27367187 67.515625 61.93359375 C67.17611692 58.31621596 66.76249765 56.93202897 64.1875 54.4375 C58.90576482 52.97035134 55.38883348 56.6566757 52.1875 60.4375 Z M275.1875 61.4375 C272.76827789 65.62727367 270.90822264 69.92060306 269.1875 74.4375 C268.919375 75.11554688 268.65125 75.79359375 268.375 76.4921875 C266.9121504 81.06359251 266.9269234 85.86145766 266.8125 90.625 C266.78623535 91.31505127 266.7599707 92.00510254 266.73291016 92.71606445 C266.72181627 96.23666557 267.13977597 98.35414639 268.8984375 101.42578125 C271.0134622 103.61968341 271.0134622 103.61968341 273.71875 103.95703125 C278.39642214 102.97264771 280.5778473 99.20832845 283.1875 95.4375 C289.23813466 84.93021508 293.01118295 71.59538631 291.1875 59.4375 C290.12254808 56.5605585 290.12254808 56.5605585 288.1875 54.4375 C282.23123056 53.26530617 278.76710073 57.15038524 275.1875 61.4375 Z " fill="#FFFFFF" transform="translate(68.8125,12.5625)"/>
</svg>
