<?xml version="1.0" encoding="UTF-8"?>
<svg version="1.1" xmlns="http://www.w3.org/2000/svg" width="400" height="150">
<path d="M0 0 C30.36 0 60.72 0 92 0 C92 4.95 92 9.9 92 15 C61.64 15 31.28 15 0 15 C0 10.05 0 5.1 0 0 Z " fill="#FFFFFF" transform="translate(0,84)"/>
<path d="M0 0 C15.18 0 30.36 0 46 0 C46 3.96 46 7.92 46 12 C46.33 8.04 46.66 4.08 47 0 C61.85 0 76.7 0 92 0 C92 4.62 92 9.24 92 14 C26.63396246 15.5683511 26.63396246 15.5683511 0 14 C0 9.38 0 4.76 0 0 Z " fill="#FEFEFE" transform="translate(0,68)"/>
<path d="M0 0 C4.16653186 -0.08777806 8.33282276 -0.14065272 12.5 -0.1875 C13.67304688 -0.21263672 14.84609375 -0.23777344 16.0546875 -0.26367188 C25.88252045 -0.34649069 32.81512565 0.98221575 40 8 C44.42576972 14.25712271 44.57991524 20.52323564 44 28 C42.84161352 33.05942332 40.79007107 37.40429155 37 41 C28.05926911 46.43214803 20.38681323 47.15288182 10.125 47.0625 C8.66320312 47.05573242 8.66320312 47.05573242 7.171875 47.04882812 C4.78118566 47.03710906 2.3906256 47.02070219 0 47 C0 46.01 0 45.02 0 44 C1.65 43.34 3.3 42.68 5 42 C5 29.46 5 16.92 5 4 C3.35 3.67 1.7 3.34 0 3 C0 2.01 0 1.02 0 0 Z M13 3 C13 16.2 13 29.4 13 43 C22.9276013 43.39835867 22.9276013 43.39835867 31 40 C35.16650636 35.40771926 35.61064177 30.00724119 36 24 C35.58722951 17.39567213 34.93486602 11.47626123 31 6 C24.59144529 2.12816486 21.24639827 3 13 3 Z " fill="#FEFEFE" transform="translate(270,52)"/>
<path d="M0 0 C12.54 0 25.08 0 38 0 C38 3.63 38 7.26 38 11 C37.01 11 36.02 11 35 11 C34.54625 10.030625 34.0925 9.06125 33.625 8.0625 C32.34213779 4.92920418 32.34213779 4.92920418 30 4 C27.45213572 3.76811572 24.9274885 3.58133625 22.375 3.4375 C19.94125 3.293125 17.5075 3.14875 15 3 C15 8.94 15 14.88 15 21 C19.63270549 20.41314877 19.63270549 20.41314877 24 19 C25.73456566 16.68189219 26.20969869 14.8450847 27 12 C27.99 12 28.98 12 30 12 C30 18.6 30 25.2 30 32 C29.01 32 28.02 32 27 32 C26.525625 31.030625 26.05125 30.06125 25.5625 29.0625 C24.29806053 26.19522563 24.29806053 26.19522563 23 25 C20.36 24.67 17.72 24.34 15 24 C15 30.27 15 36.54 15 43 C17.5575 42.87625 20.115 42.7525 22.75 42.625 C23.54889648 42.59100098 24.34779297 42.55700195 25.17089844 42.52197266 C30.39824974 42.24431488 30.39824974 42.24431488 35 40 C36.02304948 38.34738161 37.02616054 36.68208635 38 35 C38.66 35 39.32 35 40 35 C40 38.96 40 42.92 40 47 C27.13 47 14.26 47 1 47 C0.505 45.515 0.505 45.515 0 44 C1.98 43.34 3.96 42.68 6 42 C6 29.46 6 16.92 6 4 C3.03 3.505 3.03 3.505 0 3 C0 2.01 0 1.02 0 0 Z " fill="#FEFEFF" transform="translate(316,52)"/>
<path d="M0 0 C1.8865509 0.26539612 1.8865509 0.26539612 4 1 C5.04374695 2.62535095 5.04374695 2.62535095 5.81518555 4.75366211 C6.11196701 5.54796127 6.40874847 6.34226044 6.71452332 7.16062927 C7.17101006 8.45590294 7.17101006 8.45590294 7.63671875 9.77734375 C7.96162796 10.65902725 8.28653717 11.54071075 8.62129211 12.44911194 C9.65839891 15.2733421 10.67326537 18.10498527 11.6875 20.9375 C12.38198013 22.84364008 13.07792583 24.74924688 13.77539062 26.65429688 C14.75631442 29.33449513 15.73487104 32.01532931 16.70231628 34.70042419 C17.13330376 35.89660118 17.13330376 35.89660118 17.57299805 37.11694336 C17.825186 37.82008163 18.07737396 38.52321991 18.33720398 39.24766541 C19.63217316 42.67137228 20.68080206 43.50100738 24 45 C24 45.99 24 46.98 24 48 C17.4 48 10.8 48 4 48 C4 47.01 4 46.02 4 45 C6.97 44.505 6.97 44.505 10 44 C9.7834375 43.24074219 9.566875 42.48148438 9.34375 41.69921875 C9.0653125 40.70535156 8.786875 39.71148437 8.5 38.6875 C8.2215625 37.70136719 7.943125 36.71523437 7.65625 35.69921875 C7 33 7 33 7 30 C1.72 30 -3.56 30 -9 30 C-9.495 32.475 -9.495 32.475 -10 35 C-10.34961461 36.6051649 -10.70359411 38.209387 -11.0625 39.8125 C-11.23910156 40.60269531 -11.41570312 41.39289063 -11.59765625 42.20703125 C-11.73042969 42.79871094 -11.86320313 43.39039063 -12 44 C-10.35 44.33 -8.7 44.66 -7 45 C-7 45.99 -7 46.98 -7 48 C-12.28 48 -17.56 48 -23 48 C-23 47.01 -23 46.02 -23 45 C-21.88625 44.4121875 -21.88625 44.4121875 -20.75 43.8125 C-13.57535928 39.08375953 -10.97150423 26.61973454 -7.875 18.75 C-7.06788195 16.70446471 -6.25971184 14.65936059 -5.44949341 12.61505127 C-4.71907379 10.77129553 -3.99200916 8.92621172 -3.26513672 7.08105469 C-2.26742926 4.65128469 -1.22134737 2.32235083 0 0 Z M-1 10 C-2.00419637 12.4566947 -3.00350501 14.91518353 -4 17.375 C-4.28617188 18.07367188 -4.57234375 18.77234375 -4.8671875 19.4921875 C-6.44524399 23.12885961 -6.44524399 23.12885961 -7 27 C-3.04 27 0.92 27 5 27 C2.71477659 18.43519252 2.71477659 18.43519252 0 10 C-0.33 10 -0.66 10 -1 10 Z " fill="#FEFEFE" transform="translate(245,51)"/>
<path d="M0 0 C7.26 0 14.52 0 22 0 C21.67 0.99 21.34 1.98 21 3 C19.35 3.33 17.7 3.66 16 4 C15.67 16.87 15.34 29.74 15 43 C25.1846148 42.60243236 25.1846148 42.60243236 31 40 C32.66395386 37.63477798 32.66395386 37.63477798 33.8125 34.875 C34.44091797 33.50988281 34.44091797 33.50988281 35.08203125 32.1171875 C35.38496094 31.41851562 35.68789063 30.71984375 36 30 C36.66 30 37.32 30 38 30 C38.02684679 32.64590014 38.04676357 35.29153096 38.0625 37.9375 C38.07087891 38.69224609 38.07925781 39.44699219 38.08789062 40.22460938 C38.09652441 42.14994313 38.05224333 44.07535581 38 46 C37 47 37 47 33.48999023 47.11352539 C31.92951578 47.11336626 30.36903607 47.10767142 28.80859375 47.09765625 C27.98875504 47.0962413 27.16891632 47.09482635 26.32423401 47.09336853 C23.69528618 47.08775289 21.06642227 47.07519779 18.4375 47.0625 C16.65950643 47.05748701 14.88151154 47.05292376 13.10351562 47.04882812 C8.73564455 47.03777839 4.36783652 47.02050331 0 47 C0 46.01 0 45.02 0 44 C3.465 43.505 3.465 43.505 7 43 C6.67 30.13 6.34 17.26 6 4 C3.03 3.505 3.03 3.505 0 3 C0 2.01 0 1.02 0 0 Z " fill="#FEFEFF" transform="translate(362,52)"/>
<path d="M0 0 C13.2 0 26.4 0 40 0 C40 3.63 40 7.26 40 11 C36.23145777 9.74381926 35.92041544 8.33985294 34 5 C31.18010841 3.40371521 31.18010841 3.40371521 24 4 C24.33 16.54 24.66 29.08 25 42 C26.98 42.66 28.96 43.32 31 44 C31 44.99 31 45.98 31 47 C23.41 47 15.82 47 8 47 C8 46.01 8 45.02 8 44 C10.31 43.34 12.62 42.68 15 42 C15.33 29.13 15.66 16.26 16 3 C6.40773784 3.80358615 6.40773784 3.80358615 3.5 8.125 C3.005 9.07375 2.51 10.0225 2 11 C1.34 11 0.68 11 0 11 C0 7.37 0 3.74 0 0 Z " fill="#FEFEFE" transform="translate(187,52)"/>
<path d="M0 0 C0.495 6.435 0.495 6.435 1 13 C-2.50786217 11.83071261 -2.70754025 11.22191155 -4.4375 8.125 C-6.96162383 3.79005907 -6.96162383 3.79005907 -11 1 C-16.3559599 0.48990858 -19.66143863 0.5291509 -24 4 C-28.5953832 8.76558257 -29.13696597 14.61029616 -29.3125 20.9375 C-29.20405396 26.35302417 -28.49516576 30.18174887 -26 35 C-21.17060553 39.59381425 -17.9552294 40.30429005 -11.4765625 40.2109375 C-8.19134622 39.93112413 -6.44513996 39.22285451 -4 37 C-2.17370206 33.93319201 -2.17370206 33.93319201 -1 31 C-0.01 31 0.98 31 2 31 C1.68327951 36.22588808 -1.30110819 39.5609835 -5 43 C-10.23129727 46.48369906 -17.00899074 45.52387749 -23 45 C-28.71184399 43.58101989 -32.52817163 40.21473679 -35.8046875 35.3984375 C-39.23291813 28.5195695 -39.7522858 20.71926148 -37.88671875 13.31640625 C-35.20076541 6.29979686 -30.24391736 1.88772213 -24 -2 C-16.03412617 -4.65529128 -7.46645093 -3.51362397 0 0 Z " fill="#FBFBFC" transform="translate(155,54)"/>
<path d="M0 0 C7.26 0 14.52 0 22 0 C22 0.99 22 1.98 22 3 C20.02 3.33 18.04 3.66 16 4 C16 16.54 16 29.08 16 42 C17.98 42.66 19.96 43.32 22 44 C22 44.99 22 45.98 22 47 C14.74 47 7.48 47 0 47 C0 46.01 0 45.02 0 44 C3.465 43.505 3.465 43.505 7 43 C6.67 30.13 6.34 17.26 6 4 C3.03 3.505 3.03 3.505 0 3 C0 2.01 0 1.02 0 0 Z " fill="#FBFBFC" transform="translate(160,52)"/>
<path d="M0 0 C3.31255326 -0.02683436 6.62489183 -0.0467578 9.9375 -0.0625 C10.88302734 -0.07087891 11.82855469 -0.07925781 12.80273438 -0.08789062 C14.15141602 -0.09272461 14.15141602 -0.09272461 15.52734375 -0.09765625 C16.77632446 -0.10551147 16.77632446 -0.10551147 18.05053711 -0.11352539 C20 0 20 0 21 1 C21.09886353 2.62252492 21.12971167 4.24947273 21.125 5.875 C21.12886719 7.20144531 21.12886719 7.20144531 21.1328125 8.5546875 C21 11 21 11 20 14 C13.4 14 6.8 14 0 14 C0 9.38 0 4.76 0 0 Z " fill="#FEFEFE" transform="translate(36,52)"/>
<path d="M0 0 C0 5.28 0 10.56 0 16 C-13.375 16.125 -13.375 16.125 -19 15 C-19 10.38 -19 5.76 -19 1 C-16.20837429 0.83262201 -13.41670379 0.66606598 -10.625 0.5 C-9.8309375 0.45230469 -9.036875 0.40460937 -8.21875 0.35546875 C-2.2265625 0 -2.2265625 0 0 0 Z " fill="#FEFEFF" transform="translate(19,51)"/>
<path d="M0 0 C0 4.95 0 9.9 0 15 C-6.6 15 -13.2 15 -20 15 C-19.67 10.38 -19.34 5.76 -19 1 C-16.02085163 0.83300069 -13.04168271 0.66638454 -10.0625 0.5 C-8.78729492 0.42845703 -8.78729492 0.42845703 -7.48632812 0.35546875 C-6.67744141 0.31035156 -5.86855469 0.26523437 -5.03515625 0.21875 C-4.2862915 0.17685547 -3.53742676 0.13496094 -2.76586914 0.09179688 C-1.84464901 0.0439082 -0.92246402 0 0 0 Z " fill="#FFFFFF" transform="translate(92,51)"/>
</svg>
