<?xml version="1.0" encoding="UTF-8"?>
<svg version="1.1" xmlns="http://www.w3.org/2000/svg" width="400" height="150">
<path d="M0 0 C22.44 0 44.88 0 68 0 C68 22.11 68 44.22 68 67 C45.56 67 23.12 67 0 67 C0 44.89 0 22.78 0 0 Z " fill="#EB2E30" transform="translate(319,3)"/>
<path d="M0 0 C4.62 0 9.24 0 14 0 C14.74056641 3.10535156 14.74056641 3.10535156 15.49609375 6.2734375 C15.97540393 8.2758579 16.45555621 10.27807461 16.93579102 12.28027344 C17.26935551 13.67296608 17.60204276 15.06586914 17.93383789 16.45898438 C18.41062187 18.46019426 18.890545 20.46062877 19.37109375 22.4609375 C19.65911865 23.66540527 19.94714355 24.86987305 20.24389648 26.11083984 C20.87175606 28.91534105 20.87175606 28.91534105 22 31 C22.20681396 30.13197754 22.41362793 29.26395508 22.62670898 28.36962891 C23.39444287 25.15251995 24.16436745 21.9359519 24.93579102 18.71972656 C25.26935551 17.32703392 25.60204276 15.93413086 25.93383789 14.54101562 C26.41062187 12.53980574 26.890545 10.53937123 27.37109375 8.5390625 C27.65911865 7.33459473 27.94714355 6.13012695 28.24389648 4.88916016 C29 2 29 2 30 0 C35.28 0 40.56 0 46 0 C48.64 10.56 51.28 21.12 54 32 C56.26144048 22.21768071 56.26144048 22.21768071 58.51733398 12.43408203 C58.79907471 11.22091309 59.08081543 10.00774414 59.37109375 8.7578125 C59.65911865 7.5114502 59.94714355 6.26508789 60.24389648 4.98095703 C61 2 61 2 62 0 C66.29 0 70.58 0 75 0 C74.3567259 7.47115504 72.84204067 14.55479969 71.09375 21.83984375 C70.66660706 23.64480064 70.66660706 23.64480064 70.23083496 25.48622131 C69.63151643 28.01395743 69.02962398 30.54108453 68.42529297 33.06762695 C67.49749425 36.94797984 66.57819512 40.8302185 65.66015625 44.71289062 C65.07601491 47.17199242 64.49139642 49.63098092 63.90625 52.08984375 C63.63018921 53.25434555 63.35412842 54.41884735 63.06970215 55.61863708 C62.68425232 57.22654869 62.68425232 57.22654869 62.29101562 58.86694336 C61.95245544 60.2851664 61.95245544 60.2851664 61.60705566 61.73204041 C61 64 61 64 60 66 C56.37 66 52.74 66 49 66 C44.75530589 51.46286176 41.31498822 36.77410081 38 22 C37.60675537 23.57297852 37.60675537 23.57297852 37.20556641 25.17773438 C33.80371094 38.78515625 30.40185547 52.39257812 27 66 C23.04 66 19.08 66 15 66 C13.04065316 57.83848664 11.08416806 49.67630362 9.13272858 41.51289654 C8.22650922 37.72243918 7.31903314 33.93229187 6.40869141 30.14282227 C5.53041254 26.48661753 4.65542659 22.82963921 3.7827301 19.17209816 C3.44899453 17.77595705 3.11406805 16.38010007 2.77793884 14.98453331 C2.30780354 13.03170193 1.8422712 11.07776412 1.37695312 9.1237793 C1.11047974 8.0112529 0.84400635 6.8987265 0.56945801 5.75248718 C0 3 0 3 0 0 Z " fill="#FBFBFB" transform="translate(217,4)"/>
<path d="M0 0 C2.66091428 1.78553725 4.7155137 3.76953479 6.79296875 6.203125 C7.49421875 6.96625 8.19546875 7.729375 8.91796875 8.515625 C15.73436872 18.28579829 16.0310649 31.05236125 14.04296875 42.453125 C12.01326824 51.14191142 8.29178285 57.15707463 0.79296875 62.203125 C-4.21196152 64.76239639 -8.50967602 65.72585794 -14.08203125 65.640625 C-14.78384521 65.63232666 -15.48565918 65.62402832 -16.20874023 65.61547852 C-24.06305468 65.3602973 -29.2430194 63.23390251 -35.01953125 58.015625 C-43.86813901 48.48951363 -43.73191203 36.66281268 -43.34765625 24.45068359 C-42.70777009 14.22361421 -37.82528921 7.39038519 -30.40234375 0.71875 C-22.03227076 -5.0598769 -8.79083935 -4.68404948 0 0 Z M-25.20703125 14.203125 C-30.1019613 22.59443366 -29.8732463 32.57882862 -27.87109375 41.85546875 C-26.79919055 45.64496184 -25.23037406 48.10106351 -22.58203125 50.953125 C-18.89228393 52.89509727 -15.36252123 53.43437486 -11.20703125 53.203125 C-7.38624313 51.96375227 -4.79559434 49.96825702 -2.33203125 46.765625 C1.10573518 38.93515701 1.31722956 26.65041409 -1.33203125 18.515625 C-3.43881919 14.79363297 -5.24581705 11.93266923 -9.20703125 10.203125 C-15.40360126 9.17491294 -20.97733645 9.04818446 -25.20703125 14.203125 Z " fill="#FCFCFC" transform="translate(184.20703125,5.796875)"/>
<path d="M0 0 C13.53 0 27.06 0 41 0 C41 4.29 41 8.58 41 13 C32.09 13 23.18 13 14 13 C14 17.95 14 22.9 14 28 C19.28 28 24.56 28 30 28 C30 32.29 30 36.58 30 41 C24.72 41 19.44 41 14 41 C14 49.25 14 57.5 14 66 C9.38 66 4.76 66 0 66 C0 44.22 0 22.44 0 0 Z " fill="#FBFBFB" transform="translate(15,4)"/>
<path d="M0 0 C4.62 0 9.24 0 14 0 C14 17.82 14 35.64 14 54 C22.91 54 31.82 54 41 54 C41 57.96 41 61.92 41 66 C27.47 66 13.94 66 0 66 C0 44.22 0 22.44 0 0 Z " fill="#FEFEFE" transform="translate(80,4)"/>
<path d="M0 0 C25.71428571 0 25.71428571 0 31.875 5.625 C34.57474766 9.91283452 35.11623696 13.05666488 34 18 C31.85648317 21.89883769 28.54155095 24.41194353 25 27 C25.30292969 27.55985596 25.60585938 28.11971191 25.91796875 28.6965332 C27.28509867 31.23177047 28.6426333 33.77202314 30 36.3125 C30.47695313 37.19357422 30.95390625 38.07464844 31.4453125 38.98242188 C32.12207031 40.25375977 32.12207031 40.25375977 32.8125 41.55078125 C33.23144531 42.33106689 33.65039062 43.11135254 34.08203125 43.9152832 C35 46 35 46 35 49 C33.02 49 31.04 49 29 49 C27.35383182 45.87517628 25.70812246 42.75011114 24.0625 39.625 C23.59392578 38.73554688 23.12535156 37.84609375 22.64257812 36.9296875 C22.19462891 36.07890625 21.74667969 35.228125 21.28515625 34.3515625 C20.87144775 33.56604004 20.45773926 32.78051758 20.03149414 31.97119141 C19.34211376 30.65378141 18.66495329 29.32990658 18 28 C14.01434954 27.39386091 10.02725031 27.25435265 6 27 C6 34.26 6 41.52 6 49 C4.02 49 2.04 49 0 49 C0 32.83 0 16.66 0 0 Z M6 5 C6 10.61 6 16.22 6 22 C16.43299096 22.48784839 16.43299096 22.48784839 26 19 C27.904679 15.70918287 27.904679 15.70918287 28 12 C26.86014095 9.15035236 25.89149807 7.61637067 23.3671875 5.87109375 C20.01135319 4.63619103 16.77025011 4.78915877 13.25 4.875 C9.66125 4.936875 9.66125 4.936875 6 5 Z " fill="#FBFBFB" transform="translate(297,97)"/>
<path d="M0 0 C25.79069767 0 25.79069767 0 31.875 5.6875 C34.68010064 10.06015688 34.64972667 11.88340247 34 17 C32.10357345 21.63570933 29.11950283 23.3429765 25 26 C25.2673999 26.55461914 25.5347998 27.10923828 25.81030273 27.68066406 C27.02322585 30.20194132 28.2304128 32.72592388 29.4375 35.25 C29.85837891 36.12269531 30.27925781 36.99539062 30.71289062 37.89453125 C31.11572266 38.73886719 31.51855469 39.58320313 31.93359375 40.453125 C32.30540771 41.22817383 32.67722168 42.00322266 33.06030273 42.80175781 C33.94066379 44.86119427 34.52774502 46.8150046 35 49 C33.02 49 31.04 49 29 49 C27.35383182 45.87517628 25.70812246 42.75011114 24.0625 39.625 C23.59392578 38.73554688 23.12535156 37.84609375 22.64257812 36.9296875 C22.19462891 36.07890625 21.74667969 35.228125 21.28515625 34.3515625 C20.87144775 33.56604004 20.45773926 32.78051758 20.03149414 31.97119141 C19.34211376 30.65378141 18.66495329 29.32990658 18 28 C14.01434954 27.39386091 10.02725031 27.25435265 6 27 C6 34.26 6 41.52 6 49 C4.02 49 2.04 49 0 49 C0 32.83 0 16.66 0 0 Z M6 5 C6 10.61 6 16.22 6 22 C16.43299096 22.48784839 16.43299096 22.48784839 26 19 C27.904679 15.70918287 27.904679 15.70918287 28 12 C26.86014095 9.15035236 25.89149807 7.61637067 23.3671875 5.87109375 C20.01135319 4.63619103 16.77025011 4.78915877 13.25 4.875 C9.66125 4.936875 9.66125 4.936875 6 5 Z " fill="#FAFAFA" transform="translate(68,97)"/>
<path d="M0 0 C24.26315789 0 24.26315789 0 31.8125 6.375 C36.89085588 12.46902705 38 18.2162221 38 26 C37.27054884 33.94417909 34.9576035 39.10812102 29.1875 44.75 C20.12236792 51.14891676 11.22652396 49 0 49 C0 32.83 0 16.66 0 0 Z M6 5 C6 17.87 6 30.74 6 44 C17.87338549 44.43432027 17.87338549 44.43432027 27.375 38.6875 C31.52886652 31.81764382 32.10808235 24.5124769 30.53515625 16.6875 C28.89227425 11.55470891 26.41059276 9.03228252 22 6 C17.4715658 4.31483984 17.4715658 4.31483984 6 5 Z " fill="#FBFBFB" transform="translate(183,97)"/>
<path d="M0 0 C3.98868616 2.33286626 6.78212424 4.69250602 8.6171875 9.05078125 C8.6171875 10.04078125 8.6171875 11.03078125 8.6171875 12.05078125 C6.6371875 12.38078125 4.6571875 12.71078125 2.6171875 13.05078125 C2.0396875 12.10203125 1.4621875 11.15328125 0.8671875 10.17578125 C-1.62789019 6.63455152 -1.62789019 6.63455152 -5.3828125 5.05078125 C-9.50045477 4.43751538 -10.90464818 4.70487514 -14.3203125 7.17578125 C-16.59996063 9.88593603 -16.59996063 9.88593603 -16.8203125 13.11328125 C-14.81041433 17.22046447 -12.3467234 17.66896231 -8.15234375 19.12109375 C-7.23839844 19.42789063 -6.32445312 19.7346875 -5.3828125 20.05078125 C7.10738358 25.03117341 7.10738358 25.03117341 9.6171875 30.05078125 C10.79454779 40.34427411 10.79454779 40.34427411 7.5546875 44.55078125 C2.03986648 49.24424595 -2.92104503 50.58344512 -10.0234375 50.3359375 C-15.93563573 49.62138374 -19.56503344 46.3988074 -23.3828125 42.05078125 C-25.06517781 39.32695169 -25.3828125 38.31193754 -25.3828125 35.05078125 C-22.4128125 34.55578125 -22.4128125 34.55578125 -19.3828125 34.05078125 C-19.04507812 34.61667969 -18.70734375 35.18257812 -18.359375 35.765625 C-17.69035156 36.86583984 -17.69035156 36.86583984 -17.0078125 37.98828125 C-16.56695312 38.71917969 -16.12609375 39.45007813 -15.671875 40.203125 C-14.5054141 42.18850397 -14.5054141 42.18850397 -12.3828125 43.05078125 C-5.23826737 43.76659073 -5.23826737 43.76659073 1.3046875 41.42578125 C2.99834233 38.36107251 3.13128812 36.50259968 2.6171875 33.05078125 C-0.24950909 28.90161514 -5.74832027 27.98317592 -10.31445312 26.4765625 C-15.56359844 24.64009819 -20.76671624 22.28297377 -23.3828125 17.05078125 C-23.94926361 12.40773938 -23.80404564 8.92565008 -21.7578125 4.67578125 C-16.11228926 -1.56400759 -7.86394108 -3.13268473 0 0 Z " fill="#F9F9FA" transform="translate(376.3828125,96.94921875)"/>
<path d="M0 0 C1.23556641 0.01740234 1.23556641 0.01740234 2.49609375 0.03515625 C3.32238281 0.04417969 4.14867187 0.05320312 5 0.0625 C5.63808594 0.07410156 6.27617187 0.08570312 6.93359375 0.09765625 C9.07386708 6.75326398 11.20965528 13.41029858 13.34228516 20.06835938 C14.0687834 22.33464381 14.79631963 24.60059577 15.52490234 26.86621094 C16.57009575 30.11697573 17.61158821 33.36890584 18.65234375 36.62109375 C18.98045044 37.63883881 19.30855713 38.65658386 19.64660645 39.70516968 C19.94691772 40.64599396 20.247229 41.58681824 20.55664062 42.55615234 C20.95635071 43.80191544 20.95635071 43.80191544 21.36413574 45.07284546 C21.93359375 47.09765625 21.93359375 47.09765625 21.93359375 49.09765625 C19.95359375 49.09765625 17.97359375 49.09765625 15.93359375 49.09765625 C15.28449221 47.51565994 14.63944681 45.93199901 13.99609375 44.34765625 C13.63644531 43.4659375 13.27679688 42.58421875 12.90625 41.67578125 C11.93359375 39.09765625 11.93359375 39.09765625 10.93359375 35.09765625 C4.99359375 35.09765625 -0.94640625 35.09765625 -7.06640625 35.09765625 C-7.70578125 37.22203125 -8.34515625 39.34640625 -9.00390625 41.53515625 C-10.94140625 47.97265625 -10.94140625 47.97265625 -12.06640625 49.09765625 C-14.06598989 49.13846408 -16.06685879 49.14019981 -18.06640625 49.09765625 C-15.69630529 39.77735892 -12.7431154 30.65470942 -9.76806641 21.51464844 C-8.93231565 18.94470253 -8.10267615 16.37283483 -7.2734375 13.80078125 C-6.74385205 12.16785115 -6.21391729 10.53503429 -5.68359375 8.90234375 C-5.43568085 8.1326828 -5.18776794 7.36302185 -4.93234253 6.57003784 C-2.82861983 0.13367769 -2.82861983 0.13367769 0 0 Z M1.93359375 7.09765625 C-1.01153658 13.98956023 -3.20465836 20.8368395 -5.06640625 28.09765625 C-0.44640625 28.09765625 4.17359375 28.09765625 8.93359375 28.09765625 C7.0394608 21.0623053 5.06456756 14.06488267 2.93359375 7.09765625 C2.60359375 7.09765625 2.27359375 7.09765625 1.93359375 7.09765625 Z " fill="#F9F9F9" transform="translate(140.06640625,96.90234375)"/>
<path d="M0 0 C9.57 0 19.14 0 29 0 C29 1.98 29 3.96 29 6 C21.41 6.33 13.82 6.66 6 7 C6 10.96 6 14.92 6 19 C11.61 19.33 17.22 19.66 23 20 C23 21.98 23 23.96 23 26 C14.585 26.495 14.585 26.495 6 27 C6 31.95 6 36.9 6 42 C14.25 42.33 22.5 42.66 31 43 C31.33 44.65 31.66 46.3 32 48 C31 49 31 49 28.04077148 49.11352539 C26.74727783 49.10828857 25.45378418 49.10305176 24.12109375 49.09765625 C22.86482178 49.09515869 21.6085498 49.09266113 20.31420898 49.09008789 C18.70489502 49.08098389 17.09558105 49.07187988 15.4375 49.0625 C10.343125 49.041875 5.24875 49.02125 0 49 C0 32.83 0 16.66 0 0 Z " fill="#FAFAFA" transform="translate(244,97)"/>
<path d="M0 0 C11.88 0 23.76 0 36 0 C36 1.98 36 3.96 36 6 C30.72 6 25.44 6 20 6 C20 20.19 20 34.38 20 49 C18.02 49 16.04 49 14 49 C14 34.81 14 20.62 14 6 C9.38 6 4.76 6 0 6 C0 4.02 0 2.04 0 0 Z " fill="#F7F7F7" transform="translate(11,97)"/>
<path d="M0 0 C0.66 0 1.32 0 2 0 C2 0.66 2 1.32 2 2 C1.34 2 0.68 2 0 2 C0 1.34 0 0.68 0 0 Z " fill="#FFFFFF" transform="translate(188,78)"/>
</svg>
