<?xml version="1.0" encoding="UTF-8"?>
<svg version="1.1" xmlns="http://www.w3.org/2000/svg" width="2500" height="2500">
<path d="M0 0 C4.88654355 2.28985704 9.47754047 4.99831026 14.109375 7.76171875 C16.27305049 9.03841653 18.43712666 10.31443546 20.6015625 11.58984375 C21.71756836 12.24919922 22.83357422 12.90855469 23.98339844 13.58789062 C29.3806383 16.76347231 34.807015 19.88798435 40.234375 23.01171875 C42.41928876 24.27080223 44.60418449 25.52991698 46.7890625 26.7890625 C48.41666504 27.72661377 48.41666504 27.72661377 50.07714844 28.68310547 C56.58808757 32.43449899 63.09600694 36.19112869 69.60449219 39.94677734 C75.04522836 43.08604121 80.48668977 46.22403372 85.9296875 49.359375 C87.57710937 50.30876953 87.57710937 50.30876953 89.2578125 51.27734375 C91.2809541 52.44322196 93.30435182 53.60865596 95.328125 54.7734375 C97.30880555 55.91511664 99.26973308 57.09161838 101.21154785 58.29821777 C104.44572874 60.19893987 107.74122851 61.51275775 111.24645996 62.84069824 C118.14410888 65.72400658 124.45119492 68.79214543 129.359375 74.57421875 C133.1975707 84.45893565 131.76961348 95.81800341 131.13853788 106.19298244 C130.9177566 110.36637416 130.85719361 114.54170951 130.78530884 118.71986389 C130.54194606 131.12007944 130.02683654 143.50757563 129.50946045 155.89886475 C129.11134653 165.54508091 128.77892952 175.18580748 128.62012923 184.83926684 C128.54580831 188.98964542 128.41766442 193.1231181 128.15876389 197.26640129 C126.53486849 214.3228368 126.53486849 214.3228368 132.79798126 229.3625679 C138.92886807 234.21972114 145.66712203 237.26793216 152.90535355 240.11515999 C158.70144444 242.56356319 163.97199238 245.8353083 169.359375 249.07421875 C171.52382654 250.32805047 173.69024371 251.57850052 175.859375 252.82421875 C206.19270833 270.32421875 236.52604167 287.82421875 266.859375 305.32421875 C267.93203613 305.94304932 269.00469727 306.56187988 270.10986328 307.19946289 C272.27494571 308.44857393 274.43998482 309.69776004 276.60498047 310.94702148 C282.04553206 314.08624184 287.48684716 317.22412438 292.9296875 320.359375 C303.38143699 326.38169204 313.82237048 332.42091212 324.234375 338.51171875 C332.91199741 343.58696998 341.62543068 348.59680642 350.359375 353.57421875 C360.08053117 359.11423605 369.76832158 364.70796684 379.42626953 370.35766602 C389.95022125 376.51188617 400.51317637 382.59791871 411.07714844 388.68310547 C416.50597442 391.81102023 421.93256781 394.94280323 427.359375 398.07421875 C429.52603083 399.32423754 431.6926975 400.57423753 433.859375 401.82421875 C518.359375 450.57421875 518.359375 450.57421875 602.859375 499.32421875 C603.93356689 499.94393555 605.00775879 500.56365234 606.11450195 501.20214844 C608.26411134 502.44232636 610.41368858 503.68256002 612.56323242 504.92285156 C617.63246712 507.84772105 622.70202436 510.77202708 627.7727356 513.69433594 C630.16364097 515.07228813 632.55436172 516.45056047 634.94506836 517.82885742 C636.62921463 518.79962857 638.31362731 519.76993749 639.99804688 520.74023438 C641.02091797 521.32998047 642.04378906 521.91972656 643.09765625 522.52734375 C643.99524658 523.04458008 644.89283691 523.56181641 645.81762695 524.09472656 C646.65640381 524.58295898 647.49518066 525.07119141 648.359375 525.57421875 C649.22358713 525.91189941 650.08779926 526.24958006 650.97819964 526.59749347 C653.359375 528.57421875 653.359375 528.57421875 653.82332139 530.35468421 C654.01209027 532.80900385 654.02905325 535.21971038 653.99992883 537.68131548 C654.00843119 538.6311063 654.01693354 539.58089712 654.02569355 540.55946948 C654.04830471 543.77917974 654.03495702 546.99777208 654.02210045 550.21752262 C654.03094819 552.54420568 654.04198169 554.87088129 654.0550167 557.19754466 C654.08153483 562.96471948 654.08456323 568.7315838 654.07804768 574.49880819 C654.07150063 581.4509173 654.09392139 588.40285686 654.11723618 595.35491919 C654.1599356 608.3490504 654.17856601 621.3431189 654.18419266 634.33731461 C654.18995164 647.51230555 654.20638712 660.68721703 654.23590088 673.8621769 C654.23775251 674.69321747 654.23960414 675.52425805 654.24151187 676.38048168 C654.24907833 679.76499564 654.2567056 683.14950945 654.26441423 686.53402309 C654.35558402 726.63689205 654.39659656 766.73975736 654.42845522 806.84271024 C654.44434848 826.80639634 654.46629261 846.77007382 654.48919067 866.73375293 C654.56250259 930.74726871 654.62486944 994.76078664 654.64965251 1058.77434129 C654.65123575 1062.85635184 654.65285537 1066.93836238 654.6544743 1071.02037291 C654.65569098 1074.08856045 654.65690346 1077.15674799 654.65811512 1080.22493553 C654.6617656 1089.45994515 654.66543959 1098.69495477 654.66916871 1107.92996436 C654.66999643 1109.98681742 654.6708184 1112.04367049 654.67163461 1114.10052355 C654.69786612 1180.16859548 654.78787604 1246.23633181 654.9228007 1312.30426696 C655.01969576 1359.7681025 655.10923614 1407.23187323 655.1370182 1454.69580746 C655.1375927 1455.67160425 655.1381672 1456.64740104 655.13875911 1457.65276743 C655.15118501 1479.07240785 655.1587556 1500.49204743 655.16179996 1521.91169115 C655.16294618 1529.57582979 655.16451324 1537.23996833 655.16631019 1544.90410684 C655.16675694 1546.81081464 655.16718559 1548.71752244 655.16759608 1550.62423025 C655.17439179 1581.02632551 655.23281269 1611.4280501 655.31749086 1641.83001986 C655.40244525 1672.44689855 655.43344681 1703.06333472 655.3900767 1733.68031502 C655.38409345 1737.90902713 655.37870544 1742.13773982 655.37367249 1746.36645317 C655.37266289 1747.19541549 655.37165329 1748.02437781 655.37061309 1748.87846019 C655.35617045 1762.01661854 655.39890602 1775.15394688 655.46534369 1788.29191904 C655.52945508 1801.20390455 655.53314888 1814.11472626 655.47213666 1827.02673987 C655.44114565 1833.93746416 655.43692926 1840.84556776 655.510783 1847.75604207 C655.57532901 1854.03929391 655.5621318 1860.31732409 655.48596122 1866.60040193 C655.47231387 1868.86306371 655.48738993 1871.12611974 655.53413414 1873.38833978 C655.85111807 1889.79847409 655.85111807 1889.79847409 651.69472544 1894.4286002 C647.64241847 1897.6514264 643.21880586 1899.77183346 638.43844104 1901.69853472 C635.41912578 1902.97024332 632.72466637 1904.60521691 629.92578125 1906.3046875 C627.92490879 1907.45777706 625.92360106 1908.61011164 623.921875 1909.76171875 C621.67316549 1911.05727155 619.42446792 1912.35284507 617.17578125 1913.6484375 C616.04672363 1914.2986084 614.91766602 1914.9487793 613.75439453 1915.61865234 C608.2876752 1918.76753929 602.82362613 1921.92105139 597.359375 1925.07421875 C595.19272189 1926.32424225 593.02605521 1927.57424222 590.859375 1928.82421875 C589.786875 1929.44296875 588.714375 1930.06171875 587.609375 1930.69921875 C577.859375 1936.32421875 577.859375 1936.32421875 574.60498047 1938.20166016 C572.4528537 1939.44333402 570.30083427 1940.68519397 568.14892578 1941.92724609 C563.10906523 1944.83588698 558.06820008 1947.74273773 553.02337646 1950.64276123 C551.24187922 1951.6669754 549.46073178 1952.69179526 547.6796875 1953.71679688 C545.44860875 1955.0005525 543.21687927 1956.28317814 540.984375 1957.56445312 C539.97117187 1958.14775391 538.95796875 1958.73105469 537.9140625 1959.33203125 C536.95725586 1959.88020508 536.00044922 1960.42837891 535.01464844 1960.99316406 C532.59952018 1962.43122683 530.3069779 1963.97464551 527.9921875 1965.56640625 C525.36803405 1967.20608043 524.51734595 1967.57057327 521.3125 1967.64453125 C517.63443 1966.31147413 514.41547727 1964.5056055 511.109375 1962.44921875 C509.59334343 1961.53237177 508.07635242 1960.61711007 506.55859375 1959.703125 C505.73020996 1959.20184082 504.90182617 1958.70055664 504.04833984 1958.18408203 C499.04339237 1955.18765715 493.97911672 1952.29369063 488.921875 1949.38671875 C486.67310658 1948.09126822 484.42440959 1946.79569367 482.17578125 1945.5 C481.04672363 1944.8498291 479.91766602 1944.1996582 478.75439453 1943.52978516 C473.2876752 1940.38089821 467.82362613 1937.22738611 462.359375 1934.07421875 C460.19272189 1932.82419525 458.02605521 1931.57419528 455.859375 1930.32421875 C425.52604167 1912.82421875 395.19270833 1895.32421875 364.859375 1877.82421875 C363.78671387 1877.20538818 362.71405273 1876.58655762 361.60888672 1875.94897461 C359.44380429 1874.69986357 357.27876518 1873.45067746 355.11376953 1872.20141602 C349.67321794 1869.06219566 344.23190284 1865.92431312 338.7890625 1862.7890625 C328.33731301 1856.76674546 317.89637952 1850.72752538 307.484375 1844.63671875 C298.80675259 1839.56146752 290.09331932 1834.55163108 281.359375 1829.57421875 C271.63821883 1824.03420145 261.95042842 1818.44047066 252.29248047 1812.79077148 C241.76852875 1806.63655133 231.20557363 1800.55051879 220.64160156 1794.46533203 C215.21277558 1791.33741727 209.78618219 1788.20563427 204.359375 1785.07421875 C202.19271917 1783.82419996 200.0260525 1782.57419997 197.859375 1781.32421875 C141.52604167 1748.82421875 85.19270833 1716.32421875 28.859375 1683.82421875 C27.78671387 1683.20538818 26.71405273 1682.58655762 25.60888672 1681.94897461 C23.44380429 1680.69986357 21.27876518 1679.45067746 19.11376953 1678.20141602 C13.67321794 1675.06219566 8.23190284 1671.92431312 2.7890625 1668.7890625 C-7.66268699 1662.76674546 -18.10362048 1656.72752538 -28.515625 1650.63671875 C-37.19324741 1645.56146752 -45.90668068 1640.55163108 -54.640625 1635.57421875 C-64.35380186 1630.03874881 -74.03469536 1624.45137675 -83.68334961 1618.80395508 C-92.19789609 1613.82265095 -100.74203579 1608.89359873 -109.29931641 1603.98608398 C-111.27474419 1602.85015735 -113.23902447 1601.69454808 -115.1897507 1600.51670622 C-117.65132521 1599.13109283 -119.89172136 1598.01933993 -122.47251106 1596.95000103 C-132.30969706 1592.55212185 -132.30969706 1592.55212185 -134.5063458 1587.63719978 C-135.94191272 1581.71689169 -135.62522998 1575.63234257 -135.5019598 1569.58538723 C-135.51476714 1567.51298607 -135.53415586 1565.44061699 -135.55952355 1563.36833152 C-135.61030593 1557.65495384 -135.56736587 1551.94549167 -135.5095571 1546.23232159 C-135.46323784 1540.02461304 -135.50387546 1533.81738482 -135.53361851 1527.60965925 C-135.57373514 1516.72406034 -135.55852865 1505.83995693 -135.50608253 1494.95449638 C-135.45010185 1483.27513711 -135.42686284 1471.59639355 -135.44364166 1459.91690445 C-135.44468199 1459.17922774 -135.44572231 1458.44155104 -135.44679416 1457.68152049 C-135.45224981 1453.92010179 -135.45823879 1450.15868413 -135.46441613 1446.39726656 C-135.50803765 1419.17159253 -135.47911867 1391.94638248 -135.41177177 1364.72077751 C-135.34528736 1337.75788916 -135.30982305 1310.79525082 -135.31596565 1283.8322773 C-135.31614228 1282.99498347 -135.31631891 1282.15768965 -135.31650089 1281.29502328 C-135.31813061 1273.64765847 -135.32014275 1266.0002938 -135.32261375 1258.35292921 C-135.32875174 1239.34225043 -135.33009327 1220.33157293 -135.32817936 1201.32089329 C-135.32809605 1200.45517918 -135.32801274 1199.58946507 -135.32792691 1198.6975172 C-135.32345549 1156.58320412 -135.26372214 1114.46899346 -135.19946289 1072.35473633 C-135.17719361 1057.73974682 -135.15516862 1043.124757 -135.13415527 1028.50976562 C-135.13220004 1027.15013497 -135.13220004 1027.15013497 -135.1302053 1025.76303703 C-135.06994662 983.62752357 -135.04893952 941.49201715 -135.03806065 899.35646535 C-135.0373537 896.62106718 -135.03662982 893.88566901 -135.0359025 891.15027084 C-135.03110951 873.02267703 -135.02699313 854.89508311 -135.02332981 836.76748905 C-135.01603471 800.69793267 -135.00476408 764.62837786 -134.99076233 728.55882347 C-134.99009556 726.84108887 -134.98943156 725.12335427 -134.98877036 723.40561968 C-134.95898056 646.07497706 -134.88294255 568.74440478 -134.78686523 491.41381836 C-134.7855162 490.32765486 -134.7855162 490.32765486 -134.78413992 489.21954867 C-134.73912449 453.00443492 -134.69146996 416.7893248 -134.640625 380.57421875 C-135.33038485 380.9767389 -136.02014469 381.37925905 -136.73080635 381.79397678 C-139.88573298 383.63499057 -143.04076601 385.47582195 -146.19580078 387.31665039 C-147.28085403 387.94985451 -148.36590729 388.58305862 -149.48384094 389.23545074 C-156.81669976 393.51363396 -164.15765759 397.77684465 -171.515625 402.01171875 C-173.70053038 403.27081677 -175.88542592 404.52993186 -178.0703125 405.7890625 C-179.15538086 406.41409668 -180.24044922 407.03913086 -181.35839844 407.68310547 C-186.78722442 410.81102023 -192.21381781 413.94280323 -197.640625 417.07421875 C-199.80728083 418.32423754 -201.9739475 419.57423753 -204.140625 420.82421875 C-205.213125 421.44296875 -206.285625 422.06171875 -207.390625 422.69921875 C-321.140625 488.32421875 -321.140625 488.32421875 -324.39111328 490.19946289 C-326.55619571 491.44857393 -328.72123482 492.69776004 -330.88623047 493.94702148 C-336.32678206 497.08624184 -341.76809716 500.22412438 -347.2109375 503.359375 C-357.66268699 509.38169204 -368.10362048 515.42091212 -378.515625 521.51171875 C-387.78562277 526.93343053 -397.09894252 532.2762679 -406.42907715 537.59344482 C-415.5534534 542.79467004 -424.64195274 548.05449753 -433.70751953 553.35766602 C-444.23147125 559.51188617 -454.79442637 565.59791871 -465.35839844 571.68310547 C-469.70669458 574.18845372 -474.05354841 576.69629697 -478.40014648 579.20458984 C-480.54780331 580.44370353 -482.69574918 581.68231639 -484.84399414 582.92041016 C-489.91866457 585.84565877 -494.9906841 588.77524462 -500.0539856 591.72012329 C-502.44378168 593.10970505 -504.83499336 594.49684047 -507.22631836 595.88378906 C-508.91203089 596.86285128 -510.59569087 597.84544481 -512.27929688 598.828125 C-513.30216797 599.42109375 -514.32503906 600.0140625 -515.37890625 600.625 C-516.27649658 601.14747314 -517.17408691 601.66994629 -518.09887695 602.20825195 C-520.640625 603.57421875 -520.640625 603.57421875 -525.640625 605.57421875 C-525.640625 1055.36421875 -525.640625 1505.15421875 -525.640625 1968.57421875 C-533.890625 1973.19421875 -542.140625 1977.81421875 -550.640625 1982.57421875 C-559.6037669 1987.77952222 -559.6037669 1987.77952222 -568.55078125 1993.01171875 C-574.85632919 1996.70635185 -581.18356936 2000.36274556 -587.515625 2004.01171875 C-589.13585571 2004.94552368 -589.13585571 2004.94552368 -590.78881836 2005.89819336 C-592.97858834 2007.15998701 -595.16844855 2008.42162409 -597.35839844 2009.68310547 C-603.85398816 2013.42565516 -610.34668542 2017.17322118 -616.83959961 2020.92041016 C-621.92687532 2023.85604634 -627.01488604 2026.79038487 -632.1055603 2029.72012329 C-634.51606248 2031.1074997 -636.92613876 2032.49561499 -639.33618164 2033.88378906 C-641.04206468 2034.8659569 -642.74856486 2035.8470526 -644.45507812 2036.828125 C-645.99905273 2037.71757812 -645.99905273 2037.71757812 -647.57421875 2038.625 C-648.48228271 2039.14747314 -649.39034668 2039.66994629 -650.32592773 2040.20825195 C-652.13188701 2041.27399841 -653.89583629 2042.41102627 -655.640625 2043.57421875 C-659.11908476 2043.20092286 -661.89147892 2041.46298453 -664.90234375 2039.765625 C-665.929646 2039.1888501 -666.95694824 2038.6120752 -668.01538086 2038.01782227 C-669.10858643 2037.39705811 -670.20179199 2036.77629395 -671.328125 2036.13671875 C-672.45935791 2035.49855225 -673.59059082 2034.86038574 -674.75610352 2034.20288086 C-681.56070882 2030.35347376 -688.33147897 2026.45189005 -695.05566406 2022.46386719 C-701.36758794 2018.72113344 -707.71994563 2015.05023892 -714.078125 2011.38671875 C-715.18534912 2010.74871338 -716.29257324 2010.11070801 -717.43334961 2009.45336914 C-719.70399568 2008.14532398 -721.97474858 2006.83746427 -724.24560547 2005.52978516 C-730.78315885 2001.76408671 -737.31770753 1997.993172 -743.85107422 1994.22021484 C-748.88020012 1991.31671555 -753.91129616 1988.41684631 -758.95083618 1985.53146362 C-760.72495045 1984.51544691 -762.49832419 1983.49814947 -764.27148438 1982.48046875 C-766.48877814 1981.20839583 -768.70743575 1979.9386959 -770.92773438 1978.671875 C-771.93771484 1978.09179688 -772.94769531 1977.51171875 -773.98828125 1976.9140625 C-774.86492432 1976.41253662 -775.74156738 1975.91101074 -776.64477539 1975.39428711 C-777.63340576 1974.79366455 -778.62203613 1974.19304199 -779.640625 1973.57421875 C-780.74034283 1973.01833604 -780.74034283 1973.01833604 -781.86227718 1972.45122338 C-788.12204026 1968.95455559 -788.12204026 1968.95455559 -789.47761102 1965.34638106 C-789.79853999 1962.57291277 -789.82991389 1959.9197688 -789.76876748 1957.12811947 C-789.78138833 1956.06983337 -789.79400918 1955.01154727 -789.80701249 1953.9211919 C-789.83851459 1950.34895585 -789.80552181 1946.78018088 -789.77319527 1943.20799255 C-789.78257792 1940.62078063 -789.79590501 1938.03358051 -789.81283456 1935.44640696 C-789.84340873 1929.79047964 -789.8403683 1924.13533203 -789.81568266 1918.4793874 C-789.77889473 1910.0124128 -789.79390685 1901.54607256 -789.81912644 1893.07908383 C-789.86057316 1878.65042332 -789.85915399 1864.222048 -789.83459854 1849.79336166 C-789.80985759 1835.16669809 -789.80459765 1820.54022234 -789.82323456 1805.91354752 C-789.82439711 1804.99052781 -789.82555967 1804.06750811 -789.82675745 1803.11651812 C-789.83155675 1799.35734925 -789.83649511 1795.59818061 -789.84160993 1791.83901216 C-789.8892449 1756.80483984 -789.89242867 1721.77079346 -789.86728287 1686.73660278 C-789.86653771 1685.69792636 -789.86579255 1684.65924994 -789.86502481 1683.58909847 C-789.86390526 1682.0286024 -789.86390526 1682.0286024 -789.86276309 1680.43658116 C-789.84007365 1648.76938159 -789.83418297 1617.10223408 -789.84496689 1585.43502808 C-789.8456642 1583.3161939 -789.84635861 1581.19735972 -789.84705012 1579.07852554 C-789.84984421 1570.56426261 -789.8527122 1562.04999972 -789.85568799 1553.53573686 C-789.86394193 1529.73339435 -789.8690767 1505.93105166 -789.87176323 1482.12870789 C-789.87188604 1481.04471686 -789.87200885 1479.96072583 -789.87213539 1478.8438866 C-789.87582004 1444.2922635 -789.8656709 1409.74065855 -789.84611702 1375.18904114 C-789.84548478 1374.06804151 -789.84485254 1372.94704187 -789.84420114 1371.79207256 C-789.83389604 1353.58663489 -789.82292114 1335.38119762 -789.81188957 1317.17576039 C-789.76818099 1244.96640718 -789.77020967 1172.75720413 -789.81396484 1100.54785156 C-789.82495515 1082.35169998 -789.83585443 1064.15554837 -789.84611702 1045.95939636 C-789.84675105 1044.83906241 -789.84738509 1043.71872845 -789.84803833 1042.56444498 C-789.8674378 1008.04953746 -789.87567364 973.53464243 -789.87176323 939.01972961 C-789.87164097 937.93652999 -789.87151871 936.85333037 -789.87139275 935.73730652 C-789.8685807 911.96160996 -789.86287847 888.18591472 -789.8545687 864.41021946 C-789.8516063 855.90347141 -789.84878859 847.3967233 -789.8460123 838.88997518 C-789.84531581 836.77362916 -789.84460724 834.65728315 -789.84388654 832.54093714 C-789.83313473 800.88038245 -789.84231053 769.21988641 -789.86502481 737.55933903 C-789.86576997 736.52066261 -789.86651513 735.48198618 -789.86728287 734.41183472 C-789.86802701 733.37506608 -789.86877115 732.33829745 -789.86953784 731.27011158 C-789.89433544 696.33904472 -789.88528425 661.40812911 -789.83775617 626.47708392 C-789.83278476 622.7296861 -789.82795445 618.98228813 -789.82323456 615.23488998 C-789.82147677 613.85533458 -789.82147677 613.85533458 -789.81968346 612.44790938 C-789.80189964 597.85765793 -789.81432523 583.26759386 -789.83915561 568.67735928 C-789.86290516 554.34694192 -789.85471297 540.01684219 -789.81202882 525.68646531 C-789.78793135 517.27435976 -789.78864834 508.86312295 -789.82536319 500.45105806 C-789.84982589 494.22122329 -789.82782188 487.99239285 -789.78705672 481.76266162 C-789.77793257 479.24672869 -789.78414299 476.73068576 -789.80691016 474.21483929 C-789.83551296 470.81499818 -789.80931042 467.41993271 -789.76876748 464.02031803 C-789.79028416 463.03797064 -789.81180083 462.05562325 -789.83396953 461.04350775 C-789.73487873 456.99231814 -789.66142105 454.56395702 -786.66893703 451.66251951 C-784.38356706 450.11748281 -782.10235045 448.81443676 -779.640625 447.57421875 C-778.63515625 446.97770508 -777.6296875 446.38119141 -776.59375 445.76660156 C-775.70171875 445.27514648 -774.8096875 444.78369141 -773.890625 444.27734375 C-772.37384155 443.43635132 -772.37384155 443.43635132 -770.82641602 442.57836914 C-769.77510498 441.99949951 -768.72379395 441.42062988 -767.640625 440.82421875 C-760.45169879 436.83246051 -753.27425937 432.83423231 -746.203125 428.63671875 C-739.23292665 424.50103906 -732.22561488 420.43300808 -725.203125 416.38671875 C-724.09590088 415.74871338 -722.98867676 415.11070801 -721.84790039 414.45336914 C-719.57725432 413.14532398 -717.30650142 411.83746427 -715.03564453 410.52978516 C-709.5689252 407.38089821 -704.10487613 404.22738611 -698.640625 401.07421875 C-696.47397189 399.82419525 -694.30730521 398.57419528 -692.140625 397.32421875 C-691.068125 396.70546875 -689.995625 396.08671875 -688.890625 395.44921875 C-616.30729167 353.57421875 -543.72395833 311.69921875 -471.140625 269.82421875 C-470.06828613 269.20554932 -468.99594727 268.58687988 -467.89111328 267.94946289 C-465.72286236 266.69857395 -463.55456803 265.44776023 -461.38623047 264.19702148 C-455.99344585 261.0862354 -450.60140407 257.97417637 -445.2109375 254.859375 C-433.40433016 248.03919238 -421.580355 241.25098615 -409.73590088 234.49685669 C-400.69733072 229.3408643 -391.69785362 224.12101202 -382.71826172 218.86303711 C-374.46138858 214.03549039 -366.15968469 209.28873204 -357.84960938 204.55371094 C-349.75318367 199.93919071 -341.68255991 195.2832662 -333.640625 190.57421875 C-324.41261971 185.17065415 -315.1406783 179.84769514 -305.84960938 174.55371094 C-297.75318367 169.93919071 -289.68255991 165.2832662 -281.640625 160.57421875 C-272.41261971 155.17065415 -263.1406783 149.84769514 -253.84960938 144.55371094 C-245.75318367 139.93919071 -237.68255991 135.2832662 -229.640625 130.57421875 C-220.41261971 125.17065415 -211.1406783 119.84769514 -201.84960938 114.55371094 C-193.75318367 109.93919071 -185.68255991 105.2832662 -177.640625 100.57421875 C-168.41261971 95.17065415 -159.1406783 89.84769514 -149.84960938 84.55371094 C-141.75318282 79.93919023 -133.68261043 75.28318081 -125.640625 70.57421875 C-117.0454521 65.54232085 -108.41750278 60.57032751 -99.765625 55.63671875 C-87.44037304 48.60818368 -75.14340433 41.53181441 -62.85839844 34.43310547 C-57.45391852 31.31097268 -52.047131 28.19284123 -46.640625 25.07421875 C-44.50129946 23.83984829 -42.36197655 22.60547328 -40.22265625 21.37109375 C-36.22471592 19.06452019 -32.22629304 16.75878749 -28.2272644 14.45410156 C-25.83635903 13.07614937 -23.44563828 11.69787703 -21.05493164 10.31958008 C-19.37078537 9.34880893 -17.68637269 8.37850001 -16.00195312 7.40820312 C-14.97908203 6.81845703 -13.95621094 6.22871094 -12.90234375 5.62109375 C-12.00475342 5.10385742 -11.10716309 4.58662109 -10.18237305 4.05371094 C-8.42256697 3.02936891 -6.68828987 1.96036365 -4.97680664 0.85717773 C-2.640625 -0.42578125 -2.640625 -0.42578125 0 0 Z " fill="#D3613A" transform="translate(1317.640625,228.42578125)"/>
<path d="M0 0 C4.88654355 2.28985704 9.47754047 4.99831026 14.109375 7.76171875 C16.27305049 9.03841653 18.43712666 10.31443546 20.6015625 11.58984375 C21.71756836 12.24919922 22.83357422 12.90855469 23.98339844 13.58789062 C29.3806383 16.76347231 34.807015 19.88798435 40.234375 23.01171875 C42.41928876 24.27080223 44.60418449 25.52991698 46.7890625 26.7890625 C48.41666504 27.72661377 48.41666504 27.72661377 50.07714844 28.68310547 C56.58808757 32.43449899 63.09600694 36.19112869 69.60449219 39.94677734 C75.04522836 43.08604121 80.48668977 46.22403372 85.9296875 49.359375 C90.25208923 51.84926585 94.57221967 54.3430287 98.890625 56.83984375 C102.78336738 59.0904097 106.68097207 61.33197188 110.58547974 63.56202698 C113.38822695 65.16483439 116.18572364 66.77677335 118.984375 68.38671875 C120.55082764 69.27629272 120.55082764 69.27629272 122.14892578 70.18383789 C123.57180908 71.00549438 123.57180908 71.00549438 125.0234375 71.84375 C125.86342285 72.32432861 126.7034082 72.80490723 127.56884766 73.30004883 C128.15972168 73.7205249 128.7505957 74.14100098 129.359375 74.57421875 C129.359375 75.23421875 129.359375 75.89421875 129.359375 76.57421875 C128.35692749 77.13181885 128.35692749 77.13181885 127.33422852 77.70068359 C110.55248966 87.04005365 110.55248966 87.04005365 93.9453125 96.68432617 C87.63266023 100.42646284 81.28033734 104.09803553 74.921875 107.76171875 C73.81465088 108.39972412 72.70742676 109.03772949 71.56665039 109.69506836 C69.29600432 111.00311352 67.02525142 112.31097323 64.75439453 113.61865234 C59.2876752 116.76753929 53.82362613 119.92105139 48.359375 123.07421875 C46.19272189 124.32424225 44.02605521 125.57424222 41.859375 126.82421875 C40.786875 127.44296875 39.714375 128.06171875 38.609375 128.69921875 C28.859375 134.32421875 28.859375 134.32421875 25.60888672 136.19946289 C23.44380429 137.44857393 21.27876518 138.69776004 19.11376953 139.94702148 C13.67321794 143.08624184 8.23190284 146.22412438 2.7890625 149.359375 C-7.66268699 155.38169204 -18.10362048 161.42091212 -28.515625 167.51171875 C-37.78562277 172.93343053 -47.09894252 178.2762679 -56.42907715 183.59344482 C-65.5534534 188.79467004 -74.64195274 194.05449753 -83.70751953 199.35766602 C-94.23147125 205.51188617 -104.79442637 211.59791871 -115.35839844 217.68310547 C-120.78722442 220.81102023 -126.21381781 223.94280323 -131.640625 227.07421875 C-133.80728083 228.32423754 -135.9739475 229.57423753 -138.140625 230.82421875 C-139.213125 231.44296875 -140.285625 232.06171875 -141.390625 232.69921875 C-333.14062499 343.32421874 -333.14062499 343.32421874 -336.39111328 345.19946289 C-338.55619571 346.44857393 -340.72123482 347.69776004 -342.88623047 348.94702148 C-348.32678206 352.08624184 -353.76809716 355.22412438 -359.2109375 358.359375 C-369.66268699 364.38169204 -380.10362048 370.42091212 -390.515625 376.51171875 C-399.78562277 381.93343053 -409.09894252 387.2762679 -418.42907715 392.59344482 C-427.5534534 397.79467004 -436.64195274 403.05449753 -445.70751953 408.35766602 C-456.23147125 414.51188617 -466.79442637 420.59791871 -477.35839844 426.68310547 C-482.78722442 429.81102023 -488.21381781 432.94280323 -493.640625 436.07421875 C-495.80728083 437.32423754 -497.9739475 438.57423753 -500.140625 439.82421875 C-501.213125 440.44296875 -502.285625 441.06171875 -503.390625 441.69921875 C-591.14062502 492.32421876 -591.14062502 492.32421876 -594.39233398 494.20019531 C-596.55331488 495.44692131 -598.71428498 496.69366602 -600.87524414 497.94042969 C-606.37881351 501.11567758 -611.88258532 504.2905737 -617.38671875 507.46484375 C-618.50755859 508.11130859 -619.62839844 508.75777344 -620.78320312 509.42382812 C-622.87167231 510.62838089 -624.96020607 511.83282171 -627.04882812 513.03710938 C-629.01311036 514.17010012 -630.96421272 515.32627612 -632.90084083 516.50591348 C-635.64287984 518.10753773 -638.4097044 519.31070168 -641.36203702 520.47546523 C-650.62626171 524.40153562 -650.62626171 524.40153562 -656.74170454 531.9871721 C-658.55644364 539.38857238 -658.1408305 547.00986807 -657.97853374 554.57244396 C-657.99259144 557.1673388 -658.0149897 559.76219949 -658.0449672 562.35695925 C-658.09683825 568.01509316 -658.07820224 573.66958848 -658.01340546 579.32753869 C-657.91679458 587.79666246 -657.93035457 596.26319559 -657.9652704 604.73267154 C-658.02159269 619.1662794 -657.98797817 633.59842698 -657.90552902 648.03185272 C-657.82234623 662.6581351 -657.78064942 677.28366264 -657.78967094 691.91018867 C-657.7902161 692.83395472 -657.79076125 693.75772077 -657.79132292 694.70947972 C-657.79429405 699.41975858 -657.79794107 704.13003668 -657.80182681 708.84031486 C-657.82857065 742.93512818 -657.76337971 777.02926953 -657.64949608 811.12387657 C-657.53697988 844.88976046 -657.46377165 878.65535663 -657.44329262 912.42142677 C-657.44263879 913.46995788 -657.44198497 914.51848898 -657.44131133 915.59879375 C-657.43536056 925.17547144 -657.42989444 934.75214936 -657.42500981 944.32882765 C-657.41286108 968.1356727 -657.39463383 991.94251102 -657.37228107 1015.74934864 C-657.37076153 1017.37553797 -657.37076153 1017.37553797 -657.36921128 1019.0345796 C-657.31939899 1071.77470766 -657.19955403 1124.51464578 -657.07397461 1177.25463867 C-657.03043317 1195.55722917 -656.98720132 1213.85982032 -656.94525146 1232.16241455 C-656.94264943 1233.29753889 -656.9400474 1234.43266322 -656.93736651 1235.60218527 C-656.81683504 1288.36857003 -656.74604476 1341.13498738 -656.68809036 1393.90147368 C-656.68432714 1397.32699716 -656.68054248 1400.75252062 -656.67675345 1404.17804408 C-656.65167767 1426.87911495 -656.62745932 1449.58018668 -656.60381513 1472.28125908 C-656.55676125 1517.4509865 -656.50466927 1562.6207077 -656.44911623 1607.79042545 C-656.44647067 1609.94153847 -656.44382863 1612.0926515 -656.44119013 1614.24376453 C-656.3223774 1711.08537375 -656.14495519 1807.92684371 -655.94213867 1904.76831055 C-655.9402399 1905.67512089 -655.93834113 1906.58193123 -655.93638482 1907.51622067 C-655.84137552 1952.86889461 -655.74302179 1998.22156088 -655.640625 2043.57421875 C-659.11475381 2042.77867178 -661.78621802 2041.52232482 -664.90234375 2039.765625 C-665.929646 2039.1888501 -666.95694824 2038.6120752 -668.01538086 2038.01782227 C-669.10858643 2037.39705811 -670.20179199 2036.77629395 -671.328125 2036.13671875 C-672.45935791 2035.49855225 -673.59059082 2034.86038574 -674.75610352 2034.20288086 C-681.56070882 2030.35347376 -688.33147897 2026.45189005 -695.05566406 2022.46386719 C-701.36758794 2018.72113344 -707.71994563 2015.05023892 -714.078125 2011.38671875 C-715.18534912 2010.74871338 -716.29257324 2010.11070801 -717.43334961 2009.45336914 C-719.70399568 2008.14532398 -721.97474858 2006.83746427 -724.24560547 2005.52978516 C-730.78315885 2001.76408671 -737.31770753 1997.993172 -743.85107422 1994.22021484 C-748.88020012 1991.31671555 -753.91129616 1988.41684631 -758.95083618 1985.53146362 C-760.72495045 1984.51544691 -762.49832419 1983.49814947 -764.27148438 1982.48046875 C-766.48877814 1981.20839583 -768.70743575 1979.9386959 -770.92773438 1978.671875 C-771.93771484 1978.09179688 -772.94769531 1977.51171875 -773.98828125 1976.9140625 C-774.86492432 1976.41253662 -775.74156738 1975.91101074 -776.64477539 1975.39428711 C-777.63340576 1974.79366455 -778.62203613 1974.19304199 -779.640625 1973.57421875 C-780.74034283 1973.01833604 -780.74034283 1973.01833604 -781.86227718 1972.45122338 C-788.12204026 1968.95455559 -788.12204026 1968.95455559 -789.47761102 1965.34638106 C-789.79853999 1962.57291277 -789.82991389 1959.9197688 -789.76876748 1957.12811947 C-789.78138833 1956.06983337 -789.79400918 1955.01154727 -789.80701249 1953.9211919 C-789.83851459 1950.34895585 -789.80552181 1946.78018088 -789.77319527 1943.20799255 C-789.78257792 1940.62078063 -789.79590501 1938.03358051 -789.81283456 1935.44640696 C-789.84340873 1929.79047964 -789.8403683 1924.13533203 -789.81568266 1918.4793874 C-789.77889473 1910.0124128 -789.79390685 1901.54607256 -789.81912644 1893.07908383 C-789.86057316 1878.65042332 -789.85915399 1864.222048 -789.83459854 1849.79336166 C-789.80985759 1835.16669809 -789.80459765 1820.54022234 -789.82323456 1805.91354752 C-789.82439711 1804.99052781 -789.82555967 1804.06750811 -789.82675745 1803.11651812 C-789.83155675 1799.35734925 -789.83649511 1795.59818061 -789.84160993 1791.83901216 C-789.8892449 1756.80483984 -789.89242867 1721.77079346 -789.86728287 1686.73660278 C-789.86653771 1685.69792636 -789.86579255 1684.65924994 -789.86502481 1683.58909847 C-789.86390526 1682.0286024 -789.86390526 1682.0286024 -789.86276309 1680.43658116 C-789.84007365 1648.76938159 -789.83418297 1617.10223408 -789.84496689 1585.43502808 C-789.8456642 1583.3161939 -789.84635861 1581.19735972 -789.84705012 1579.07852554 C-789.84984421 1570.56426261 -789.8527122 1562.04999972 -789.85568799 1553.53573686 C-789.86394193 1529.73339435 -789.8690767 1505.93105166 -789.87176323 1482.12870789 C-789.87188604 1481.04471686 -789.87200885 1479.96072583 -789.87213539 1478.8438866 C-789.87582004 1444.2922635 -789.8656709 1409.74065855 -789.84611702 1375.18904114 C-789.84548478 1374.06804151 -789.84485254 1372.94704187 -789.84420114 1371.79207256 C-789.83389604 1353.58663489 -789.82292114 1335.38119762 -789.81188957 1317.17576039 C-789.76818099 1244.96640718 -789.77020967 1172.75720413 -789.81396484 1100.54785156 C-789.82495515 1082.35169998 -789.83585443 1064.15554837 -789.84611702 1045.95939636 C-789.84675105 1044.83906241 -789.84738509 1043.71872845 -789.84803833 1042.56444498 C-789.8674378 1008.04953746 -789.87567364 973.53464243 -789.87176323 939.01972961 C-789.87164097 937.93652999 -789.87151871 936.85333037 -789.87139275 935.73730652 C-789.8685807 911.96160996 -789.86287847 888.18591472 -789.8545687 864.41021946 C-789.8516063 855.90347141 -789.84878859 847.3967233 -789.8460123 838.88997518 C-789.84531581 836.77362916 -789.84460724 834.65728315 -789.84388654 832.54093714 C-789.83313473 800.88038245 -789.84231053 769.21988641 -789.86502481 737.55933903 C-789.86576997 736.52066261 -789.86651513 735.48198618 -789.86728287 734.41183472 C-789.86802701 733.37506608 -789.86877115 732.33829745 -789.86953784 731.27011158 C-789.89433544 696.33904472 -789.88528425 661.40812911 -789.83775617 626.47708392 C-789.83278476 622.7296861 -789.82795445 618.98228813 -789.82323456 615.23488998 C-789.82147677 613.85533458 -789.82147677 613.85533458 -789.81968346 612.44790938 C-789.80189964 597.85765793 -789.81432523 583.26759386 -789.83915561 568.67735928 C-789.86290516 554.34694192 -789.85471297 540.01684219 -789.81202882 525.68646531 C-789.78793135 517.27435976 -789.78864834 508.86312295 -789.82536319 500.45105806 C-789.84982589 494.22122329 -789.82782188 487.99239285 -789.78705672 481.76266162 C-789.77793257 479.24672869 -789.78414299 476.73068576 -789.80691016 474.21483929 C-789.83551296 470.81499818 -789.80931042 467.41993271 -789.76876748 464.02031803 C-789.79028416 463.03797064 -789.81180083 462.05562325 -789.83396953 461.04350775 C-789.73487873 456.99231814 -789.66142105 454.56395702 -786.66893703 451.66251951 C-784.38356706 450.11748281 -782.10235045 448.81443676 -779.640625 447.57421875 C-778.63515625 446.97770508 -777.6296875 446.38119141 -776.59375 445.76660156 C-775.70171875 445.27514648 -774.8096875 444.78369141 -773.890625 444.27734375 C-772.37384155 443.43635132 -772.37384155 443.43635132 -770.82641602 442.57836914 C-769.77510498 441.99949951 -768.72379395 441.42062988 -767.640625 440.82421875 C-760.45169879 436.83246051 -753.27425937 432.83423231 -746.203125 428.63671875 C-739.23292665 424.50103906 -732.22561488 420.43300808 -725.203125 416.38671875 C-724.09590088 415.74871338 -722.98867676 415.11070801 -721.84790039 414.45336914 C-719.57725432 413.14532398 -717.30650142 411.83746427 -715.03564453 410.52978516 C-709.5689252 407.38089821 -704.10487613 404.22738611 -698.640625 401.07421875 C-696.47397189 399.82419525 -694.30730521 398.57419528 -692.140625 397.32421875 C-691.068125 396.70546875 -689.995625 396.08671875 -688.890625 395.44921875 C-616.30729167 353.57421875 -543.72395833 311.69921875 -471.140625 269.82421875 C-470.06828613 269.20554932 -468.99594727 268.58687988 -467.89111328 267.94946289 C-465.72286236 266.69857395 -463.55456803 265.44776023 -461.38623047 264.19702148 C-455.99344585 261.0862354 -450.60140407 257.97417637 -445.2109375 254.859375 C-433.40433016 248.03919238 -421.580355 241.25098615 -409.73590088 234.49685669 C-400.69733072 229.3408643 -391.69785362 224.12101202 -382.71826172 218.86303711 C-374.46138858 214.03549039 -366.15968469 209.28873204 -357.84960938 204.55371094 C-349.75318367 199.93919071 -341.68255991 195.2832662 -333.640625 190.57421875 C-324.41261971 185.17065415 -315.1406783 179.84769514 -305.84960938 174.55371094 C-297.75318367 169.93919071 -289.68255991 165.2832662 -281.640625 160.57421875 C-272.41261971 155.17065415 -263.1406783 149.84769514 -253.84960938 144.55371094 C-245.75318367 139.93919071 -237.68255991 135.2832662 -229.640625 130.57421875 C-220.41261971 125.17065415 -211.1406783 119.84769514 -201.84960938 114.55371094 C-193.75318367 109.93919071 -185.68255991 105.2832662 -177.640625 100.57421875 C-168.41261971 95.17065415 -159.1406783 89.84769514 -149.84960938 84.55371094 C-141.75318282 79.93919023 -133.68261043 75.28318081 -125.640625 70.57421875 C-117.0454521 65.54232085 -108.41750278 60.57032751 -99.765625 55.63671875 C-87.44037304 48.60818368 -75.14340433 41.53181441 -62.85839844 34.43310547 C-57.45391852 31.31097268 -52.047131 28.19284123 -46.640625 25.07421875 C-44.50129946 23.83984829 -42.36197655 22.60547328 -40.22265625 21.37109375 C-36.22471592 19.06452019 -32.22629304 16.75878749 -28.2272644 14.45410156 C-25.83635903 13.07614937 -23.44563828 11.69787703 -21.05493164 10.31958008 C-19.37078537 9.34880893 -17.68637269 8.37850001 -16.00195312 7.40820312 C-14.97908203 6.81845703 -13.95621094 6.22871094 -12.90234375 5.62109375 C-12.00475342 5.10385742 -11.10716309 4.58662109 -10.18237305 4.05371094 C-8.42256697 3.02936891 -6.68828987 1.96036365 -4.97680664 0.85717773 C-2.640625 -0.42578125 -2.640625 -0.42578125 0 0 Z " fill="#D3613A" transform="translate(1317.640625,228.42578125)"/>
<path d="M0 0 C0 49.83 0 99.66 0 151 C-8.25 155.62 -16.5 160.24 -25 165 C-31.24149408 168.65197777 -31.24149408 168.65197777 -37.46875 172.328125 C-43.09867855 175.66001908 -48.7691917 178.92147673 -54.4375 182.1875 C-55.54472412 182.82550537 -56.65194824 183.46351074 -57.79272461 184.12084961 C-60.06337068 185.42889477 -62.33412358 186.73675448 -64.60498047 188.04443359 C-68.9952946 190.5733 -73.38386224 193.10518624 -77.7722168 195.63745117 C-79.92330203 196.87870594 -82.07450639 198.11975427 -84.22583008 199.3605957 C-89.7693105 202.55800124 -95.31147481 205.75765659 -100.8515625 208.9609375 C-110.48471679 214.52872392 -120.11697581 220.09341894 -129.82910156 225.52246094 C-139.46840394 230.92503443 -149.01425879 236.49275285 -158.58007812 242.02392578 C-161.92168544 243.95474885 -165.26513988 245.88232626 -168.609375 247.80859375 C-179.04853555 253.82235612 -189.47616174 259.85424867 -199.875 265.9375 C-207.99844803 270.68966316 -216.15364588 275.38338743 -224.33157349 280.04092407 C-233.72933682 285.39410064 -243.11135552 290.77267817 -252.4375 296.25 C-253.33678223 296.774729 -254.23606445 297.29945801 -255.16259766 297.84008789 C-255.99452637 298.33114014 -256.82645508 298.82219238 -257.68359375 299.328125 C-258.40087646 299.7499707 -259.11815918 300.17181641 -259.85717773 300.60644531 C-262.10320493 302.01403577 -262.10320493 302.01403577 -264.41357422 303.95678711 C-267.07209198 306.0569509 -269.75021992 307.69885576 -272.69921875 309.36328125 C-273.81248535 309.99500244 -274.92575195 310.62672363 -276.07275391 311.27758789 C-276.95510712 311.77429489 -276.95510712 311.77429489 -277.85528564 312.28103638 C-280.36686315 313.69495436 -282.87292516 315.1185265 -285.37945557 316.54136658 C-286.67616536 317.27727543 -287.97316501 318.01267376 -289.27044678 318.74757385 C-295.57436268 322.31957855 -301.85209811 325.93633135 -308.125 329.5625 C-309.18807373 330.17649658 -310.25114746 330.79049316 -311.34643555 331.4230957 C-313.4918156 332.66223343 -315.63707971 333.9015719 -317.78222656 335.14111328 C-323.18670645 338.26324605 -328.59347412 341.38141204 -334 344.5 C-336.1666775 345.74998122 -338.33334417 346.99998121 -340.5 348.25 C-353.5 355.75 -353.5 355.75 -356.75048828 357.62524414 C-358.91557071 358.87435518 -361.08060982 360.12354129 -363.24560547 361.37280273 C-368.68615706 364.51202309 -374.12747216 367.64990563 -379.5703125 370.78515625 C-390.02206199 376.80747329 -400.46299548 382.84669337 -410.875 388.9375 C-420.14499777 394.35921178 -429.45831752 399.70204915 -438.78845215 405.01922607 C-447.9128284 410.22045129 -457.00132774 415.48027878 -466.06689453 420.78344727 C-476.59084625 426.93766742 -487.15380137 433.02369996 -497.71777344 439.10888672 C-503.14659942 442.23680148 -508.57319281 445.36858448 -514 448.5 C-516.16665583 449.75001879 -518.3333225 451.00001878 -520.5 452.25 C-521.5725 452.86875 -522.645 453.4875 -523.75 454.125 C-585.5 489.75 -585.5 489.75 -588.75097656 491.62548828 C-590.91447476 492.87371034 -593.07788643 494.12208239 -595.24121094 495.37060547 C-600.70565017 498.52405256 -606.17163645 501.67476096 -611.640625 504.8203125 C-613.84383665 506.08839113 -616.04696237 507.35661906 -618.25 508.625 C-619.31541016 509.23802979 -620.38082031 509.85105957 -621.47851562 510.48266602 C-626.82399409 513.565307 -632.15179959 516.67398363 -637.453125 519.83203125 C-638.47245117 520.43901855 -639.49177734 521.04600586 -640.54199219 521.67138672 C-642.47219544 522.82383722 -644.40004851 523.98023579 -646.32519531 525.14111328 C-647.60281738 525.90464111 -647.60281738 525.90464111 -648.90625 526.68359375 C-649.65197266 527.13275146 -650.39769531 527.58190918 -651.16601562 528.04467773 C-653 529 -653 529 -655 529 C-655 978.79 -655 1428.58 -655 1892 C-663.25 1896.62 -671.5 1901.24 -680 1906 C-688.9631419 1911.20530347 -688.9631419 1911.20530347 -697.91015625 1916.4375 C-704.21570419 1920.1321331 -710.54294436 1923.78852681 -716.875 1927.4375 C-717.95515381 1928.06003662 -719.03530762 1928.68257324 -720.14819336 1929.32397461 C-722.33796334 1930.58576826 -724.52782355 1931.84740534 -726.71777344 1933.10888672 C-731.06616594 1935.61429049 -735.41313097 1938.12216324 -739.75976562 1940.63061523 C-741.90648932 1941.86912212 -744.0536198 1943.10692422 -746.20117188 1944.34399414 C-751.2874339 1947.27477871 -756.36964535 1950.21202254 -761.43914795 1953.17169189 C-763.8381957 1954.57178169 -766.2393241 1955.96828095 -768.640625 1957.36450195 C-770.33798226 1958.35343237 -772.03230902 1959.34755838 -773.7265625 1960.34179688 C-774.75265625 1960.93798828 -775.77875 1961.53417969 -776.8359375 1962.1484375 C-777.73876465 1962.67614746 -778.6415918 1963.20385742 -779.57177734 1963.74755859 C-781.76995715 1964.88134729 -783.61131184 1965.4549596 -786 1966 C-786.1209604 1919.77255367 -786.23694285 1873.5450954 -786.34912109 1827.31762695 C-786.35131664 1826.41304285 -786.35351219 1825.50845874 -786.35577427 1824.576463 C-786.590877 1727.65644277 -786.79378989 1630.73641853 -786.93154907 1533.81620789 C-786.93461698 1531.66354308 -786.93768492 1529.51087827 -786.94075288 1527.35821346 C-787.00505086 1482.17399561 -787.06481873 1436.98977267 -787.11935292 1391.80554199 C-787.14675177 1369.10827264 -787.17502119 1346.41100445 -787.20411371 1323.71373721 C-787.20849718 1320.28992327 -787.21285579 1316.86610931 -787.21721336 1313.44229534 C-787.28453928 1260.71543449 -787.37054479 1207.98868533 -787.51062012 1155.26196289 C-787.51363189 1154.12814526 -787.51664366 1152.99432764 -787.5197467 1151.8261519 C-787.56841935 1133.54545631 -787.61865857 1115.26476503 -787.66910569 1096.98407426 C-787.81437121 1044.335065 -787.9480677 991.68614161 -788.00507545 939.03695202 C-788.00625323 937.95444036 -788.007431 936.8719287 -788.00864446 935.75661366 C-788.03429028 911.99379599 -788.05397752 888.23097726 -788.06802162 864.46815002 C-788.07377737 854.90702638 -788.080391 845.34590337 -788.08729935 835.7847805 C-788.08803474 834.73835231 -788.08877014 833.69192412 -788.08952782 832.61378598 C-788.11365592 798.88833651 -788.20763978 765.16352485 -788.33820859 731.43833284 C-788.4693992 697.47003064 -788.53219326 663.5023475 -788.49972773 629.5337855 C-788.49525988 624.84111872 -788.4915775 620.14845164 -788.48836899 615.45578384 C-788.48771162 614.53587687 -788.48705425 613.61596989 -788.48637695 612.66818694 C-788.47799804 598.09375895 -788.54369726 583.52063965 -788.64021697 568.94656839 C-788.73357938 554.61981096 -788.74870452 540.2947517 -788.6802999 525.96783381 C-788.64254348 517.56401944 -788.66513387 509.1655856 -788.77677404 500.76239824 C-788.85291761 494.52588652 -788.81445754 488.29504014 -788.73107947 482.05873126 C-788.71534028 479.54984785 -788.73666723 477.04039496 -788.79917539 474.53224098 C-789.15603461 459.24639077 -789.15603461 459.24639077 -786 453 C-780.5926088 447.39031297 -773.64826493 444.18201166 -766.57861104 441.13764556 C-763.23083127 439.66065398 -760.19965198 437.88100781 -757.078125 435.9765625 C-755.13611511 434.85816133 -753.19341594 433.74095612 -751.25 432.625 C-749.04685608 431.35680371 -746.84373165 430.08857355 -744.640625 428.8203125 C-743.54298828 428.18899414 -742.44535156 427.55767578 -741.31445312 426.90722656 C-735.87349435 423.77635076 -730.43694752 420.63783458 -725 417.5 C-722.83335502 416.24996242 -720.66668834 414.99996244 -718.5 413.75 C-717.4275 413.13125 -716.355 412.5125 -715.25 411.875 C-627.5 361.25 -627.5 361.25 -624.24951172 359.37475586 C-622.08442929 358.12564482 -619.91939018 356.87645871 -617.75439453 355.62719727 C-612.31384294 352.48797691 -606.87252784 349.35009437 -601.4296875 346.21484375 C-590.97793801 340.19252671 -580.53700452 334.15330663 -570.125 328.0625 C-560.85500223 322.64078822 -551.54168248 317.29795085 -542.21154785 311.98077393 C-533.0871716 306.77954871 -523.99867226 301.51972122 -514.93310547 296.21655273 C-504.40915375 290.06233258 -493.84619863 283.97630004 -483.28222656 277.89111328 C-477.85340058 274.76319852 -472.42680719 271.63141552 -467 268.5 C-464.83334417 267.24998121 -462.6666775 265.99998122 -460.5 264.75 C-459.4275 264.13125 -458.355 263.5125 -457.25 262.875 C-265.5 152.25 -265.5 152.25 -262.24951172 150.37475586 C-260.08442929 149.12564482 -257.91939018 147.87645871 -255.75439453 146.62719727 C-250.31384294 143.48797691 -244.87252784 140.35009437 -239.4296875 137.21484375 C-228.97793801 131.19252671 -218.53700452 125.15330663 -208.125 119.0625 C-198.85500223 113.64078822 -189.54168248 108.29795085 -180.21154785 102.98077393 C-171.0871716 97.77954871 -161.99867226 92.51972122 -152.93310547 87.21655273 C-142.40915375 81.06233258 -131.84619863 74.97630004 -121.28222656 68.89111328 C-115.85340058 65.76319852 -110.42680719 62.63141552 -105 59.5 C-102.83334417 58.24998121 -100.6666775 56.99998122 -98.5 55.75 C-97.4275 55.13125 -96.355 54.5125 -95.25 53.875 C-59.50000001 33.25000001 -59.50000001 33.25000001 -56.24658203 31.37304688 C-54.09128689 30.1295949 -51.93601327 28.88610564 -49.78076172 27.64257812 C-44.77662326 24.75537125 -39.7722948 21.8684957 -34.76715088 18.98303223 C-33.01658759 17.97380896 -31.26609589 16.96446164 -29.515625 15.95507812 C-27.33607835 14.6983234 -25.15640168 13.44179414 -22.9765625 12.18554688 C-21.97625 11.60869141 -20.9759375 11.03183594 -19.9453125 10.4375 C-18.97368164 9.87804687 -18.00205078 9.31859375 -17.00097656 8.7421875 C-14.87646335 7.5088222 -12.75930869 6.26274096 -10.64746094 5.0078125 C-9.02372559 4.04488281 -9.02372559 4.04488281 -7.3671875 3.0625 C-6.3860498 2.47597656 -5.40491211 1.88945312 -4.39404297 1.28515625 C-2 0 -2 0 0 0 Z " fill="#B45231" transform="translate(1447,305)"/>
<path d="M0 0 C0 449.79 0 899.58 0 1363 C-8.25 1367.62 -16.5 1372.24 -25 1377 C-31.24149408 1380.65197777 -31.24149408 1380.65197777 -37.46875 1384.328125 C-43.09867855 1387.66001908 -48.7691917 1390.92147673 -54.4375 1394.1875 C-55.54472412 1394.82550537 -56.65194824 1395.46351074 -57.79272461 1396.12084961 C-60.06337068 1397.42889477 -62.33412358 1398.73675448 -64.60498047 1400.04443359 C-70.07169981 1403.19332054 -75.53574242 1406.3468438 -81 1409.5 C-83.14191627 1410.73569583 -85.2838434 1411.97137283 -87.42578125 1413.20703125 C-91.40462432 1415.50249458 -95.38330773 1417.79823414 -99.36178589 1420.09432983 C-101.15066918 1421.12673478 -102.93958717 1422.15907956 -104.72851562 1423.19140625 C-106.97337636 1424.48685948 -109.2181719 1425.7824257 -111.46289062 1427.078125 C-113.44599366 1428.22246473 -115.43012647 1429.36502271 -117.41552734 1430.50537109 C-119.01153248 1431.42835838 -120.60175247 1432.36153622 -122.18212891 1433.31103516 C-126.68964904 1436 -126.68964904 1436 -130 1436 C-130.02199196 1394.40657594 -130.0430798 1352.81315144 -130.06347656 1311.21972656 C-130.06387575 1310.40585027 -130.06427494 1309.59197398 -130.06468623 1308.75343477 C-130.10742481 1221.56721329 -130.14432003 1134.38099166 -130.16937256 1047.19476318 C-130.16993036 1045.25871184 -130.17048817 1043.3226605 -130.17104598 1041.38660916 C-130.18273604 1000.75077958 -130.19360298 960.11494981 -130.20351871 919.47911977 C-130.20850039 899.06721084 -130.21364029 878.65530196 -130.21892977 858.24339311 C-130.21972676 855.16428214 -130.22051923 852.08517117 -130.22131152 849.00606019 C-130.23355533 801.57703511 -130.24919786 754.14801414 -130.2746582 706.71899414 C-130.2752058 705.69878011 -130.27575339 704.67856608 -130.27631758 703.62743647 C-130.28516736 687.17796101 -130.29430169 670.7284857 -130.30347376 654.27901042 C-130.32987921 606.91490901 -130.35418995 559.55081076 -130.36455917 512.18670273 C-130.36477331 511.2132471 -130.36498745 510.23979148 -130.36520808 509.23683719 C-130.36987051 487.87008384 -130.37345022 466.50333044 -130.37600393 445.13657673 C-130.37705046 436.5400639 -130.37825293 427.94355108 -130.37950897 419.34703827 C-130.37964268 418.40617176 -130.37977639 417.46530524 -130.37991415 416.49592762 C-130.38430401 386.15221644 -130.4014021 355.80852866 -130.42512883 325.46482693 C-130.44896051 294.91281667 -130.46040454 264.36082914 -130.45449595 233.80880935 C-130.45368357 229.5920042 -130.45301406 225.37519904 -130.45243073 221.15839386 C-130.4523112 220.33174083 -130.45219168 219.50508779 -130.45206854 218.65338467 C-130.45054273 205.53533996 -130.46251176 192.41734316 -130.48003945 179.29931152 C-130.49697711 166.41710172 -130.49979153 153.53495435 -130.48732725 140.6527387 C-130.48104738 133.75446928 -130.48116243 126.85634659 -130.49953273 119.95809463 C-130.51560823 113.6940132 -130.51358859 107.43021987 -130.4965599 101.16614334 C-130.49368121 98.90308378 -130.49764238 96.64000364 -130.50894098 94.37697046 C-130.52323119 91.32333902 -130.51323473 88.27075096 -130.49679399 85.21715379 C-130.50682949 84.33060484 -130.516865 83.44405588 -130.52720462 82.53064181 C-130.45830572 76.60167725 -130.45830572 76.60167725 -128.10923968 73.51775418 C-125.87782747 71.91208781 -123.65870874 70.44329781 -121.2734375 69.07421875 C-120.33757812 68.5328125 -119.40171875 67.99140625 -118.4375 67.43359375 C-117.426875 66.85738281 -116.41625 66.28117188 -115.375 65.6875 C-114.31539062 65.07648438 -113.25578125 64.46546875 -112.1640625 63.8359375 C-109.91659989 62.54074485 -107.66753392 61.248331 -105.41699219 59.95849609 C-101.01969086 57.43812233 -96.63024289 54.90425444 -92.24072266 52.37036133 C-90.06639617 51.11546339 -87.89158512 49.86140469 -85.71630859 48.6081543 C-78.46373102 44.42887672 -71.2268425 40.2236032 -64 36 C-54.60799566 30.51100538 -45.19333199 25.06247408 -35.76367188 19.63842773 C-30.19234456 16.43070658 -24.63303319 13.20415474 -19.09375 9.94140625 C-17.98644531 9.29042969 -16.87914062 8.63945313 -15.73828125 7.96875 C-13.61890626 6.72115652 -11.50162887 5.46999116 -9.38671875 4.21484375 C-8.44441406 3.66054688 -7.50210937 3.10625 -6.53125 2.53515625 C-5.70173828 2.044104 -4.87222656 1.55305176 -4.01757812 1.04711914 C-2 0 -2 0 0 0 Z " fill="#B45231" transform="translate(1970,759)"/>
<path d="M0 0 C0.99 0.66 1.98 1.32 3 2 C2.67 2.33 2.34 2.66 2 3 C1.90046911 5.95579872 1.86750583 8.88827239 1.8758015 11.8445583 C1.87452342 12.79025754 1.87324533 13.73595679 1.87192852 14.71031359 C1.86882871 17.92778274 1.87295121 21.14520422 1.87695217 24.36267185 C1.87621351 26.68321956 1.87503598 29.00376716 1.87345567 31.32431445 C1.87069062 37.08392659 1.87263189 42.84352429 1.87645876 48.60313552 C1.88080476 55.54440352 1.87933048 62.48566717 1.87765024 69.4269359 C1.87467786 82.4012142 1.87646496 95.37548803 1.88079453 108.34976578 C1.8851656 121.50620131 1.88736793 134.66263453 1.88689232 147.81907082 C1.88686363 148.64861905 1.88683493 149.47816729 1.88680537 150.33285334 C1.88664901 154.5623783 1.88645706 158.79190326 1.88625254 163.02142821 C1.88484331 193.67168142 1.88828185 224.32193256 1.89426994 254.97218513 C1.90018785 285.33559237 1.90404412 315.69899873 1.90512276 346.06240654 C1.90515717 347.0045895 1.90519158 347.94677246 1.90522704 348.91750642 C1.90554022 357.52261043 1.90582792 366.12771444 1.90608501 374.73281846 C1.90672449 396.12630677 1.90768387 417.51979506 1.90886021 438.91328335 C1.90891352 439.88760869 1.90896684 440.86193403 1.90902177 441.86578437 C1.91164473 489.28723223 1.91795287 536.70867951 1.92456055 584.13012695 C1.92685216 600.59108479 1.9291275 617.05204264 1.93133545 633.51300049 C1.9314724 634.5338793 1.93160935 635.55475811 1.93175045 636.60657264 C1.93809187 684.04458241 1.94181926 731.48259229 1.94487024 778.92060239 C1.94506831 781.99945723 1.9452675 785.07831207 1.94546692 788.15716691 C1.94678668 808.56051118 1.94806133 828.96385546 1.94930578 849.36719974 C1.95178243 889.96648294 1.95452412 930.56576612 1.95744783 971.1650493 C1.95758707 973.09859186 1.95772612 975.03213442 1.95786499 976.96567699 C1.96411989 1064.03449133 1.97345839 1151.10330524 1.98413086 1238.17211914 C1.98428076 1239.3953085 1.98428076 1239.3953085 1.98443369 1240.64320876 C1.98943439 1281.42880586 1.99461093 1322.21440294 2 1363 C-1.53064211 1361.61572638 -4.80355979 1360.09020174 -8.11328125 1358.234375 C-9.10126709 1357.68144775 -10.08925293 1357.12852051 -11.10717773 1356.55883789 C-12.16493408 1355.96192139 -13.22269043 1355.36500488 -14.3125 1354.75 C-15.42117432 1354.12665771 -16.52984863 1353.50331543 -17.67211914 1352.86108398 C-27.13940877 1347.52126695 -36.53299965 1342.05876975 -45.91015625 1336.5625 C-52.21570419 1332.8678669 -58.54294436 1329.21147319 -64.875 1325.5625 C-66.49523071 1324.62869507 -66.49523071 1324.62869507 -68.14819336 1323.67602539 C-70.33796334 1322.41423174 -72.52782355 1321.15259466 -74.71777344 1319.89111328 C-81.21194646 1316.14937985 -87.70338011 1312.40289415 -94.19458008 1308.65600586 C-99.29971501 1305.70964478 -104.4060522 1302.76542592 -109.51651001 1299.82830811 C-111.94660552 1298.43150193 -114.37603935 1297.03354722 -116.80541992 1295.63549805 C-118.53304415 1294.64194008 -120.2616312 1293.65005691 -121.99023438 1292.65820312 C-123.02599609 1292.06201172 -124.06175781 1291.46582031 -125.12890625 1290.8515625 C-126.04744385 1290.32385254 -126.96598145 1289.79614258 -127.91235352 1289.25244141 C-130 1288 -130 1288 -131 1287 C-131.10274266 1284.36412583 -131.13934806 1281.75427443 -131.13455451 1279.11773807 C-131.13695067 1278.27625388 -131.13934683 1277.43476969 -131.14181561 1276.56778598 C-131.14871356 1273.70553728 -131.14839363 1270.84333265 -131.14818764 1267.98107624 C-131.15165346 1265.91645246 -131.15555452 1263.85182937 -131.15985495 1261.78720716 C-131.17047691 1256.05932509 -131.17476674 1250.33145247 -131.17807844 1244.60356213 C-131.18272807 1238.3926086 -131.19306168 1232.18166417 -131.20264852 1225.97071666 C-131.21968999 1214.34889066 -131.23204157 1202.7270667 -131.2422161 1191.10523315 C-131.25186848 1180.11832042 -131.26381192 1169.13141268 -131.27774811 1158.14450455 C-131.27868112 1157.40644038 -131.27961414 1156.66837621 -131.28057543 1155.90794647 C-131.28437544 1152.90214056 -131.28817997 1149.89633465 -131.29199303 1146.89052876 C-131.34459723 1105.32937348 -131.38116875 1063.7682062 -131.4140625 1022.20703125 C-131.41472525 1021.37144975 -131.41538799 1020.53586825 -131.41607083 1019.6749661 C-131.46909858 952.77536418 -131.51426832 885.87575602 -131.54586862 818.97614043 C-131.55317569 803.51719664 -131.56075435 788.05825298 -131.56846041 772.59930937 C-131.56982456 769.85845486 -131.57117891 767.11760034 -131.57253314 764.37674583 C-131.60120828 706.60235193 -131.66031245 648.82804304 -131.73754841 591.05369504 C-131.79389628 548.89419135 -131.84583928 506.73470657 -131.86591148 464.57516766 C-131.86632618 463.70856033 -131.86674088 462.84195301 -131.86716814 461.94908486 C-131.87618084 442.92696465 -131.88270652 423.90484439 -131.8868905 404.88272253 C-131.8886134 397.22939335 -131.89067139 389.57606428 -131.89283371 381.92273521 C-131.89306151 381.08510347 -131.89328932 380.24747173 -131.89352403 379.38445721 C-131.90102782 352.37712354 -131.93664783 325.36991676 -131.98680354 298.36263135 C-132.0371629 271.16728686 -132.05938136 243.97207552 -132.04243467 216.77668509 C-132.04010068 213.02195711 -132.03808577 209.26722902 -132.03626251 205.51250076 C-132.03589326 204.77644233 -132.03552401 204.04038391 -132.03514357 203.28202068 C-132.03011821 191.60837228 -132.0554189 179.93499248 -132.09324897 168.26141256 C-132.12979062 156.7935267 -132.13370714 145.32612462 -132.10481049 133.85819117 C-132.09028015 127.71876471 -132.09032882 121.58025133 -132.12962742 115.4409133 C-132.16505542 109.86285276 -132.1595645 104.286434 -132.12050111 98.70841143 C-132.11374315 96.69609511 -132.12229178 94.68365882 -132.1474692 92.67148866 C-132.3231603 77.67600476 -132.3231603 77.67600476 -129.06194882 73.54513266 C-126.73522958 71.95311128 -124.63969039 70.9618617 -122 70 C-120.66398157 69.26051129 -119.33744622 68.5032373 -118.02734375 67.71875 C-116.66571265 66.97613299 -115.30235109 66.23668227 -113.9375 65.5 C-106.76524171 61.5709288 -99.67903904 57.512348 -92.625 53.375 C-83.78264438 48.19177087 -74.90578309 43.07312118 -66 38 C-56.29624767 32.47055881 -46.62608753 26.88694896 -36.98583984 21.24731445 C-29.2134435 16.70199619 -21.42352042 12.18778975 -13.625 7.6875 C-12.49433105 7.03450928 -11.36366211 6.38151855 -10.19873047 5.70874023 C-9.15604004 5.10747314 -8.11334961 4.50620605 -7.0390625 3.88671875 C-6.11303223 3.35264404 -5.18700195 2.81856934 -4.23291016 2.26831055 C-2.8409887 1.4776882 -1.43179021 0.71589511 0 0 Z " fill="#D3613A" transform="translate(1315,531)"/>
<path d="M0 0 C4.88654355 2.28985704 9.47754047 4.99831026 14.109375 7.76171875 C16.27305049 9.03841653 18.43712666 10.31443546 20.6015625 11.58984375 C21.71756836 12.24919922 22.83357422 12.90855469 23.98339844 13.58789062 C29.3806383 16.76347231 34.807015 19.88798435 40.234375 23.01171875 C42.41928876 24.27080223 44.60418449 25.52991698 46.7890625 26.7890625 C48.41666504 27.72661377 48.41666504 27.72661377 50.07714844 28.68310547 C56.58808757 32.43449899 63.09600694 36.19112869 69.60449219 39.94677734 C75.04522836 43.08604121 80.48668977 46.22403372 85.9296875 49.359375 C90.25208923 51.84926585 94.57221967 54.3430287 98.890625 56.83984375 C102.78336738 59.0904097 106.68097207 61.33197188 110.58547974 63.56202698 C113.38822695 65.16483439 116.18572364 66.77677335 118.984375 68.38671875 C120.55082764 69.27629272 120.55082764 69.27629272 122.14892578 70.18383789 C123.57180908 71.00549438 123.57180908 71.00549438 125.0234375 71.84375 C125.86342285 72.32432861 126.7034082 72.80490723 127.56884766 73.30004883 C128.15972168 73.7205249 128.7505957 74.14100098 129.359375 74.57421875 C129.359375 75.23421875 129.359375 75.89421875 129.359375 76.57421875 C128.35692749 77.13181885 128.35692749 77.13181885 127.33422852 77.70068359 C110.55248966 87.04005365 110.55248966 87.04005365 93.9453125 96.68432617 C87.63266023 100.42646284 81.28033734 104.09803553 74.921875 107.76171875 C73.81465088 108.39972412 72.70742676 109.03772949 71.56665039 109.69506836 C69.29600432 111.00311352 67.02525142 112.31097323 64.75439453 113.61865234 C59.2876752 116.76753929 53.82362613 119.92105139 48.359375 123.07421875 C46.19272189 124.32424225 44.02605521 125.57424222 41.859375 126.82421875 C40.786875 127.44296875 39.714375 128.06171875 38.609375 128.69921875 C28.859375 134.32421875 28.859375 134.32421875 25.60888672 136.19946289 C23.44380429 137.44857393 21.27876518 138.69776004 19.11376953 139.94702148 C13.67321794 143.08624184 8.23190284 146.22412438 2.7890625 149.359375 C-7.66268699 155.38169204 -18.10362048 161.42091212 -28.515625 167.51171875 C-37.78562277 172.93343053 -47.09894252 178.2762679 -56.42907715 183.59344482 C-65.5534534 188.79467004 -74.64195274 194.05449753 -83.70751953 199.35766602 C-94.23147125 205.51188617 -104.79442637 211.59791871 -115.35839844 217.68310547 C-120.78722442 220.81102023 -126.21381781 223.94280323 -131.640625 227.07421875 C-133.80728083 228.32423754 -135.9739475 229.57423753 -138.140625 230.82421875 C-139.213125 231.44296875 -140.285625 232.06171875 -141.390625 232.69921875 C-333.14062499 343.32421874 -333.14062499 343.32421874 -336.39111328 345.19946289 C-338.55619571 346.44857393 -340.72123482 347.69776004 -342.88623047 348.94702148 C-348.32678206 352.08624184 -353.76809716 355.22412438 -359.2109375 358.359375 C-369.66268699 364.38169204 -380.10362048 370.42091212 -390.515625 376.51171875 C-399.78562277 381.93343053 -409.09894252 387.2762679 -418.42907715 392.59344482 C-427.5534534 397.79467004 -436.64195274 403.05449753 -445.70751953 408.35766602 C-456.23147125 414.51188617 -466.79442637 420.59791871 -477.35839844 426.68310547 C-482.78722442 429.81102023 -488.21381781 432.94280323 -493.640625 436.07421875 C-495.80728083 437.32423754 -497.9739475 438.57423753 -500.140625 439.82421875 C-501.213125 440.44296875 -502.285625 441.06171875 -503.390625 441.69921875 C-591.14062502 492.32421876 -591.14062502 492.32421876 -594.39233398 494.20019531 C-596.55331488 495.44692131 -598.71428498 496.69366602 -600.87524414 497.94042969 C-606.37881351 501.11567758 -611.88258532 504.2905737 -617.38671875 507.46484375 C-618.49700439 508.10550781 -619.60729004 508.74617188 -620.7512207 509.40625 C-622.94529446 510.67113907 -625.14042218 511.93420194 -627.33666992 513.1953125 C-632.36015919 516.08325117 -637.36308321 518.99561964 -642.3203125 521.99609375 C-643.19244385 522.51848633 -644.0645752 523.04087891 -644.96313477 523.57910156 C-646.5725412 524.5454713 -648.17516967 525.52326097 -649.76928711 526.51464844 C-650.82901733 527.14741699 -650.82901733 527.14741699 -651.91015625 527.79296875 C-652.51448486 528.16357422 -653.11881348 528.53417969 -653.74145508 528.91601562 C-656.40952253 529.84069873 -657.95430175 529.391334 -660.640625 528.57421875 C-663.18237305 527.32177734 -663.18237305 527.32177734 -665.90234375 525.72265625 C-667.43665039 524.82836914 -667.43665039 524.82836914 -669.00195312 523.91601562 C-670.6484082 522.94245117 -670.6484082 522.94245117 -672.328125 521.94921875 C-673.48979422 521.26942957 -674.65191193 520.59040627 -675.81445312 519.91210938 C-678.22879946 518.50263572 -680.64118422 517.08988888 -683.05224609 515.67480469 C-688.56381083 512.44366354 -694.1036188 509.2614888 -699.640625 506.07421875 C-701.80742465 504.82444928 -703.9740909 503.57444851 -706.140625 502.32421875 C-707.213125 501.70546875 -708.285625 501.08671875 -709.390625 500.44921875 C-712.640625 498.57421875 -715.890625 496.69921875 -719.140625 494.82421875 C-720.7498584 493.89585205 -720.7498584 493.89585205 -722.39160156 492.94873047 C-724.55509976 491.70050841 -726.71851143 490.45213636 -728.88183594 489.20361328 C-734.34627517 486.05016619 -739.81226145 482.89945779 -745.28125 479.75390625 C-746.94220703 478.79774414 -746.94220703 478.79774414 -748.63671875 477.82226562 C-750.68561154 476.64286095 -752.73501811 475.46434794 -754.78515625 474.28710938 C-765.45905628 468.14002314 -776.03366219 461.8419695 -786.640625 455.57421875 C-786.970625 954.53421875 -787.300625 1453.49421875 -787.640625 1967.57421875 C-787.970625 1967.57421875 -788.300625 1967.57421875 -788.640625 1967.57421875 C-788.69010725 1921.27913601 -788.73755485 1874.98405128 -788.78344727 1828.68896484 C-788.78434544 1827.78308342 -788.78524362 1826.877202 -788.78616902 1825.94386963 C-788.88233383 1728.89859522 -788.96534726 1631.85332014 -789.02171326 1534.80801392 C-789.02296831 1532.65294897 -789.02422338 1530.49788402 -789.02547845 1528.34281908 C-789.05178129 1483.10976658 -789.07623188 1437.87671323 -789.0985421 1392.64365858 C-789.10975086 1369.92238782 -789.12131562 1347.20111726 -789.13321697 1324.47984685 C-789.13501021 1321.05237891 -789.13679328 1317.62491096 -789.13857592 1314.19744301 C-789.16612337 1261.40464534 -789.20131698 1208.61186634 -789.25860596 1155.8190918 C-789.25983805 1154.68356532 -789.26107014 1153.54803884 -789.26233956 1152.37810247 C-789.28225148 1134.06946645 -789.30280374 1115.76083115 -789.32344096 1097.45219594 C-789.38285585 1044.73268578 -789.43755409 992.01318995 -789.46088314 939.29364967 C-789.46136496 938.21004734 -789.46184677 937.126445 -789.46234319 936.01000622 C-789.47283384 912.22517453 -789.48088809 888.44034266 -789.48663385 864.65550937 C-789.48898852 855.08601969 -789.49169409 845.51653011 -789.49452019 835.94704056 C-789.49482103 834.89968646 -789.49512188 833.85233237 -789.49543184 832.77324027 C-789.50530782 798.99934155 -789.54377443 765.22554928 -789.59716488 731.45169356 C-789.65079475 697.44388838 -789.67653287 663.43618659 -789.66324089 629.42833803 C-789.66141305 624.73377552 -789.65990665 620.03921295 -789.65859413 615.34465027 C-789.65832521 614.42434471 -789.65805628 613.50403915 -789.65777921 612.55584555 C-789.65434711 597.95591134 -789.68126781 583.35619523 -789.72071376 568.75632051 C-789.75883858 554.41626468 -789.76514485 540.0764928 -789.73711132 525.73641031 C-789.72162762 517.31846676 -789.73105019 508.90142115 -789.77657802 500.48358151 C-789.80757483 494.24942752 -789.79210515 488.01622853 -789.75788478 481.78210958 C-789.75141467 479.26438133 -789.76029317 476.74655921 -789.7857422 474.22895127 C-789.81797398 470.82675064 -789.79536315 467.42926959 -789.75841147 464.02722204 C-789.78099136 463.04416583 -789.80357126 462.06110963 -789.82683539 461.04826385 C-789.73203146 456.99553786 -789.66256566 454.56560122 -786.66956699 451.66209954 C-784.38401701 450.11691911 -782.10274022 448.81416199 -779.640625 447.57421875 C-778.63515625 446.97770508 -777.6296875 446.38119141 -776.59375 445.76660156 C-775.70171875 445.27514648 -774.8096875 444.78369141 -773.890625 444.27734375 C-772.37384155 443.43635132 -772.37384155 443.43635132 -770.82641602 442.57836914 C-769.77510498 441.99949951 -768.72379395 441.42062988 -767.640625 440.82421875 C-760.45169879 436.83246051 -753.27425937 432.83423231 -746.203125 428.63671875 C-739.23292665 424.50103906 -732.22561488 420.43300808 -725.203125 416.38671875 C-724.09590088 415.74871338 -722.98867676 415.11070801 -721.84790039 414.45336914 C-719.57725432 413.14532398 -717.30650142 411.83746427 -715.03564453 410.52978516 C-709.5689252 407.38089821 -704.10487613 404.22738611 -698.640625 401.07421875 C-696.47397189 399.82419525 -694.30730521 398.57419528 -692.140625 397.32421875 C-691.068125 396.70546875 -689.995625 396.08671875 -688.890625 395.44921875 C-616.30729167 353.57421875 -543.72395833 311.69921875 -471.140625 269.82421875 C-470.06828613 269.20554932 -468.99594727 268.58687988 -467.89111328 267.94946289 C-465.72286236 266.69857395 -463.55456803 265.44776023 -461.38623047 264.19702148 C-455.99344585 261.0862354 -450.60140407 257.97417637 -445.2109375 254.859375 C-433.40433016 248.03919238 -421.580355 241.25098615 -409.73590088 234.49685669 C-400.69733072 229.3408643 -391.69785362 224.12101202 -382.71826172 218.86303711 C-374.46138858 214.03549039 -366.15968469 209.28873204 -357.84960938 204.55371094 C-349.75318367 199.93919071 -341.68255991 195.2832662 -333.640625 190.57421875 C-324.41261971 185.17065415 -315.1406783 179.84769514 -305.84960938 174.55371094 C-297.75318367 169.93919071 -289.68255991 165.2832662 -281.640625 160.57421875 C-272.41261971 155.17065415 -263.1406783 149.84769514 -253.84960938 144.55371094 C-245.75318367 139.93919071 -237.68255991 135.2832662 -229.640625 130.57421875 C-220.41261971 125.17065415 -211.1406783 119.84769514 -201.84960938 114.55371094 C-193.75318367 109.93919071 -185.68255991 105.2832662 -177.640625 100.57421875 C-168.41261971 95.17065415 -159.1406783 89.84769514 -149.84960938 84.55371094 C-141.75318282 79.93919023 -133.68261043 75.28318081 -125.640625 70.57421875 C-117.0454521 65.54232085 -108.41750278 60.57032751 -99.765625 55.63671875 C-87.44037304 48.60818368 -75.14340433 41.53181441 -62.85839844 34.43310547 C-57.45391852 31.31097268 -52.047131 28.19284123 -46.640625 25.07421875 C-44.50129946 23.83984829 -42.36197655 22.60547328 -40.22265625 21.37109375 C-36.22471592 19.06452019 -32.22629304 16.75878749 -28.2272644 14.45410156 C-25.83635903 13.07614937 -23.44563828 11.69787703 -21.05493164 10.31958008 C-19.37078537 9.34880893 -17.68637269 8.37850001 -16.00195312 7.40820312 C-14.97908203 6.81845703 -13.95621094 6.22871094 -12.90234375 5.62109375 C-12.00475342 5.10385742 -11.10716309 4.58662109 -10.18237305 4.05371094 C-8.42256697 3.02936891 -6.68828987 1.96036365 -4.97680664 0.85717773 C-2.640625 -0.42578125 -2.640625 -0.42578125 0 0 Z " fill="#F5915B" transform="translate(1317.640625,228.42578125)"/>
<path d="M0 0 C1.76518392 0.96223606 3.53029685 1.92460236 5.29537964 2.88702393 C6.76981191 3.69087965 6.76981191 3.69087965 8.27403069 4.51097488 C21.09656331 11.51511577 33.85021087 18.65721464 46.41674805 26.11157227 C52.7283517 29.85347839 59.07992266 33.52432671 65.4375 37.1875 C66.54472412 37.82550537 67.65194824 38.46351074 68.79272461 39.12084961 C71.06337068 40.42889477 73.33412358 41.73675448 75.60498047 43.04443359 C82.14536756 46.81176428 88.68244101 50.58484309 95.21923828 54.35839844 C100.21262957 57.24044952 105.20714868 60.12045411 110.20706177 62.99118042 C111.95024732 63.9921981 113.69296372 64.99402783 115.43554688 65.99609375 C117.60129618 67.24118039 119.76788871 68.4848021 121.93554688 69.7265625 C127.15439881 72.72900479 132.3199068 75.79643403 137.4375 78.96875 C143.9349023 82.9898916 150.54029692 86.79556131 157.1875 90.5625 C159.65817597 91.96765477 162.12788106 93.37451273 164.59765625 94.78125 C165.52780548 95.31063927 165.52780548 95.31063927 166.47674561 95.85072327 C172.70638085 99.39784056 178.9175022 102.97679664 185.125 106.5625 C186.72057739 107.48397827 186.72057739 107.48397827 188.34838867 108.42407227 C190.49309587 109.66292223 192.6377088 110.90193541 194.78222656 112.14111328 C200.18670647 115.26324606 205.59348737 118.38138904 211 121.5 C213.14844289 122.739574 215.29688038 123.97915735 217.4453125 125.21875 C221.3741425 127.48542819 225.30327938 129.75157239 229.23284912 132.01696777 C230.98341241 133.02619104 232.73390411 134.03553836 234.484375 135.04492188 C236.66392165 136.3016766 238.84359832 137.55820586 241.0234375 138.81445312 C242.96712772 139.93533119 244.9017266 141.07221438 246.82420993 142.22908825 C249.92827944 144.05471215 249.92827944 144.05471215 253.15486455 145.2300759 C256.75156694 146.78603653 259.2117457 148.22676357 262 151 C263.81901889 157.0072769 263.57110703 162.88672713 263.4430542 169.11534119 C263.44828793 170.99818795 263.45879649 172.8810262 263.47412419 174.76381785 C263.50096864 179.93683809 263.45295412 185.1068792 263.39278746 190.27951968 C263.34099157 195.85749813 263.35850037 201.43530699 263.36761475 207.01345825 C263.3739088 216.67746268 263.33624255 226.34049533 263.26876068 236.00425529 C263.17125779 249.9762748 263.13998582 263.94782416 263.12490478 277.92014701 C263.09863752 300.58875378 263.01887209 323.25675414 262.90527344 345.92504883 C262.79504701 367.94585479 262.71005049 389.96652222 262.65917969 411.98754883 C262.65760137 412.66642358 262.65602306 413.34529834 262.65439692 414.04474506 C262.63857457 420.86233366 262.62326482 427.67992334 262.60833061 434.49751394 C262.48305406 491.66537031 262.27131444 548.83266113 262 606 C259.62025985 604.73685859 257.24121744 603.47243185 254.86254883 602.20727539 C254.19572334 601.85350075 253.52889786 601.4997261 252.84186554 601.13523102 C247.03753733 598.04591827 241.34835666 594.78228086 235.6875 591.4375 C233.60580279 590.21557657 231.52375929 588.99424294 229.44140625 587.7734375 C228.38195801 587.15178711 227.32250977 586.53013672 226.23095703 585.88964844 C220.87560715 582.75753357 215.50071228 579.65949655 210.125 576.5625 C209.04565186 575.94044678 207.96630371 575.31839355 206.85424805 574.67749023 C204.66367265 573.41519376 202.47299869 572.1530683 200.28222656 570.89111328 C194.85340058 567.76319852 189.42680719 564.63141552 184 561.5 C181.83334417 560.24998121 179.6666775 558.99998122 177.5 557.75 C155.83333333 545.25 134.16666667 532.75 112.5 520.25 C111.42733887 519.63116943 110.35467773 519.01233887 109.24951172 518.37475586 C107.08442929 517.12564482 104.91939018 515.87645871 102.75439453 514.62719727 C97.31384294 511.48797691 91.87252784 508.35009437 86.4296875 505.21484375 C74.99875018 498.62831691 63.58600337 492.01273409 52.19897461 485.35058594 C46.74810693 482.16766296 41.28373086 479.01004363 35.80078125 475.8828125 C35.18765076 475.53308884 34.57452026 475.18336517 33.94281006 474.82304382 C30.98135025 473.13488314 28.01826202 471.4496939 25.05322266 469.76782227 C22.90907294 468.54822433 20.77529016 467.31014416 18.65440708 466.05052036 C16.19811435 464.62274593 13.73209534 463.41968 11.12336725 462.29701048 C1.31762842 457.78562636 1.31762842 457.78562636 -0.85946457 453.18298762 C-2.26089566 447.76298801 -1.94694594 442.19458152 -1.80381775 436.64414978 C-1.81036292 434.75956502 -1.82350423 432.87499361 -1.84265524 430.99049479 C-1.87615664 425.82135681 -1.81627903 420.65689144 -1.74098432 415.48834908 C-1.6761554 409.91177177 -1.69813123 404.33545412 -1.70951843 398.75860596 C-1.71738086 389.09986437 -1.67035428 379.4426436 -1.58595085 369.78428459 C-1.46399984 355.82022603 -1.42497516 341.85690222 -1.40613098 327.89236886 C-1.37330799 305.23579098 -1.27363229 282.58016192 -1.1315918 259.92407227 C-0.99377943 237.91695359 -0.88754842 215.91005176 -0.82397461 193.90258789 C-0.82200172 193.22397619 -0.82002882 192.54536448 -0.81799615 191.84618879 C-0.79821799 185.03116 -0.77908083 178.21612954 -0.76041326 171.40109762 C-0.60385241 114.26683365 -0.33921035 57.13345443 0 0 Z " fill="#BBD5E3" transform="translate(1447,758)"/>
<path d="M0 0 C2.95061348 1.58251806 5.74000264 3.33343803 8.55834961 5.14038086 C10.53265981 6.2526867 12.51457675 7.35159271 14.50366211 8.43725586 C24.38268689 13.94989586 34.24486884 19.48006829 43.97509766 25.25195312 C50.28670131 28.99385925 56.63827227 32.66470757 62.99584961 36.32788086 C64.10307373 36.96588623 65.21029785 37.6038916 66.35107422 38.26123047 C68.62172028 39.56927562 70.89247319 40.87713534 73.16333008 42.18481445 C78.63004941 45.3337014 84.09409848 48.4872135 89.55834961 51.64038086 C91.72500272 52.89040436 93.8916694 54.14040433 96.05834961 55.39038086 C109.05834961 62.89038086 122.05834961 70.39038086 135.05834961 77.89038086 C136.13101074 78.50921143 137.20367188 79.12804199 138.30883789 79.765625 C140.47392032 81.01473604 142.63895943 82.26392215 144.80395508 83.51318359 C150.24450667 86.65240395 155.68582177 89.79028649 161.12866211 92.92553711 C171.5804116 98.94785415 182.02134509 104.98707423 192.43334961 111.07788086 C201.11097202 116.15313209 209.82440529 121.16296852 218.55834961 126.14038086 C228.27950578 131.68039816 237.96729619 137.27412895 247.62524414 142.92382812 C258.14919586 149.07804827 268.71215098 155.16408082 279.27612305 161.24926758 C284.70494903 164.37718234 290.13154242 167.50896534 295.55834961 170.64038086 C297.72500544 171.89039965 299.89167211 173.14039964 302.05834961 174.39038086 C386.55834961 223.14038086 386.55834961 223.14038086 471.05834961 271.89038086 C472.66963745 272.81995605 472.66963745 272.81995605 474.31347656 273.76831055 C476.46308595 275.00848847 478.61266319 276.24872213 480.76220703 277.48901367 C485.83144173 280.41388316 490.90099897 283.33818919 495.97171021 286.26049805 C498.36261558 287.63845024 500.75333632 289.01672258 503.14404297 290.39501953 C504.82818924 291.36579068 506.51260192 292.3360996 508.19702148 293.30639648 C509.21989258 293.89614258 510.24276367 294.48588867 511.29663086 295.09350586 C512.19422119 295.61074219 513.09181152 296.12797852 514.01660156 296.66088867 C515.27476685 297.3932373 515.27476685 297.3932373 516.55834961 298.14038086 C517.42296519 298.47782419 518.28758078 298.81526752 519.17839683 299.16293641 C521.55834961 301.14038086 521.55834961 301.14038086 522.01892228 302.92283086 C522.20246483 305.38062983 522.21401427 307.79437568 522.17934209 310.25898427 C522.18892774 311.68553396 522.18892774 311.68553396 522.19870703 313.14090283 C522.21416227 316.36488677 522.19362468 319.58767259 522.17358875 322.81161785 C522.17728341 325.14132245 522.18317255 327.47102444 522.19107124 329.80071858 C522.2048788 335.57539452 522.19520919 341.34970942 522.17605579 347.12436236 C522.15430108 354.08528157 522.16170216 361.0460925 522.1700984 368.00702976 C522.18495119 381.01741487 522.17603576 394.02768806 522.15437698 407.03805923 C522.13251387 420.22914349 522.12151087 433.42016989 522.12388802 446.61127281 C522.12403148 447.44331819 522.12417494 448.27536358 522.12432275 449.13262245 C522.12510459 453.37495524 522.12606433 457.61728797 522.12708693 461.85962071 C522.13413119 492.5947062 522.11694684 523.32974014 522.08699989 554.0648098 C522.05740587 584.5102991 522.03812812 614.95576633 522.03273582 645.40126991 C522.03256377 646.34615528 522.03239171 647.29104064 522.03221443 648.26455889 C522.03064848 656.89440087 522.02921002 665.52424287 522.02792456 674.1540849 C522.02472723 695.60864817 522.0199304 717.06321093 522.01404858 738.51777363 C522.01378199 739.49485815 522.0135154 740.47194267 522.01324074 741.47863582 C522.00012739 789.02922256 521.96858724 836.57979473 521.93554688 884.13037109 C521.92408876 900.63523345 521.91271203 917.14009585 521.90167236 933.6449585 C521.90098762 934.66856639 521.90030287 935.69217429 521.89959738 936.74680061 C521.86788762 984.31559699 521.84925246 1031.88439586 521.83399839 1079.45320003 C521.83300807 1082.54071313 521.8320121 1085.62822622 521.83101499 1088.71573932 C521.82441619 1109.17653789 521.81804293 1129.63733653 521.8118207 1150.09813523 C521.7994376 1190.81140843 521.78572916 1231.52468115 521.77111046 1272.23795361 C521.77041426 1274.17690536 521.76971899 1276.11585711 521.76902464 1278.05480886 C521.73775197 1365.36223004 521.69106 1452.66964053 521.63769531 1539.97705078 C521.6369458 1541.20353839 521.6369458 1541.20353839 521.63618114 1542.45480353 C521.6111779 1583.34999658 521.58529522 1624.24518904 521.55834961 1665.14038086 C521.22834961 1665.14038086 520.89834961 1665.14038086 520.55834961 1665.14038086 C520.55834961 1215.68038086 520.55834961 766.22038086 520.55834961 303.14038086 C505.67390331 311.39675896 505.67390331 311.39675896 490.93334961 319.89038086 C488.87607481 321.09483676 486.81878265 322.29926299 484.76147461 323.50366211 C483.73344727 324.10645996 482.70541992 324.70925781 481.64624023 325.33032227 C476.66199961 328.2519826 471.67314858 331.16572598 466.68334961 334.07788086 C465.69898926 334.65248047 464.71462891 335.22708008 463.70043945 335.8190918 C455.24877258 340.74774517 446.77421802 345.63624052 438.29614258 350.51928711 C431.82185163 354.25053088 425.35705133 357.99728164 418.90698242 361.77026367 C416.86833836 362.95952625 414.82609925 364.14265106 412.7800293 365.3190918 C408.54603259 367.75943162 404.38030826 370.20670953 400.37084961 373.00366211 C399.75564453 373.41366455 399.14043945 373.82366699 398.5065918 374.24609375 C396.96359947 375.28577245 395.45404819 376.37465457 393.94897461 377.46850586 C388.0495715 378.637512 383.56279342 375.05730559 378.55834961 372.14038086 C377.63538086 371.62008301 376.71241211 371.09978516 375.76147461 370.5637207 C372.96768347 368.97208501 370.1991334 367.34265962 367.43334961 365.70288086 C365.32432675 364.4626985 363.214939 363.22313648 361.10522461 361.98413086 C359.48777344 361.03280273 359.48777344 361.03280273 357.83764648 360.06225586 C352.46840228 356.91553978 347.0762677 353.80879466 341.68334961 350.70288086 C340.06468994 349.77004272 340.06468994 349.77004272 338.41333008 348.81835938 C336.2225201 347.55588355 334.03160201 346.2935953 331.84057617 345.03149414 C326.41175019 341.90357938 320.9851568 338.77179638 315.55834961 335.64038086 C313.39169378 334.39036207 311.22502711 333.14036208 309.05834961 331.89038086 C244.05834961 294.39038086 179.05834961 256.89038086 114.05834961 219.39038086 C112.98568848 218.77155029 111.91302734 218.15271973 110.80786133 217.51513672 C108.6427789 216.26602568 106.47773979 215.01683957 104.31274414 213.76757812 C98.87219255 210.62835777 93.43087745 207.49047523 87.98803711 204.35522461 C76.54828237 197.76361716 65.12684557 191.14274143 53.73095703 184.47558594 C45.5121141 179.6763939 37.24553526 174.96271973 28.97305298 170.25692749 C20.21425971 165.27081457 11.52625021 160.17951169 2.87084961 155.01538086 C-6.78918643 149.25311893 -16.53724078 143.68198365 -26.37109375 138.22241211 C-34.13108472 133.90397991 -41.78923041 129.433582 -49.41992188 124.89135742 C-55.5173109 121.26543607 -61.64983324 117.70934285 -67.81665039 114.20288086 C-76.40408752 109.32005051 -84.94263137 104.35775046 -93.46899414 99.36914062 C-101.05586559 94.93547037 -108.6731486 90.55771078 -116.31665039 86.22241211 C-122.0778845 82.94770412 -127.77230598 79.57162918 -133.44165039 76.14038086 C-130.60166064 73.07095147 -127.84302454 71.04119344 -124.17993164 69.03881836 C-122.63897827 68.18815796 -122.63897827 68.18815796 -121.06689453 67.3203125 C-119.42708618 66.42687134 -119.42708618 66.42687134 -117.75415039 65.51538086 C-115.46692475 64.25244657 -113.18046686 62.98812087 -110.89477539 61.72241211 C-109.78166992 61.1070459 -108.66856445 60.49167969 -107.52172852 59.85766602 C-103.64702833 57.69734253 -99.81686306 55.47035527 -96.00415039 53.20288086 C-89.03432116 49.06658837 -82.02663061 44.99916462 -75.00415039 40.95288086 C-73.89692627 40.31487549 -72.78970215 39.67687012 -71.64892578 39.01953125 C-69.37827972 37.71148609 -67.10752681 36.40362638 -64.83666992 35.09594727 C-59.36995058 31.94706032 -53.90590797 28.79353706 -48.44165039 25.64038086 C-46.29973412 24.40468503 -44.15780699 23.16900802 -42.01586914 21.93334961 C-38.03702607 19.63788628 -34.05834266 17.34214672 -30.0798645 15.04605103 C-28.29098121 14.01364608 -26.50206322 12.9813013 -24.71313477 11.94897461 C-22.46827403 10.65352138 -20.22347849 9.35795516 -17.97875977 8.06225586 C-15.99118709 6.91533694 -13.99695683 5.77984311 -11.99487305 4.65844727 C-9.47926339 3.24239353 -9.47926339 3.24239353 -7.54077148 1.6184082 C-4.89101416 -0.43536937 -3.19682041 -1.12548792 0 0 Z " fill="#F5915A" transform="translate(1449.441650390625,455.859619140625)"/>
<path d="M0 0 C15.58511556 8.50097212 31.14668194 17.05350542 46.41674805 26.11157227 C52.7283517 29.85347839 59.07992266 33.52432671 65.4375 37.1875 C66.54472412 37.82550537 67.65194824 38.46351074 68.79272461 39.12084961 C71.06337068 40.42889477 73.33412358 41.73675448 75.60498047 43.04443359 C78.91579285 44.95149581 82.22569261 46.86012956 85.53515625 48.76953125 C86.60459473 49.38650879 87.6740332 50.00348633 88.77587891 50.63916016 C90.91522437 51.87390884 93.05422523 53.1092548 95.19287109 54.34521484 C100.29348053 57.29166456 105.39797688 60.23071515 110.51651001 63.14590454 C112.94768727 64.53110231 115.37663907 65.92017604 117.80541992 67.30957031 C119.53152548 68.29481995 121.26085377 69.27441661 122.99023438 70.25390625 C124.54387695 71.14335938 124.54387695 71.14335938 126.12890625 72.05078125 C127.04744385 72.57325439 127.96598145 73.09572754 128.91235352 73.6340332 C131 75 131 75 132 77 C132.09684401 78.6411272 132.12993159 80.28618432 132.13257027 81.93016434 C132.13662821 82.97894831 132.14068615 84.02773228 132.14486706 85.10829759 C132.14420235 86.26955462 132.14353764 87.43081166 132.14285278 88.6272583 C132.14753423 90.46719537 132.14753423 90.46719537 132.15231025 92.34430289 C132.1597875 95.76009044 132.16265788 99.1758249 132.16345406 102.59161687 C132.16493267 105.51868863 132.17011295 108.44574922 132.17528994 111.37281641 C132.22387681 139.11177577 132.19679082 166.85101279 132.15728951 194.58996964 C132.15226791 198.20076737 132.14736318 201.81156523 132.14257812 205.42236328 C132.1413828 206.31983346 132.14018748 207.21730364 132.13895594 208.14196989 C132.12056956 222.68433137 132.1368315 237.22644824 132.16670527 251.76878205 C132.19669918 266.69192177 132.19280057 281.61476246 132.15649974 296.5378902 C132.13702418 304.91972539 132.13291117 313.30097474 132.1673317 321.6827774 C132.19661343 328.8205164 132.19565409 335.95742811 132.1548558 343.09512529 C132.13499364 346.73783982 132.12976602 350.37904014 132.16368294 354.02168465 C132.20005558 357.9701663 132.16694986 361.91632032 132.12698364 365.86480713 C132.14862615 367.01714128 132.17026865 368.16947543 132.19256699 369.35672879 C132.03487481 376.94226352 132.03487481 376.94226352 129.02838111 380.01517439 C126.74329701 381.562006 124.48764063 382.81309059 122 384 C120.99453125 384.59651367 119.9890625 385.19302734 118.953125 385.80761719 C117.61507813 386.5447998 117.61507813 386.5447998 116.25 387.296875 C115.23881104 387.85753662 114.22762207 388.41819824 113.18579102 388.99584961 C112.13447998 389.57471924 111.08316895 390.15358887 110 390.75 C102.81107379 394.74175824 95.63363437 398.73998644 88.5625 402.9375 C81.59230165 407.07317969 74.58498988 411.14121067 67.5625 415.1875 C66.45527588 415.82550537 65.34805176 416.46351074 64.20727539 417.12084961 C61.93662932 418.42889477 59.66587642 419.73675448 57.39501953 421.04443359 C53.00353299 423.57397532 48.61375978 426.10647868 44.22436523 428.63964844 C42.08493312 429.87402965 39.94512533 431.10775999 37.80493164 432.34082031 C32.70025768 435.28261524 27.5992425 438.23031576 22.50927734 441.19747925 C20.09061686 442.60697037 17.67014138 444.01332765 15.24951172 445.41943359 C13.53043948 446.41978682 11.8140218 447.42469734 10.09765625 448.4296875 C8.54884766 449.32880859 8.54884766 449.32880859 6.96875 450.24609375 C5.59879883 451.04551392 5.59879883 451.04551392 4.20117188 451.86108398 C2 453 2 453 0 453 C0 303.51 0 154.02 0 0 Z " fill="#ABB9C6" transform="translate(1447,758)"/>
<path d="M0 0 C2.47167969 1.16064453 2.47167969 1.16064453 4.921875 2.6328125 C6.31575439 3.45930298 6.31575439 3.45930298 7.73779297 4.30249023 C8.73182129 4.90391846 9.72584961 5.50534668 10.75 6.125 C12.91360121 7.41093269 15.07768002 8.6960621 17.2421875 9.98046875 C18.35819336 10.6461084 19.47419922 11.31174805 20.62402344 11.99755859 C26.01253101 15.19372139 31.44352595 18.31510214 36.875 21.4375 C39.05998436 22.69646096 41.24487972 23.95557638 43.4296875 25.21484375 C44.51475586 25.83987793 45.59982422 26.46491211 46.71777344 27.10888672 C53.22871257 30.86028024 59.73663194 34.61690994 66.24511719 38.37255859 C71.68585336 41.51182246 77.12731477 44.64981497 82.5703125 47.78515625 C93.57947155 54.12819791 104.58056625 60.48492744 115.5625 66.875 C117.11638428 67.77714233 117.11638428 67.77714233 118.70166016 68.69750977 C120.11970947 69.52400024 120.11970947 69.52400024 121.56640625 70.3671875 C122.40115479 70.85300293 123.23590332 71.33881836 124.09594727 71.83935547 C126 73 126 73 127 74 C127.09666937 75.96161604 127.12187097 77.92676645 127.12025452 79.89076233 C127.12231651 81.81125145 127.12231651 81.81125145 127.12442017 83.77053833 C127.12088055 85.20257591 127.11724573 86.63461326 127.11352539 88.06665039 C127.11324353 89.56431578 127.11340124 91.0619813 127.1139679 92.55964661 C127.11425591 96.63798172 127.10835864 100.71628767 127.10139394 104.79461598 C127.09516095 109.05207628 127.09455665 113.30953718 127.09336853 117.56700134 C127.09025505 125.63473187 127.08204144 133.70244891 127.07201904 141.77017349 C127.06085842 150.95260779 127.05534758 160.13504272 127.05032361 169.31748211 C127.03985884 188.2116624 127.02225907 207.10583012 127 226 C124.62025985 224.73685859 122.24121744 223.47243185 119.86254883 222.20727539 C119.19572334 221.85350075 118.52889786 221.4997261 117.84186554 221.13523102 C112.03753733 218.04591827 106.34835666 214.78228086 100.6875 211.4375 C98.60580279 210.21557657 96.52375929 208.99424294 94.44140625 207.7734375 C92.85223389 206.84096191 92.85223389 206.84096191 91.23095703 205.88964844 C85.87560715 202.75753357 80.50071228 199.65949655 75.125 196.5625 C74.04565186 195.94044678 72.96630371 195.31839355 71.85424805 194.67749023 C69.66367265 193.41519376 67.47299869 192.1530683 65.28222656 190.89111328 C59.85340058 187.76319852 54.42680719 184.63141552 49 181.5 C46.83334417 180.24998121 44.6666775 178.99998122 42.5 177.75 C20.83333333 165.25 -0.83333333 152.75 -22.5 140.25 C-23.57266113 139.63116943 -24.64532227 139.01233887 -25.75048828 138.37475586 C-27.91557071 137.12564482 -30.08060982 135.87645871 -32.24560547 134.62719727 C-37.68615706 131.48797691 -43.12747216 128.35009437 -48.5703125 125.21484375 C-60.00124982 118.62831691 -71.41399663 112.01273409 -82.80102539 105.35058594 C-90.08538949 101.09703013 -97.40315163 96.90469262 -104.73284912 92.73001099 C-122.14060919 82.81129845 -122.14060919 82.81129845 -129.25 78.625 C-129.85787354 78.27397217 -130.46574707 77.92294434 -131.09204102 77.5612793 C-132.43012131 76.76418979 -133.72241406 75.89083373 -135 75 C-135 74.34 -135 73.68 -135 73 C-134.36835937 72.64921387 -133.73671875 72.29842773 -133.0859375 71.93701172 C-120.39427938 64.88024864 -107.76263087 57.74112159 -95.23632812 50.39404297 C-87.52204876 45.87399656 -79.76871892 41.42545469 -72 37 C-62.29625487 31.47054619 -52.62608766 25.88694904 -42.98583984 20.24731445 C-35.2134435 15.70199619 -27.42352042 11.18778975 -19.625 6.6875 C-18.49433105 6.03450928 -17.36366211 5.38151855 -16.19873047 4.70874023 C-15.15604004 4.10747314 -14.11334961 3.50620605 -13.0390625 2.88671875 C-12.11303223 2.35264404 -11.18700195 1.81856934 -10.23291016 1.26831055 C-6.20456942 -1.01981871 -4.6007332 -1.05101131 0 0 Z " fill="#C7E1E8" transform="translate(1582,1138)"/>
<path d="M0 0 C8.25249362 4.52460914 15.26238676 10.47730265 22 17 C22.54132568 17.51361084 23.08265137 18.02722168 23.64038086 18.55639648 C27.92096989 22.70088894 31.5269695 27.05733573 34.9375 31.9375 C35.45256104 32.67258789 35.96762207 33.40767578 36.49829102 34.16503906 C52.11821495 56.97446754 61.30330277 84.50790057 56.60888672 112.31689453 C54.09697931 122.45252895 48.07737021 129.25801181 39.4375 134.6875 C37.6819732 135.7139333 35.92566108 136.73911936 34.16113281 137.75 C31.63056773 139.21367976 29.12403461 140.71481661 26.6171875 142.21875 C24.68257461 143.37547336 22.74767756 144.53172158 20.8125 145.6875 C19.89847412 146.2343042 18.98444824 146.7811084 18.04272461 147.34448242 C-6.39699552 161.81284957 -6.39699552 161.81284957 -20.8359375 158.3125 C-45.27941107 149.90786725 -64.82723293 129.86848077 -76.3125 107.0625 C-84.18828868 90.77781062 -89.18412284 75.01110539 -89.4375 56.8125 C-89.45989746 55.81476563 -89.48229492 54.81703125 -89.50537109 53.7890625 C-89.47265615 43.36160599 -86.46560869 33.53401362 -79 26 C-72.23847322 20.78286128 -64.52917895 16.84041401 -57.0625 12.75 C-54.65829834 11.43200023 -52.25468976 10.11292643 -49.8515625 8.79296875 C-49.26167038 8.46948959 -48.67177826 8.14601044 -48.06401062 7.81272888 C-44.53327872 5.86918443 -41.04646379 3.86644318 -37.5859375 1.80078125 C-36.78921631 1.3325293 -35.99249512 0.86427734 -35.17163086 0.38183594 C-33.74020034 -0.46347611 -32.31802863 -1.32479073 -30.90844727 -2.20605469 C-20.90547799 -8.04122481 -9.92739716 -4.4896449 0 0 Z " fill="#F9AB4D" transform="translate(1744,1445)"/>
<path d="M0 0 C10.82719383 4.05985583 19.45736773 11.37465641 27.67919922 19.33422852 C28.2205249 19.84783936 28.76185059 20.3614502 29.31958008 20.890625 C33.60016911 25.03511746 37.20616872 29.39156424 40.61669922 34.27172852 C41.13176025 35.00681641 41.64682129 35.7419043 42.17749023 36.49926758 C57.79741416 59.30869606 66.98250199 86.84212908 62.28808594 114.65112305 C59.77617852 124.78675746 53.75656943 131.59224033 45.11669922 137.02172852 C43.3711954 138.04044946 41.62492886 139.05794598 39.87109375 140.06225586 C37.24470526 141.58636858 34.64824093 143.1566704 32.05029297 144.72875977 C30.05188552 145.93106561 28.05318639 147.13288677 26.05419922 148.33422852 C25.081521 148.92292725 24.10884277 149.51162598 23.10668945 150.11816406 C22.18960205 150.66384033 21.27251465 151.2095166 20.32763672 151.77172852 C19.09279541 152.51229492 19.09279541 152.51229492 17.83300781 153.26782227 C15.67919922 154.33422852 15.67919922 154.33422852 12.67919922 154.33422852 C13.58669922 153.38547852 14.49419922 152.43672852 15.42919922 151.45922852 C24.34528269 141.04659203 24.48740426 127.07774559 23.91015625 114.02807617 C21.35922283 84.27437709 4.13645061 55.52867834 -18.32080078 36.33422852 C-31.44913258 26.04126196 -44.80236858 21.5674798 -61.32080078 21.33422852 C-58.40868428 19.04105327 -55.4404223 17.22335165 -52.17236328 15.47875977 C-51.17350098 14.94210693 -50.17463867 14.4054541 -49.14550781 13.85253906 C-48.08960449 13.28962158 -47.03370117 12.7267041 -45.94580078 12.14672852 C-39.58624704 8.7535438 -33.26718865 5.36583546 -27.14282227 1.56225586 C-17.33575874 -4.45093717 -10.59190014 -3.62410435 0 0 Z " fill="#DC904D" transform="translate(1738.32080078125,1442.665771484375)"/>
</svg>
