<?xml version="1.0" encoding="UTF-8"?>
<svg version="1.1" xmlns="http://www.w3.org/2000/svg" width="400" height="150">
<path d="M0 0 C3.14344435 1.74635797 5.46862726 3.46862726 8 6 C8.40089844 5.566875 8.80179688 5.13375 9.21484375 4.6875 C12.48077462 1.48822078 14.88323109 -0.45051879 19.5625 -0.625 C24.92167599 -0.25918594 28.26998622 2.26998622 32 6 C32.78375 5.195625 33.5675 4.39125 34.375 3.5625 C38.13478319 -0.10776454 40.50065633 -0.44184764 45.6015625 -0.43359375 C49.73319917 0.31333079 52.22432656 3.00120168 55 6 C55.94875 5.195625 56.8975 4.39125 57.875 3.5625 C61.59286332 0.41039849 63.94400157 -0.29164789 68.96484375 -0.21875 C71.93774757 0.10079436 73.70998159 1.11410248 76 3 C77.3125 5.1875 77.3125 5.1875 78 7 C78.66 7 79.32 7 80 7 C80.226875 6.401875 80.45375 5.80375 80.6875 5.1875 C82.44176201 2.26372999 83.86849164 1.36152537 87 0 C91.96828476 -0.55203164 93.9841569 -0.56435728 98.375 1.875 C101 4 101 4 103 6 C104.1446875 4.7934375 104.1446875 4.7934375 105.3125 3.5625 C109.00613979 0.04065741 111.88671302 -0.33944095 116.93359375 -0.29296875 C121.176378 0.30856021 124.07056945 3.07056945 127 6 C127.40089844 5.566875 127.80179688 5.13375 128.21484375 4.6875 C131.48077462 1.48822078 133.88323109 -0.45051879 138.5625 -0.625 C143.92167599 -0.25918594 147.26998622 2.26998622 151 6 C151.78375 5.195625 152.5675 4.39125 153.375 3.5625 C157.1336061 -0.10661548 159.50336856 -0.45050871 164.60546875 -0.42578125 C168.72873858 0.30739397 171.31438335 2.91473802 174 6 C175.8625481 9.72509619 175.57049436 13.94452922 175 18 C173.6089908 20.64706975 172.26537836 21.95037196 170 24 C169.34 24 168.68 24 168 24 C168 24.66 168 25.32 168 26 C168.598125 26.061875 169.19625 26.12375 169.8125 26.1875 C172 27 172 27 173.75 28.9375 C175.55387502 33.35699379 175.94095469 37.30252077 175 42 C173.3299813 44.73011753 171.37448489 46.86579037 169 49 C169.433125 49.38929687 169.86625 49.77859375 170.3125 50.1796875 C173.72837646 53.6113782 175.47134484 56.13565304 175.6875 61.0625 C175.36297189 66.26286516 173.81674823 68.53022888 170 72 C166.53330978 74.5422395 163.20083582 74.36849437 159 74 C155.69937371 72.38806623 152.89516383 70.25179409 150 68 C149.236875 68.804375 148.47375 69.60875 147.6875 70.4375 C144.53800875 73.44050329 142.97094525 73.90840139 138.6875 74.3125 C134.32650641 73.94292427 132.33427252 72.77856044 129 70 C128.67 69.01 128.34 68.02 128 67 C127.52949219 67.42152344 127.05898437 67.84304687 126.57421875 68.27734375 C125.95160156 68.82519531 125.32898438 69.37304688 124.6875 69.9375 C124.07261719 70.48277344 123.45773438 71.02804688 122.82421875 71.58984375 C119.12833616 74.44683222 115.50776702 74.38201415 111 74 C107.89960457 72.24505919 105.51174333 70.51174333 103 68 C102.195625 68.804375 101.39125 69.60875 100.5625 70.4375 C96.71347592 73.61476044 92.94555214 74.45505949 88 74 C83.95666437 72.55266963 81.40870002 70.61305003 79 67 C78.13375 68.175625 78.13375 68.175625 77.25 69.375 C74.11214876 73.03582644 72.4627614 73.83440437 67.6875 74.375 C62.40115239 73.83740533 58.80033823 71.80033823 55 68 C54.05125 68.804375 53.1025 69.60875 52.125 70.4375 C48.02605295 73.91269424 45.4892692 74.37215384 40 74 C36.69937371 72.38806623 33.89516383 70.25179409 31 68 C30.236875 68.804375 29.47375 69.60875 28.6875 70.4375 C25.53800875 73.44050329 23.97094525 73.90840139 19.6875 74.3125 C15.32650641 73.94292427 13.33427252 72.77856044 10 70 C9.67 69.01 9.34 68.02 9 67 C8.34 67 7.68 67 7 67 C6.79375 67.598125 6.5875 68.19625 6.375 68.8125 C4.41076615 71.93741749 2.42634728 72.70703876 -1 74 C-4.66230985 74.61038497 -6.92559885 74.61010637 -10.1875 72.7578125 C-15.7435446 68.7693662 -15.7435446 68.7693662 -17 65 C-17.34222737 59.69547577 -17.52076609 56.27521597 -14 52 C-11.8125 50.6875 -11.8125 50.6875 -10 50 C-10 49.34 -10 48.68 -10 48 C-10.598125 47.773125 -11.19625 47.54625 -11.8125 47.3125 C-14.76738497 45.53956902 -15.64499863 44.18425322 -17 41 C-17.6591975 37.11646691 -17.88725869 33.61021021 -15.9453125 30.0859375 C-14.625 28.4375 -14.625 28.4375 -12 26 C-11.34 26 -10.68 26 -10 26 C-10 25.34 -10 24.68 -10 24 C-10.598125 23.773125 -11.19625 23.54625 -11.8125 23.3125 C-14.76738497 21.53956902 -15.64499863 20.18425322 -17 17 C-17.77041244 12.93435814 -17.90612503 9.53300398 -15.7578125 5.8984375 C-11.3305476 0.54607247 -7.03223705 -0.99700903 0 0 Z M-6 9 C-6.66 9.66 -7.32 10.32 -8 11 C-7.67958603 13.60280568 -7.67958603 13.60280568 -7 16 C-5.16299211 16.77242269 -5.16299211 16.77242269 -3 17 C-1.22809091 15.64555699 -1.22809091 15.64555699 0 14 C-0.66 12.35 -1.32 10.7 -2 9 C-3.32 9 -4.64 9 -6 9 Z M16 10 C16 11.65 16 13.3 16 15 C18.39068734 16.10636395 18.39068734 16.10636395 21 17 C23.1564434 16.18964132 23.1564434 16.18964132 23.8125 14.125 C24.23815878 11.93227393 24.23815878 11.93227393 22.75 10.25 C20.25077851 8.46484179 18.69770083 8.65114959 16 10 Z M42 9 C40.515 10.98 40.515 10.98 39 13 C39.99 14.32 40.98 15.64 42 17 C43.65 16.34 45.3 15.68 47 15 C46.67 13.35 46.34 11.7 46 10 C44.68 9.67 43.36 9.34 42 9 Z M65 9 C64.34 10.65 63.68 12.3 63 14 C63.99 14.99 64.98 15.98 66 17 C67.65 16.34 69.3 15.68 71 15 C70.67 13.35 70.34 11.7 70 10 C68.35 9.67 66.7 9.34 65 9 Z M89 9 C88.34 10.65 87.68 12.3 87 14 C88.22809091 15.64555699 88.22809091 15.64555699 90 17 C92.16299211 16.77242269 92.16299211 16.77242269 94 16 C94.69159401 14.15274948 94.69159401 14.15274948 95 12 C94.34 11.01 93.68 10.02 93 9 C91.68 9 90.36 9 89 9 Z M113 9 C112.34 9.66 111.68 10.32 111 11 C111.32041397 13.60280568 111.32041397 13.60280568 112 16 C113.83700789 16.77242269 113.83700789 16.77242269 116 17 C117.77190909 15.64555699 117.77190909 15.64555699 119 14 C118.34 12.35 117.68 10.7 117 9 C115.68 9 114.36 9 113 9 Z M135 10 C135 11.65 135 13.3 135 15 C137.475 15.99 137.475 15.99 140 17 C141.62831762 15.19038423 141.62831762 15.19038423 143 13 C142.67 12.01 142.34 11.02 142 10 C138.41672247 8.99782936 138.41672247 8.99782936 135 10 Z M161 9 C159.22809091 10.35444301 159.22809091 10.35444301 158 12 C158.79117904 13.99983534 158.79117904 13.99983534 160 16 C160.99 16.33 161.98 16.66 163 17 C163.99 16.34 164.98 15.68 166 15 C165.67 13.35 165.34 11.7 165 10 C163.16299211 9.22757731 163.16299211 9.22757731 161 9 Z M7 19 C5.29115995 20.62339805 3.62553283 22.29319053 2 24 C2 24.66 2 25.32 2 26 C3.95927063 27.7143618 5.95880212 29.38405168 8 31 C10.04119788 29.38405168 12.04072937 27.7143618 14 26 C14 25.34 14 24.68 14 24 C12.44144019 22.64287834 12.44144019 22.64287834 10.5 21.375 C9.8503125 20.92898437 9.200625 20.48296875 8.53125 20.0234375 C8.0259375 19.68570313 7.520625 19.34796875 7 19 Z M31 19 C30.67 19.99 30.34 20.98 30 22 C27.4375 23.1875 27.4375 23.1875 25 24 C27.97 27.465 27.97 27.465 31 31 C31.78375 30.360625 32.5675 29.72125 33.375 29.0625 C36 27 36 27 38 26 C38 25.34 38 24.68 38 24 C37.195625 23.731875 36.39125 23.46375 35.5625 23.1875 C34.716875 22.795625 33.87125 22.40375 33 22 C32.67 21.01 32.34 20.02 32 19 C31.67 19 31.34 19 31 19 Z M55 19 C52.95880212 20.61594832 50.95927063 22.2856382 49 24 C49 24.66 49 25.32 49 26 C50.55855981 27.35712166 50.55855981 27.35712166 52.5 28.625 C53.1496875 29.07101563 53.799375 29.51703125 54.46875 29.9765625 C54.9740625 30.31429687 55.479375 30.65203125 56 31 C59.42578949 27.82460444 59.42578949 27.82460444 62 24 C61.21625 23.54625 60.4325 23.0925 59.625 22.625 C57 21 57 21 55 19 Z M75.375 21.375 C72.77636223 23.65718683 72.77636223 23.65718683 73 26 C74.55855981 27.35712166 74.55855981 27.35712166 76.5 28.625 C77.1496875 29.07101563 77.799375 29.51703125 78.46875 29.9765625 C78.9740625 30.31429687 79.479375 30.65203125 80 31 C81.70884005 29.37660195 83.37446717 27.70680947 85 26 C85.22363777 23.65718683 85.22363777 23.65718683 82.625 21.375 C79.08887119 18.17564536 78.91112881 18.17564536 75.375 21.375 Z M102 19 C101.3503125 19.928125 101.3503125 19.928125 100.6875 20.875 C99 23 99 23 96 25 C97.175625 25.928125 97.175625 25.928125 98.375 26.875 C101 29 101 29 103 31 C105.04119788 29.38405168 107.04072937 27.7143618 109 26 C109 25.34 109 24.68 109 24 C107.44144019 22.64287834 107.44144019 22.64287834 105.5 21.375 C104.8503125 20.92898437 104.200625 20.48296875 103.53125 20.0234375 C103.0259375 19.68570313 102.520625 19.34796875 102 19 Z M126 19 C125.38125 19.61875 124.7625 20.2375 124.125 20.875 C122.75 22.25 121.375 23.625 120 25 C121.175625 25.928125 121.175625 25.928125 122.375 26.875 C125 29 125 29 127 31 C129.04119788 29.38405168 131.04072937 27.7143618 133 26 C133 25.34 133 24.68 133 24 C131.44144019 22.64287834 131.44144019 22.64287834 129.5 21.375 C128.8503125 20.92898437 128.200625 20.48296875 127.53125 20.0234375 C127.0259375 19.68570313 126.520625 19.34796875 126 19 Z M150 19 C149.67 19.99 149.34 20.98 149 22 C146.4375 23.1875 146.4375 23.1875 144 24 C144 24.66 144 25.32 144 26 C144.598125 26.268125 145.19625 26.53625 145.8125 26.8125 C147.97224808 27.98493467 149.35790256 29.19369282 151 31 C151.61875 30.360625 152.2375 29.72125 152.875 29.0625 C155 27 155 27 157 26 C157 25.34 157 24.68 157 24 C156.195625 23.731875 155.39125 23.46375 154.5625 23.1875 C153.716875 22.795625 152.87125 22.40375 152 22 C151.67 21.01 151.34 20.02 151 19 C150.67 19 150.34 19 150 19 Z M-6 33 C-6.66 33.66 -7.32 34.32 -8 35 C-7.67958603 37.60280568 -7.67958603 37.60280568 -7 40 C-5.16299211 40.77242269 -5.16299211 40.77242269 -3 41 C-1.22809091 39.64555699 -1.22809091 39.64555699 0 38 C-0.66 36.35 -1.32 34.7 -2 33 C-3.32 33 -4.64 33 -6 33 Z M18 33 C17.34 33.66 16.68 34.32 16 35 C16.32041397 37.60280568 16.32041397 37.60280568 17 40 C18.98 40.495 18.98 40.495 21 41 C21.99 39.35 22.98 37.7 24 36 C22.68798827 34.43750191 22.68798827 34.43750191 21 33 C20.01 33 19.02 33 18 33 Z M42 33 C40.29467677 34.94009522 40.29467677 34.94009522 39 37 C39.99 38.32 40.98 39.64 42 41 C43.32 40.67 44.64 40.34 46 40 C46.67958603 37.60280568 46.67958603 37.60280568 47 35 C46.34 34.34 45.68 33.68 45 33 C44.01 33 43.02 33 42 33 Z M65 33 C64.34 34.65 63.68 36.3 63 38 C64.22809091 39.64555699 64.22809091 39.64555699 66 41 C68.16299211 40.77242269 68.16299211 40.77242269 70 40 C70.67958603 37.60280568 70.67958603 37.60280568 71 35 C70.34 34.34 69.68 33.68 69 33 C67.68 33 66.36 33 65 33 Z M89 33 C88.34 34.65 87.68 36.3 87 38 C88.22809091 39.64555699 88.22809091 39.64555699 90 41 C92.16299211 40.77242269 92.16299211 40.77242269 94 40 C94.69159401 38.15274948 94.69159401 38.15274948 95 36 C94.34 35.01 93.68 34.02 93 33 C91.68 33 90.36 33 89 33 Z M113 33 C112.34 33.66 111.68 34.32 111 35 C111.32041397 37.60280568 111.32041397 37.60280568 112 40 C113.83700789 40.77242269 113.83700789 40.77242269 116 41 C117.77190909 39.64555699 117.77190909 39.64555699 119 38 C118.34 36.35 117.68 34.7 117 33 C115.68 33 114.36 33 113 33 Z M137 33 C136.34 33.66 135.68 34.32 135 35 C135.32041397 37.60280568 135.32041397 37.60280568 136 40 C137.98 40.495 137.98 40.495 140 41 C140.99 39.35 141.98 37.7 143 36 C141.68798827 34.43750191 141.68798827 34.43750191 140 33 C139.01 33 138.02 33 137 33 Z M161 33 C159.22809091 34.35444301 159.22809091 34.35444301 158 36 C158.71563266 38.0162233 158.71563266 38.0162233 160 40 C161.94285168 40.98617135 161.94285168 40.98617135 164 41 C164.66 40.34 165.32 39.68 166 39 C165.67958603 36.39719432 165.67958603 36.39719432 165 34 C163.16299211 33.22757731 163.16299211 33.22757731 161 33 Z M7 42 C7 42.99 7 43.98 7 45 C6.34 45 5.68 45 5 45 C5 45.66 5 46.32 5 47 C4.01 47.33 3.02 47.66 2 48 C2 48.66 2 49.32 2 50 C3.95927063 51.7143618 5.95880212 53.38405168 8 55 C9.98 52.69 11.96 50.38 14 48 C10.82460444 44.57421051 10.82460444 44.57421051 7 42 Z M126 42 C126 42.99 126 43.98 126 45 C125.34 45 124.68 45 124 45 C124 45.66 124 46.32 124 47 C123.01 47.33 122.02 47.66 121 48 C121 48.66 121 49.32 121 50 C122.95927063 51.7143618 124.95880212 53.38405168 127 55 C128.98 52.69 130.96 50.38 133 48 C132.21625 47.38125 131.4325 46.7625 130.625 46.125 C128 44 128 44 126 42 Z M31 43 C28.03 45.475 28.03 45.475 25 48 C27.97 51.465 27.97 51.465 31 55 C31.66 54.67 32.32 54.34 33 54 C33 53.34 33 52.68 33 52 C33.66 52 34.32 52 35 52 C35 51.34 35 50.68 35 50 C35.99 49.67 36.98 49.34 38 49 C34.82460444 45.57421051 34.82460444 45.57421051 31 43 Z M51.375 45.375 C48.77636223 47.65718683 48.77636223 47.65718683 49 50 C50.55855981 51.35712166 50.55855981 51.35712166 52.5 52.625 C53.1496875 53.07101563 53.799375 53.51703125 54.46875 53.9765625 C54.9740625 54.31429687 55.479375 54.65203125 56 55 C57.65 53.35 59.3 51.7 61 50 C60.67 49.01 60.34 48.02 60 47 C59.34 47 58.68 47 58 47 C58 46.34 58 45.68 58 45 C57.34 45 56.68 45 56 45 C56 44.34 56 43.68 56 43 C53.65718683 42.77636223 53.65718683 42.77636223 51.375 45.375 Z M75.375 45.375 C72.77636223 47.65718683 72.77636223 47.65718683 73 50 C74.55855981 51.35712166 74.55855981 51.35712166 76.5 52.625 C77.1496875 53.07101563 77.799375 53.51703125 78.46875 53.9765625 C78.9740625 54.31429687 79.479375 54.65203125 80 55 C81.70884005 53.37660195 83.37446717 51.70680947 85 50 C85.22363777 47.65718683 85.22363777 47.65718683 82.625 45.375 C79.08887119 42.17564536 78.91112881 42.17564536 75.375 45.375 Z M99.375 45.375 C96.77636223 47.65718683 96.77636223 47.65718683 97 50 C98.95927063 51.7143618 100.95880212 53.38405168 103 55 C105.04119788 53.38405168 107.04072937 51.7143618 109 50 C109.22363777 47.65718683 109.22363777 47.65718683 106.625 45.375 C103.08887119 42.17564536 102.91112881 42.17564536 99.375 45.375 Z M150 43 C147.03 45.475 147.03 45.475 144 48 C146.97 51.465 146.97 51.465 150 55 C152.31 53.02 154.62 51.04 157 49 C153.82460444 45.57421051 153.82460444 45.57421051 150 43 Z M-8 59 C-7.67 60.65 -7.34 62.3 -7 64 C-5.16299211 64.77242269 -5.16299211 64.77242269 -3 65 C-1.08333333 63.91666667 -1.08333333 63.91666667 0 62 C-0.22757731 59.83700789 -0.22757731 59.83700789 -1 58 C-4.48581856 56.7979936 -4.67992344 56.78661563 -8 59 Z M16 58 C16 59.65 16 61.3 16 63 C17.98 63.99 17.98 63.99 20 65 C21.32 64.01 22.64 63.02 24 62 C23.67 60.68 23.34 59.36 23 58 C19.41672247 56.99782936 19.41672247 56.99782936 16 58 Z M42 57 C40.1645201 58.33378575 40.1645201 58.33378575 39 60 C39.71563266 62.0162233 39.71563266 62.0162233 41 64 C42.94285168 64.98617135 42.94285168 64.98617135 45 65 C47.28728734 63.16116119 47.28728734 63.16116119 47.125 60.375 C47.08375 59.59125 47.0425 58.8075 47 58 C44.65466049 57.23043864 44.65466049 57.23043864 42 57 Z M66 57 C64.22809091 58.35444301 64.22809091 58.35444301 63 60 C63.79117904 61.99983534 63.79117904 61.99983534 65 64 C65.99 64.33 66.98 64.66 68 65 C68.99 64.34 69.98 63.68 71 63 C70.67 61.35 70.34 59.7 70 58 C68.16299211 57.22757731 68.16299211 57.22757731 66 57 Z M88.1875 58.1875 C86.74709672 59.95054109 86.74709672 59.95054109 87.3125 62.1875 C87.539375 62.785625 87.76625 63.38375 88 64 C89.83700789 64.77242269 89.83700789 64.77242269 92 65 C93.91666667 63.91666667 93.91666667 63.91666667 95 62 C94.77242269 59.83700789 94.77242269 59.83700789 94 58 C90.99251085 56.84137694 90.99251085 56.84137694 88.1875 58.1875 Z M113 57 C112.34 57.66 111.68 58.32 111 59 C111.32041397 61.60280568 111.32041397 61.60280568 112 64 C113.83700789 64.77242269 113.83700789 64.77242269 116 65 C117.91666667 63.91666667 117.91666667 63.91666667 119 62 C118.77242269 59.83700789 118.77242269 59.83700789 118 58 C115.60280568 57.32041397 115.60280568 57.32041397 113 57 Z M135 58 C135 59.65 135 61.3 135 63 C136.98 63.99 136.98 63.99 139 65 C139.99 64.34 140.98 63.68 142 63 C142.25030977 60.41619823 142.25030977 60.41619823 142 58 C138.41672247 56.99782936 138.41672247 56.99782936 135 58 Z M161 57 C159.22809091 58.35444301 159.22809091 58.35444301 158 60 C158.79117904 61.99983534 158.79117904 61.99983534 160 64 C160.99 64.33 161.98 64.66 163 65 C163.99 64.34 164.98 63.68 166 63 C165.67 61.35 165.34 59.7 165 58 C163.16299211 57.22757731 163.16299211 57.22757731 161 57 Z " fill="#FAFAFA" transform="translate(20,40)"/>
<path d="M0 0 C2.67972844 1.7883902 4.69414803 3.81753763 6.83203125 6.22265625 C7.16203125 5.23265625 7.49203125 4.24265625 7.83203125 3.22265625 C9.5390625 1.87109375 9.5390625 1.87109375 11.64453125 0.59765625 C12.33160156 0.17226563 13.01867187 -0.253125 13.7265625 -0.69140625 C18.17176979 -2.98411057 22.88878918 -3.43459129 27.83203125 -2.77734375 C33.15278301 -0.86143519 36.64674618 2.58124087 39.83203125 7.22265625 C41.69417542 12.48525519 42.10511266 17.06689328 42.02734375 22.5625 C42.02451385 23.32945694 42.02168396 24.09641388 42.01876831 24.88661194 C42.007666 27.31129246 41.98258092 29.73558934 41.95703125 32.16015625 C41.94698855 33.81444775 41.93786497 35.4687451 41.9296875 37.12304688 C41.90775942 41.15639548 41.87329968 45.18946105 41.83203125 49.22265625 C43.15203125 49.22265625 44.47203125 49.22265625 45.83203125 49.22265625 C45.83203125 50.54265625 45.83203125 51.86265625 45.83203125 53.22265625 C37.91203125 53.22265625 29.99203125 53.22265625 21.83203125 53.22265625 C21.83203125 51.90265625 21.83203125 50.58265625 21.83203125 49.22265625 C23.15203125 48.89265625 24.47203125 48.56265625 25.83203125 48.22265625 C25.90626048 43.16897792 25.9606704 38.11561785 25.99682617 33.06152344 C26.01190058 31.3427172 26.03236354 29.62394934 26.05834961 27.90527344 C26.0947929 25.43284628 26.11177083 22.96092825 26.125 20.48828125 C26.14048386 19.72147034 26.15596771 18.95465942 26.17192078 18.16461182 C26.17292598 14.96860773 26.02658171 12.60331955 24.55981445 9.73339844 C22.1384135 7.61616951 19.88705765 7.73962752 16.765625 7.8828125 C14.19152941 8.3352293 12.73025705 9.47044782 10.83203125 11.22265625 C10.17203125 11.22265625 9.51203125 11.22265625 8.83203125 11.22265625 C8.50203125 23.76265625 8.17203125 36.30265625 7.83203125 49.22265625 C9.48203125 49.55265625 11.13203125 49.88265625 12.83203125 50.22265625 C12.50203125 51.21265625 12.17203125 52.20265625 11.83203125 53.22265625 C4.24203125 53.22265625 -3.34796875 53.22265625 -11.16796875 53.22265625 C-11.16796875 51.90265625 -11.16796875 50.58265625 -11.16796875 49.22265625 C-10.17796875 48.89265625 -9.18796875 48.56265625 -8.16796875 48.22265625 C-8.16796875 35.35265625 -8.16796875 22.48265625 -8.16796875 9.22265625 C-11.8392449 7.99889753 -15.38628538 7.3351859 -19.16796875 8.22265625 C-21.6475853 9.83989927 -23.3421439 10.97360393 -25.16796875 13.22265625 C-25.7086735 16.22366452 -25.87848763 18.39111062 -25.75390625 21.3671875 C-25.74541656 22.13697433 -25.73692688 22.90676117 -25.72817993 23.69987488 C-25.69472578 26.14642335 -25.61947467 28.58961316 -25.54296875 31.03515625 C-25.51285823 32.69851993 -25.4854843 34.36193554 -25.4609375 36.02539062 C-25.39496244 40.09242996 -25.29150718 44.15697476 -25.16796875 48.22265625 C-23.84796875 48.55265625 -22.52796875 48.88265625 -21.16796875 49.22265625 C-21.16796875 50.54265625 -21.16796875 51.86265625 -21.16796875 53.22265625 C-29.08796875 53.22265625 -37.00796875 53.22265625 -45.16796875 53.22265625 C-45.16796875 51.90265625 -45.16796875 50.58265625 -45.16796875 49.22265625 C-43.84796875 49.22265625 -42.52796875 49.22265625 -41.16796875 49.22265625 C-41.16796875 34.04265625 -41.16796875 18.86265625 -41.16796875 3.22265625 C-42.48796875 2.89265625 -43.80796875 2.56265625 -45.16796875 2.22265625 C-45.16796875 0.90265625 -45.16796875 -0.41734375 -45.16796875 -1.77734375 C-39.22796875 -1.77734375 -33.28796875 -1.77734375 -27.16796875 -1.77734375 C-26.50796875 -0.12734375 -25.84796875 1.52265625 -25.16796875 3.22265625 C-24.74902344 2.76246094 -24.33007812 2.30226563 -23.8984375 1.828125 C-17.14916807 -4.43361256 -7.63905253 -4.20373896 0 0 Z " fill="#FCFCFC" transform="translate(292.16796875,51.77734375)"/>
<path d="M0 0 C3.39528618 2.2340983 5.57357842 4.21027438 6.53515625 8.24609375 C6.79733743 12.34015367 6.51021035 14.35064138 3.9375 17.625 C0.11150281 19.4158923 -1.96631907 19.12046692 -6 18 C-8.39216609 16.4052226 -8.88287964 15.34235181 -9.8125 12.625 C-10.03213229 9.550148 -9.33398037 7.74643017 -8 5 C-12.26404478 2.15730348 -15.99568417 2.37640924 -21 3 C-24.66179604 4.73103086 -26.46189044 6.28252058 -28.875 9.5 C-31.46323876 17.55229835 -30.61739835 25.18172827 -27.140625 32.80859375 C-23.70272743 39.45810257 -23.70272743 39.45810257 -18 44 C-12.4810106 45.26630732 -8.29064941 45.21469045 -3 43 C-1.67088318 42.65023242 -0.33917261 42.30903983 1 42 C1 41.34 1 40.68 1 40 C1.66 40 2.32 40 3 40 C3.33 39.01 3.66 38.02 4 37 C5.65 37.33 7.3 37.66 9 38 C8.11456178 43.11088391 4.88712411 45.80408534 1 49 C-6.14416273 53.36224927 -12.639494 54.91262738 -21 54 C-28.68711205 51.87052672 -35.30514729 48.59639919 -40 42 C-44.51606591 33.81289892 -46.28449728 26.28945724 -43.875 17.0625 C-41.24164705 8.92754112 -35.75331465 2.21356314 -28.265625 -1.96875 C-19.01922904 -6.09524076 -8.65919506 -4.92837166 0 0 Z " fill="#F7F7F7" transform="translate(386,53)"/>
<path d="M0 0 C7.59 0 15.18 0 23 0 C23 1.32 23 2.64 23 4 C21.68 4.33 20.36 4.66 19 5 C19 20.18 19 35.36 19 51 C20.32 51 21.64 51 23 51 C23 52.32 23 53.64 23 55 C15.08 55 7.16 55 -1 55 C-0.67 53.68 -0.34 52.36 0 51 C1.485 50.505 1.485 50.505 3 50 C3.33 35.15 3.66 20.3 4 5 C2.68 4.67 1.36 4.34 0 4 C0 2.68 0 1.36 0 0 Z " fill="#FDFDFD" transform="translate(217,50)"/>
<path d="M0 0 C2.66854424 1.76954639 4.77452434 3.77155429 6.83203125 6.21484375 C6.83203125 6.87484375 6.83203125 7.53484375 6.83203125 8.21484375 C5.84203125 8.21484375 4.85203125 8.21484375 3.83203125 8.21484375 C2.48871471 6.22153533 1.15609113 4.22099509 -0.16796875 2.21484375 C-4.98129284 -0.93761906 -10.65996095 -0.5951574 -16.16796875 0.21484375 C-19.0845619 1.54902998 -21.58158207 3.0670783 -24.20703125 4.90234375 C-26.16796875 6.21484375 -26.16796875 6.21484375 -28.16796875 6.21484375 C-28.16796875 4.23484375 -28.16796875 2.25484375 -28.16796875 0.21484375 C-34.60296875 0.70984375 -34.60296875 0.70984375 -41.16796875 1.21484375 C-40.50796875 1.87484375 -39.84796875 2.53484375 -39.16796875 3.21484375 C-38.90727234 5.14353943 -38.90727234 5.14353943 -38.89331055 7.52514648 C-38.88377853 8.41624619 -38.87424652 9.30734589 -38.86442566 10.22544861 C-38.86533707 11.19003494 -38.86624847 12.15462128 -38.8671875 13.1484375 C-38.86290237 14.13731461 -38.85861725 15.12619171 -38.85420227 16.14503479 C-38.84845238 18.23901605 -38.84796354 20.33301728 -38.85229492 22.42700195 C-38.85545259 25.63592535 -38.83201157 28.84392522 -38.80664062 32.05273438 C-38.80436753 34.08463425 -38.80366418 36.11653661 -38.8046875 38.1484375 C-38.79547775 39.1109996 -38.78626801 40.07356171 -38.77677917 41.06529236 C-38.78300797 41.95954422 -38.78923676 42.85379608 -38.7956543 43.77514648 C-38.79502487 44.56187241 -38.79439545 45.34859833 -38.79374695 46.15916443 C-39.16796875 48.21484375 -39.16796875 48.21484375 -42.16796875 51.21484375 C-36.22796875 51.54484375 -30.28796875 51.87484375 -24.16796875 52.21484375 C-24.16796875 51.55484375 -24.16796875 50.89484375 -24.16796875 50.21484375 C-25.65296875 49.71984375 -25.65296875 49.71984375 -27.16796875 49.21484375 C-29.46141823 44.62794478 -28.60484893 38.01072668 -28.68286133 32.92211914 C-28.71442975 31.3341468 -28.762112 29.74640767 -28.82641602 28.15942383 C-29.35282094 14.98005869 -29.35282094 14.98005869 -26.41748047 10.60693359 C-23.08117793 7.65381932 -19.84676102 5.36406973 -15.35546875 4.96484375 C-11.70113909 5.25145784 -10.01185889 5.92393225 -7.16796875 8.21484375 C-4.91653179 12.45117106 -4.86133387 16.56304541 -4.8671875 21.25390625 C-4.86290237 22.01657806 -4.85861725 22.77924988 -4.85420227 23.56503296 C-4.84847982 25.17029836 -4.84794329 26.77558968 -4.85229492 28.38085938 C-4.85546764 30.83898744 -4.83192748 33.29592567 -4.80664062 35.75390625 C-4.80436871 37.31640473 -4.80366364 38.87890645 -4.8046875 40.44140625 C-4.79547775 41.1758194 -4.78626801 41.91023254 -4.77677917 42.66690063 C-4.81688654 47.07352267 -4.89477496 47.94164996 -8.16796875 51.21484375 C-2.55796875 51.54484375 3.05203125 51.87484375 8.83203125 52.21484375 C8.50203125 51.22484375 8.17203125 50.23484375 7.83203125 49.21484375 C9.48203125 49.54484375 11.13203125 49.87484375 12.83203125 50.21484375 C12.50203125 51.20484375 12.17203125 52.19484375 11.83203125 53.21484375 C4.24203125 53.21484375 -3.34796875 53.21484375 -11.16796875 53.21484375 C-11.16796875 51.89484375 -11.16796875 50.57484375 -11.16796875 49.21484375 C-10.17796875 48.88484375 -9.18796875 48.55484375 -8.16796875 48.21484375 C-8.16796875 35.34484375 -8.16796875 22.47484375 -8.16796875 9.21484375 C-11.8392449 7.99108503 -15.38628538 7.3273734 -19.16796875 8.21484375 C-21.6475853 9.83208677 -23.3421439 10.96579143 -25.16796875 13.21484375 C-25.7086735 16.21585202 -25.87848763 18.38329812 -25.75390625 21.359375 C-25.74541656 22.12916183 -25.73692688 22.89894867 -25.72817993 23.69206238 C-25.69472578 26.13861085 -25.61947467 28.58180066 -25.54296875 31.02734375 C-25.51285823 32.69070743 -25.4854843 34.35412304 -25.4609375 36.01757812 C-25.39496244 40.08461746 -25.29150718 44.14916226 -25.16796875 48.21484375 C-23.84796875 48.54484375 -22.52796875 48.87484375 -21.16796875 49.21484375 C-21.16796875 50.53484375 -21.16796875 51.85484375 -21.16796875 53.21484375 C-29.08796875 53.21484375 -37.00796875 53.21484375 -45.16796875 53.21484375 C-45.16796875 51.89484375 -45.16796875 50.57484375 -45.16796875 49.21484375 C-43.84796875 49.21484375 -42.52796875 49.21484375 -41.16796875 49.21484375 C-41.16796875 34.03484375 -41.16796875 18.85484375 -41.16796875 3.21484375 C-42.48796875 2.88484375 -43.80796875 2.55484375 -45.16796875 2.21484375 C-45.16796875 0.89484375 -45.16796875 -0.42515625 -45.16796875 -1.78515625 C-39.22796875 -1.78515625 -33.28796875 -1.78515625 -27.16796875 -1.78515625 C-26.50796875 -0.13515625 -25.84796875 1.51484375 -25.16796875 3.21484375 C-24.74902344 2.75464844 -24.33007812 2.29445313 -23.8984375 1.8203125 C-17.15635402 -4.43475818 -7.62625652 -4.22678123 0 0 Z " fill="#E9E9E9" transform="translate(292.16796875,51.78515625)"/>
<path d="M0 0 C3.14344435 1.74635797 5.46862726 3.46862726 8 6 C8.40089844 5.566875 8.80179688 5.13375 9.21484375 4.6875 C12.48077462 1.48822078 14.88323109 -0.45051879 19.5625 -0.625 C24.92167599 -0.25918594 28.26998622 2.26998622 32 6 C32.78375 5.195625 33.5675 4.39125 34.375 3.5625 C38.1336061 -0.10661548 40.50336856 -0.45050871 45.60546875 -0.42578125 C49.72873858 0.30739397 52.31438335 2.91473802 55 6 C56.8625481 9.72509619 56.57049436 13.94452922 56 18 C54.6089908 20.64706975 53.26537836 21.95037196 51 24 C50.34 24 49.68 24 49 24 C49 24.66 49 25.32 49 26 C49.598125 26.061875 50.19625 26.12375 50.8125 26.1875 C53 27 53 27 54.75 28.9375 C56.55387502 33.35699379 56.94095469 37.30252077 56 42 C54.3299813 44.73011753 52.37448489 46.86579037 50 49 C50.433125 49.38929687 50.86625 49.77859375 51.3125 50.1796875 C54.72837646 53.6113782 56.47134484 56.13565304 56.6875 61.0625 C56.36297189 66.26286516 54.81674823 68.53022888 51 72 C47.53330978 74.5422395 44.20083582 74.36849437 40 74 C36.69937371 72.38806623 33.89516383 70.25179409 31 68 C30.236875 68.804375 29.47375 69.60875 28.6875 70.4375 C25.53800875 73.44050329 23.97094525 73.90840139 19.6875 74.3125 C15.33455852 73.94360665 13.2986808 72.81594703 10 70 C10 69.01 10 68.02 10 67 C10.639375 67.66 11.27875 68.32 11.9375 69 C16.01772594 71.66463735 19.2440246 71.87337003 24 71 C26.9102847 69.32272662 26.9102847 69.32272662 29 67 C29.598125 66.4225 30.19625 65.845 30.8125 65.25 C31.204375 64.8375 31.59625 64.425 32 64 C33.23697917 65.52994792 34.47395833 67.05989583 35.7109375 68.58984375 C37.36885799 70.40350828 38.56013266 70.93950744 40.98828125 71.2734375 C45.48027315 71.46972622 47.34969305 71.51482633 51 68.625 C54.12096231 64.52873697 54.43920353 62.18260163 54 57 C52.3293081 54.24496542 52.3293081 54.24496542 50 52 C49.2575 51.236875 48.515 50.47375 47.75 49.6875 C47.1725 49.130625 46.595 48.57375 46 48 C46.94875 47.4225 47.8975 46.845 48.875 46.25 C52.43731943 43.76250049 52.43731943 43.76250049 54 40 C54.45495877 35.82954464 54.48343234 33.75015363 52.1875 30.1875 C50.00408575 27.8610844 50.00408575 27.8610844 47 26 C48.23551244 22.29346269 49.96665078 21.35084565 53 19 C54.60430264 15.79139471 54.48105318 12.4809543 54 9 C52.20363006 5.93951788 50.72196245 4.42927497 47.6875 2.625 C44.09545559 1.78964083 41.56743957 2.09192447 38 3 C35.70784955 4.79191032 35.70784955 4.79191032 34 7 C33 8 32 9 31 10 C30.649375 9.236875 30.29875 8.47375 29.9375 7.6875 C27.37209522 4.12903531 25.16252943 3.26992423 21 2 C15.15607968 2.11687841 12.23828677 4.83889553 8.1875 8.75 C7.795625 9.1625 7.40375 9.575 7 10 C6.649375 9.236875 6.29875 8.47375 5.9375 7.6875 C3.37209522 4.12903531 1.16252943 3.26992423 -3 2 C-8.0205861 2.10246094 -11.01512203 4.05878055 -15 7 C-14.00449135 4.3754772 -13.06036546 3.04971273 -10.875 1.25 C-7.18567356 -0.35405497 -3.92543522 -0.71441385 0 0 Z " fill="#E6E6E6" transform="translate(139,40)"/>
<path d="M0 0 C7.59 0 15.18 0 23 0 C23 1.32 23 2.64 23 4 C22.42024414 3.83701416 21.84048828 3.67402832 21.24316406 3.50610352 C17.77326877 2.72322444 14.287377 2.89687641 10.75 2.9375 C9.63238281 2.94426758 9.63238281 2.94426758 8.4921875 2.95117188 C6.6614236 2.96290754 4.83070127 2.9808415 3 3 C3.66 3.33 4.32 3.66 5 4 C5.07588693 10.656827 5.12853061 17.31354303 5.16479492 23.97070312 C5.17990804 26.23669605 5.20039913 28.5026596 5.22631836 30.76855469 C5.26259062 34.02025589 5.2797009 37.27157136 5.29296875 40.5234375 C5.30845261 41.54118256 5.32393646 42.55892761 5.33988953 43.60751343 C5.34011612 44.54833771 5.34034271 45.48916199 5.34057617 46.45849609 C5.34723801 47.28900482 5.35389984 48.11951355 5.36076355 48.97518921 C5.24171158 49.64337677 5.12265961 50.31156433 5 51 C4.01 51.66 3.02 52.32 2 53 C7.94 53 13.88 53 20 53 C19.01 52.34 18.02 51.68 17 51 C16.63923645 49.01315308 16.63923645 49.01315308 16.65942383 46.55029297 C16.65965042 45.62948944 16.65987701 44.70868591 16.66011047 43.75997925 C16.68333626 42.26617233 16.68333626 42.26617233 16.70703125 40.7421875 C16.71127609 39.72399933 16.71552094 38.70581116 16.71989441 37.6567688 C16.73672421 34.39591327 16.77438454 31.13566959 16.8125 27.875 C16.82754126 25.66797766 16.84123063 23.46094566 16.85351562 21.25390625 C16.8866417 15.83572777 16.93688347 10.41790758 17 5 C17.33 5 17.66 5 18 5 C18.33 19.85 18.66 34.7 19 50 C20.32 50.33 21.64 50.66 23 51 C23 52.32 23 53.64 23 55 C15.08 55 7.16 55 -1 55 C-0.67 53.68 -0.34 52.36 0 51 C1.485 50.505 1.485 50.505 3 50 C3.33 35.15 3.66 20.3 4 5 C2.68 4.67 1.36 4.34 0 4 C0 2.68 0 1.36 0 0 Z " fill="#DFDFDF" transform="translate(217,50)"/>
<path d="M0 0 C2.69990662 1.79993774 4.5418865 3.083773 6 6 C6.12338702 8.82070214 6.18840372 11.61575818 6.203125 14.4375 C6.20882507 15.27337646 6.21452515 16.10925293 6.22039795 16.97045898 C6.22984943 18.73908216 6.23638252 20.50772295 6.24023438 22.27636719 C6.24996143 24.98924161 6.28099136 27.7013653 6.3125 30.4140625 C6.31902784 32.13020382 6.32427917 33.84635057 6.328125 35.5625 C6.3404718 36.37710693 6.3528186 37.19171387 6.36553955 38.03100586 C6.35644531 40.31640625 6.35644531 40.31640625 6 44 C5.01 44.66 4.02 45.32 3 46 C8.94 46 14.88 46 21 46 C20.01 45.34 19.02 44.68 18 44 C17.73332461 41.16272675 17.65208766 38.54616955 17.70703125 35.7109375 C17.71127609 34.89251373 17.71552094 34.07408997 17.71989441 33.23086548 C17.73671321 30.61191164 17.77437026 27.99372198 17.8125 25.375 C17.82754274 23.6015736 17.84123186 21.82813516 17.85351562 20.0546875 C17.88662708 15.7028297 17.93843048 11.35154449 18 7 C20 9 20 9 20.22705078 12.43994141 C20.22673369 13.91051979 20.21540987 15.38112142 20.1953125 16.8515625 C20.1924826 17.62559418 20.18965271 18.39962585 20.18673706 19.19711304 C20.17552754 21.67323157 20.15042203 24.1489905 20.125 26.625 C20.11497118 28.30207812 20.10584516 29.97916189 20.09765625 31.65625 C20.07558574 35.77097223 20.04105102 39.88542511 20 44 C21.32 44 22.64 44 24 44 C24 45.32 24 46.64 24 48 C16.08 48 8.16 48 0 48 C0 46.68 0 45.36 0 44 C1.98 43.505 1.98 43.505 4 43 C4.07422923 37.94632167 4.12863915 32.8929616 4.16479492 27.83886719 C4.17986933 26.12006095 4.20033229 24.40129309 4.22631836 22.68261719 C4.26276165 20.21019003 4.27973958 17.738272 4.29296875 15.265625 C4.30845261 14.49881409 4.32393646 13.73200317 4.33988953 12.94195557 C4.34089473 9.74595148 4.19455046 7.3806633 2.7277832 4.51074219 C0.30854154 2.3954013 -1.9394176 2.51654777 -5.05859375 2.66015625 C-7.64328426 3.1126071 -9.16027408 4.16027408 -11 6 C-11.66 5.67 -12.32 5.34 -13 5 C-8.3883437 1.23785933 -6.09023972 -0.59708233 0 0 Z " fill="#E6E6E6" transform="translate(314,57)"/>
<path d="M0 0 C3.18970398 1.73983854 5.44695493 3.44695493 8 6 C8.78375 5.195625 9.5675 4.39125 10.375 3.5625 C14.13478319 -0.10776454 16.50065633 -0.44184764 21.6015625 -0.43359375 C25.73319917 0.31333079 28.22432656 3.00120168 31 6 C31.94875 5.195625 32.8975 4.39125 33.875 3.5625 C37.59286332 0.41039849 39.94400157 -0.29164789 44.96484375 -0.21875 C47.93774757 0.10079436 49.70998159 1.11410248 52 3 C53.3125 5.1875 53.3125 5.1875 54 7 C54.66 7 55.32 7 56 7 C56.226875 6.401875 56.45375 5.80375 56.6875 5.1875 C58.44176201 2.26372999 59.86849164 1.36152537 63 0 C67.91350192 -0.54594466 70.017433 -0.50021593 74.4375 1.75 C76.93662944 3.94435756 77.76793596 4.75110346 78 8 C76.7315625 6.7934375 76.7315625 6.7934375 75.4375 5.5625 C72.06802458 2.77970971 69.44206311 2 65 2 C60.15419828 3.6773929 58.39600587 5.56738914 56 10 C55.34 10 54.68 10 54 10 C53.401875 9.05125 52.80375 8.1025 52.1875 7.125 C49.83088977 3.75841395 48.95469374 2.8277266 45 2 C41.05586423 2.13839073 38.81259487 2.3228376 35.75 4.875 C34.88375 5.926875 34.88375 5.926875 34 7 C33.00725485 8.0072026 32.00846217 9.00853439 31 10 C30.6596875 9.50628906 30.319375 9.01257812 29.96875 8.50390625 C27.36134597 5.05741742 25.4053837 2.5951108 21 1.875 C16.99685493 1.72191606 14.31691246 2.68587503 11 5 C9.11868431 7.54788853 9.11868431 7.54788853 8 10 C6.33196724 8.33196724 4.75248658 6.69944799 3.25 4.875 C0.15279735 2.29399779 -1.99943447 2.06897527 -6 2 C-9.34632935 3.35140224 -12.0005904 5.0003936 -15 7 C-12.07934028 -0.05826098 -7.13529055 -1.1500555 0 0 Z " fill="#E6E6E6" transform="translate(44,40)"/>
<path d="M0 0 C0.763125 0.78375 1.52625 1.5675 2.3125 2.375 C5.64028308 5.62539277 7.67960701 7.29498458 12.3125 7.375 C17.04380288 7.29769113 19.38715299 5.96438729 23 3 C21.98929671 5.6645814 21.0600516 6.95195872 18.8125 8.75 C15.25921457 10.32923797 12.85687108 10.41323619 9 10 C5.69937371 8.38806623 2.89516383 6.25179409 0 4 C-0.763125 4.804375 -1.52625 5.60875 -2.3125 6.4375 C-5.46199125 9.44050329 -7.02905475 9.90840139 -11.3125 10.3125 C-15.66544148 9.94360665 -17.7013192 8.81594703 -21 6 C-21 5.01 -21 4.02 -21 3 C-20.360625 3.66 -19.72125 4.32 -19.0625 5 C-14.98132977 7.66525403 -11.75663849 7.87190651 -7 7 C-3.66399633 4.94161475 -2.1737824 3.2606736 0 0 Z " fill="#E6E6E6" transform="translate(51,104)"/>
<path d="M0 0 C0.721875 0.763125 1.44375 1.52625 2.1875 2.3125 C4.83926978 5.044086 4.83926978 5.044086 7.8125 6.6875 C8.8953125 7.3371875 8.8953125 7.3371875 10 8 C10 8.66 10 9.32 10 10 C8.6078125 10.5878125 8.6078125 10.5878125 7.1875 11.1875 C3.77449882 13.12822616 2.68801596 14.53018941 1 18 C-0.51109262 16.48890738 -2.01999072 14.97917634 -3.5 13.4375 C-5.14575015 11.77629047 -5.14575015 11.77629047 -8 10 C-7.67 9.01 -7.34 8.02 -7 7 C-6.195625 6.71125 -5.39125 6.4225 -4.5625 6.125 C-1.76071559 5.22055781 -1.76071559 5.22055781 -0.6875 2.375 C-0.460625 1.59125 -0.23375 0.8075 0 0 Z M0 3 C-0.33 3.99 -0.66 4.98 -1 6 C-3.5625 7.1875 -3.5625 7.1875 -6 8 C-3.03 11.465 -3.03 11.465 0 15 C0.78375 14.360625 1.5675 13.72125 2.375 13.0625 C5 11 5 11 7 10 C7 9.34 7 8.68 7 8 C6.195625 7.731875 5.39125 7.46375 4.5625 7.1875 C3.716875 6.795625 2.87125 6.40375 2 6 C1.67 5.01 1.34 4.02 1 3 C0.67 3 0.34 3 0 3 Z " fill="#E7E7E7" transform="translate(51,56)"/>
<path d="M0 0 C0.66 0 1.32 0 2 0 C2.45375 0.763125 2.9075 1.52625 3.375 2.3125 C5.0170918 5.0282672 6.47789757 6.17364996 9 8 C9 8.66 9 9.32 9 10 C8.236875 10.433125 7.47375 10.86625 6.6875 11.3125 C3.68071451 13.20048159 2.60145073 14.88138542 1 18 C-2.33333333 14.66666667 -5.66666667 11.33333333 -9 8 C-3.25 4.125 -3.25 4.125 -1 3 C-1.8125 4.9375 -1.8125 4.9375 -3 7 C-3.99 7.33 -4.98 7.66 -6 8 C-6 8.66 -6 9.32 -6 10 C-5.071875 10.433125 -5.071875 10.433125 -4.125 10.875 C-2 12 -2 12 0 14 C0.928125 13.01 0.928125 13.01 1.875 12 C4 10 4 10 6 10 C5.505 9.54625 5.01 9.0925 4.5 8.625 C3 7 3 7 3 5 C2.34 5 1.68 5 1 5 C1 4.01 1 3.02 1 2 C0.34 1.67 -0.32 1.34 -1 1 C-0.67 0.67 -0.34 0.34 0 0 Z " fill="#E6E6E6" transform="translate(75,80)"/>
<path d="M0 0 C0.66 0 1.32 0 2 0 C2.433125 0.7425 2.86625 1.485 3.3125 2.25 C5.16677714 5.27178496 7.15621943 6.92480878 10 9 C9.52949219 9.39832031 9.05898437 9.79664062 8.57421875 10.20703125 C7.95160156 10.73683594 7.32898438 11.26664063 6.6875 11.8125 C6.07261719 12.33457031 5.45773438 12.85664062 4.82421875 13.39453125 C3.14575321 14.87172469 1.56117966 16.40039131 0 18 C-0.5775 17.05125 -1.155 16.1025 -1.75 15.125 C-3.82816551 12.23865902 -4.75468075 11.15904259 -8 10 C-7.67 9.01 -7.34 8.02 -7 7 C-6.38125 6.71125 -5.7625 6.4225 -5.125 6.125 C-2.33206369 4.64638666 -1.55624314 2.68805633 0 0 Z M0 2 C0 2.99 0 3.98 0 5 C-0.66 5 -1.32 5 -2 5 C-2 5.66 -2 6.32 -2 7 C-2.99 7.33 -3.98 7.66 -5 8 C-5 8.66 -5 9.32 -5 10 C-3.04072937 11.7143618 -1.04119788 13.38405168 1 15 C2.98 12.69 4.96 10.38 7 8 C6.21625 7.38125 5.4325 6.7625 4.625 6.125 C2 4 2 4 0 2 Z " fill="#E6E6E6" transform="translate(146,80)"/>
<path d="M0 0 C0.66 0 1.32 0 2 0 C2.61875 0.94875 3.2375 1.8975 3.875 2.875 C5.87924473 5.82241872 6.74790731 6.83853833 10 8 C10 8.66 10 9.32 10 10 C8.576875 10.928125 8.576875 10.928125 7.125 11.875 C4.17758128 13.87924473 3.16146167 14.74790731 2 18 C1.34 18 0.68 18 0 18 C-0.61875 17.05125 -1.2375 16.1025 -1.875 15.125 C-3.87924473 12.17758128 -4.74790731 11.16146167 -8 10 C-7 7 -7 7 -4.5625 5.5625 C-1.84333111 3.90447019 -1.10592885 2.91563061 0 0 Z M0 3 C-0.6496875 3.928125 -0.6496875 3.928125 -1.3125 4.875 C-3 7 -3 7 -6 9 C-4.824375 9.928125 -4.824375 9.928125 -3.625 10.875 C-1 13 -1 13 1 15 C3.04119788 13.38405168 5.04072937 11.7143618 7 10 C7 9.34 7 8.68 7 8 C5.44144019 6.64287834 5.44144019 6.64287834 3.5 5.375 C2.8503125 4.92898437 2.200625 4.48296875 1.53125 4.0234375 C1.0259375 3.68570313 0.520625 3.34796875 0 3 Z " fill="#E6E6E6" transform="translate(122,56)"/>
<path d="M0 0 C1.51109262 1.51109262 3.01999072 3.02082366 4.5 4.5625 C6.14575015 6.22370953 6.14575015 6.22370953 9 8 C8.67 8.99 8.34 9.98 8 11 C7.38125 11.28875 6.7625 11.5775 6.125 11.875 C3.32079102 13.35958123 2.45276712 15.23974247 1 18 C0.2575 17.236875 -0.485 16.47375 -1.25 15.6875 C-3.4263323 13.5606298 -5.52167796 11.7440044 -8 10 C-6.66667905 6.00003714 -4.5042173 5.16217663 -1 3 C-1.8125 4.9375 -1.8125 4.9375 -3 7 C-3.99 7.33 -4.98 7.66 -6 8 C-6 8.66 -6 9.32 -6 10 C-5.071875 10.433125 -5.071875 10.433125 -4.125 10.875 C-2 12 -2 12 0 14 C1.98 12.35 3.96 10.7 6 9 C5.175 8.401875 4.35 7.80375 3.5 7.1875 C2.2625 6.1046875 2.2625 6.1046875 1 5 C1 4.01 1 3.02 1 2 C0.34 1.67 -0.32 1.34 -1 1 C-0.67 0.67 -0.34 0.34 0 0 Z " fill="#E6E6E6" transform="translate(75,56)"/>
<path d="M0 0 C3 1 3 1 4.4375 3.4375 C6.09552981 6.15666889 7.08436939 6.89407115 10 8 C10 8.66 10 9.32 10 10 C8.02678947 11.3726682 6.02456848 12.70427617 4 14 C3.34 14.66 2.68 15.32 2 16 C2.25 14.125 2.25 14.125 3 12 C5.0625 10.75 5.0625 10.75 7 10 C7 9.34 7 8.68 7 8 C6.360625 7.731875 5.72125 7.46375 5.0625 7.1875 C3 6 3 6 2 3 C1.34 3 0.68 3 0 3 C-0.268125 3.639375 -0.53625 4.27875 -0.8125 4.9375 C-2 7 -2 7 -5 8 C-5 8.66 -5 9.32 -5 10 C-3.68 10.66 -2.36 11.32 -1 12 C-1 12.99 -1 13.98 -1 15 C-1.78375 14.360625 -2.5675 13.72125 -3.375 13.0625 C-5.79539281 11.01857687 -5.79539281 11.01857687 -8 10 C-8 9.34 -8 8.68 -8 8 C-7.05125 7.38125 -6.1025 6.7625 -5.125 6.125 C-2.17758128 4.12075527 -1.16146167 3.25209269 0 0 Z " fill="#E6E6E6" transform="translate(98,56)"/>
<path d="M0 0 C7.59 0 15.18 0 23 0 C23 1.32 23 2.64 23 4 C22.42024414 3.83701416 21.84048828 3.67402832 21.24316406 3.50610352 C17.77326877 2.72322444 14.287377 2.89687641 10.75 2.9375 C9.63238281 2.94426758 9.63238281 2.94426758 8.4921875 2.95117188 C6.6614236 2.96290754 4.83070127 2.9808415 3 3 C3.66 3.66 4.32 4.32 5 5 C3.35 4.67 1.7 4.34 0 4 C0 2.68 0 1.36 0 0 Z " fill="#E9E9E9" transform="translate(217,50)"/>
<path d="M0 0 C0.99 0.33 1.98 0.66 3 1 C3.28875 1.61875 3.5775 2.2375 3.875 2.875 C5.35361334 5.66793631 7.31194367 6.44375686 10 8 C10 8.66 10 9.32 10 10 C8.02678947 11.3726682 6.02456848 12.70427617 4 14 C3.34 14.66 2.68 15.32 2 16 C2.25 14.125 2.25 14.125 3 12 C5.0625 10.75 5.0625 10.75 7 10 C7 9.34 7 8.68 7 8 C6.360625 7.731875 5.72125 7.46375 5.0625 7.1875 C3 6 3 6 2 3 C1.34 3 0.68 3 0 3 C-0.268125 3.639375 -0.53625 4.27875 -0.8125 4.9375 C-2 7 -2 7 -5 8 C-5 8.66 -5 9.32 -5 10 C-3.68 10.66 -2.36 11.32 -1 12 C-1 12.99 -1 13.98 -1 15 C-3.31 13.02 -5.62 11.04 -8 9 C-6.8553125 8.1646875 -6.8553125 8.1646875 -5.6875 7.3125 C-3.03859112 5.03320631 -1.61711178 3.06400128 0 0 Z " fill="#E6E6E6" transform="translate(98,80)"/>
<path d="M0 0 C0.66 0 1.32 0 2 0 C3.35278115 1.98689731 4.68568305 3.98745218 6 6 C9.69078153 7.84539076 13.97095104 7.48322467 18 7 C20.50277911 5.33211068 20.50277911 5.33211068 22 3 C23 2 24 1 25 0 C25.33 0.66 25.66 1.32 26 2 C25.34 2 24.68 2 24 2 C23.690625 3.1446875 23.690625 3.1446875 23.375 4.3125 C21.51433583 7.94925269 19.80940924 8.63436273 16 10 C11.58221307 10.55222337 9.58799026 10.33282468 5.6875 8.125 C3 6 3 6 1 4 C0.01 4.99 -0.98 5.98 -2 7 C-2.66 6.67 -3.32 6.34 -4 6 C-2.7260411 3.96166576 -1.38938077 1.96147874 0 0 Z " fill="#E7E7E7" transform="translate(122,104)"/>
<path d="M0 0 C0.66 0.33 1.32 0.66 2 1 C0.515 2.485 0.515 2.485 -1 4 C0.98 5.65 2.96 7.3 5 9 C6.65 7.35 8.3 5.7 10 4 C9.01 2.68 8.02 1.36 7 0 C9.91517292 1.07401108 11.77810176 1.77810176 14 4 C13.071875 4.556875 12.14375 5.11375 11.1875 5.6875 C8.0580593 7.95787855 6.70245949 9.59508103 5 13 C1.66666667 9.66666667 -1.66666667 6.33333333 -5 3 C-2.625 1.4375 -2.625 1.4375 0 0 Z " fill="#E7E7E7" transform="translate(166,85)"/>
<path d="M0 0 C0.66 0.66 1.32 1.32 2 2 C1.34 2 0.68 2 0 2 C-0.0825 2.598125 -0.165 3.19625 -0.25 3.8125 C-1.20455872 6.5966296 -2.57132271 7.43311142 -5 9 C-3.02 10.65 -1.04 12.3 1 14 C1.99 13.34 2.98 12.68 4 12 C3.34 13.65 2.68 15.3 2 17 C1.01 17 0.02 17 -1 17 C-2.0064275 15.33720673 -3.00585407 13.67016516 -4 12 C-6.06700655 10.67206394 -6.06700655 10.67206394 -8 10 C-7.67 9.01 -7.34 8.02 -7 7 C-6.38125 6.71125 -5.7625 6.4225 -5.125 6.125 C-2.32079102 4.64041877 -1.45276712 2.76025753 0 0 Z " fill="#E6E6E6" transform="translate(146,56)"/>
<path d="M0 0 C0.66 0 1.32 0 2 0 C2 0.66 2 1.32 2 2 C1.34 2 0.68 2 0 2 C-0.0825 2.5775 -0.165 3.155 -0.25 3.75 C-1.20531013 6.6159304 -2.78469173 7.9990764 -5 10 C-4.360625 10.2475 -3.72125 10.495 -3.0625 10.75 C-1 12 -1 12 -0.375 14.0625 C-0.25125 14.701875 -0.1275 15.34125 0 16 C0.66 16.33 1.32 16.66 2 17 C1.01 17 0.02 17 -1 17 C-2.0064275 15.33720673 -3.00585407 13.67016516 -4 12 C-6.06700655 10.67206394 -6.06700655 10.67206394 -8 10 C-7.67 9.01 -7.34 8.02 -7 7 C-6.38125 6.71125 -5.7625 6.4225 -5.125 6.125 C-2.33206369 4.64638666 -1.55624314 2.68805633 0 0 Z " fill="#E6E6E6" transform="translate(27,56)"/>
<path d="M0 0 C0.33 0.66 0.66 1.32 1 2 C0.01 2.495 0.01 2.495 -1 3 C4.94 3.33 10.88 3.66 17 4 C17 3.34 17 2.68 17 2 C17.66 2 18.32 2 19 2 C19 2.99 19 3.98 19 5 C11.41 5 3.82 5 -4 5 C-4 3.68 -4 2.36 -4 1 C-2.68 0.67 -1.36 0.34 0 0 Z " fill="#E1E1E1" transform="translate(251,100)"/>
<path d="M0 0 C1.5 1.375 1.5 1.375 3 3 C3 3.66 3 4.32 3 5 C3.804375 5.268125 4.60875 5.53625 5.4375 5.8125 C6.283125 6.204375 7.12875 6.59625 8 7 C8.33 7.99 8.66 8.98 9 10 C8.34 10 7.68 10 7 10 C7 9.34 7 8.68 7 8 C6.21625 7.71125 5.4325 7.4225 4.625 7.125 C2 6 2 6 0 4 C-0.928125 4.99 -0.928125 4.99 -1.875 6 C-4 8 -4 8 -6 8 C-6 8.66 -6 9.32 -6 10 C-6.66 10 -7.32 10 -8 10 C-7.67 9.01 -7.34 8.02 -7 7 C-6.195625 6.71125 -5.39125 6.4225 -4.5625 6.125 C-1.76071559 5.22055781 -1.76071559 5.22055781 -0.6875 2.375 C-0.460625 1.59125 -0.23375 0.8075 0 0 Z " fill="#E5E5E5" transform="translate(170,56)"/>
<path d="M0 0 C0.66 0.33 1.32 0.66 2 1 C0.515 2.485 0.515 2.485 -1 4 C0.98 5.65 2.96 7.3 5 9 C5.33 8.34 5.66 7.68 6 7 C6.66 7.33 7.32 7.66 8 8 C6.515 10.475 6.515 10.475 5 13 C3.30146995 11.30146995 1.61059409 9.59879391 -0.0625 7.875 C-1.86588042 5.94179513 -1.86588042 5.94179513 -4 5 C-3 2 -3 2 0 0 Z " fill="#E6E6E6" transform="translate(47,85)"/>
<path d="M0 0 C2.475 0.495 2.475 0.495 5 1 C4.67 1.99 4.34 2.98 4 4 C-3.26 4 -10.52 4 -18 4 C-18 3.67 -18 3.34 -18 3 C-11.73 3 -5.46 3 1 3 C0.67 2.01 0.34 1.02 0 0 Z " fill="#E2E2E2" transform="translate(300,101)"/>
<path d="M0 0 C3.26954202 0.56371414 4.82575883 1.49962266 7 4 C8.32 2.68 9.64 1.36 11 0 C11.66 0.33 12.32 0.66 13 1 C10.66666667 3.33333333 8.33333333 5.66666667 6 8 C5.38125 7.05125 4.7625 6.1025 4.125 5.125 C2.18029031 2.05554891 2.18029031 2.05554891 0 0 Z " fill="#E7E7E7" transform="translate(164,66)"/>
<path d="M0 0 C2.64 1.65 5.28 3.3 8 5 C5.42215154 7.64752004 3.08351902 9.94432065 0 12 C1.15173355 9.53199953 2.04783565 7.95216435 4 6 C3.34 5.38125 2.68 4.7625 2 4.125 C0 2 0 2 0 0 Z " fill="#E6E6E6" transform="translate(29,83)"/>
</svg>
