<?xml version="1.0" encoding="UTF-8"?>
<svg version="1.1" xmlns="http://www.w3.org/2000/svg" width="400" height="150">
<path d="M0 0 C0.495 1.485 0.495 1.485 1 3 C-0.4375 5.6875 -0.4375 5.6875 -2 8 C-2.87140625 7.84402344 -3.7428125 7.68804687 -4.640625 7.52734375 C-19.23828659 5.14179516 -31.61587387 5.96195867 -44.25 14.1875 C-54.13912319 21.54940282 -59.63135751 31.56938055 -61.68359375 43.60546875 C-63.17899601 54.92252539 -60.24192294 66.44058149 -54 76 C-47.39859016 84.55790444 -36.898298 91.56156005 -26 93 C-12.30742234 93.98496137 -0.51978546 92.02073428 10.4921875 83.3203125 C19.3726051 75.10385136 24.08070314 65.53222397 25.375 53.51953125 C25.79866618 41.59068038 22.87418239 30.17466953 15 21 C12.44495955 18.51413935 9.79751089 16.20818753 7 14 C7.61277612 11.03824877 8.25372522 9.61941217 10 7 C16.17757593 8.12319562 20.26606995 12.70560771 23.93359375 17.55859375 C33.35210014 31.83826473 36.49618042 46.73458408 33.31640625 63.6328125 C32.39655399 66.55649229 31.32828059 69.23934159 30 72 C29.59910156 72.84433594 29.19820313 73.68867187 28.78515625 74.55859375 C21.38492563 88.30800775 10.07534851 96.08872948 -4.28515625 101.16015625 C-19.02902731 104.49341837 -33.8348357 102.43927357 -46.75 94.75 C-58.49177088 86.7480758 -67.43384216 75.04691822 -70.59765625 60.96484375 C-72.6052057 46.17134827 -70.70981194 32.12412193 -62.0390625 19.59765625 C-48.05718651 1.78549622 -22.34934925 -10.73298788 0 0 Z " fill="#FFFFFF" transform="translate(76,26)"/>
<path d="M0 0 C9.63517692 7.03155375 15.36110478 15.8392516 18.1875 27.3125 C19.40545725 41.0782494 17.09804839 52.39656137 8.1875 63.3125 C1.6223495 70.46923549 -7.84734691 75.94270901 -17.65625 76.55078125 C-30.58118987 76.86044417 -40.95292922 75.39368361 -50.8125 66.3125 C-56.78103475 60.49570766 -56.78103475 60.49570766 -58.8125 57.3125 C-58.71875 55.1171875 -58.71875 55.1171875 -57.8125 53.3125 C-54.75 52.0625 -54.75 52.0625 -51.8125 51.3125 C-51.44640625 51.89257812 -51.0803125 52.47265625 -50.703125 53.0703125 C-45.33318538 60.81836824 -38.65109801 64.36630066 -29.8125 67.3125 C-18.79598971 68.26705558 -9.64080549 66.78227378 -0.9375 59.6875 C6.0773099 52.96183101 9.22746273 44.79802473 9.5 35.1875 C9.37785024 26.11177273 6.3883931 18.5985211 0.1171875 12.03125 C-8.65811227 4.21519353 -17.44164482 2.47934245 -28.88867188 3.12597656 C-37.44416616 3.95546865 -44.35415182 8.89598024 -49.8125 15.3125 C-55.24941007 23.87660655 -55.86565799 32.42511351 -55.8125 42.3125 C-58.71850261 43.56914978 -60.60854584 44.3125 -63.8125 44.3125 C-66.89184932 35.07445205 -64.87980716 24.90799899 -60.8125 16.3125 C-54.86551289 5.87378852 -46.72867897 -1.30085307 -35.3125 -5.1875 C-22.89519503 -8.46754282 -11.03928728 -6.82117751 0 0 Z " fill="#FFFFFF" transform="translate(80.8125,40.6875)"/>
<path d="M0 0 C6.25748531 5.169227 12.45686723 11.09085806 13.875 19.375 C14.38415929 26.16935513 14.29626937 31.95043664 11.875 38.375 C8.50037285 37.82776317 6.79265 37.3201 3.875 35.375 C4.1225 34.385 4.1225 34.385 4.375 33.375 C5.67265854 25.58904878 5.0017053 19.22235865 0.875 12.375 C-4.12903333 7.39110362 -8.74351541 5.23447274 -15.8125 5.0625 C-22.2649877 5.13263574 -26.93219816 6.32101563 -31.65234375 10.8359375 C-36.88551995 16.81237641 -37.57723027 21.31941221 -37.4375 29.109375 C-36.86537537 35.08807735 -34.6696398 39.22580166 -30.25 43.25 C-24.44386111 47.19817444 -19.02073017 48.15674944 -12.125 47.375 C-7.9163651 46.22449134 -3.95863773 44.45155377 -0.125 42.375 C2.35 44.355 2.35 44.355 4.875 46.375 C3.4432192 50.0047578 1.86694181 51.27738825 -1.5625 53.0625 C-2.34496094 53.47886719 -3.12742188 53.89523438 -3.93359375 54.32421875 C-10.79264186 57.61313843 -19.89559123 57.70219728 -27.125 55.43359375 C-29.60219432 54.22898249 -31.84893793 52.923749 -34.125 51.375 C-34.70765625 50.99085937 -35.2903125 50.60671875 -35.890625 50.2109375 C-42.03304237 45.65065794 -45.72019409 38.78215846 -47.125 31.375 C-48.09011908 22.73347224 -46.30421732 15.09987367 -41.4296875 7.85546875 C-30.59658654 -5.36793182 -14.94030999 -7.76896119 0 0 Z " fill="#FFFFFF" transform="translate(74.125,49.625)"/>
<path d="M0 0 C1.05445313 0.18304688 2.10890625 0.36609375 3.1953125 0.5546875 C5.875 1.125 5.875 1.125 7.875 2.125 C7 6.875 7 6.875 5.875 9.125 C5.25625 8.96 4.6375 8.795 4 8.625 C-0.37970729 7.92424683 -4.69928989 8.04765749 -9.125 8.125 C-9.07329245 10.09044247 -9.07329245 10.09044247 -8.125 12.125 C-5.51954194 13.35132634 -5.51954194 13.35132634 -2.375 14.125 C6.27678571 16.81003695 6.27678571 16.81003695 8.875 20.125 C10.12204161 23.85187292 10.7123526 27.31647133 9.01953125 30.97265625 C6.19805882 34.6889646 3.3978653 36.37118912 -1.125 37.125 C-7.4409465 37.10614643 -12.7227356 36.48316436 -18.125 33.125 C-17.52316251 31.10454558 -16.85193904 29.10388961 -16.125 27.125 C-15.465 26.795 -14.805 26.465 -14.125 26.125 C-13.444375 26.434375 -12.76375 26.74375 -12.0625 27.0625 C-8.04926282 28.51409643 -4.34799652 28.29060771 -0.125 28.125 C-0.125 26.805 -0.125 25.485 -0.125 24.125 C-0.93324219 23.88265625 -1.74148438 23.6403125 -2.57421875 23.390625 C-14.21251793 19.74049498 -14.21251793 19.74049498 -17.125 16.125 C-18.43201886 12.17064358 -18.55140627 9.19101569 -17 5.3125 C-12.10012887 -0.40401632 -7.10097003 -1.27363836 0 0 Z " fill="#FFFFFF" transform="translate(269.125,54.875)"/>
<path d="M0 0 C1.53640036 3.64895085 1.96950331 7.42567832 2 11.375 C1.67 12.035 1.34 12.695 1 13.375 C-4.61 13.375 -10.22 13.375 -16 13.375 C-12.65130515 17.65451412 -12.65130515 17.65451412 -9.52734375 17.40625 C-8.67269531 17.2309375 -7.81804687 17.055625 -6.9375 16.875 C-4.33984375 16.34375 -4.33984375 16.34375 -2 16.375 C-0.00984742 18.40383805 1 19.49237807 1 22.375 C-5.12782223 24.93912419 -10.48840939 26.38233244 -17 24.375 C-20.29247281 22.54584844 -22.47432138 20.28299035 -24.375 17 C-25.86382594 10.74693107 -25.16830472 5.97233834 -22 0.375 C-14.8841149 -5.50333987 -7.3499965 -5.97187215 0 0 Z M-14.875 3.6875 C-16.18490007 5.31432967 -16.18490007 5.31432967 -16 7.375 C-12.7 7.375 -9.4 7.375 -6 7.375 C-6.33 6.055 -6.66 4.735 -7 3.375 C-11.13271678 2.17151882 -11.13271678 2.17151882 -14.875 3.6875 Z " fill="#FFFFFF" transform="translate(374,66.625)"/>
<path d="M0 0 C3.40303495 4.10365979 3.31725906 7.37150529 3.125 12.5625 C1.06577598 14.62172402 -3.09208124 13.97677579 -5.9375 14.125 C-7.07541992 14.18977539 -7.07541992 14.18977539 -8.23632812 14.25585938 C-10.11565438 14.36223633 -11.99530244 14.46289934 -13.875 14.5625 C-12.70014206 16.19767006 -12.70014206 16.19767006 -10.875 17.5625 C-8.44532074 17.59499268 -8.44532074 17.59499268 -5.875 17.0625 C-3.25 16.59375 -3.25 16.59375 -0.875 16.5625 C0.9375 17.84375 0.9375 17.84375 2.125 19.5625 C2.125 20.5525 2.125 21.5425 2.125 22.5625 C-4.06362371 25.15206595 -9.28884619 26.42046168 -15.875 24.5625 C-20.5969625 21.89356467 -22.35424291 18.71617682 -23.875 13.5625 C-24.01897979 8.31623648 -23.28244039 3.70010619 -19.875 -0.4375 C-13.1259339 -5.41049607 -6.56897452 -5.56934796 0 0 Z M-11.875 2.5625 C-13.7374438 4.97108714 -13.7374438 4.97108714 -14.875 7.5625 C-11.575 7.5625 -8.275 7.5625 -4.875 7.5625 C-5.535 5.9125 -6.195 4.2625 -6.875 2.5625 C-9.24805578 2.14469121 -9.24805578 2.14469121 -11.875 2.5625 Z " fill="#FFFFFF" transform="translate(344.875,66.4375)"/>
<path d="M0 0 C3.40330809 2.83609008 4.79554987 4.22101835 5.30078125 8.6171875 C5.31124707 11.08014426 5.16603892 13.54262404 5 16 C-0.61 16 -6.22 16 -12 16 C-8.63621148 20.24179466 -8.63621148 20.24179466 -5.421875 20.171875 C-4.54015625 20.03265625 -3.6584375 19.8934375 -2.75 19.75 C-1.85796875 19.62109375 -0.9659375 19.4921875 -0.046875 19.359375 C0.62859375 19.24078125 1.3040625 19.1221875 2 19 C4 22 4 22 4 25 C-1.93056704 27.69571229 -6.62090295 28.94556564 -13 27 C-16.80007006 24.8204289 -19.34214181 22.06175256 -21 18 C-21.78168343 12.41654692 -21.28213652 7.70439568 -18 3 C-11.95397541 -1.75963638 -7.27445209 -3.09704396 0 0 Z M-10.8125 6.3125 C-12.19183114 7.92869435 -12.19183114 7.92869435 -12 10 C-9.03 10 -6.06 10 -3 10 C-3.33 8.68 -3.66 7.36 -4 6 C-7.58563992 4.80757578 -7.58563992 4.80757578 -10.8125 6.3125 Z " fill="#FFFFFF" transform="translate(233,64)"/>
<path d="M0 0 C2.7788192 1.97664625 4.63792753 3.47858991 5.45092773 6.89477539 C5.64327613 9.02577323 5.69711975 11.11056815 5.6875 13.25 C5.717284 15.85266346 5.81894241 18.39989431 6 21 C6.66 21.33 7.32 21.66 8 22 C8 23.98 8 25.96 8 28 C1.375 28.25 1.375 28.25 -2 26 C-2.845625 26.515625 -3.69125 27.03125 -4.5625 27.5625 C-8.65526982 29.27402192 -10.74888458 29.12293615 -15 28 C-17.38268836 26.41154109 -17.88603501 25.30933354 -18.875 22.625 C-19.04184032 19.12135331 -18.15862852 17.73426279 -16 15 C-11.89491588 11.7159327 -8.08724367 11.43112234 -3 11 C-3 9.68 -3 8.36 -3 7 C-6.96 7.66 -10.92 8.32 -15 9 C-18 4 -18 4 -18 2 C-12.42001994 -0.47999114 -5.98704107 -1.15228381 0 0 Z M-10 18 C-10 19.32 -10 20.64 -10 22 C-6.535 21.505 -6.535 21.505 -3 21 C-3 19.35 -3 17.7 -3 16 C-6.10551666 16 -7.35261084 16.5393715 -10 18 Z " fill="#FFFFFF" transform="translate(173,63)"/>
<path d="M0 0 C4.20385904 4.68929311 3.33502256 10.4002499 3.1875 16.3125 C3.16719727 17.85260742 3.16719727 17.85260742 3.14648438 19.42382812 C3.11123883 21.94975909 3.061967 24.4746066 3 27 C0.03 27 -2.94 27 -6 27 C-6.33 20.07 -6.66 13.14 -7 6 C-11.63019987 6.4452998 -11.63019987 6.4452998 -13 8 C-13.15620555 9.41327947 -13.25056173 10.8335459 -13.31640625 12.25390625 C-13.35830078 13.10791016 -13.40019531 13.96191406 -13.44335938 14.84179688 C-13.48267578 15.73962891 -13.52199219 16.63746094 -13.5625 17.5625 C-13.60568359 18.46419922 -13.64886719 19.36589844 -13.69335938 20.29492188 C-13.79978142 22.52978485 -13.90179988 24.76476308 -14 27 C-16.64 27 -19.28 27 -22 27 C-22 17.76 -22 8.52 -22 -1 C-19.36 -1 -16.72 -1 -14 -1 C-14 -0.34 -14 0.32 -14 1 C-12.989375 0.46375 -11.97875 -0.0725 -10.9375 -0.625 C-6.76577426 -2.40200285 -4.15813883 -1.919141 0 0 Z " fill="#FFFFFF" transform="translate(206,64)"/>
<path d="M0 0 C2.97 0 5.94 0 9 0 C9.08738991 4.37487331 9.140524 8.74952078 9.1875 13.125 C9.21263672 14.3625 9.23777344 15.6 9.26367188 16.875 C9.27333984 18.07382813 9.28300781 19.27265625 9.29296875 20.5078125 C9.3086792 21.60754395 9.32438965 22.70727539 9.34057617 23.84033203 C8.86690209 28.23480517 7.32598264 31.57579643 4.3125 34.8125 C0.93027921 36.54931608 -2.23621664 37.23735571 -6 37 C-8.92887825 36.05405832 -11.5528905 34.87957538 -14 33 C-14.33 32.01 -14.66 31.02 -15 30 C-10.25 26 -10.25 26 -8 26 C-8 26.66 -8 27.32 -8 28 C-6.00045254 28.04254356 -3.99958364 28.04080783 -2 28 C-0.19605125 26.19605125 -0.76294211 23.43322201 -0.68359375 20.99609375 C-0.62075195 19.17368164 -0.62075195 19.17368164 -0.55664062 17.31445312 C-0.51732422 16.03505859 -0.47800781 14.75566406 -0.4375 13.4375 C-0.39431641 12.15423828 -0.35113281 10.87097656 -0.30664062 9.54882812 C-0.200152 6.36600147 -0.09814038 3.18309326 0 0 Z " fill="#FFFFFF" transform="translate(142,55)"/>
<path d="M0 0 C2.64 0 5.28 0 8 0 C8 1.98 8 3.96 8 6 C9.98 6 11.96 6 14 6 C14 8.31 14 10.62 14 13 C12.02 13 10.04 13 8 13 C8.33 17.62 8.66 22.24 9 27 C10.65 27 12.3 27 14 27 C15.8125 28.5 15.8125 28.5 17 30 C16.67 30.99 16.34 31.98 16 33 C11.39154877 35.19450059 7.92250051 35.20740578 3 34 C0.93550166 32.42737577 0.10085949 31.59019069 -0.34057617 29.00708008 C-0.32486572 28.26868896 -0.30915527 27.53029785 -0.29296875 26.76953125 C-0.28330078 25.96708984 -0.27363281 25.16464844 -0.26367188 24.33789062 C-0.23853516 23.50451172 -0.21339844 22.67113281 -0.1875 21.8125 C-0.17396484 20.96751953 -0.16042969 20.12253906 -0.14648438 19.25195312 C-0.11115799 17.16769616 -0.05735139 15.08376723 0 13 C-1.65 13 -3.3 13 -5 13 C-5 10.69 -5 8.38 -5 6 C-3.35 6 -1.7 6 0 6 C0 4.02 0 2.04 0 0 Z " fill="#FFFFFF" transform="translate(284,57)"/>
<path d="M0 0 C2.64 0 5.28 0 8 0 C8 1.98 8 3.96 8 6 C9.98 6 11.96 6 14 6 C14 8.31 14 10.62 14 13 C12.02 13 10.04 13 8 13 C8.33 17.62 8.66 22.24 9 27 C10.98 27 12.96 27 15 27 C15.66 28.65 16.32 30.3 17 32 C13.54422178 34.10718184 11.4664468 35.00804219 7.375 34.9375 C3.5133305 33.86481403 2.33670034 33.2218141 0 30 C-0.48412083 27.06655601 -0.37774615 24.21272801 -0.25 21.25 C-0.23195313 20.45722656 -0.21390625 19.66445312 -0.1953125 18.84765625 C-0.14833082 16.89791652 -0.07659044 14.94880122 0 13 C-1.32 13 -2.64 13 -4 13 C-4 10.69 -4 8.38 -4 6 C-2.68 6 -1.36 6 0 6 C0 4.02 0 2.04 0 0 Z " fill="#FFFFFF" transform="translate(381,57)"/>
<path d="M0 0 C-0.33 2.64 -0.66 5.28 -1 8 C-1.928125 7.938125 -2.85625 7.87625 -3.8125 7.8125 C-6.92335755 7.69943996 -6.92335755 7.69943996 -8.66723633 9.26098633 C-10.25438675 11.33192834 -10.41458376 12.42792798 -10.51171875 15.01171875 C-10.54716797 15.76904297 -10.58261719 16.52636719 -10.61914062 17.30664062 C-10.65297852 18.48516602 -10.65297852 18.48516602 -10.6875 19.6875 C-10.72166016 20.48478516 -10.75582031 21.28207031 -10.79101562 22.10351562 C-10.87338104 24.06851904 -10.93837067 26.03423696 -11 28 C-13.64 28 -16.28 28 -19 28 C-19 18.76 -19 9.52 -19 0 C-16.36 0 -13.72 0 -11 0 C-10.67 0.66 -10.34 1.32 -10 2 C-8.9171875 1.2265625 -8.9171875 1.2265625 -7.8125 0.4375 C-4.5804634 -1.21442982 -3.38391693 -1.06351675 0 0 Z " fill="#FFFFFF" transform="translate(322,63)"/>
</svg>
