<?xml version="1.0" encoding="UTF-8"?>
<svg version="1.1" xmlns="http://www.w3.org/2000/svg" width="400" height="150">
<path d="M0 0 C1.18335938 0.0009668 1.18335938 0.0009668 2.390625 0.00195312 C3.21046875 0.01806641 4.0303125 0.03417969 4.875 0.05078125 C5.69484375 0.04755859 6.5146875 0.04433594 7.359375 0.04101562 C13.4740295 0.09596759 13.4740295 0.09596759 16.875 2.36328125 C16.22223675 9.43358343 14.95326861 16.2246654 13.43359375 23.15625 C13.19007675 24.2849501 12.94655975 25.41365021 12.69566345 26.57655334 C11.90542641 30.23554166 11.10908388 33.89316993 10.3125 37.55078125 C9.21837092 42.60119929 8.12681491 47.65217248 7.03515625 52.703125 C6.76421143 53.95453278 6.4932666 55.20594055 6.21411133 56.49526978 C4.56736866 64.1126995 2.95059266 71.73553974 1.37109375 79.3671875 C1.18592697 80.25959641 1.00076019 81.15200531 0.8099823 82.07145691 C0.12278211 85.38598514 -0.56405385 88.70053579 -1.23977661 92.01742554 C-1.68902437 94.22224699 -2.14470021 96.42565233 -2.6015625 98.62890625 C-2.84986816 99.84352539 -3.09817383 101.05814453 -3.35400391 102.30957031 C-4.01923457 104.94437245 -4.78163329 107.01873299 -6.125 109.36328125 C-9.583176 109.45011415 -13.04107344 109.50361407 -16.5 109.55078125 C-17.48484375 109.57591797 -18.4696875 109.60105469 -19.484375 109.62695312 C-20.42539063 109.63662109 -21.36640625 109.64628906 -22.3359375 109.65625 C-23.20524902 109.67196045 -24.07456055 109.6876709 -24.97021484 109.70385742 C-25.68129395 109.59146729 -26.39237305 109.47907715 -27.125 109.36328125 C-27.785 108.37328125 -28.445 107.38328125 -29.125 106.36328125 C-30.176875 106.83765625 -31.22875 107.31203125 -32.3125 107.80078125 C-40.87425484 111.6619648 -51.20834166 111.63508091 -60.0625 108.80078125 C-65.17755618 106.66392372 -68.34462795 104.15599967 -71.125 99.36328125 C-71.73177127 97.63411474 -72.28317049 95.88464273 -72.78125 94.12109375 C-73.03712891 93.22793457 -73.29300781 92.33477539 -73.55664062 91.41455078 C-73.74419922 90.73763184 -73.93175781 90.06071289 -74.125 89.36328125 C-74.28057373 90.09853027 -74.43614746 90.8337793 -74.59643555 91.59130859 C-75.32113778 94.97679829 -76.06666106 98.35738788 -76.8125 101.73828125 C-77.05677734 102.89457031 -77.30105469 104.05085938 -77.55273438 105.2421875 C-79.66496684 114.70712791 -82.21990431 124.080757 -90.25390625 130.1796875 C-96.81577732 134.33051617 -103.4143788 135.28520335 -111.125 134.36328125 C-113.453125 133.34375 -113.453125 133.34375 -115.125 132.36328125 C-115.60368852 121.11410092 -115.60368852 121.11410092 -113.125 116.36328125 C-111.09375 115.32421875 -111.09375 115.32421875 -108.6875 114.55078125 C-106.29365991 113.81298616 -106.29365991 113.81298616 -104.125 112.36328125 C-103.01440234 109.95087226 -103.01440234 109.95087226 -102.515625 107.05493164 C-102.28174072 105.97374054 -102.04785645 104.89254944 -101.80688477 103.77859497 C-101.58186279 102.65154144 -101.35684082 101.52448792 -101.125 100.36328125 C-100.89546631 99.30688446 -100.66593262 98.25048767 -100.42944336 97.16207886 C-99.70271268 93.81529114 -99.00521592 90.46335975 -98.3125 87.109375 C-97.78910695 84.60090218 -97.26566807 82.09243893 -96.7421875 79.58398438 C-95.93152774 75.68520226 -95.1219753 71.78619371 -94.31347656 67.88696289 C-93.52434449 64.0854985 -92.73110282 60.28490819 -91.9375 56.484375 C-91.69990967 55.33198837 -91.46231934 54.17960175 -91.2175293 52.99229431 C-87.11016753 33.34844878 -87.11016753 33.34844878 -85.125 31.36328125 C-81.81983066 31.11292151 -78.50103959 31.17806173 -75.1875 31.17578125 C-74.25486328 31.16353516 -73.32222656 31.15128906 -72.36132812 31.13867188 C-71.02424805 31.13577148 -71.02424805 31.13577148 -69.66015625 31.1328125 C-68.839104 31.12870361 -68.01805176 31.12459473 -67.17211914 31.12036133 C-65.125 31.36328125 -65.125 31.36328125 -63.125 33.36328125 C-63.59040866 39.76265027 -64.93234654 46.06421833 -66.125 52.36328125 C-65.77308594 51.63882813 -65.42117187 50.914375 -65.05859375 50.16796875 C-60.21509271 40.68330613 -55.5947885 35.76604373 -45.53515625 32.109375 C-36.88470785 29.43152144 -26.71826876 29.29073582 -18.125 32.36328125 C-16.77657815 33.34284048 -15.44123368 34.34087885 -14.125 35.36328125 C-13.92865967 34.4096167 -13.73231934 33.45595215 -13.5300293 32.47338867 C-12.79778406 28.93188115 -12.0506797 25.39364555 -11.29907227 21.85620117 C-10.97600393 20.32547648 -10.65695815 18.79389701 -10.34204102 17.26147461 C-9.88835643 15.05735343 -9.4202365 12.85672352 -8.94921875 10.65625 C-8.81158615 9.97177292 -8.67395355 9.28729584 -8.53215027 8.58207703 C-7.31293783 3.00148278 -6.01682055 -0.0249353 0 0 Z M-42.125 54.36328125 C-43.25543117 56.85198243 -44.07933804 59.01582904 -44.8125 61.61328125 C-45.11994141 62.65597168 -45.11994141 62.65597168 -45.43359375 63.71972656 C-49.26833942 76.33288235 -49.26833942 76.33288235 -48.0859375 88.7890625 C-45.1796739 91.1221785 -42.92733797 90.85908999 -39.25 90.80078125 C-37.42855469 90.79884766 -37.42855469 90.79884766 -35.5703125 90.796875 C-31.07671543 90.23135428 -28.58036375 88.8592598 -25.4453125 85.63671875 C-23.66831538 82.57691898 -22.83810503 79.39434007 -22 75.98828125 C-21.83113281 75.34117188 -21.66226563 74.6940625 -21.48828125 74.02734375 C-20.1054189 68.62655851 -18.99759626 63.25789464 -18.8125 57.67578125 C-18.77511719 56.92941406 -18.73773438 56.18304688 -18.69921875 55.4140625 C-18.96982716 53.23697005 -18.96982716 53.23697005 -20.7109375 51.62109375 C-23.93893005 49.93919472 -26.4341195 49.92965359 -30.0625 49.92578125 C-31.26777344 49.90644531 -32.47304687 49.88710938 -33.71484375 49.8671875 C-37.81914811 50.4642627 -39.32931028 51.31745087 -42.125 54.36328125 Z M-68.125 55.36328125 C-67.125 59.36328125 -67.125 59.36328125 -67.125 59.36328125 Z M-69.125 60.36328125 C-68.125 63.36328125 -68.125 63.36328125 -68.125 63.36328125 Z M-70.125 64.36328125 C-69.125 68.36328125 -69.125 68.36328125 -69.125 68.36328125 Z M-71.125 69.36328125 C-70.125 72.36328125 -70.125 72.36328125 -70.125 72.36328125 Z M-72.125 74.36328125 C-71.125 78.36328125 -71.125 78.36328125 -71.125 78.36328125 Z M-73.125 79.36328125 C-73.125 81.01328125 -73.125 82.66328125 -73.125 84.36328125 C-72.795 84.36328125 -72.465 84.36328125 -72.125 84.36328125 C-72.125 82.71328125 -72.125 81.06328125 -72.125 79.36328125 C-72.455 79.36328125 -72.785 79.36328125 -73.125 79.36328125 Z " fill="#FEFEFE" transform="translate(168.125,9.63671875)"/>
<path d="M0 0 C2.8253403 2.89248733 3.9235115 4.42244701 4.4609375 8.48046875 C4.43257813 9.70378906 4.40421875 10.92710938 4.375 12.1875 C4.36210937 13.41855469 4.34921875 14.64960937 4.3359375 15.91796875 C4 19 4 19 2 21 C-0.03125 21.25878906 -0.03125 21.25878906 -2.5 21.265625 C-3.386875 21.26820312 -4.27375 21.27078125 -5.1875 21.2734375 C-6.115625 21.26570313 -7.04375 21.25796875 -8 21.25 C-9.3921875 21.26160156 -9.3921875 21.26160156 -10.8125 21.2734375 C-12.1428125 21.26957031 -12.1428125 21.26957031 -13.5 21.265625 C-14.3146875 21.26336914 -15.129375 21.26111328 -15.96875 21.25878906 C-18 21 -18 21 -20 19 C-19.625 15.875 -19.625 15.875 -19 13 C-29.75279637 12.41189783 -29.75279637 12.41189783 -40 15 C-41.91269624 17.57798189 -42 18.75755545 -42 22 C-41.22922119 22.04487549 -40.45844238 22.08975098 -39.66430664 22.13598633 C-36.12948742 22.34894003 -32.59612333 22.58057744 -29.0625 22.8125 C-27.24395508 22.91788086 -27.24395508 22.91788086 -25.38867188 23.02539062 C-8.59591051 24.16311158 -8.59591051 24.16311158 -2.5 30.0625 C1.32261926 35.11685213 1.3577467 40.47058854 0.73828125 46.58203125 C-0.94065684 56.60945051 -4.80327626 62.96875122 -13 69 C-21.57258287 74.52455341 -32.6278846 74.34278256 -42.5 74.3125 C-43.55058594 74.32861328 -44.60117188 74.34472656 -45.68359375 74.36132812 C-53.09471222 74.36590854 -62.1375299 74.30837414 -68.03710938 69.25512695 C-71.92728802 64.95523546 -73.14768288 61.43829972 -73.1875 55.625 C-73.20167969 54.68914062 -73.21585938 53.75328125 -73.23046875 52.7890625 C-72.96482043 49.57426756 -72.35994789 46.35994789 -70 44 C-68.52347336 43.90119203 -67.04232764 43.86920755 -65.5625 43.8671875 C-64.66789063 43.86589844 -63.77328125 43.86460938 -62.8515625 43.86328125 C-61.91054687 43.86714844 -60.96953125 43.87101562 -60 43.875 C-58.58847656 43.86919922 -58.58847656 43.86919922 -57.1484375 43.86328125 C-55.80652344 43.86521484 -55.80652344 43.86521484 -54.4375 43.8671875 C-53.61121094 43.86831543 -52.78492188 43.86944336 -51.93359375 43.87060547 C-50 44 -50 44 -49 45 C-48.92794489 46.68608966 -48.91613932 48.37500659 -48.9375 50.0625 C-48.94652344 50.98160156 -48.95554688 51.90070313 -48.96484375 52.84765625 C-48.97644531 53.55792969 -48.98804688 54.26820312 -49 55 C-46.10391407 55.05413245 -43.20884805 55.09373641 -40.3125 55.125 C-39.08756836 55.15013672 -39.08756836 55.15013672 -37.83789062 55.17578125 C-31.67484134 55.2372991 -31.67484134 55.2372991 -26 53 C-24.78849991 50.23085693 -24 48.03028259 -24 45 C-26.76351384 44.23031079 -29.29578117 43.85112021 -32.16015625 43.75390625 C-33.34303223 43.7070166 -33.34303223 43.7070166 -34.54980469 43.65917969 C-35.37899414 43.62727539 -36.20818359 43.59537109 -37.0625 43.5625 C-57.82532948 42.56406026 -57.82532948 42.56406026 -65 36 C-68.75303863 30.12567867 -67.26429532 22.45323568 -65.875 16 C-63.80102614 8.46264129 -60.69081427 2.3251424 -53.9375 -1.9375 C-40.52932357 -8.38587672 -11.95065444 -10.20177818 0 0 Z " fill="#FEFEFE" transform="translate(241,46)"/>
<path d="M0 0 C0.84498047 -0.00128906 1.68996094 -0.00257812 2.56054688 -0.00390625 C3.44935547 -0.00003906 4.33816406 0.00382813 5.25390625 0.0078125 C6.13884766 0.00394531 7.02378906 0.00007812 7.93554688 -0.00390625 C8.78181641 -0.00261719 9.62808594 -0.00132813 10.5 0 C11.27915771 0.00112793 12.05831543 0.00225586 12.86108398 0.00341797 C14.81640625 0.1328125 14.81640625 0.1328125 16.81640625 1.1328125 C17.19947943 7.90043866 15.99329369 13.71494228 13.81640625 20.1328125 C12.1944011 21.75481765 10.39617594 21.26272 8.16015625 21.265625 C6.75056641 21.26755859 6.75056641 21.26755859 5.3125 21.26953125 C4.32378906 21.26566406 3.33507812 21.26179688 2.31640625 21.2578125 C1.32769531 21.26167969 0.33898437 21.26554687 -0.6796875 21.26953125 C-1.61941406 21.26824219 -2.55914062 21.26695313 -3.52734375 21.265625 C-4.39552734 21.26449707 -5.26371094 21.26336914 -6.15820312 21.26220703 C-8.18359375 21.1328125 -8.18359375 21.1328125 -9.18359375 20.1328125 C-9.1265823 12.9493693 -8.85423241 0.01283621 0 0 Z " fill="#FEFEFE" transform="translate(94.18359375,9.8671875)"/>
<path d="M0 0 C3.30876711 1.4683077 5.29940886 3.56273577 6.91015625 6.8671875 C8.16093287 10.71688321 8.06208054 12.78089222 6.9375 16.75 C4.12906461 21.46092388 1.8795364 23.48739916 -3.4375 24.9375 C-7.62724004 25.01100421 -9.52975384 24.31349744 -13 22 C-16.43627895 18.56372105 -17.90218607 15.89069669 -18 11 C-15.04783141 1.48745678 -9.65236552 -1.74514769 0 0 Z M-11 6.0625 C-13.16663801 8.84233693 -13.16663801 8.84233693 -13.625 12 C-12.77618008 16.0743356 -11.32274404 17.54405875 -8 20 C-4.62182812 20.55153827 -2.7864448 20.3613395 0.3125 18.9375 C2.82814308 16.04916906 2.93488709 13.77654862 3 10 C2.26051003 7.01742082 2.26051003 7.01742082 0 5 C-4.41159462 3.28490922 -7.07842562 3.36641761 -11 6.0625 Z " fill="#FEFEFE" transform="translate(345,53)"/>
<path d="M0 0 C3.84374979 2.44602259 5.93438209 4.52440477 7 9 C6.91287793 13.18185925 6.31075049 14.6504057 3.5 17.8125 C2.675 18.534375 1.85 19.25625 1 20 C0.67 20.33 0.34 20.66 0 21 C-4.61544489 21.58169863 -8.00133167 21.6241677 -12 19.125 C-15.32417918 15.59305962 -15.34160904 12.95072783 -15.28125 8.2578125 C-14.85665394 4.8492497 -13.52704082 3.25384722 -11 1 C-7.07103746 -1.27466253 -4.32905145 -1.26264001 0 0 Z M-10 5.5625 C-11.43135511 9.05142809 -10.933966 11.39755972 -10 15 C-7.10538099 17.36139302 -7.10538099 17.36139302 -3.4375 16.8125 C0.25825752 16.35160238 0.25825752 16.35160238 2 13 C2.32162076 9.9124407 2.48724515 7.85984439 0.9375 5.125 C-2.74924351 2.98431022 -6.61917205 2.92122816 -10 5.5625 Z " fill="#FEFEFE" transform="translate(296,121)"/>
<path d="M0 0 C4.0553591 1.35178637 5.39946313 2.33855434 7.375 6.125 C7.45017661 10.4100666 7.06599731 12.35503157 4.1875 15.5625 C0.81224821 17.43763988 -0.8257634 17.83735686 -4.625 17.125 C-8.25152055 14.52336569 -9.44803105 13.02593281 -10.3125 8.625 C-9.625 5.125 -9.625 5.125 -7.0625 2.125 C-3.625 0.125 -3.625 0.125 0 0 Z M-5.625 7.125 C-5.30458603 9.72780568 -5.30458603 9.72780568 -4.625 12.125 C-2.77774948 12.81659401 -2.77774948 12.81659401 -0.625 13.125 C0.365 12.465 1.355 11.805 2.375 11.125 C2.70843551 8.58292029 2.70843551 8.58292029 2.375 6.125 C1.32189723 4.85496677 1.32189723 4.85496677 -1.0625 4.9375 C-3.79234675 4.85660017 -3.79234675 4.85660017 -5.625 7.125 Z " fill="#FEFEFE" transform="translate(310.625,12.875)"/>
<path d="M0 0 C2.15502531 3.23253796 2.46856135 4.25150923 2 8 C0.875 9.8125 0.875 9.8125 -1 11 C-4.14924548 11.39365568 -6.11909116 11.52854531 -8.875 9.875 C-10.54663625 7.08893958 -10.46376624 5.18011138 -10 2 C-6.96457461 -1.61916104 -4.32701626 -1.31691799 0 0 Z M-6 4 C-5.67 4.99 -5.34 5.98 -5 7 C-4.01 6.67 -3.02 6.34 -2 6 C-2 5.34 -2 4.68 -2 4 C-3.32 4 -4.64 4 -6 4 Z " fill="#FEFEFE" transform="translate(270,47)"/>
<path d="M0 0 C2.4375 0.8125 2.4375 0.8125 4.4375 3.8125 C4.1133631 7.13490324 3.82973697 8.42026303 1.4375 10.8125 C-1 11.1875 -1 11.1875 -3.5625 10.8125 C-5.4375 9.125 -5.4375 9.125 -6.5625 6.8125 C-6.4375 4.1875 -6.4375 4.1875 -5.5625 1.8125 C-2.5625 -0.1875 -2.5625 -0.1875 0 0 Z M-2.5625 4.8125 C-1.9025 5.4725 -1.2425 6.1325 -0.5625 6.8125 C-0.2325 6.1525 0.0975 5.4925 0.4375 4.8125 C-0.5525 4.8125 -1.5425 4.8125 -2.5625 4.8125 Z " fill="#FEFEFE" transform="translate(317.5625,75.1875)"/>
</svg>
