<svg width="22" height="26" viewBox="0 0 22 26" fill="none" xmlns="http://www.w3.org/2000/svg">
<path d="M18.3732 18.5944L12.6288 24.3404C12.4024 24.5669 12.1337 24.7466 11.8378 24.8692C11.542 24.9918 11.2249 25.0549 10.9047 25.0549C10.5844 25.0549 10.2674 24.9918 9.97152 24.8692C9.67568 24.7466 9.40691 24.5669 9.18054 24.3404L3.43617 18.5944C2.45529 17.6137 1.67718 16.4493 1.14629 15.1678C0.615402 13.8863 0.342116 12.5128 0.342041 11.1257C0.341966 9.7386 0.615101 8.36506 1.14585 7.08352C1.67661 5.80197 2.45458 4.63751 3.43536 3.65663C4.41613 2.67574 5.58051 1.89764 6.862 1.36675C8.14348 0.835861 9.51699 0.562575 10.9041 0.5625C12.2912 0.562425 13.6647 0.83556 14.9463 1.36631C16.2278 1.89706 17.3923 2.67504 18.3732 3.65582C19.3541 4.63665 20.1323 5.80112 20.6632 7.08271C21.1941 8.3643 21.4674 9.73792 21.4674 11.1251C21.4674 12.5123 21.1941 13.886 20.6632 15.1675C20.1323 16.4491 19.3541 17.6136 18.3732 18.5944ZM16.6507 5.37994C15.1267 3.85601 13.0598 2.99825 10.9047 2.99825C8.7495 2.99825 6.6826 3.85438 5.15867 5.37832C3.63474 6.90225 2.7786 8.96915 2.7786 11.1243C2.7786 13.2795 3.63474 15.3464 5.15867 16.8703L10.9047 22.6147L16.6507 16.8719C17.4054 16.1174 18.004 15.2216 18.4125 14.2357C18.821 13.2498 19.0312 12.1931 19.0312 11.1259C19.0312 10.0588 18.821 9.00205 18.4125 8.01614C18.004 7.03023 17.4054 6.13445 16.6507 5.37994ZM10.9047 14.3759C10.4719 14.3857 10.0415 14.3089 9.63875 14.1501C9.23603 13.9913 8.86911 13.7536 8.55951 13.451C8.24992 13.1484 8.0039 12.787 7.8359 12.388C7.6679 11.989 7.5813 11.5605 7.58119 11.1276C7.58109 10.6947 7.66747 10.2661 7.83527 9.86703C8.00307 9.46797 8.24891 9.10645 8.55835 8.80369C8.86779 8.50094 9.2346 8.26307 9.63724 8.10403C10.0399 7.94499 10.4702 7.868 10.903 7.87757C11.7522 7.89634 12.5603 8.24681 13.1543 8.85393C13.7483 9.46105 14.081 10.2766 14.0812 11.126C14.0814 11.9753 13.7491 12.791 13.1554 13.3985C12.5617 14.0059 11.7538 14.3567 10.9047 14.3759Z" fill="#7A8192"/>
</svg>
