<?xml version="1.0" encoding="UTF-8" standalone="no"?>
<!-- Created with Inkscape (http://www.inkscape.org/) -->

<svg
   version="1.1"
   id="svg2"
   xml:space="preserve"
   width="2664.1226"
   height="472.44"
   viewBox="0 0 2664.1226 472.44"
   sodipodi:docname="macquarie-group.svg"
   inkscape:version="1.1 (c68e22c387, 2021-05-23)"
   xmlns:inkscape="http://www.inkscape.org/namespaces/inkscape"
   xmlns:sodipodi="http://sodipodi.sourceforge.net/DTD/sodipodi-0.dtd"
   xmlns="http://www.w3.org/2000/svg"
   xmlns:svg="http://www.w3.org/2000/svg"><defs
     id="defs6"><clipPath
       clipPathUnits="userSpaceOnUse"
       id="clipPath16"><path
         d="M 0,733.346 H 2376.929 V 0 H 0 Z"
         id="path14" /></clipPath></defs><sodipodi:namedview
     id="namedview4"
     pagecolor="#ffffff"
     bordercolor="#666666"
     borderopacity="1.0"
     inkscape:pageshadow="2"
     inkscape:pageopacity="0"
     inkscape:pagecheckerboard="true"
     showgrid="false"
     inkscape:zoom="0.87907512"
     inkscape:cx="1290.5609"
     inkscape:cy="88.160839"
     inkscape:window-width="3840"
     inkscape:window-height="2081"
     inkscape:window-x="-9"
     inkscape:window-y="-9"
     inkscape:window-maximized="1"
     inkscape:current-layer="g8" /><g
     id="g8"
     inkscape:groupmode="layer"
     inkscape:label="mgl-cmyk.black.horizontal.1.0"
     transform="matrix(1.3333333,0,0,-1.3333333,-252.55773,725.11678)"><g
       id="g10"><g
         id="g12"
         clip-path="url(#clipPath16)"><g
           id="g18"
           transform="translate(495.8633,242.6476)"><path
             d="m 0,0 c -0.963,-0.787 -1.932,-0.864 -2.449,-0.392 -0.484,0.443 -0.668,1.313 0.15,2.171 23.14,24.24 45.709,64.552 45.709,122.246 0,57.695 -22.569,98.004 -45.709,122.247 -0.818,0.855 -0.634,1.728 -0.15,2.168 0.517,0.475 1.486,0.395 2.449,-0.389 C 31.273,222.541 59.44,180.529 59.44,124.025 59.44,67.519 31.273,25.51 0,0 m -58.394,47.874 c -1.097,-0.662 -2.094,-0.515 -2.495,0.091 -0.386,0.579 -0.261,1.285 0.438,1.878 17.288,14.734 33.395,40.281 33.395,74.182 0,33.902 -16.107,59.446 -33.395,74.183 -0.699,0.593 -0.824,1.298 -0.438,1.878 0.401,0.605 1.398,0.75 2.495,0.091 26.468,-15.936 47.369,-41.605 47.369,-76.152 0,-34.546 -20.901,-60.215 -47.369,-76.151 m -58.632,-6.405 c -41.077,0 -77.019,35.637 -77.019,82.556 0,46.919 35.942,82.557 77.019,82.557 41.073,0 77.015,-35.638 77.015,-82.557 0,-46.919 -35.942,-82.556 -77.015,-82.556 m -56.138,6.496 c -0.403,-0.606 -1.398,-0.753 -2.495,-0.091 -26.467,15.936 -47.368,41.605 -47.368,76.151 0,34.547 20.901,60.216 47.368,76.152 1.097,0.659 2.092,0.514 2.495,-0.091 0.386,-0.58 0.259,-1.285 -0.438,-1.878 -17.289,-14.737 -33.396,-40.281 -33.396,-74.183 0,-33.901 16.107,-59.448 33.396,-74.182 0.697,-0.593 0.824,-1.299 0.438,-1.878 M -231.757,1.779 c 0.819,-0.858 0.636,-1.728 0.153,-2.171 -0.52,-0.472 -1.486,-0.395 -2.449,0.392 -31.276,25.51 -59.44,67.519 -59.44,124.025 0,56.504 28.164,98.516 59.44,124.026 0.963,0.784 1.929,0.864 2.449,0.389 0.483,-0.44 0.666,-1.313 -0.153,-2.168 -23.137,-24.243 -45.706,-64.552 -45.706,-122.247 0,-57.694 22.569,-98.006 45.706,-122.246 m 114.731,299.411 c -106.234,0 -189.419,-77.629 -189.419,-177.165 0,-99.538 83.185,-177.165 189.419,-177.165 106.234,0 189.418,77.627 189.418,177.165 0,99.536 -83.184,177.165 -189.418,177.165 M 876.482,89.608 854.07,109.983 837.98,93.894 861.87,72.18 c -10.64,-8.815 -24.166,-14.024 -39.065,-14.024 -35.112,0 -62.617,28.917 -62.617,65.837 0,36.913 27.505,65.833 62.617,65.833 35.112,0 62.617,-28.92 62.617,-65.833 0,-12.691 -3.251,-24.436 -8.94,-34.385 m 33.819,34.385 c 0,49.022 -38.363,88.857 -87.496,88.857 -48.706,0 -87.495,-39.378 -87.495,-88.857 0,-49.028 38.362,-88.86 87.495,-88.86 21.762,0 41.534,7.86 56.757,20.963 l 19.239,-17.488 h 33.787 l -37.871,34.425 c 9.838,14.379 15.584,31.918 15.584,50.96 m -263.463,65.871 c -33.936,0 -64.387,-25.257 -64.387,-65.873 0,-40.616 30.451,-65.871 64.387,-65.871 21.361,0 39.067,10.097 52.631,30.011 l 18.826,-14.373 c -15.638,-24.205 -42.35,-38.655 -71.452,-38.655 -50.406,0 -89.405,38.487 -89.405,88.888 0,50.4 38.999,88.891 89.405,88.891 29.102,0 55.814,-14.45 71.452,-38.656 L 699.469,159.85 c -13.564,19.915 -31.27,30.014 -52.631,30.014 m -329.907,19.509 h 37.124 V 38.607 H 330.768 V 184.096 L 270.617,38.607 h -21.204 l -60.15,145.489 V 38.607 h -23.288 v 170.766 h 37.124 l 56.916,-138.72 z m 843.231,-104.192 33.568,74.273 33.567,-74.273 z m 23.492,104.196 -78.448,-170.769 h 24.868 l 20.142,44.564 h 87.027 l 20.141,-44.564 h 24.868 l -78.448,170.769 z m -752.926,-104.198 33.568,74.274 33.566,-74.274 z M 454.22,209.375 375.772,38.607 h 24.868 l 20.142,44.566 h 87.026 L 527.95,38.607 h 24.868 L 474.37,209.375 Z m 1035.5,-0.001 h 24.558 V 38.608 H 1489.72 Z M 1691.647,61.494 V 38.607 h -135.585 v 170.768 h 134.034 V 186.489 H 1580.62 v -48.23 h 98.072 V 115.605 H 1580.62 V 61.494 Z M 1068.62,209.373 h 24.555 v -98.712 c 0,-45.609 -27.909,-75.53 -75.604,-75.53 -47.697,0 -75.606,29.921 -75.606,75.53 v 98.712 h 24.556 v -96.081 c 0,-35.086 18.129,-54.407 51.05,-54.407 32.919,0 51.049,19.321 51.049,54.407 z m 259.905,-76.912 v 54.026 h 65.762 c 20.912,0 32.433,-9.522 32.433,-26.811 0,-17.55 -11.521,-27.215 -32.433,-27.215 z m 122.758,27.215 c 0,27.644 -16.845,49.699 -56.28,49.699 h -91.036 V 38.608 h 24.558 v 71.367 h 53.739 l 47.664,-71.367 h 28.249 l -48.47,72.558 c 31.491,5.461 41.576,28.695 41.576,48.51"
             style="fill:#231f20;fill-opacity:1;fill-rule:nonzero;stroke:none"
             id="path20" /></g></g></g></g></svg>
