<?xml version="1.0" encoding="UTF-8"?>
<svg version="1.1" xmlns="http://www.w3.org/2000/svg" width="400" height="150">
<path d="M0 0 C6.67428674 5.13751819 11.4749818 12.57144742 13.32421875 20.7890625 C14.48222206 32.52429192 13.07187814 41.7418672 6.19921875 51.5390625 C0.17253957 58.81219771 -8.41051129 63.21867776 -17.67578125 64.7890625 C-30.66068982 65.86615169 -41.12869588 63.56251988 -51.67578125 55.7890625 C-57.85260147 50.14244144 -62.40203936 42.28560964 -62.9140625 33.875 C-63.29602283 17.71222823 -63.29602283 17.71222823 -58.67578125 10.7890625 C-58.25167969 10.09683594 -57.82757813 9.40460937 -57.390625 8.69140625 C-52.09371807 0.79768701 -43.5961565 -4.51929022 -34.390625 -6.76953125 C-21.83238417 -8.81137472 -10.68294908 -6.8089126 0 0 Z M-55.67578125 12.7890625 C-54.67578125 14.7890625 -54.67578125 14.7890625 -54.67578125 14.7890625 Z M-35.1171875 17.22265625 C-38.95328094 21.60520175 -39.99311056 24.9253821 -39.88671875 30.734375 C-39.40414276 35.43502263 -37.19621136 38.23145882 -34.05078125 41.6015625 C-30.28949381 44.49270135 -26.34420629 45.0740292 -21.67578125 44.7890625 C-16.00585323 42.86342657 -13.31519232 39.59948147 -10.36328125 34.5390625 C-8.99404063 29.06210001 -9.83897906 24.34724588 -12.48828125 19.4140625 C-15.82156171 15.41412594 -17.8857623 13.73596669 -23.05078125 12.9140625 C-28.0963221 12.52530771 -31.44674567 13.57210841 -35.1171875 17.22265625 Z M5.32421875 13.7890625 C6.32421875 15.7890625 6.32421875 15.7890625 6.32421875 15.7890625 Z M-56.67578125 14.7890625 C-60.33232723 25.41045796 -60.33232723 32.16766704 -56.67578125 42.7890625 C-55.81716721 39.76345786 -55.81716721 39.76345786 -56.11328125 36.6640625 C-57.52626941 29.44212302 -56.60932236 22.02400611 -55.67578125 14.7890625 C-56.00578125 14.7890625 -56.33578125 14.7890625 -56.67578125 14.7890625 Z M6.32421875 15.7890625 C6.41960937 16.63726562 6.515 17.48546875 6.61328125 18.359375 C7.45748635 27.29224296 6.95037821 34.94598047 5.32421875 43.7890625 C7.52242535 42.96172243 7.52242535 42.96172243 8.2109375 40.671875 C10.76015186 31.89262946 11.01679649 24.26831508 7.32421875 15.7890625 C6.99421875 15.7890625 6.66421875 15.7890625 6.32421875 15.7890625 Z M-41.67578125 17.7890625 C-40.67578125 19.7890625 -40.67578125 19.7890625 -40.67578125 19.7890625 Z M-42.67578125 19.7890625 C-45.62660929 24.39235425 -45.88970724 27.50325725 -45.29296875 32.73828125 C-44.57029169 35.13958162 -43.56391013 36.18160143 -41.67578125 37.7890625 C-41.75957031 36.99242188 -41.84335937 36.19578125 -41.9296875 35.375 C-42.94115911 24.85057392 -42.94115911 24.85057392 -41.67578125 19.7890625 C-42.00578125 19.7890625 -42.33578125 19.7890625 -42.67578125 19.7890625 Z M-7.67578125 19.7890625 C-6.67578125 21.7890625 -6.67578125 21.7890625 -6.67578125 21.7890625 Z M-6.67578125 21.7890625 C-6.67578125 26.4090625 -6.67578125 31.0290625 -6.67578125 35.7890625 C-6.01578125 35.4590625 -5.35578125 35.1290625 -4.67578125 34.7890625 C-3.66601373 29.7402249 -3.18683112 26.4741451 -5.67578125 21.7890625 C-6.00578125 21.7890625 -6.33578125 21.7890625 -6.67578125 21.7890625 Z M-7.67578125 35.7890625 C-6.67578125 37.7890625 -6.67578125 37.7890625 -6.67578125 37.7890625 Z M-41.67578125 37.7890625 C-40.67578125 39.7890625 -40.67578125 39.7890625 -40.67578125 39.7890625 Z M-55.67578125 42.7890625 C-54.67578125 44.7890625 -54.67578125 44.7890625 -54.67578125 44.7890625 Z " fill="#FFFFFF" transform="translate(62.67578125,46.2109375)"/>
<path d="M0 0 C2.97 0 5.94 0 9 0 C12.3 8.25 15.6 16.5 19 25 C22.02769982 18.94460037 24.8883506 13.14324912 27.3125 6.875 C27.57611328 6.2046875 27.83972656 5.534375 28.11132812 4.84375 C28.74499659 3.23077573 29.37313531 1.61563065 30 0 C32.97 0 35.94 0 39 0 C39 11.88 39 23.76 39 36 C37.02 36 35.04 36 33 36 C32.67 28.41 32.34 20.82 32 13 C28.7 20.59 25.4 28.18 22 36 C20.35 36 18.7 36 17 36 C13.05102513 28.55770121 10.078483 20.83613855 7 13 C6.67 20.59 6.34 28.18 6 36 C4.02 36 2.04 36 0 36 C0 24.12 0 12.24 0 0 Z " fill="#FFFFFF" transform="translate(94,57)"/>
<path d="M0 0 C4.78458709 1.64614411 7.95397166 4.32919454 10.5 8.6875 C12.92648382 14.34216933 12.73307813 20.32950109 11.125 26.1875 C10.97076332 29.65782536 11.73708376 30.29324698 13.9375 32.875 C14.94214907 33.93228444 15.95818239 34.97932072 17 36 C9.61217391 36.25043478 9.61217391 36.25043478 6.25 34.875 C5.13625 34.441875 5.13625 34.441875 4 34 C3.41476563 34.30421875 2.82953125 34.6084375 2.2265625 34.921875 C-2.17927343 37.05522714 -7.22959633 36.51225811 -12 36 C-17.09479869 33.59154971 -21.53263693 29.38622246 -23.8125 24.125 C-24.39725182 17.49781275 -24.39757439 12.91835539 -21 7 C-14.47040321 0.28902553 -9.35723135 -1.00842343 0 0 Z M-14 8 C-16.64165478 10.76138985 -17.89471991 13.4629107 -18.15625 17.28125 C-17.82468679 22.25469818 -16.7791683 25.53576239 -13 29 C-8.84280575 31.47184523 -5.63586863 31.04963063 -1 30 C-0.34 29.34 0.32 28.68 1 28 C0.01 27.01 -0.98 26.02 -2 25 C-1.34 23.68 -0.68 22.36 0 21 C1.65 21.99 3.3 22.98 5 24 C6.60960241 20.78079518 6.46158126 17.49111461 6 14 C3.59196716 9.09131767 1.08753634 6.94841817 -4 5 C-7.84182604 5 -10.79160499 5.95564853 -14 8 Z " fill="#FFFFFF" transform="translate(232,57)"/>
<path d="M0 0 C3.320625 -0.061875 6.64125 -0.12375 10.0625 -0.1875 C11.09511963 -0.21481201 12.12773926 -0.24212402 13.19165039 -0.27026367 C18.91516177 -0.32160799 22.9906338 0.1460583 28 3 C30.81395129 7.22092693 30.68411431 11.04017126 30 16 C28.125 18.5 28.125 18.5 26 20 C25.34 20.66 24.68 21.32 24 22 C24.5775 22.84304687 25.155 23.68609375 25.75 24.5546875 C26.50024193 25.66129435 27.25022874 26.76807419 28 27.875 C28.7425 28.96554688 29.485 30.05609375 30.25 31.1796875 C32 34 32 34 32 36 C28.80859375 36.3984375 28.80859375 36.3984375 25 36 C22.92119928 33.82629085 21.58485428 32.13489889 20.0625 29.625 C19.66482422 29.02171875 19.26714844 28.4184375 18.85742188 27.796875 C16 23.37057605 16 23.37057605 16 21 C12.7 21 9.4 21 6 21 C6 25.95 6 30.9 6 36 C4.02 36 2.04 36 0 36 C0 24.12 0 12.24 0 0 Z M6 6 C6 9.3 6 12.6 6 16 C8.4377963 16.05397335 10.87439685 16.09365616 13.3125 16.125 C14.34793945 16.15013672 14.34793945 16.15013672 15.40429688 16.17578125 C19.17135396 16.21217794 20.78431704 16.14378864 24 14 C24.5 11 24.5 11 24 8 C20.31912647 5.54608431 17.55644412 5.77197241 13.3125 5.875 C12.61060547 5.88402344 11.90871094 5.89304687 11.18554688 5.90234375 C9.45688475 5.92586296 7.72839855 5.96173287 6 6 Z " fill="#FFFFFF" transform="translate(322,57)"/>
<path d="M0 0 C9.24 0 18.48 0 28 0 C28 1.98 28 3.96 28 6 C20.74 6 13.48 6 6 6 C6 8.97 6 11.94 6 15 C12.6 15 19.2 15 26 15 C26 16.65 26 18.3 26 20 C19.4 20 12.8 20 6 20 C6 23.3 6 26.6 6 30 C13.26 30 20.52 30 28 30 C28 31.98 28 33.96 28 36 C18.76 36 9.52 36 0 36 C0 24.12 0 12.24 0 0 Z " fill="#FFFFFF" transform="translate(372,57)"/>
<path d="M0 0 C1.2065625 0.0309375 1.2065625 0.0309375 2.4375 0.0625 C4.56003633 4.54438298 6.67781995 9.02846878 8.79125977 13.51464844 C9.51066475 15.04000094 10.23135722 16.56474693 10.95336914 18.08886719 C11.99185054 20.28161388 13.02565934 22.47651088 14.05859375 24.671875 C14.38153915 25.3511908 14.70448456 26.03050659 15.03721619 26.73040771 C16.47522043 29.79747482 17.8098091 32.71976739 18.4375 36.0625 C16.4575 36.0625 14.4775 36.0625 12.4375 36.0625 C8.4375 29.3125 8.4375 29.3125 8.4375 27.0625 C0.0225 27.5575 0.0225 27.5575 -8.5625 28.0625 C-9.8825 30.7025 -11.2025 33.3425 -12.5625 36.0625 C-14.5425 36.0625 -16.5225 36.0625 -18.5625 36.0625 C-16.1716176 28.23779395 -12.90102101 20.96670168 -9.4375 13.5625 C-8.88707031 12.37140625 -8.33664062 11.1803125 -7.76953125 9.953125 C-3.18124102 0.07759124 -3.18124102 0.07759124 0 0 Z M-0.5625 9.0625 C-1.40069158 10.68499941 -2.2329116 12.31058497 -3.0625 13.9375 C-3.5265625 14.84242187 -3.990625 15.74734375 -4.46875 16.6796875 C-5.70155589 18.92846859 -5.70155589 18.92846859 -5.5625 21.0625 C-1.9325 21.0625 1.6975 21.0625 5.4375 21.0625 C3.7875 17.1025 2.1375 13.1425 0.4375 9.0625 C0.1075 9.0625 -0.2225 9.0625 -0.5625 9.0625 Z " fill="#FFFFFF" transform="translate(300.5625,56.9375)"/>
<path d="M0 0 C1.2065625 0.0309375 1.2065625 0.0309375 2.4375 0.0625 C4.56003633 4.54438298 6.67781995 9.02846878 8.79125977 13.51464844 C9.51066475 15.04000094 10.23135722 16.56474693 10.95336914 18.08886719 C11.99185054 20.28161388 13.02565934 22.47651088 14.05859375 24.671875 C14.38153915 25.3511908 14.70448456 26.03050659 15.03721619 26.73040771 C16.47522043 29.79747482 17.8098091 32.71976739 18.4375 36.0625 C16.1275 36.0625 13.8175 36.0625 11.4375 36.0625 C10.4475 33.0925 9.4575 30.1225 8.4375 27.0625 C0.0225 27.5575 0.0225 27.5575 -8.5625 28.0625 C-9.8825 30.7025 -11.2025 33.3425 -12.5625 36.0625 C-14.5425 36.0625 -16.5225 36.0625 -18.5625 36.0625 C-16.1716176 28.23779395 -12.90102101 20.96670168 -9.4375 13.5625 C-8.88707031 12.37140625 -8.33664063 11.1803125 -7.76953125 9.953125 C-3.18124102 0.07759124 -3.18124102 0.07759124 0 0 Z M-0.5625 9.0625 C-1.40069158 10.68499941 -2.2329116 12.31058497 -3.0625 13.9375 C-3.5265625 14.84242187 -3.990625 15.74734375 -4.46875 16.6796875 C-5.70155589 18.92846859 -5.70155589 18.92846859 -5.5625 21.0625 C-1.9325 21.0625 1.6975 21.0625 5.4375 21.0625 C3.7875 17.1025 2.1375 13.1425 0.4375 9.0625 C0.1075 9.0625 -0.2225 9.0625 -0.5625 9.0625 Z " fill="#FFFFFF" transform="translate(154.5625,56.9375)"/>
<path d="M0 0 C1.98 0 3.96 0 6 0 C6.01981934 0.64026123 6.03963867 1.28052246 6.06005859 1.94018555 C6.15563601 4.8563528 6.26518214 7.77183572 6.375 10.6875 C6.4059375 11.69490234 6.436875 12.70230469 6.46875 13.74023438 C6.50742188 14.71669922 6.54609375 15.69316406 6.5859375 16.69921875 C6.6173584 17.59471436 6.6487793 18.49020996 6.68115234 19.4128418 C7.16992298 23.37877018 8.16342174 26.16342174 11 29 C14.21666874 29.85777833 16.4319954 30.13209409 19.6875 29.375 C22.61664069 27.63334878 23.47541025 26.03174182 25 23 C25.49520766 20.30557553 25.49520766 20.30557553 25.51171875 17.48046875 C25.54716797 16.45888672 25.58261719 15.43730469 25.61914062 14.38476562 C25.64169922 13.32966797 25.66425781 12.27457031 25.6875 11.1875 C25.72166016 10.11306641 25.75582031 9.03863281 25.79101562 7.93164062 C25.87326643 5.28786467 25.94249209 2.64441079 26 0 C27.98 0 29.96 0 32 0 C32.08770383 3.85402129 32.14062735 7.70778291 32.1875 11.5625 C32.21263672 12.64853516 32.23777344 13.73457031 32.26367188 14.85351562 C32.33131057 22.2712254 31.92369434 27.52811298 27 33.375 C23.55903214 36.17078639 20.41129743 36.18586587 16.125 36.25 C14.58199219 36.28867188 14.58199219 36.28867188 13.0078125 36.328125 C8.41572648 35.82717016 5.87587612 33.9245359 2.75 30.625 C-0.0416052 26.43759221 -0.12524708 22.41922779 -0.09765625 17.48046875 C-0.09443359 16.45888672 -0.09121094 15.43730469 -0.08789062 14.38476562 C-0.07951172 13.32966797 -0.07113281 12.27457031 -0.0625 11.1875 C-0.05798828 10.11306641 -0.05347656 9.03863281 -0.04882812 7.93164062 C-0.03707729 5.28770317 -0.02064787 2.64388048 0 0 Z " fill="#FFFFFF" transform="translate(249,57)"/>
<path d="M0 0 C3.5625 1.8125 3.5625 1.8125 6 4 C6.928125 4.804375 6.928125 4.804375 7.875 5.625 C9 7 9 7 9 9 C6 11 6 11 4 10.8125 C2 10 2 10 0.6875 8.5 C-2.0217811 6.09175014 -4.4510186 6.12030445 -8 6 C-12.2462039 7.55149758 -14.63596262 9.17121324 -17 13 C-17.8562083 17.74385682 -17.68406186 21.78389003 -15.3125 26 C-12.80142732 28.17173854 -11.23527817 29.24760973 -8 30 C-4.43497745 29.69267047 -1.39166508 29.13055503 2 28 C2.33 27.01 2.66 26.02 3 25 C5.16874252 25.50603992 6.99967627 25.99983813 9 27 C7.27592413 31.38855677 4.17026127 33.91486937 0 36 C-6.44601568 36.50178565 -12.58486659 36.96229274 -18 33 C-22.53702611 28.46297389 -24.94004838 24.28654066 -25.03125 17.765625 C-24.5896513 11.18580442 -22.38174466 7.14937932 -17.4375 2.6875 C-12.16636377 -0.96174816 -6.18604852 -0.60551269 0 0 Z " fill="#FFFFFF" transform="translate(197,57)"/>
<path d="M0 0 C1.98 0 3.96 0 6 0 C6 11.88 6 23.76 6 36 C4.02 36 2.04 36 0 36 C0 24.12 0 12.24 0 0 Z " fill="#FFFFFF" transform="translate(359,57)"/>
</svg>
