<?xml version="1.0" encoding="UTF-8"?>
<svg version="1.1" xmlns="http://www.w3.org/2000/svg" width="400" height="150">
<path d="M0 0 C9.92582495 0 16.67507841 2.21709164 24 9 C30.15521296 15.22628932 34 24.1935069 34 33 C41.92 32.505 41.92 32.505 50 32 C48.47375 30.88625 46.9475 29.7725 45.375 28.625 C37.85168916 22.59356383 33.58268159 15.49608951 32 6 C32 4.02 32 2.04 32 0 C43.22 0 54.44 0 66 0 C66 22.77 66 45.54 66 69 C54.69650875 66.94481977 46.55582937 64.69309854 39 56 C34.65078204 49.22616378 32.26802782 43.04083456 32 35 C23.585 35.495 23.585 35.495 15 36 C16.19625 36.845625 17.3925 37.69125 18.625 38.5625 C25.77646034 43.97031806 29.95572687 49.54368575 33 58 C33.495 62.95 33.495 62.95 34 68 C22.78 68 11.56 68 0 68 C0 45.56 0 23.12 0 0 Z " fill="#F9423A" transform="translate(0,41)"/>
<path d="M0 0 C5.34536848 2.98346148 9.41977973 7.07533947 11.82983398 12.74707031 C14.87939125 23.54771333 14.2009364 34.62807174 14.0625 45.75 C14.04742604 47.86327171 14.03374244 49.97655383 14.02148438 52.08984375 C13.98869351 57.22682273 13.93706057 62.36329467 13.875 67.5 C9.915 67.5 5.955 67.5 1.875 67.5 C1.38 63.54 1.38 63.54 0.875 59.5 C0.35550781 59.98210937 -0.16398437 60.46421875 -0.69921875 60.9609375 C-1.39660156 61.59257813 -2.09398437 62.22421875 -2.8125 62.875 C-3.49699219 63.50148438 -4.18148437 64.12796875 -4.88671875 64.7734375 C-11.21581469 69.65556735 -18.4609696 69.30146723 -26.125 68.5 C-33.29829135 66.38018831 -37.43925375 62.92033218 -41.125 56.5 C-42.99295333 50.89614002 -42.86035867 44.79258879 -41.0625 39.1875 C-35.79330425 31.87861557 -29.43097771 28.4436806 -20.6328125 26.87890625 C-13.43682223 25.82918936 -6.39522073 25.19208477 0.875 25.5 C0.21072067 20.39397233 -0.2991208 16.5376431 -3.5625 12.4375 C-8.12729554 8.98606923 -12.60712328 8.9632782 -18.125 9.5 C-22.19162662 11.05271198 -23.70019602 11.86279402 -26.125 15.5 C-26.83312814 17.82108669 -27.50524152 20.15377147 -28.125 22.5 C-32.085 22.5 -36.045 22.5 -40.125 22.5 C-39.8874387 15.0168192 -38.19215833 10.11084485 -33.125 4.5 C-24.23947823 -2.54135687 -10.66730048 -4.20395349 0 0 Z M-28.125 42.125 C-29.74431677 45.97087733 -29.33043388 49.54966247 -28.125 53.5 C-24.52601787 57.28840224 -21.57049555 58.40363363 -16.375 58.75 C-10.87836181 58.65906297 -6.69212264 57.1094773 -2.8125 53.125 C1.01801098 47.16642736 1.11775263 42.4454224 0.875 35.5 C-8.66523299 35.26240799 -20.46053054 35.89761856 -28.125 42.125 Z " fill="#FEFEFE" transform="translate(268.125,41.5)"/>
<path d="M0 0 C6.72745971 4.03418368 10.35077639 10.636994 12.3125 18.0625 C12.58294399 21.83249396 12.54528051 25.58920611 12.5078125 29.3671875 C12.5049826 30.44630402 12.50215271 31.52542053 12.49923706 32.63723755 C12.4880766 36.07077299 12.4629793 39.50404391 12.4375 42.9375 C12.42746487 45.27082956 12.41833995 47.60416322 12.41015625 49.9375 C12.38815075 55.64593466 12.35364908 61.35417254 12.3125 67.0625 C8.3525 67.0625 4.3925 67.0625 0.3125 67.0625 C-0.1825 63.1025 -0.1825 63.1025 -0.6875 59.0625 C-1.1825 59.805 -1.6775 60.5475 -2.1875 61.3125 C-6.38739898 65.93238887 -10.00193855 67.77193106 -16.26171875 68.44921875 C-24.77119981 68.69476596 -31.03099087 68.28998244 -37.42578125 62.484375 C-41.5982655 58.06293585 -43.64566759 53.81546447 -43.71484375 47.609375 C-43.39204862 42.0804738 -42.51039672 38.2774887 -38.6875 34.0625 C-28.08613629 25.3113743 -13.76368167 25.21428802 -0.6875 24.0625 C-0.81640625 22.80179688 -0.9453125 21.54109375 -1.078125 20.2421875 C-1.15063477 19.53304199 -1.22314453 18.82389648 -1.29785156 18.09326172 C-1.90717432 14.91760588 -3.37217234 13.24919835 -5.6875 11.0625 C-10.96176249 7.98584688 -16.6702444 8.89715118 -22.5 9.375 C-25.86511541 10.72851642 -25.86511541 10.72851642 -26.7890625 13.64453125 C-27.55103001 16.4182354 -28.12969101 19.24064275 -28.6875 22.0625 C-32.6475 22.0625 -36.6075 22.0625 -40.6875 22.0625 C-41.18448261 16.09870862 -40.1501059 11.99526259 -36.6875 7.0625 C-27.54367125 -2.85952694 -12.48491367 -5.51084469 0 0 Z M-28.6875 41.0625 C-30.42515543 44.53781087 -30.28335352 48.2713001 -29.6875 52.0625 C-27.15781526 55.34425318 -25.61018669 56.75493777 -21.6875 58.0625 C-15.30320826 58.83062978 -9.86140291 58.06583664 -4.6875 54.0625 C0.06395494 48.26737288 0.45392355 42.27510097 0.3125 35.0625 C-9.51353241 34.83354391 -20.32711073 35.60265394 -28.6875 41.0625 Z " fill="#FEFEFE" transform="translate(372.6875,41.9375)"/>
<path d="M0 0 C7.63118563 4.5915369 11.98520864 10.63480423 14.72265625 19.046875 C16.13401857 24.87742096 17.36341199 31.22226404 15.4375 37 C-0.0725 37 -15.5825 37 -31.5625 37 C-29.48341092 47.28373595 -29.48341092 47.28373595 -25.5625 52 C-25.5625 52.66 -25.5625 53.32 -25.5625 54 C-18.52598223 56.73642358 -12.71443307 58.4372076 -5.3125 55.875 C-0.73504575 52.75400847 1.11059717 49.30761132 2.4375 44 C6.7275 44 11.0175 44 15.4375 44 C13.40927136 53.63408604 9.73724538 60.40284075 1.4375 66 C-6.34442047 69.32560704 -16.44165884 69.35069562 -24.61328125 67.1953125 C-32.77128492 63.51596404 -38.59142956 56.94767299 -42 48.75 C-46.29623051 36.95944812 -45.58007351 24.64842149 -40.30859375 13.30078125 C-36.5659339 6.47833046 -32.04902361 1.83136345 -24.796875 -1.12890625 C-16.98682095 -3.23233868 -7.45130639 -3.39944393 0 0 Z M-27.3125 13.625 C-30.26819333 17.61857844 -30.26819333 17.61857844 -31.5625 26 C-20.0125 26.33 -8.4625 26.66 3.4375 27 C2.60432271 18.61293139 2.60432271 18.61293139 -1.5625 12 C-6.12074988 8.50396672 -10.77414492 7.38068899 -16.4609375 7.68359375 C-21.18987179 8.39557085 -23.90803866 10.3752869 -27.3125 13.625 Z " fill="#FEFEFE" transform="translate(203.5625,42)"/>
<path d="M0 0 C5.81411167 2.56928363 8.93631581 6.97304472 11.53707886 12.62162781 C12.55475586 15.53398502 12.73000879 17.70183095 12.71533203 20.77661133 C12.71518097 21.83733353 12.71502991 22.89805573 12.71487427 23.99092102 C12.7045517 25.1244249 12.69422913 26.25792877 12.68359375 27.42578125 C12.68076385 28.59509689 12.67793396 29.76441254 12.67501831 30.96916199 C12.66383687 34.69829608 12.63873559 38.42718868 12.61328125 42.15625 C12.60324884 44.68684549 12.59412344 47.21744474 12.5859375 49.74804688 C12.56390413 55.94670741 12.52938787 62.14518778 12.48828125 68.34375 C8.52828125 68.34375 4.56828125 68.34375 0.48828125 68.34375 C0.45855225 66.46840576 0.45855225 66.46840576 0.42822266 64.55517578 C0.35163709 59.87708806 0.26300501 55.19929011 0.17089844 50.52148438 C0.132826 48.50429035 0.09793693 46.48703345 0.06640625 44.46972656 C0.0202798 41.55511128 -0.03763171 38.64092087 -0.09765625 35.7265625 C-0.10920746 34.83760284 -0.12075867 33.94864319 -0.13265991 33.03274536 C-0.21989605 22.21239311 -0.21989605 22.21239311 -4.63671875 12.78125 C-9.85912551 10.17004662 -14.31038355 9.70344795 -19.82421875 11.40625 C-22.60992863 12.36118908 -23.43704475 13.23145019 -25.08984375 15.71704102 C-27.0560995 20.7322761 -26.99063662 25.30553896 -27.0234375 30.6484375 C-27.0413887 31.72755402 -27.0593399 32.80667053 -27.07783508 33.91848755 C-27.13184742 37.35186909 -27.16580545 40.78511231 -27.19921875 44.21875 C-27.23239975 46.55210254 -27.26689013 48.88543685 -27.30273438 51.21875 C-27.38756907 56.92698341 -27.45442409 62.63517642 -27.51171875 68.34375 C-31.80171875 68.34375 -36.09171875 68.34375 -40.51171875 68.34375 C-40.51171875 45.90375 -40.51171875 23.46375 -40.51171875 0.34375 C-36.55171875 0.34375 -32.59171875 0.34375 -28.51171875 0.34375 C-28.18171875 2.98375 -27.85171875 5.62375 -27.51171875 8.34375 C-26.81046875 7.415625 -26.10921875 6.4875 -25.38671875 5.53125 C-19.49035414 -2.27276198 -8.75620315 -2.28777936 0 0 Z " fill="#FEFEFE" transform="translate(136.51171875,40.65625)"/>
<path d="M0 0 C10.56 0 21.12 0 32 0 C32 3.3 32 6.6 32 10 C25.4 10 18.8 10 12 10 C12 29.14 12 48.28 12 68 C8.04 68 4.08 68 0 68 C0 45.56 0 23.12 0 0 Z " fill="#FEFEFE" transform="translate(296,41)"/>
<path d="M0 0 C1.875 1 1.875 1 3 3 C3.53967465 6.59783102 3.68523932 9.78179676 1.875 13 C-0.94519875 14.504106 -2.85610056 14.44912849 -6 14 C-8.375 12.375 -8.375 12.375 -10 10 C-10.61195145 6.3282913 -10.48706506 4.71186432 -8.375 1.625 C-5.32214079 -0.46379841 -3.63031776 -0.54068562 0 0 Z M-7 4 C-7 5.65 -7 7.3 -7 9 C-6.67 9 -6.34 9 -6 9 C-6 7.35 -6 5.7 -6 4 C-6.33 4 -6.66 4 -7 4 Z M0 6 C0 9 0 9 0 9 Z " fill="#FEFDFD" transform="translate(397,41)"/>
<path d="" fill="#FEEAEA" transform="translate(0,0)"/>
</svg>
