<?xml version="1.0" encoding="UTF-8"?>
<svg version="1.1" xmlns="http://www.w3.org/2000/svg" width="400" height="150">
<path d="M0 0 C3.46679688 0.04882812 3.46679688 0.04882812 6.93359375 0.09765625 C12.28902526 10.6863318 17.47531123 21.34384725 22.52563477 32.08129883 C23.62897631 34.42691393 24.73516792 36.77116869 25.84179688 39.11523438 C27.57672224 42.79211828 29.3003374 46.47417081 31.02093506 50.15777588 C31.85726956 51.93542714 32.7102853 53.70520551 33.56494141 55.47412109 C34.02304199 56.43656738 34.48114258 57.39901367 34.953125 58.390625 C35.34218018 59.19395264 35.73123535 59.99728027 36.13208008 60.82495117 C37.03976823 63.39871571 37.15617072 65.38735133 36.93359375 68.09765625 C35.93359375 69.09765625 35.93359375 69.09765625 33.4216156 69.21791077 C32.30464798 69.21569016 31.18768036 69.21346954 30.03686523 69.21118164 C28.77563339 69.21110611 27.51440155 69.21103058 26.21495056 69.21095276 C24.82819581 69.20584535 23.44144146 69.20062934 22.0546875 69.1953125 C20.64364166 69.19344826 19.23259518 69.19202439 17.82154846 69.19102478 C14.1011884 69.18720004 10.38086715 69.17737015 6.66052246 69.1663208 C2.86678594 69.15610573 -0.92695683 69.15152696 -4.72070312 69.14648438 C-12.16928856 69.13574783 -19.61784197 69.11867195 -27.06640625 69.09765625 C-28.12063599 67.29135132 -28.12063599 67.29135132 -29.06640625 65.09765625 C-28.19873047 61.99853516 -28.19873047 61.99853516 -26.62109375 58.32421875 C-26.19906425 57.32150688 -26.19906425 57.32150688 -25.76850891 56.29853821 C-24.84007622 54.1003654 -23.89073204 51.91187658 -22.94140625 49.72265625 C-21.96901831 47.43458484 -21.0020118 45.14428349 -20.03501892 42.85392761 C-19.37253699 41.28625796 -18.7081782 39.71938021 -18.04200745 38.15327454 C-14.37130542 29.51253702 -10.917798 20.78783146 -7.47283936 12.05523682 C-6.74956644 10.22351434 -6.02330137 8.39297417 -5.296875 6.5625 C-4.88848389 5.52730225 -4.48009277 4.49210449 -4.05932617 3.42553711 C-2.65166991 0.12531521 -2.65166991 0.12531521 0 0 Z M-3.06640625 28.09765625 C-4.63969482 31.88518873 -6.20607352 35.67549639 -7.76611328 39.46850586 C-8.29775017 40.75834971 -8.83126647 42.0474206 -9.36669922 43.33569336 C-10.13613012 45.18789482 -10.8982436 47.04313071 -11.66015625 48.8984375 C-12.12099609 50.01387939 -12.58183594 51.12932129 -13.05664062 52.27856445 C-14.2350108 55.06929128 -14.2350108 55.06929128 -14.06640625 58.09765625 C-5.48640625 58.09765625 3.09359375 58.09765625 11.93359375 58.09765625 C12.26359375 57.43765625 12.59359375 56.77765625 12.93359375 56.09765625 C12.1063871 53.95473655 11.16962347 51.85383337 10.1875 49.77734375 C9.89753647 49.15868439 9.60757294 48.54002502 9.30882263 47.90261841 C8.37861518 45.92239447 7.43752072 43.94756722 6.49609375 41.97265625 C5.86451193 40.6331529 5.23364317 39.29331309 4.60351562 37.953125 C3.05513795 34.66402073 1.49695363 31.37967038 -0.06640625 28.09765625 C-1.05640625 28.09765625 -2.04640625 28.09765625 -3.06640625 28.09765625 Z " fill="#FF3300" transform="translate(358.06640625,40.90234375)"/>
<path d="M0 0 C9.0330203 6.52739453 13.00728455 14.60360637 15.3125 25.375 C16.73627122 34.58097527 13.33355754 43.99882132 7.97265625 51.375 C2.30785892 58.19941467 -4.92004565 62.65398118 -13.6875 64.375 C-23.61402396 65.20561449 -32.21263912 64.36170127 -40.41796875 58.38671875 C-48.56579106 51.41834487 -54.06366406 44.14895553 -54.94140625 33.2109375 C-55.30760364 22.36676953 -53.57224313 14.38283364 -46.5 6 C-33.82405832 -7.11304312 -15.62077588 -9.51519343 0 0 Z M-38.625 12.125 C-43.64298977 18.55134068 -45.3091774 24.48608972 -45.02734375 32.63671875 C-44.08413234 40.23661755 -40.69045829 45.22709095 -34.75 49.93359375 C-28.27010275 54.46215831 -22.38902253 55.17515818 -14.6875 54.375 C-8.64187134 53.10889976 -3.70361513 50.06386538 0.3125 45.375 C4.41117518 38.66807698 6.05349274 31.69126606 4.75 23.9375 C3.06475585 17.40010995 -0.47640405 12.17151546 -5.6875 7.9375 C-16.81625497 2.14127345 -29.67280398 2.57097567 -38.625 12.125 Z " fill="#FFFFFF" transform="translate(59.6875,46.625)"/>
<path d="M0 0 C5.85096352 3.90064235 9.54903229 9.25221327 11.6171875 16.01953125 C13.38907185 25.1863207 10.83238422 32.58481284 5.875 40.3125 C0.50961924 45.32796462 -5.14466924 48.260793 -12.5625 48.5625 C-18.73739925 48.2730516 -24.57101043 46.42898957 -29 42 C-29.33 49.59 -29.66 57.18 -30 65 C-33.3 65 -36.6 65 -40 65 C-40 42.89 -40 20.78 -40 -2 C-36.7 -2 -33.4 -2 -30 -2 C-29.67 -0.35 -29.34 1.3 -29 3 C-28.29875 2.38125 -27.5975 1.7625 -26.875 1.125 C-18.91483775 -4.75859818 -8.58563822 -4.58024328 0 0 Z M-25.59375 10.39453125 C-29.99524573 15.44857431 -30.44468167 19.44094536 -30 26 C-28.33644155 31.16578678 -26.61823319 34.10017916 -22 37 C-17.11827571 39.278138 -13.1275293 39.28453632 -8 38 C-3.31505647 35.87048021 -0.29980554 32.59961109 2 28 C2.55769904 22.03691027 2.50156448 17.07123132 -1 12 C-7.94865758 5.23914398 -17.99519789 3.74579816 -25.59375 10.39453125 Z " fill="#FFFFFF" transform="translate(120,63)"/>
<path d="M0 0 C7.89560737 7.89560737 8.3125 13.87799339 8.3125 25.3125 C-4.5575 25.3125 -17.4275 25.3125 -30.6875 25.3125 C-27.78865986 31.11018029 -26.96593694 32.34337922 -21.6875 35.3125 C-16.58933724 37.01188759 -12.30093074 36.95178388 -7.375 35 C-5.11431951 33.58050295 -3.41387942 32.32660932 -1.6875 30.3125 C1.2844385 31.43701727 3.64690687 32.53543791 6.3125 34.3125 C3.93253849 39.70241284 -0.18644253 43.0328892 -5.375 45.6875 C-14.21617939 47.35564705 -22.9020598 47.21105717 -30.6875 42.3125 C-36.57834372 37.10364993 -40.16415195 32.16259761 -41.0234375 24.19921875 C-41.12381121 15.9786115 -40.49936042 9.63035959 -34.921875 3.3125 C-24.69600184 -6.34974235 -11.90067362 -7.47251599 0 0 Z M-28.0625 9.1875 C-30.1162944 11.55037971 -30.1162944 11.55037971 -30.6875 16.3125 C-20.7875 16.3125 -10.8875 16.3125 -0.6875 16.3125 C-3.61106851 9.27947997 -3.61106851 9.27947997 -8.6875 5.3125 C-16.28595895 3.30151756 -21.89171431 4.31582709 -28.0625 9.1875 Z " fill="#FFFFFF" transform="translate(277.6875,64.6875)"/>
<path d="M0 0 C3.3 0 6.6 0 10 0 C14.91318603 11.56976064 19.44550531 23.28546447 24 35 C26.14074314 31.78888529 27.43247566 28.54308623 28.78515625 24.9609375 C29.17688271 23.93874619 29.17688271 23.93874619 29.57652283 22.89590454 C30.4086814 20.72358804 31.23601468 18.5494807 32.0625 16.375 C32.89291142 14.19352049 33.72440134 12.012481 34.55918884 9.83267212 C35.07824578 8.47705489 35.59472419 7.12044709 36.1084137 5.76278687 C37.8876051 1.1123949 37.8876051 1.1123949 39 0 C40.68608966 -0.07205511 42.37500659 -0.08386068 44.0625 -0.0625 C44.98160156 -0.05347656 45.90070313 -0.04445312 46.84765625 -0.03515625 C47.55792969 -0.02355469 48.26820313 -0.01195312 49 0 C46.97455204 6.31465275 44.6892896 12.48071227 42.20703125 18.62890625 C41.85613937 19.50401352 41.5052475 20.37912079 41.14372253 21.28074646 C40.03576607 24.04232274 38.92419884 26.80242843 37.8125 29.5625 C37.05509812 31.44847117 36.29793442 33.33453802 35.54101562 35.22070312 C33.69675996 39.81491184 31.8492673 44.40780641 30 49 C26.37 49 22.74 49 19 49 C7.17508474 20.62836452 7.17508474 20.62836452 2.75 9.3125 C2.46310303 8.58434082 2.17620605 7.85618164 1.88061523 7.10595703 C0 2.24695686 0 2.24695686 0 0 Z " fill="#FFFFFF" transform="translate(188,61)"/>
<path d="M0 0 C0 4.29 0 8.58 0 13 C3.96 13 7.92 13 12 13 C12 16.3 12 19.6 12 23 C8.04 23 4.08 23 0 23 C0.11798944 26.96952899 0.24221799 30.93880781 0.37231445 34.90795898 C0.41571223 36.25914147 0.4573837 37.61038053 0.49731445 38.96166992 C0.55489952 40.90036701 0.61914298 42.83886276 0.68359375 44.77734375 C0.72025146 45.94515381 0.75690918 47.11296387 0.79467773 48.31616211 C0.70076188 50.91779795 0.70076188 50.91779795 2 52 C3.68183948 52.23287008 5.3712416 52.41264166 7.0625 52.5625 C7.98160156 52.64628906 8.90070313 52.73007813 9.84765625 52.81640625 C10.91306641 52.90728516 10.91306641 52.90728516 12 53 C12 55.97 12 58.94 12 62 C9.93816367 62.08150744 7.87538651 62.1394194 5.8125 62.1875 C4.08966797 62.23970703 4.08966797 62.23970703 2.33203125 62.29296875 C-2.19019657 61.895352 -4.78423304 60.38944795 -7.75 57 C-10.18066969 53.11092849 -10.11722978 49.84561903 -10.09765625 45.36328125 C-10.09443359 44.06455078 -10.09121094 42.76582031 -10.08789062 41.42773438 C-10.07953531 40.05598892 -10.07107037 38.68424413 -10.0625 37.3125 C-10.05748335 35.92903805 -10.05292073 34.54557437 -10.04882812 33.16210938 C-10.03702529 29.77469605 -10.02056019 26.38736967 -10 23 C-12.97 23 -15.94 23 -19 23 C-19 19.7 -19 16.4 -19 13 C-16.03 13 -13.06 13 -10 13 C-10 9.37 -10 5.74 -10 2 C-3.375 0 -3.375 0 0 0 Z " fill="#FFFFFF" transform="translate(152,48)"/>
<path d="M0 0 C0 3.3 0 6.6 0 10 C-2.47395833 10.5859375 -4.94791667 11.171875 -7.421875 11.7578125 C-11.01258806 13.48788334 -12.07683719 15.53390428 -14 19 C-14.63398565 22.56473743 -14.63398565 22.56473743 -14.609375 26.3671875 C-14.62591125 27.04677521 -14.64244751 27.72636292 -14.65948486 28.42654419 C-14.70768713 30.57612388 -14.72927128 32.72499781 -14.75 34.875 C-14.77818333 36.34118082 -14.80811405 37.80732915 -14.83984375 39.2734375 C-14.91343501 42.84880629 -14.96318026 46.42404173 -15 50 C-18.3 50 -21.6 50 -25 50 C-25 33.83 -25 17.66 -25 1 C-21.7 1 -18.4 1 -15 1 C-14.67 2.32 -14.34 3.64 -14 5 C-13.0925 4.360625 -12.185 3.72125 -11.25 3.0625 C-6.99383247 0.36147061 -5.00903841 0 0 0 Z " fill="#FFFFFF" transform="translate(318,60)"/>
<path d="M0 0 C2.97 0 5.94 0 9 0 C9 16.17 9 32.34 9 49 C6.03 49 3.06 49 0 49 C0 32.83 0 16.66 0 0 Z " fill="#FFFFFF" transform="translate(173,61)"/>
<path d="M0 0 C3.5625 0.375 3.5625 0.375 5.5625 2 C6.91448496 5.21096428 6.56701167 7.07446166 5.5625 10.375 C2.32096834 12.5360211 1.32557099 13.01747553 -2.4375 12.375 C-4.8125 10.1875 -4.8125 10.1875 -6.4375 7.375 C-6.21073305 2.49951063 -5.00556638 0.54606179 0 0 Z " fill="#FFFFFF" transform="translate(177.4375,41.625)"/>
</svg>
