<svg width="26" height="18" viewBox="0 0 26 18" fill="none" xmlns="http://www.w3.org/2000/svg">
<path d="M3.15467 5.6882C3.15456 4.74549 3.38877 3.81754 3.83625 2.98781C4.28372 2.15807 4.93043 1.45257 5.71819 0.934774C6.50596 0.416972 7.41009 0.103105 8.34925 0.0214023C9.28841 -0.0603006 10.2331 0.0927231 11.0985 0.46671C11.9638 0.840697 12.7227 1.42392 13.3067 2.16392C13.8907 2.90392 14.2817 3.77748 14.4444 4.70605C14.607 5.63461 14.5363 6.58905 14.2387 7.48352C13.941 8.37799 13.4256 9.18444 12.7389 9.83033C14.0337 10.4586 15.1579 11.3899 16.0162 12.5452C16.8745 13.7005 17.4415 15.0457 17.6692 16.4668C17.6942 16.625 17.6879 16.7865 17.6506 16.9422C17.6132 17.0978 17.5456 17.2447 17.4515 17.3742C17.3574 17.5037 17.2387 17.6135 17.1022 17.6972C16.9658 17.7808 16.8141 17.8368 16.656 17.8619C16.4979 17.887 16.3363 17.8806 16.1807 17.8433C16.025 17.806 15.8782 17.7383 15.7486 17.6442C15.6191 17.5501 15.5093 17.4315 15.4256 17.295C15.342 17.1585 15.286 17.0068 15.2609 16.8487C15.0172 15.3217 14.2371 13.9316 13.0606 12.9281C11.8842 11.9245 10.3885 11.3732 8.84217 11.3732C7.29584 11.3732 5.80017 11.9245 4.62372 12.9281C3.44728 13.9316 2.66715 15.3217 2.42342 16.8487C2.39824 17.0068 2.34216 17.1584 2.25838 17.2949C2.17461 17.4314 2.06477 17.55 1.93515 17.644C1.80554 17.738 1.65867 17.8055 1.50294 17.8428C1.34721 17.88 1.18567 17.8863 1.02755 17.8611C0.869419 17.8359 0.717799 17.7798 0.581344 17.696C0.44489 17.6123 0.326272 17.5024 0.232264 17.3728C0.138257 17.2432 0.0706998 17.0963 0.033451 16.9406C-0.00379778 16.7849 -0.010009 16.6233 0.015172 16.4652C0.243216 15.0447 0.810407 13.7 1.66866 12.5453C2.52692 11.3906 3.65093 10.4598 4.94542 9.83195C4.37939 9.30046 3.92842 8.65849 3.6204 7.94575C3.31238 7.23301 3.15387 6.46465 3.15467 5.6882ZM17.7797 3.2507C18.7238 3.25136 19.6475 3.52608 20.4385 4.04151C21.2296 4.55693 21.854 5.29091 22.2359 6.15433C22.6179 7.01775 22.7411 7.97349 22.5904 8.90554C22.4397 9.83759 22.0217 10.7059 21.3872 11.405C22.3763 11.896 23.2551 12.5831 23.9703 13.4246C24.6855 14.266 25.222 15.2441 25.5472 16.2994C25.6116 16.5043 25.6207 16.7226 25.5734 16.9321C25.5262 17.1416 25.4244 17.3349 25.2784 17.4923C25.1323 17.6497 24.9472 17.7657 24.7419 17.8285C24.5365 17.8913 24.3182 17.8986 24.109 17.8497C23.9001 17.801 23.7077 17.6982 23.5511 17.5516C23.3945 17.405 23.2792 17.2197 23.2169 17.0145C22.9257 16.0723 22.395 15.2218 21.6766 14.5462C20.9583 13.8706 20.0769 13.3929 19.1187 13.16C18.8526 13.0957 18.6158 12.9437 18.4466 12.7286C18.2774 12.5134 18.1856 12.2475 18.1859 11.9737V11.4017C18.1858 11.1748 18.249 10.9524 18.3684 10.7594C18.4878 10.5665 18.6588 10.4107 18.8619 10.3097C19.3546 10.0656 19.7502 9.66202 19.9845 9.16464C20.2189 8.66727 20.2782 8.10527 20.1528 7.56993C20.0275 7.03459 19.7248 6.55736 19.294 6.21576C18.8632 5.87415 18.3295 5.68823 17.7797 5.6882C17.4564 5.6882 17.1464 5.5598 16.9179 5.33124C16.6893 5.10268 16.5609 4.79268 16.5609 4.46945C16.5609 4.14622 16.6893 3.83622 16.9179 3.60766C17.1464 3.3791 17.4564 3.2507 17.7797 3.2507ZM8.84217 2.4382C8.40937 2.42841 7.97898 2.50519 7.57626 2.66403C7.17354 2.82287 6.80661 3.06056 6.49702 3.36316C6.18742 3.66575 5.9414 4.02715 5.7734 4.42614C5.6054 4.82512 5.51881 5.25365 5.5187 5.68656C5.51859 6.11947 5.60497 6.54804 5.77277 6.94711C5.94057 7.34618 6.18641 7.7077 6.49585 8.01045C6.8053 8.3132 7.17211 8.55108 7.57475 8.71011C7.97739 8.86915 8.40774 8.94615 8.84055 8.93658C9.68971 8.9178 10.4978 8.56734 11.0918 7.96021C11.6858 7.35309 12.0185 6.53755 12.0187 5.68818C12.0189 4.83881 11.6866 4.02311 11.0929 3.41569C10.4992 2.80827 9.69133 2.4574 8.84217 2.4382Z" fill="#7A8192"/>
</svg>
