<?xml version="1.0" encoding="UTF-8"?>
<svg version="1.1" xmlns="http://www.w3.org/2000/svg" width="400" height="150">
<path d="M0 0 C11.20906496 8.5644262 18.66372207 20.23207429 21.0703125 34.2265625 C22.56857633 48.4919468 19.13405335 61.77941616 10.68359375 73.41015625 C0.74008225 85.30219425 -12.39614008 91.56677493 -27.671875 93.1328125 C-40.71445799 93.68022018 -53.2443206 88.77558659 -63.29296875 80.65234375 C-73.87626086 70.69348189 -80.26829328 58.67574569 -80.90014648 44.09912109 C-81.17262775 29.04319544 -75.70964913 15.87813823 -65.5390625 4.7890625 C-47.14785903 -12.15762116 -20.50218307 -14.03565149 0 0 Z M-44.84375 30.58984375 C-48.00411395 35.66900009 -49.02798135 40.18924911 -47.75 45.97265625 C-45.90456235 52.34670075 -43.34170067 55.57204158 -37.5 58.91015625 C-33.06945923 60.68237256 -27.84780627 60.69275834 -23.34375 59.19140625 C-18.04787025 56.74107383 -15.09908545 53.78851005 -12.25 48.66015625 C-10.7979882 43.33611297 -10.51000636 38.15043577 -13.125 33.16015625 C-15.95818484 28.82467767 -19.53524488 25.56507462 -24.5 23.91015625 C-32.74692857 22.9775472 -39.43099933 23.82390541 -44.84375 30.58984375 Z M-12.5 59.91015625 C-14.2299548 62.81962568 -14.50663338 64.58512045 -14.4375 67.97265625 C-13.22952628 71.75764059 -11.92104997 72.9335496 -8.5 74.91015625 C-4.53821982 75.57045295 -3.04825861 75.27566199 0.3125 73.03515625 C2.89266816 70.52870718 3.41717964 69.65553952 3.8125 66.09765625 C3.41645896 62.05803769 2.51158942 60.6128647 -0.5 57.91015625 C-5.50418972 56.45439197 -8.48177226 56.46596105 -12.5 59.91015625 Z " fill="#FFFFFF" transform="translate(80.5,33.08984375)"/>
<path d="M0 0 C2.33746522 0.30300475 4.67085177 0.63858045 7 1 C9.9254644 1.2236068 9.9254644 1.2236068 12 0 C19.10526316 -0.47368421 19.10526316 -0.47368421 23.1875 1.6875 C24.115625 2.120625 25.04375 2.55375 26 3 C27.67888441 2.02065076 29.34338239 1.01656081 31 0 C35.97639832 -0.75273252 39.87049554 -0.53394756 44.4375 1.625 C48.07077149 4.99242236 49.8064082 8.20396773 50.34057617 13.15966797 C50.3170105 14.80926514 50.3170105 14.80926514 50.29296875 16.4921875 C50.2784668 18.29042969 50.2784668 18.29042969 50.26367188 20.125 C50.23853516 21.3625 50.21339844 22.6 50.1875 23.875 C50.16719727 25.76605469 50.16719727 25.76605469 50.14648438 27.6953125 C50.11123435 30.79731454 50.06195504 33.89843534 50 37 C43.84765625 37.09765625 43.84765625 37.09765625 42 37 C40.19605125 35.19605125 40.76294211 32.43322201 40.68359375 29.99609375 C40.64169922 28.78115234 40.59980469 27.56621094 40.55664062 26.31445312 C40.51732422 25.03505859 40.47800781 23.75566406 40.4375 22.4375 C40.39431641 21.15423828 40.35113281 19.87097656 40.30664062 18.54882812 C40.200152 15.36600147 40.09814038 12.18309326 40 9 C36.7 9 33.4 9 30 9 C29.97494385 9.81267334 29.9498877 10.62534668 29.92407227 11.46264648 C29.80850882 15.12110752 29.68560416 18.77928528 29.5625 22.4375 C29.52318359 23.71689453 29.48386719 24.99628906 29.44335938 26.31445312 C29.40146484 27.52939453 29.35957031 28.74433594 29.31640625 29.99609375 C29.27974854 31.12200928 29.24309082 32.2479248 29.20532227 33.40795898 C29 36 29 36 28 37 C25.32941149 37.14115161 22.67567762 37.04247107 20 37 C19.98018066 36.25838623 19.96036133 35.51677246 19.93994141 34.75268555 C19.84477072 31.39726166 19.73505906 28.04246714 19.625 24.6875 C19.5940625 23.52025391 19.563125 22.35300781 19.53125 21.15039062 C19.49257813 20.03212891 19.45390625 18.91386719 19.4140625 17.76171875 C19.3826416 16.73006592 19.3512207 15.69841309 19.31884766 14.63549805 C19.17325371 11.77156764 19.17325371 11.77156764 17 9 C13.41642759 8.74984127 13.41642759 8.74984127 10 9 C8.36494836 12.61719318 7.71864718 15.56035906 7.5859375 19.51953125 C7.52792969 21.0519043 7.52792969 21.0519043 7.46875 22.61523438 C7.42234375 24.19788086 7.42234375 24.19788086 7.375 25.8125 C7.31699219 27.42415039 7.31699219 27.42415039 7.2578125 29.06835938 C7.16381387 31.71207088 7.07815427 34.3557805 7 37 C4.36 37 1.72 37 -1 37 C-1.0246501 31.89136104 -1.04283607 26.78275641 -1.05493164 21.67407227 C-1.05997204 19.93480832 -1.0668043 18.19554864 -1.07543945 16.45629883 C-1.08751792 13.96174063 -1.09323108 11.46723827 -1.09765625 8.97265625 C-1.10281754 8.19036148 -1.10797882 7.40806671 -1.11329651 6.60206604 C-1.11349226 4.73432886 -1.06199694 2.86670796 -1 1 C-0.67 0.67 -0.34 0.34 0 0 Z " fill="#FFFFFF" transform="translate(350,56)"/>
<path d="M0 0 C3.5625 1.5 3.5625 1.5 6 3 C6.33 2.01 6.66 1.02 7 0 C8.99954746 -0.04254356 11.00041636 -0.04080783 13 0 C14 1 14 1 14.12025452 2.98048401 C14.11803391 3.84874313 14.11581329 4.71700226 14.11352539 5.61157227 C14.11344986 6.59251358 14.11337433 7.5734549 14.11329651 8.5841217 C14.10813522 9.6507756 14.10297394 10.7174295 14.09765625 11.81640625 C14.0962413 12.9025975 14.09482635 13.98878876 14.09336853 15.1078949 C14.08775048 18.59279075 14.07519492 22.07762342 14.0625 25.5625 C14.05748733 27.91861887 14.05292402 30.27473874 14.04882812 32.63085938 C14.03777519 38.42059464 14.02101951 44.21029281 14 50 C11.36 50 8.72 50 6 50 C6 44.72 6 39.44 6 34 C4.35 34.99 2.7 35.98 1 37 C-3.77552625 37.85222414 -8.49760864 37.62619568 -12.875 35.4375 C-17.26653756 32.0121007 -20.28915338 27.68677299 -21 22 C-21.54547353 14.9088441 -20.15120644 9.53732041 -15.5625 4.125 C-10.53312209 -0.04570363 -6.417923 -0.7648302 0 0 Z M-11 12 C-12.72194097 15.44388193 -12.37796284 19.22688824 -12 23 C-10.2880813 26.76398568 -10.2880813 26.76398568 -7 29 C-4.06689981 29.28384841 -1.84812414 29.49630678 1 29 C3.82489416 26.53727176 4.79034329 24.68887206 5.875 21.125 C6.05455991 16.63600237 5.13548058 12.95554988 2.875 9.0625 C-2.45572212 6.04175746 -7.53284273 7.28466612 -11 12 Z " fill="#FFFFFF" transform="translate(140,56)"/>
<path d="M0 0 C4.36875256 2.24038593 6.05371651 4.84139783 7.765625 9.3125 C8.10966047 12.61623667 8.05053189 15.87067061 7.953125 19.1875 C7.93282227 20.50621094 7.93282227 20.50621094 7.91210938 21.8515625 C7.87699123 24.00547552 7.82319194 26.15907004 7.765625 28.3125 C9.085625 28.3125 10.405625 28.3125 11.765625 28.3125 C11.765625 30.9525 11.765625 33.5925 11.765625 36.3125 C10.34859987 36.17019192 8.9320154 36.02349254 7.515625 35.875 C6.72671875 35.79378906 5.9378125 35.71257812 5.125 35.62890625 C2.765625 35.3125 2.765625 35.3125 0.71875 34.65234375 C-1.87870735 34.20038617 -2.91622003 35.12348325 -5.234375 36.3125 C-10.49229123 36.94227827 -16.24933027 37.47827147 -20.859375 34.5 C-24.16203744 31.45807407 -25.17114203 29.96590737 -25.609375 25.4375 C-25.51047578 22.44305129 -25.19246091 21.23391108 -23.734375 18.5 C-16.99206433 12.60047816 -9.75283211 12.92916943 -1.234375 13.3125 C-1.58224208 11.33713255 -1.58224208 11.33713255 -2.234375 9.3125 C-4.47949762 8.18993869 -5.74894149 8.17836238 -8.234375 8.1875 C-8.935625 8.18492188 -9.636875 8.18234375 -10.359375 8.1796875 C-12.32591275 8.19872764 -12.32591275 8.19872764 -14.234375 9.3125 C-15.36788034 11.32919827 -15.36788034 11.32919827 -16.234375 13.3125 C-18.874375 13.3125 -21.514375 13.3125 -24.234375 13.3125 C-23.98423631 9.0601422 -23.66550902 6.83685219 -20.921875 3.5 C-14.79172561 -1.48965648 -7.63164462 -2.34819835 0 0 Z M-16.234375 22.3125 C-16.564375 23.3025 -16.894375 24.2925 -17.234375 25.3125 C-15.63336476 28.46666771 -15.63336476 28.46666771 -13.24609375 28.74609375 C-9.16591882 28.75295119 -6.78693753 28.62825002 -3.171875 26.5625 C-0.79935958 24.3021947 -0.79935958 24.3021947 -1.234375 20.3125 C-9.03335389 19.8145216 -9.03335389 19.8145216 -16.234375 22.3125 Z " fill="#FFFFFF" transform="translate(220.234375,56.6875)"/>
<path d="M0 0 C1.010625 0.0825 2.02125 0.165 3.0625 0.25 C3.7225 1.24 4.3825 2.23 5.0625 3.25 C5.62195313 2.76402344 6.18140625 2.27804688 6.7578125 1.77734375 C10.63091979 -0.78941041 14.57670994 -0.38779006 19.0625 0.25 C23.54285444 2.44944673 25.92562614 4.75131818 28.0625 9.25 C29.04996065 12.42495436 29.19131647 15.31972968 29.1953125 18.63671875 C29.19724609 20.1671582 29.19724609 20.1671582 29.19921875 21.72851562 C29.19535156 22.78748047 29.19148438 23.84644531 29.1875 24.9375 C29.19330078 26.54334961 29.19330078 26.54334961 29.19921875 28.18164062 C29.19792969 29.19806641 29.19664062 30.21449219 29.1953125 31.26171875 C29.19418457 32.19459717 29.19305664 33.12747559 29.19189453 34.08862305 C29.0625 36.25 29.0625 36.25 28.0625 37.25 C25.39191149 37.39115161 22.73817762 37.29247107 20.0625 37.25 C20.04791748 36.54391602 20.03333496 35.83783203 20.01831055 35.11035156 C19.94376833 31.90635326 19.84712795 28.70338984 19.75 25.5 C19.72744141 24.38882813 19.70488281 23.27765625 19.68164062 22.1328125 C19.6284668 20.52792969 19.6284668 20.52792969 19.57421875 18.890625 C19.54803467 17.90610352 19.52185059 16.92158203 19.49487305 15.90722656 C18.99645007 12.84407823 18.25694294 11.42887951 16.0625 9.25 C11.46923617 8.62652228 11.46923617 8.62652228 7.37353516 10.43310547 C5.57528242 12.92520917 5.64753309 14.70156932 5.5859375 17.7578125 C5.53953125 19.36076172 5.53953125 19.36076172 5.4921875 20.99609375 C5.47414062 22.11113281 5.45609375 23.22617188 5.4375 24.375 C5.38673006 26.58603093 5.33225043 28.79698089 5.2734375 31.0078125 C5.25587402 31.9889502 5.23831055 32.97008789 5.22021484 33.98095703 C5.0625 36.25 5.0625 36.25 4.0625 37.25 C1.39191149 37.39115161 -1.26182238 37.29247107 -3.9375 37.25 C-3.9621501 32.14136104 -3.98033607 27.03275641 -3.99243164 21.92407227 C-3.99747204 20.18480832 -4.0043043 18.44554864 -4.01293945 16.70629883 C-4.02501792 14.21174063 -4.03073108 11.71723827 -4.03515625 9.22265625 C-4.04031754 8.44036148 -4.04547882 7.65806671 -4.05079651 6.85206604 C-4.05099226 4.98432886 -3.99949694 3.11670796 -3.9375 1.25 C-2.9375 0.25 -2.9375 0.25 0 0 Z " fill="#FFFFFF" transform="translate(239.9375,55.75)"/>
<path d="M0 0 C3.5 0.125 3.5 0.125 4.5 1.125 C4.62126232 2.86960067 4.67963684 4.61865774 4.7109375 6.3671875 C4.73929688 7.43324219 4.76765625 8.49929687 4.796875 9.59765625 C4.84877521 11.85791061 4.8931005 14.11835216 4.9296875 16.37890625 C4.960625 17.44753906 4.9915625 18.51617187 5.0234375 19.6171875 C5.04325684 20.60058105 5.06307617 21.58397461 5.08349609 22.59716797 C5.31129741 25.14746436 5.31129741 25.14746436 6.81103516 26.94580078 C9.6470327 28.92583376 12.16892056 28.48190137 15.5 28.125 C17.29348587 27.01186485 17.29348587 27.01186485 18.5 25.125 C19.00479657 22.5181977 19.00479657 22.5181977 19.01171875 19.58203125 C19.04716797 18.50888672 19.08261719 17.43574219 19.11914062 16.33007812 C19.14169922 15.21052734 19.16425781 14.09097656 19.1875 12.9375 C19.22166016 11.80634766 19.25582031 10.67519531 19.29101562 9.50976562 C19.37356314 6.7149426 19.44269182 3.92043602 19.5 1.125 C22.23247348 -0.24123674 24.48198902 -0.003426 27.5 0.125 C28.5 1.125 28.5 1.125 28.61352539 4.54321289 C28.61336628 6.06136988 28.60767226 7.57953229 28.59765625 9.09765625 C28.5962413 9.89529892 28.59482635 10.69294159 28.59336853 11.51475525 C28.58775316 14.07237435 28.57519812 16.62990718 28.5625 19.1875 C28.55748698 20.91731645 28.55292373 22.64713426 28.54882812 24.37695312 C28.53777875 28.62633553 28.52050386 32.87565312 28.5 37.125 C26.19 37.125 23.88 37.125 21.5 37.125 C21.17 36.135 20.84 35.145 20.5 34.125 C19.88125 34.62 19.2625 35.115 18.625 35.625 C14.20727188 37.7455095 10.32033427 37.82024052 5.5 37.125 C1.01964556 34.92555327 -1.36312614 32.62368182 -3.5 28.125 C-4.48746065 24.95004564 -4.62881647 22.05527032 -4.6328125 18.73828125 C-4.63410156 17.71798828 -4.63539063 16.69769531 -4.63671875 15.64648438 C-4.63091797 14.05803711 -4.63091797 14.05803711 -4.625 12.4375 C-4.62886719 11.36693359 -4.63273438 10.29636719 -4.63671875 9.19335938 C-4.63542969 8.17693359 -4.63414062 7.16050781 -4.6328125 6.11328125 C-4.63168457 5.18040283 -4.63055664 4.24752441 -4.62939453 3.28637695 C-4.41171421 -0.34970583 -3.78602181 0.13521506 0 0 Z " fill="#FFFFFF" transform="translate(162.5,55.875)"/>
<path d="M0 0 C3 0.125 3 0.125 4 1.125 C4.12095628 2.700053 4.17958006 4.27999567 4.2109375 5.859375 C4.23929687 6.82617188 4.26765625 7.79296875 4.296875 8.7890625 C4.34855835 10.83055497 4.39294531 12.87224647 4.4296875 14.9140625 C4.4961713 22.0912623 4.4961713 22.0912623 8 28.125 C9.92144295 28.90699939 9.92144295 28.90699939 12 28.75 C12.680625 28.76289062 13.36125 28.77578125 14.0625 28.7890625 C16.1629432 28.23911545 16.1629432 28.23911545 17.7109375 26.2890625 C19.63988169 21.5543813 19.53380384 16.9429009 19.625 11.875 C19.67576738 9.86968859 19.73024648 7.86446648 19.7890625 5.859375 C19.81540771 4.53244629 19.81540771 4.53244629 19.84228516 3.17871094 C20 1.125 20 1.125 21 0.125 C24 0 24 0 27 0.125 C28 1.125 28 1.125 28.11352539 4.54321289 C28.11336628 6.06136988 28.10767226 7.57953229 28.09765625 9.09765625 C28.0962413 9.89529892 28.09482635 10.69294159 28.09336853 11.51475525 C28.08775316 14.07237435 28.07519812 16.62990718 28.0625 19.1875 C28.05748698 20.91731645 28.05292373 22.64713426 28.04882812 24.37695312 C28.03777875 28.62633553 28.02050386 32.87565312 28 37.125 C24.625 37.25 24.625 37.25 21 37.125 C20.34 36.465 19.68 35.805 19 35.125 C18.44054687 35.44726562 17.88109375 35.76953125 17.3046875 36.1015625 C13.30347084 37.87837397 9.28964102 37.66713473 5 37.125 C-0.05819202 34.73385468 -2.0872165 32.32314074 -4 27.125 C-4.38771927 22.68134161 -4.32755303 18.26937554 -4.25 13.8125 C-4.24484375 12.60787109 -4.2396875 11.40324219 -4.234375 10.16210938 C-4.14422783 0.17267616 -4.14422783 0.17267616 0 0 Z " fill="#FFFFFF" transform="translate(315,55.875)"/>
<path d="M0 0 C2.97 0 5.94 0 9 0 C9 3.3 9 6.6 9 10 C10.134375 9.814375 11.26875 9.62875 12.4375 9.4375 C14.2009375 9.2209375 14.2009375 9.2209375 16 9 C17 10 17 10 17.0625 13.5625 C17.041875 14.696875 17.02125 15.83125 17 17 C14.36 17 11.72 17 9 17 C9.33 23.6 9.66 30.2 10 37 C13.465 37.495 13.465 37.495 17 38 C17 40.64 17 43.28 17 46 C11.04069781 46.31364748 7.29326883 45.80867326 2 43 C0.69524382 40.39048764 0.88698428 38.47298715 0.90234375 35.5546875 C0.90717773 33.94013672 0.90717773 33.94013672 0.91210938 32.29296875 C0.92048828 31.16503906 0.92886719 30.03710938 0.9375 28.875 C0.94201172 27.73933594 0.94652344 26.60367188 0.95117188 25.43359375 C0.96298385 22.62234362 0.97945493 19.8111977 1 17 C-1.31 17 -3.62 17 -6 17 C-6 14.69 -6 12.38 -6 10 C-1.125 9 -1.125 9 0 9 C0 6.03 0 3.06 0 0 Z " fill="#FFFFFF" transform="translate(276,47)"/>
<path d="M0 0 C3 0.125 3 0.125 4 1.125 C4.08855161 3.7912603 4.11524673 6.43147114 4.09765625 9.09765625 C4.0962413 9.89529892 4.09482635 10.69294159 4.09336853 11.51475525 C4.08775316 14.07237435 4.07519812 16.62990718 4.0625 19.1875 C4.05748698 20.91731645 4.05292373 22.64713426 4.04882812 24.37695312 C4.03777875 28.62633553 4.02050386 32.87565312 4 37.125 C1.36 37.125 -1.28 37.125 -4 37.125 C-4.0246501 32.01636104 -4.04283607 26.90775641 -4.05493164 21.79907227 C-4.05997204 20.05980832 -4.0668043 18.32054864 -4.07543945 16.58129883 C-4.08751792 14.08674063 -4.09323108 11.59223827 -4.09765625 9.09765625 C-4.10281754 8.31536148 -4.10797882 7.53306671 -4.11329651 6.72706604 C-4.11349226 4.85932886 -4.06199694 2.99170796 -4 1.125 C-3 0.125 -3 0.125 0 0 Z " fill="#FFFFFF" transform="translate(302,55.875)"/>
<path d="M0 0 C2.20855704 2.13239991 2.90834435 3.47625341 3.4375 6.5 C2.84278924 9.89834723 1.79734842 11.01241034 -1 13 C-4 13.5625 -4 13.5625 -7 13 C-9.4375 10.875 -9.4375 10.875 -11 8 C-11.0625 4.875 -11.0625 4.875 -10 2 C-6.59299918 -0.93380626 -4.22462067 -1.66761342 0 0 Z " fill="#FFFFFF" transform="translate(99,113)"/>
<path d="M0 0 C1.32278481 5.41139241 1.32278481 5.41139241 -0.0625 7.9375 C-2.93630072 9.51345523 -4.91412709 8.80501033 -8 8 C-9 7 -9 7 -9.25 4.625 C-9 2 -9 2 -7.875 0.125 C-5.07848948 -1.55290631 -3.06309468 -0.74875648 0 0 Z " fill="#FFFFFF" transform="translate(306,44)"/>
</svg>
