<?xml version="1.0" encoding="UTF-8"?>
<svg version="1.1" xmlns="http://www.w3.org/2000/svg" width="400" height="150">
<path d="M0 0 C5.148022 4.4688227 9.62238585 9.13189319 13.29296875 14.88671875 C13.67066406 15.47582031 14.04835938 16.06492187 14.4375 16.671875 C21.3006844 28.77884075 20.98317437 41.95626722 17.6953125 55.01171875 C17.1880651 57.05597641 17.1880651 57.05597641 17.29296875 59.88671875 C18.93785169 61.57488808 20.60634417 63.2402519 22.29296875 64.88671875 C24.10471625 67.83464689 24.54452311 70.00775271 24.48046875 73.44921875 C24.47402344 74.21363281 24.46757813 74.97804688 24.4609375 75.765625 C24.29296875 77.88671875 24.29296875 77.88671875 23.29296875 80.88671875 C22.63296875 80.88671875 21.97296875 80.88671875 21.29296875 80.88671875 C21.01453125 81.96953125 21.01453125 81.96953125 20.73046875 83.07421875 C18.78849947 86.87372387 15.99206156 88.83651401 12.29296875 90.88671875 C11.63296875 90.88671875 10.97296875 90.88671875 10.29296875 90.88671875 C10.29296875 91.54671875 10.29296875 92.20671875 10.29296875 92.88671875 C7.91796875 92.69921875 7.91796875 92.69921875 5.29296875 91.88671875 C3.98046875 89.32421875 3.98046875 89.32421875 3.29296875 86.88671875 C-1.06382866 86.72535588 -4.89420333 86.84000902 -9.14453125 87.82421875 C-25.4786485 91.3172069 -42.31396587 91.14783049 -56.70703125 81.88671875 C-66.25845165 74.42967406 -76.37924831 64.63338879 -78.27392578 52.15234375 C-78.44119274 48.72819204 -78.50642656 45.35889525 -78.43432617 41.93432617 C-78.39448951 39.82200552 -78.41373059 37.71594782 -78.43945312 35.60351562 C-78.43541518 27.26510127 -77.36025449 20.90050934 -72.70703125 13.88671875 C-71.75570312 12.44232422 -71.75570312 12.44232422 -70.78515625 10.96875 C-62.35910418 0.50820246 -51.87965951 -7.60759792 -38.33984375 -9.8359375 C-23.76731899 -11.37102542 -11.70454356 -9.13731322 0 0 Z M-48.58203125 23.82421875 C-53.6704479 29.77648288 -54.09480601 35.0886741 -53.95703125 42.7265625 C-53.4447062 49.20267131 -50.65032089 54.57171293 -45.70703125 58.88671875 C-39.02213605 63.48031762 -32.74679015 65.12269925 -24.70703125 63.88671875 C-17.51635884 62.04031004 -12.76143803 58.03407606 -8.70703125 51.88671875 C-5.09484002 45.19793706 -4.96319424 38.20304053 -6.70703125 30.88671875 C-9.59546305 24.48193519 -13.76372424 20.47513053 -19.70703125 16.88671875 C-30.67850788 13.22955987 -40.90779144 15.52222926 -48.58203125 23.82421875 Z " fill="#3EB4C6" transform="translate(77.70703125,35.11328125)"/>
<path d="M0 0 C0 13.53 0 27.06 0 41 C1.98 38.69 3.96 36.38 6 34 C6.66 34 7.32 34 8 34 C8.226875 33.443125 8.45375 32.88625 8.6875 32.3125 C10.97604059 28.28030943 14.17587898 25.54941401 18 23 C24.06593428 22.28636067 27.90330498 24.03465017 33 27 C33 31 33 31 30.9375 33.3125 C29.968125 34.199375 28.99875 35.08625 28 36 C23.1006647 40.64867163 18.90840544 45.48814617 15 51 C15.556875 51.66644531 16.11375 52.33289063 16.6875 53.01953125 C31.17059378 70.51178134 31.17059378 70.51178134 33 76 C33.66 76 34.32 76 35 76 C35 77.65 35 79.3 35 81 C29.25678905 83.61055043 24.16266876 85.20246581 18 83 C12.81138566 79.31298193 9.33454084 74.81216198 5.625 69.6875 C5.07972656 68.94693359 4.53445313 68.20636719 3.97265625 67.44335938 C2.64167626 65.63369361 1.31773601 63.81931966 0 62 C-0.02505615 62.60062256 -0.0501123 63.20124512 -0.07592773 63.82006836 C-0.1915528 66.52611437 -0.31442936 69.23178283 -0.4375 71.9375 C-0.47681641 72.88302734 -0.51613281 73.82855469 -0.55664062 74.80273438 C-0.59853516 75.70185547 -0.64042969 76.60097656 -0.68359375 77.52734375 C-0.72025146 78.35999756 -0.75690918 79.19265137 -0.79467773 80.05053711 C-1 82 -1 82 -2 83 C-4.65653443 83.10002455 -7.28129272 83.13877463 -9.9375 83.125 C-11.0502832 83.13080078 -11.0502832 83.13080078 -12.18554688 83.13671875 C-17.74672998 83.12663501 -17.74672998 83.12663501 -20 82 C-20 54.61 -20 27.22 -20 -1 C-4 -2 -4 -2 0 0 Z " fill="#FEFEFE" transform="translate(265,23)"/>
<path d="M0 0 C3.31217963 1.34940652 5.4792773 2.4792773 8 5 C8.24556371 7.72000357 8.37356486 10.34574257 8.4140625 13.0703125 C8.43342865 13.86654022 8.4527948 14.66276794 8.4727478 15.48312378 C8.53260474 18.03030634 8.57895279 20.57753395 8.625 23.125 C8.66317421 24.8502803 8.70222561 26.57554143 8.7421875 28.30078125 C8.83831109 32.53369876 8.92231908 36.76670549 9 41 C10.90458984 41.00966797 10.90458984 41.00966797 12.84765625 41.01953125 C13.91898804 41.02496948 13.91898804 41.02496948 15.01196289 41.03051758 C17.19367612 40.99702695 18.98958851 40.88458105 21 40 C22.21893921 36.34318236 22.19261991 32.93156249 22.24609375 29.12109375 C22.27901369 27.54491593 22.31222563 25.9687442 22.34570312 24.39257812 C22.39323569 21.90832446 22.43771089 19.42409864 22.47680664 16.93969727 C22.51640775 14.54157747 22.56795858 12.1439464 22.62109375 9.74609375 C22.6295079 9.00024521 22.63792206 8.25439667 22.64659119 7.48594666 C22.77327367 2.22672633 22.77327367 2.22672633 25 0 C29.81230798 -0.64290166 34.7538129 -0.49775712 39 2 C41.82172227 5.07026845 42.37296581 7.07942338 42.35644531 11.21166992 C42.35944641 12.24921921 42.36244751 13.28676849 42.36553955 14.35575867 C42.35319275 15.46941299 42.34084595 16.58306732 42.328125 17.73046875 C42.32625183 18.87663162 42.32437866 20.02279449 42.32244873 21.20368958 C42.31573001 23.62369704 42.30181916 26.04369367 42.28125 28.46362305 C42.25003329 32.18353269 42.24027317 35.90301911 42.234375 39.62304688 C42.22520773 41.97135938 42.21483284 44.31966754 42.203125 46.66796875 C42.19887512 47.78769577 42.19462524 48.90742279 42.19024658 50.06108093 C42.18063904 51.08917374 42.17103149 52.11726654 42.16113281 53.17651367 C42.15430481 54.08600266 42.14747681 54.99549164 42.14044189 55.93254089 C42 58 42 58 41 59 C30.58362456 59.97453819 30.58362456 59.97453819 25.75 57 C25.1725 56.34 24.595 55.68 24 55 C23.01773438 55.64582031 22.03546875 56.29164062 21.0234375 56.95703125 C16.87804747 59.31317174 13.33781237 59.73203552 8.625 59.6875 C7.50726196 59.68314941 7.50726196 59.68314941 6.36694336 59.67871094 C0.53580113 59.44717 -3.07019415 57.91810007 -7.43359375 53.921875 C-10.29538428 50.41065071 -11.25705875 47.76258536 -11.13525391 43.23144531 C-11.11508209 42.29077209 -11.09491028 41.35009888 -11.0741272 40.38092041 C-11.04193085 39.37349792 -11.0097345 38.36607544 -10.9765625 37.328125 C-10.95153656 36.29057068 -10.92651062 35.25301636 -10.90072632 34.184021 C-10.81859984 30.87234474 -10.72198083 27.56127132 -10.625 24.25 C-10.566753 22.00393082 -10.50944988 19.75783695 -10.453125 17.51171875 C-10.31303198 12.00747918 -10.16104043 6.50366437 -10 1 C-6.80479461 -0.59760269 -3.4763943 -0.37477857 0 0 Z " fill="#FEFEFE" transform="translate(115,47)"/>
<path d="M0 0 C2.45774718 2.88149669 2.958969 4.31680603 2.8125 8.125 C1.40192666 10.98748215 -0.3022642 13.55481694 -2.1875 16.125 C-3.13625 15.485625 -4.085 14.84625 -5.0625 14.1875 C-10.37629404 11.15258918 -16.27777476 10.33694942 -22.1875 11.9375 C-24.31872072 13.09155158 -24.31872072 13.09155158 -26.1875 15.125 C-27.68798418 21.90979804 -28.42426473 31.13377294 -24.9375 37.35546875 C-22.16964603 40.15421395 -19.54655555 39.98974854 -15.7578125 40.23828125 C-11.95312947 40.07059765 -9.55555814 38.87639023 -6.1875 37.125 C-4.86473944 36.75191369 -3.53517923 36.39453585 -2.1875 36.125 C0.12603637 39.16151648 1.69173287 41.38530136 2.3125 45.1875 C1.66085824 49.01589534 0.6675878 50.48404378 -2.1875 53.125 C-10.04762424 57.50853083 -19.9621102 57.11872419 -28.68359375 55.7265625 C-36.94915238 53.16540349 -43.22466263 46.11532031 -47.16870117 38.68945312 C-48.996682 34.08818051 -49.05555083 29.5892565 -49 24.6875 C-48.99661621 23.67357178 -48.99323242 22.65964355 -48.98974609 21.61499023 C-48.73432657 14.12490348 -47.50950519 9.89023459 -42.1328125 4.50390625 C-40.1875 3.125 -40.1875 3.125 -38.1875 3.125 C-38.1875 2.465 -38.1875 1.805 -38.1875 1.125 C-36.27338443 0.14085567 -34.3561033 -0.83713349 -32.4375 -1.8125 C-31.37015625 -2.35777344 -30.3028125 -2.90304688 -29.203125 -3.46484375 C-19.17181393 -8.15565113 -9.2799747 -5.45880864 0 0 Z " fill="#FEFEFE" transform="translate(239.1875,50.875)"/>
<path d="M0 0 C2.60527105 -0.10792837 5.20608311 -0.18724878 7.8125 -0.25 C8.55048828 -0.28351562 9.28847656 -0.31703125 10.04882812 -0.3515625 C15.41560655 -0.44869876 15.41560655 -0.44869876 17.99043274 1.52825928 C19.39040626 4.9558383 19.39410409 8.15675375 19.34057617 11.79785156 C19.34123329 12.96915619 19.34123329 12.96915619 19.34190369 14.16412354 C19.33981708 16.73988018 19.3164925 19.31498235 19.29296875 21.890625 C19.28737233 23.67852421 19.28310245 25.46642803 19.28010559 27.2543335 C19.26866043 31.95622496 19.23919607 36.65783768 19.20599365 41.35961914 C19.1752857 46.15897857 19.1615987 50.95838311 19.14648438 55.7578125 C19.11432606 65.17199736 19.06313365 74.58597548 19 84 C17.58207046 84.1998627 16.1624288 84.38759976 14.7421875 84.5703125 C13.55665283 84.72910889 13.55665283 84.72910889 12.34716797 84.89111328 C8.44173337 85.07228905 6.35151841 84.01091105 3 82 C-0.17224797 77.94485801 -0.41695976 74.33568644 -0.34057617 69.36401367 C-0.34101425 68.61225861 -0.34145233 67.86050354 -0.34190369 67.08596802 C-0.33982165 64.61303298 -0.31651895 62.14078465 -0.29296875 59.66796875 C-0.2873707 57.94875967 -0.28310159 56.22954579 -0.28010559 54.5103302 C-0.26867326 49.9942189 -0.23922005 45.47839888 -0.20599365 40.96240234 C-0.17525794 36.35062602 -0.16159278 31.73880244 -0.14648438 27.12695312 C-0.11434873 18.08450772 -0.06317194 9.04227812 0 0 Z " fill="#FEFEFE" transform="translate(302,22)"/>
<path d="M0 0 C2.7752793 1.7141431 3.66103351 3.41109684 5.125 6.3125 C5.48576355 8.88789368 5.48576355 8.88789368 5.46557617 11.65356445 C5.46534958 12.6942659 5.46512299 13.73496735 5.46488953 14.8072052 C5.44940567 15.9188353 5.43392181 17.03046539 5.41796875 18.17578125 C5.41372391 19.32290085 5.40947906 20.47002045 5.40510559 21.65190125 C5.38833484 25.30984121 5.35068435 28.967227 5.3125 32.625 C5.29745114 35.10741391 5.28376309 37.58983647 5.27148438 40.07226562 C5.23843649 46.15253231 5.1882524 52.23247656 5.125 58.3125 C3.70713465 58.51405373 2.28747383 58.70299941 0.8671875 58.88671875 C-0.31834717 59.04660278 -0.31834717 59.04660278 -1.52783203 59.2097168 C-5.38822585 59.37876462 -7.54154431 58.2459043 -10.875 56.3125 C-13.73577256 53.25941689 -14.24572265 51.2250772 -14.21557617 47.08496094 C-14.21534958 46.04418396 -14.21512299 45.00340698 -14.21488953 43.93109131 C-14.19940567 42.81429993 -14.18392181 41.69750854 -14.16796875 40.546875 C-14.16372391 39.39834045 -14.15947906 38.24980591 -14.15510559 37.06646729 C-14.13831333 33.3982397 -14.10065898 29.73056153 -14.0625 26.0625 C-14.04745392 23.57552877 -14.03376539 21.08854892 -14.02148438 18.6015625 C-13.98840796 12.50502088 -13.93820256 6.40879969 -13.875 0.3125 C-9.7217386 -1.7641307 -4.40204396 -1.05266269 0 0 Z " fill="#FEFEFE" transform="translate(343.875,47.6875)"/>
<path d="M0 0 C0.639375 0.33 1.27875 0.66 1.9375 1 C1.9375 1.66 1.9375 2.32 1.9375 3 C2.5975 3 3.2575 3 3.9375 3 C4.93872171 6.00366514 5.05862011 7.97739593 5.05102539 11.11401367 C5.05094986 12.15486618 5.05087433 13.19571869 5.05079651 14.26811218 C5.04563522 15.39006485 5.04047394 16.51201752 5.03515625 17.66796875 C5.0337413 18.81791824 5.03232635 19.96786774 5.03086853 21.15266418 C5.02526429 24.83096908 5.01271104 28.50921345 5 32.1875 C4.99498555 34.67903558 4.99042255 37.17057211 4.98632812 39.66210938 C4.97529347 45.77476029 4.95855118 51.88737582 4.9375 58 C3.51963465 58.20155373 2.09997383 58.39049941 0.6796875 58.57421875 C-0.50584717 58.73410278 -0.50584717 58.73410278 -1.71533203 58.8972168 C-5.57572585 59.06626462 -7.72904431 57.9334043 -11.0625 56 C-13.92327256 52.94691689 -14.43322265 50.9125772 -14.40307617 46.77246094 C-14.40284958 45.73168396 -14.40262299 44.69090698 -14.40238953 43.61859131 C-14.38690567 42.50179993 -14.37142181 41.38500854 -14.35546875 40.234375 C-14.35122391 39.08584045 -14.34697906 37.93730591 -14.34260559 36.75396729 C-14.32581333 33.0857397 -14.28815898 29.41806153 -14.25 25.75 C-14.23495392 23.26302877 -14.22126539 20.77604892 -14.20898438 18.2890625 C-14.17590796 12.19252088 -14.12570256 6.09629969 -14.0625 0 C-9.81147771 -2.12551114 -4.38932977 -1.43325054 0 0 Z " fill="#FEFEFE" transform="translate(180.0625,48)"/>
<path d="M0 0 C0.83272934 0.00222061 1.66545868 0.00444122 2.52342224 0.00672913 C3.46432205 0.00680466 4.40522186 0.00688019 5.37463379 0.00695801 C6.39754013 0.01211929 7.42044647 0.01728058 8.47434998 0.02259827 C9.51614914 0.02401321 10.5579483 0.02542816 11.63131714 0.02688599 C14.97355467 0.03250372 18.31572629 0.04505922 21.65794373 0.05775452 C23.91770839 0.06276723 26.17747409 0.06733053 28.4372406 0.07142639 C33.99000054 0.08247891 39.54271094 0.09975542 45.09544373 0.12025452 C45.09544373 4.41025452 45.09544373 8.70025452 45.09544373 13.12025452 C29.25544373 13.12025452 13.41544373 13.12025452 -2.90455627 13.12025452 C-2.90455627 0.18339495 -2.90455627 0.18339495 0 0 Z " fill="#FEFEFE" transform="translate(354.90455627441406,109.87974548339844)"/>
<path d="M0 0 C2.796875 0.4765625 2.796875 0.4765625 5.546875 2.4765625 C7.15561703 6.33754337 7.7169422 9.36527125 6.796875 13.4765625 C4.921875 16.4765625 4.921875 16.4765625 1.796875 18.4765625 C-2.31622093 19.35986671 -6.29238258 19.68245327 -9.9609375 17.3671875 C-12.44426464 14.72776551 -13.20769163 12.4476405 -13.765625 8.9140625 C-12.36360037 0.34613421 -7.90976419 -0.36655005 0 0 Z " fill="#06A0BA" transform="translate(178.203125,21.5234375)"/>
<path d="M0 0 C2.796875 0.48046875 2.796875 0.48046875 5.546875 2.54296875 C7.13070074 6.26495925 7.43032365 8.46862733 6.796875 12.48046875 C4.43576389 16.80917245 4.43576389 16.80917245 1.796875 18.48046875 C-1.72060779 19.33965717 -4.68564221 19.33965717 -8.203125 18.48046875 C-10.96840417 16.72912527 -11.55215831 15.50724101 -13.203125 12.48046875 C-13.83657365 8.46862733 -13.53695074 6.26495925 -11.953125 2.54296875 C-8.04658863 -0.38693353 -4.78593429 -0.21595069 0 0 Z " fill="#04A0B9" transform="translate(342.203125,21.51953125)"/>
<path d="M0 0 C0 0.99 0 1.98 0 3 C0.31088368 4.67099977 0.64080332 6.33871537 1 8 C3.43847451 7.88602456 5.87513174 7.75929026 8.3125 7.625 C9.00279297 7.5940625 9.69308594 7.563125 10.40429688 7.53125 C14.06990789 7.31875081 15.87900792 7.08066139 19 5 C19.72382467 2.94074861 19.72382467 2.94074861 20 1 C20.33 1 20.66 1 21 1 C20.97679687 1.75925781 20.95359375 2.51851563 20.9296875 3.30078125 C20.91164062 4.29464844 20.89359375 5.28851563 20.875 6.3125 C20.85179687 7.29863281 20.82859375 8.28476563 20.8046875 9.30078125 C20.79317361 12.22406527 20.79317361 12.22406527 23 15 C22.35933594 14.855625 21.71867187 14.71125 21.05859375 14.5625 C15.97593397 13.47173546 11.22824195 12.57320474 6 13 C5.01 13.66 4.02 14.32 3 15 C0.6953125 15.16015625 0.6953125 15.16015625 -1.875 15.0625 C-5.41419154 14.98488615 -8.55228469 15.08060925 -12 16 C-10.68954637 12.06863911 -9.16791954 9.68793173 -6 7 C-5.01 6.67 -4.02 6.34 -3 6 C-1.84478498 3.52869082 -1.84478498 3.52869082 -1 1 C-0.67 0.67 -0.34 0.34 0 0 Z " fill="#05769A" transform="translate(73,82)"/>
<path d="M0 0 C0.66 0.33 1.32 0.66 2 1 C1.70738281 1.55429687 1.41476562 2.10859375 1.11328125 2.6796875 C-0.44904177 5.93589759 -1.54598694 9.34059039 -2.70703125 12.7578125 C-4.37858117 15.65651236 -5.88774835 15.97227827 -9 17 C-11.27191416 19.02040748 -11.27191416 19.02040748 -13 21 C-11.71246714 16.67847882 -10.06735543 13.16118418 -7.625 9.375 C-7.03976563 8.45460938 -6.45453125 7.53421875 -5.8515625 6.5859375 C-4.08131875 4.11357176 -2.21328394 2.07678184 0 0 Z " fill="#71CBD7" transform="translate(14,38)"/>
<path d="M0 0 C3.09966585 2.89968741 4.86194461 4.75863018 5.1328125 9.15625 C5.13023438 9.9296875 5.12765625 10.703125 5.125 11.5 C5.12757812 12.2734375 5.13015625 13.046875 5.1328125 13.84375 C5 16 5 16 4 19 C3.34 19 2.68 19 2 19 C1.7525 19.78375 1.505 20.5675 1.25 21.375 C-0.18650005 24.3916501 -1.04720831 24.71565565 -4 26 C-3.60246179 24.53633658 -3.18118616 23.0791065 -2.75 21.625 C-2.40195313 20.40683594 -2.40195313 20.40683594 -2.046875 19.1640625 C-0.7785108 16.54214546 0.32423308 16.00617682 3 15 C2.88541307 13.56163249 2.75790884 12.12429034 2.625 10.6875 C2.55539063 9.88699219 2.48578125 9.08648437 2.4140625 8.26171875 C2.10435574 5.72775559 2.10435574 5.72775559 0 3 C0 2.01 0 1.02 0 0 Z " fill="#0F9DAD" transform="translate(97,97)"/>
<path d="M0 0 C0.33 0.66 0.66 1.32 1 2 C2.65 2 4.3 2 6 2 C6.33 2.99 6.66 3.98 7 5 C5.60587891 5.07347656 5.60587891 5.07347656 4.18359375 5.1484375 C-5.07660933 5.69677146 -5.07660933 5.69677146 -14 8 C-13.690625 7.401875 -13.38125 6.80375 -13.0625 6.1875 C-11.89790296 3.91043228 -11.89790296 3.91043228 -11 1 C-9.68 1 -8.36 1 -7 1 C-7 1.66 -7 2.32 -7 3 C-3.20452079 2.03223902 -3.20452079 2.03223902 0 0 Z " fill="#74C5CF" transform="translate(48,46)"/>
<path d="M0 0 C0.33 0 0.66 0 1 0 C0.97679688 0.75925781 0.95359375 1.51851563 0.9296875 2.30078125 C0.91164063 3.29464844 0.89359375 4.28851563 0.875 5.3125 C0.85179688 6.29863281 0.82859375 7.28476563 0.8046875 8.30078125 C0.79317361 11.22406527 0.79317361 11.22406527 3 14 C2.35933594 13.855625 1.71867187 13.71125 1.05859375 13.5625 C-4.02406603 12.47173546 -8.77175805 11.57320474 -14 12 C-14.99 12.66 -15.98 13.32 -17 14 C-19.1875 13.625 -19.1875 13.625 -21 13 C-17.16139106 10.44092738 -14.57402646 9.8614315 -10.0625 9.875 C-8.78052734 9.87113281 -8.78052734 9.87113281 -7.47265625 9.8671875 C-5.17319148 9.99069746 -3.20359652 10.35579313 -1 11 C-1.01160156 10.28972656 -1.02320312 9.57945313 -1.03515625 8.84765625 C-1.04417969 7.92855469 -1.05320312 7.00945312 -1.0625 6.0625 C-1.07410156 5.14597656 -1.08570312 4.22945313 -1.09765625 3.28515625 C-1 1 -1 1 0 0 Z " fill="#1498B5" transform="translate(93,83)"/>
<path d="M0 0 C3.64419572 0.98491776 4.78914132 1.65826352 6.8125 4.9375 C8 8 8 8 8 11 C5.69 10.67 3.38 10.34 1 10 C1.309375 8.824375 1.309375 8.824375 1.625 7.625 C1.74875 6.75875 1.8725 5.8925 2 5 C1.34 4.34 0.68 3.68 0 3 C0 2.01 0 1.02 0 0 Z " fill="#31ADC8" transform="translate(87,50)"/>
<path d="M0 0 C0 0.99 0 1.98 0 3 C-6.93 4.485 -6.93 4.485 -14 6 C-13.67 4.68 -13.34 3.36 -13 2 C-8.46298506 0.54815522 -4.81938524 -0.23509196 0 0 Z " fill="#077598" transform="translate(75,92)"/>
<path d="M0 0 C2.00720923 0.28674418 4.0085944 0.61866701 6 1 C6 1.33 6 1.66 6 2 C7.98 2.66 9.96 3.32 12 4 C11.67 4.66 11.34 5.32 11 6 C9.3739713 5.93999894 7.74898451 5.8512115 6.125 5.75 C4.76761719 5.68039063 4.76761719 5.68039063 3.3828125 5.609375 C1 5 1 5 -0.3203125 2.953125 C-0.54460938 2.30859375 -0.76890625 1.6640625 -1 1 C-0.67 0.67 -0.34 0.34 0 0 Z " fill="#15A4B0" transform="translate(32,118)"/>
<path d="M0 0 C0 0.99 0 1.98 0 3 C0.31421071 5.00309329 0.6451046 7.00371336 1 9 C-0.45505358 9.52992692 -1.91418127 10.0486789 -3.375 10.5625 C-4.59316406 10.99755859 -4.59316406 10.99755859 -5.8359375 11.44140625 C-8 12 -8 12 -10 11 C-7.63707344 8.47411298 -6.33537489 7.11179163 -3 6 C-1.84478498 3.52869082 -1.84478498 3.52869082 -1 1 C-0.67 0.67 -0.34 0.34 0 0 Z " fill="#208DAA" transform="translate(73,82)"/>
<path d="M0 0 C-0.99 0.66 -1.98 1.32 -3 2 C-3.7425 2.66 -4.485 3.32 -5.25 4 C-8.53317369 6.38776268 -11.07734422 7.07702217 -15 8 C-13.53990876 4.14766886 -11.71658852 2.96356946 -8.0625 1.1875 C-7.18722656 0.74792969 -6.31195313 0.30835937 -5.41015625 -0.14453125 C-3 -1 -3 -1 0 0 Z " fill="#74C7C9" transform="translate(33,29)"/>
<path d="M0 0 C3.10613463 2.90573885 4.8261078 4.76770946 5.16796875 9.15625 C5.17441406 9.9296875 5.18085937 10.703125 5.1875 11.5 C5.20167969 12.2734375 5.21585937 13.046875 5.23046875 13.84375 C5 16 5 16 3 19 C2.92652344 17.64455078 2.92652344 17.64455078 2.8515625 16.26171875 C2.77679688 15.08222656 2.70203125 13.90273437 2.625 12.6875 C2.55539063 11.51574219 2.48578125 10.34398438 2.4140625 9.13671875 C2.21386253 5.84300113 2.21386253 5.84300113 0 3 C0 2.01 0 1.02 0 0 Z " fill="#1EA0B5" transform="translate(97,97)"/>
<path d="M0 0 C0.33 0.99 0.66 1.98 1 3 C-3.98229776 4.91626837 -8.72684667 5.5547115 -14 6 C-14 5.34 -14 4.68 -14 4 C-13.01 4 -12.02 4 -11 4 C-11 3.34 -11 2.68 -11 2 C-10.28972656 1.93941406 -9.57945313 1.87882812 -8.84765625 1.81640625 C-7.46900391 1.69072266 -7.46900391 1.69072266 -6.0625 1.5625 C-5.14597656 1.48128906 -4.22945312 1.40007812 -3.28515625 1.31640625 C-1.03840268 1.23955024 -1.03840268 1.23955024 0 0 Z " fill="#0CA2B4" transform="translate(76,118)"/>
<path d="M0 0 C-2.17507149 2.17507149 -2.9714888 2.38642782 -5.875 3 C-8.23558979 3.53688504 -10.07302476 4.03651238 -12.25 5.125 C-14 6 -14 6 -18 6 C-18 5.34 -18 4.68 -18 4 C-16.35 4 -14.7 4 -13 4 C-13 3.34 -13 2.68 -13 2 C-8.46298506 0.54815522 -4.81938524 -0.23509196 0 0 Z " fill="#149BB9" transform="translate(72,96)"/>
<path d="M0 0 C0.66 0 1.32 0 2 0 C2 0.99 2 1.98 2 3 C1.01 3.33 0.02 3.66 -1 4 C-1.33 4.66 -1.66 5.32 -2 6 C-1.01 6.33 -0.02 6.66 1 7 C0.4225 7.0825 -0.155 7.165 -0.75 7.25 C-3.6159304 8.20531013 -4.9990764 9.78469173 -7 12 C-5.8905928 8.51329166 -4.73662334 5.22515763 -3 2 C-2.01 2 -1.02 2 0 2 C0 1.34 0 0.68 0 0 Z " fill="#6CC4CE" transform="translate(8,47)"/>
<path d="M0 0 C4 4 4 4 4.4375 7.5625 C4 11 4 11 1 14 C0.67 9.38 0.34 4.76 0 0 Z " fill="#119CB0" transform="translate(345,23)"/>
<path d="M0 0 C3.96 0 7.92 0 12 0 C11.67 0.66 11.34 1.32 11 2 C9.0390625 2.37890625 9.0390625 2.37890625 6.625 2.5625 C3.80522535 2.78753088 1.71336297 3.09554568 -1 4 C-0.67 2.68 -0.34 1.36 0 0 Z " fill="#71C3CF" transform="translate(42,25)"/>
<path d="M0 0 C0.66 0.99 1.32 1.98 2 3 C1.319375 3.8353125 1.319375 3.8353125 0.625 4.6875 C-1.03733768 7.05313439 -2.02144543 9.29015658 -3 12 C-3.66 12 -4.32 12 -5 12 C-4.01 9.03 -3.02 6.06 -2 3 C-1.34 3 -0.68 3 0 3 C0 2.01 0 1.02 0 0 Z " fill="#3EABBC" transform="translate(73,77)"/>
<path d="M0 0 C1.98 0.99 3.96 1.98 6 3 C5.67 4.98 5.34 6.96 5 9 C2.21249856 7.60624928 2.10733713 5.83755139 1 3 C0.34 2.34 -0.32 1.68 -1 1 C-0.67 0.67 -0.34 0.34 0 0 Z " fill="#0E9AB1" transform="translate(80,119)"/>
<path d="M0 0 C0.391875 0.598125 0.78375 1.19625 1.1875 1.8125 C3.21137878 4.25511232 5.22708706 5.50112814 8 7 C7.01 7.495 7.01 7.495 6 8 C3.5249829 6.88568235 1.32116581 5.41849022 -1 4 C-0.67 2.68 -0.34 1.36 0 0 Z " fill="#2FAAC1" transform="translate(23,113)"/>
<path d="M0 0 C2.475 0.99 2.475 0.99 5 2 C5 3.65 5 5.3 5 7 C4.34 7 3.68 7 3 7 C0.70351351 4.4385343 0 3.52032428 0 0 Z " fill="#24AEC3" transform="translate(87,50)"/>
<path d="M0 0 C0.66 0.33 1.32 0.66 2 1 C1.04882866 2.1725131 0.08882991 3.33787015 -0.875 4.5 C-1.40867187 5.1496875 -1.94234375 5.799375 -2.4921875 6.46875 C-2.98976563 6.9740625 -3.48734375 7.479375 -4 8 C-4.66 8 -5.32 8 -6 8 C-5.34 6.35 -4.68 4.7 -4 3 C-3.34 3 -2.68 3 -2 3 C-2 2.34 -2 1.68 -2 1 C-1.34 0.67 -0.68 0.34 0 0 Z " fill="#78C0CE" transform="translate(31,55)"/>
<path d="M0 0 C0.93972656 0.12568359 0.93972656 0.12568359 1.8984375 0.25390625 C3.12433594 0.40666016 3.12433594 0.40666016 4.375 0.5625 C5.59316406 0.71912109 5.59316406 0.71912109 6.8359375 0.87890625 C9.04899186 1.18237328 9.04899186 1.18237328 11 0 C11 0.99 11 1.98 11 3 C9.54257537 3.08096803 8.08387193 3.13917774 6.625 3.1875 C5.81289063 3.22230469 5.00078125 3.25710937 4.1640625 3.29296875 C3.44992187 3.19628906 2.73578125 3.09960938 2 3 C1.34 2.01 0.68 1.02 0 0 Z " fill="#0F9DAF" transform="translate(332,37)"/>
<path d="M0 0 C0 0.99 0 1.98 0 3 C-0.66 3 -1.32 3 -2 3 C-2 3.66 -2 4.32 -2 5 C-3.65 5 -5.3 5 -7 5 C-4.63707344 2.47411298 -3.33537489 1.11179163 0 0 Z " fill="#3E8FAF" transform="translate(61,95)"/>
<path d="M0 0 C0.99 0.66 1.98 1.32 3 2 C2.01 3.32 1.02 4.64 0 6 C-0.99 5.34 -1.98 4.68 -3 4 C-3 3.01 -3 2.02 -3 1 C-2.01 0.67 -1.02 0.34 0 0 Z " fill="#55C0C2" transform="translate(65,52)"/>
<path d="M0 0 C0.66 0 1.32 0 2 0 C2 1.32 2 2.64 2 4 C0.02 4.99 0.02 4.99 -2 6 C-2.33 5.34 -2.66 4.68 -3 4 C-1.625 2 -1.625 2 0 0 Z " fill="#06A2BE" transform="translate(98,112)"/>
<path d="M0 0 C0.33 0.66 0.66 1.32 1 2 C3.02463255 2.65213292 3.02463255 2.65213292 5 3 C5.33 4.65 5.66 6.3 6 8 C1.3125 4.38671875 1.3125 4.38671875 0 3 C0 2.01 0 1.02 0 0 Z " fill="#57BAC6" transform="translate(7,101)"/>
<path d="M0 0 C2.5 2.3125 2.5 2.3125 5 5 C5 5.99 5 6.98 5 8 C2.5 6.25 2.5 6.25 0 4 C0 2.68 0 1.36 0 0 Z " fill="#4FB0B9" transform="translate(26,87)"/>
<path d="M0 0 C0.66 0.33 1.32 0.66 2 1 C2 1.66 2 2.32 2 3 C-1.46153846 6 -1.46153846 6 -4 6 C-2.84826645 3.53199953 -1.95216435 1.95216435 0 0 Z " fill="#73C5CD" transform="translate(14,38)"/>
</svg>
