<?xml version="1.0" encoding="utf-8"?>
<!-- Generator: Adobe Illustrator 24.1.0, SVG Export Plug-In . SVG Version: 6.00 Build 0)  -->
<svg version="1.1" id="Layer_1" xmlns="http://www.w3.org/2000/svg" xmlns:xlink="http://www.w3.org/1999/xlink" x="0px" y="0px"
	 viewBox="0 0 1010 280" style="enable-background:new 0 0 1010 280;" xml:space="preserve">
<style type="text/css">
	.st0{fill:#F7F7EA;}
	.st1{fill:#44A2FF;}
	.st2{fill:#08193F;}
	.st3{fill:#FFFFFF;}
	.st4{fill:#F6F6F6;}
	.st5{fill:#909090;}
	.st6{fill:#383838;}
	.st7{fill:none;}
</style>
<g>
	<g>
		<g>
			<path class="st2" d="M132.7,110.22c2.82,0,5.48,0.54,7.99,1.6c2.51,1.07,4.7,2.54,6.58,4.42c1.88,1.88,3.36,4.07,4.43,6.57
				c1.07,2.5,1.61,5.16,1.61,7.98c0,3.34-0.74,6.44-2.23,9.31c-1.49,2.87-3.49,5.24-5.99,7.12l6.74,18.55
				c0.26,0.73,0.17,1.44-0.27,2.11c-0.44,0.68-1.08,1.02-1.92,1.02h-7.52c-1.1,0-1.83-0.52-2.19-1.56l-5.33-14.56
				c-0.37-0.99-1.1-1.49-2.19-1.49h-8.07c-0.68,0-1.24,0.22-1.68,0.66c-0.44,0.44-0.67,1.01-0.67,1.68v12.91
				c0,0.68-0.24,1.24-0.7,1.68c-0.47,0.44-1.02,0.67-1.65,0.67h-7.05c-0.68,0-1.24-0.22-1.68-0.67c-0.44-0.44-0.67-1-0.67-1.68v-54
				c0-0.68,0.22-1.24,0.67-1.68c0.44-0.44,1.01-0.66,1.68-0.66H132.7z M124.32,121.96c-0.68,0-1.24,0.22-1.68,0.67
				c-0.44,0.44-0.67,1-0.67,1.68v12.91c0,0.68,0.22,1.24,0.67,1.68c0.44,0.44,1,0.66,1.68,0.66h8.38c1.2,0,2.34-0.23,3.41-0.7
				c1.07-0.47,2.01-1.1,2.82-1.88c0.81-0.78,1.45-1.71,1.92-2.78c0.47-1.07,0.71-2.2,0.71-3.4c0-1.25-0.24-2.41-0.71-3.48
				c-0.47-1.07-1.11-2-1.92-2.78c-0.81-0.78-1.75-1.41-2.82-1.88c-1.07-0.47-2.21-0.7-3.41-0.7H124.32z"/>
			<path class="st2" d="M167.14,110.89c0.47-0.44,1.02-0.66,1.65-0.66h34.48c0.68,0,1.24,0.22,1.68,0.66
				c0.44,0.44,0.67,1.01,0.67,1.68v6.26c0,0.68-0.22,1.24-0.67,1.68c-0.44,0.44-1.01,0.67-1.68,0.67h-22.72
				c-0.63,0-1.18,0.22-1.65,0.67c-0.47,0.44-0.71,1-0.71,1.68v8.22c0,0.68,0.24,1.24,0.71,1.68c0.47,0.44,1.02,0.67,1.65,0.67h14.89
				c0.68,0,1.24,0.22,1.68,0.67c0.44,0.44,0.67,1,0.67,1.68v6.26c0,0.68-0.22,1.24-0.67,1.68c-0.44,0.44-1.01,0.66-1.68,0.66h-14.89
				c-0.63,0-1.18,0.22-1.65,0.67c-0.47,0.44-0.71,1.01-0.71,1.68v8.22c0,0.68,0.24,1.24,0.71,1.68c0.47,0.44,1.02,0.67,1.65,0.67
				h22.72c0.68,0,1.24,0.22,1.68,0.66c0.44,0.44,0.67,1.01,0.67,1.68v6.26c0,0.68-0.22,1.24-0.67,1.68
				c-0.44,0.44-1.01,0.67-1.68,0.67h-34.48c-0.63,0-1.18-0.22-1.65-0.67c-0.47-0.44-0.71-1-0.71-1.68v-54
				C166.43,111.9,166.66,111.33,167.14,110.89z"/>
			<path class="st2" d="M243.93,157.18c2.19,0,4.28-0.35,6.27-1.06c1.98-0.7,3.76-1.71,5.33-3.01c0.47-0.36,1-0.52,1.61-0.47
				c0.6,0.05,1.11,0.29,1.53,0.7l5.01,4.93c0.52,0.52,0.77,1.12,0.75,1.8c-0.03,0.68-0.33,1.25-0.9,1.72
				c-2.66,2.24-5.66,3.99-8.97,5.24c-3.32,1.25-6.86,1.88-10.62,1.88c-4.18,0-8.12-0.79-11.83-2.39c-3.71-1.59-6.93-3.76-9.68-6.5
				c-2.74-2.74-4.9-5.96-6.46-9.67c-1.57-3.7-2.35-7.64-2.35-11.82c0-4.23,0.81-8.18,2.43-11.86c1.62-3.68,3.81-6.89,6.58-9.63
				c2.77-2.74,6.01-4.9,9.72-6.5c3.71-1.59,7.65-2.36,11.83-2.31c3.71,0.05,7.2,0.7,10.46,1.96c3.26,1.25,6.23,3,8.89,5.24
				c0.57,0.42,0.86,0.97,0.86,1.64c0,0.68-0.24,1.28-0.71,1.8l-5.01,5.01c-0.42,0.42-0.93,0.64-1.53,0.67
				c-0.6,0.03-1.14-0.14-1.61-0.51c-1.57-1.3-3.34-2.31-5.33-3.01c-1.99-0.7-4.07-1.06-6.27-1.06c-2.56,0-4.98,0.5-7.25,1.49
				c-2.27,0.99-4.24,2.32-5.92,3.99c-1.67,1.67-2.99,3.64-3.96,5.91c-0.97,2.27-1.45,4.68-1.45,7.24c0,2.56,0.48,4.96,1.45,7.2
				c0.97,2.24,2.3,4.21,4,5.91c1.7,1.7,3.67,3.03,5.92,3.99C238.97,156.7,241.37,157.18,243.93,157.18z"/>
			<path class="st2" d="M301.41,108.27c4.18,0,8.12,0.8,11.83,2.39c3.71,1.59,6.93,3.76,9.68,6.5s4.91,5.96,6.5,9.67
				c1.59,3.7,2.39,7.64,2.39,11.82c0,4.18-0.8,8.1-2.39,11.78c-1.59,3.68-3.76,6.89-6.5,9.63s-5.97,4.91-9.68,6.5
				c-3.71,1.59-7.65,2.39-11.83,2.39c-4.18,0-8.11-0.79-11.79-2.39c-3.68-1.59-6.9-3.76-9.64-6.5c-2.74-2.74-4.91-5.95-6.5-9.63
				c-1.59-3.68-2.39-7.6-2.39-11.78c0-4.17,0.8-8.11,2.39-11.82c1.59-3.7,3.76-6.93,6.5-9.67c2.74-2.74,5.95-4.9,9.64-6.5
				C293.3,109.06,297.23,108.27,301.41,108.27z M301.41,157.18c2.56,0,4.98-0.48,7.25-1.45s4.26-2.3,5.95-3.99
				c1.7-1.7,3.03-3.67,4-5.91c0.97-2.24,1.45-4.64,1.45-7.2c0-2.56-0.48-4.97-1.45-7.24c-0.97-2.27-2.3-4.25-4-5.95
				c-1.7-1.69-3.68-3.03-5.95-3.99c-2.27-0.96-4.69-1.45-7.25-1.45c-2.56,0-4.96,0.48-7.21,1.45c-2.25,0.97-4.22,2.3-5.92,3.99
				c-1.7,1.7-3.03,3.68-4,5.95c-0.97,2.27-1.45,4.68-1.45,7.24c0,2.56,0.48,4.96,1.45,7.2c0.97,2.24,2.3,4.21,4,5.91
				c1.7,1.7,3.67,3.03,5.92,3.99C296.45,156.7,298.85,157.18,301.41,157.18z"/>
			<path class="st2" d="M366.12,110.22c2.82,0,5.48,0.54,7.99,1.6c2.51,1.07,4.7,2.54,6.58,4.42s3.36,4.07,4.43,6.57
				c1.07,2.5,1.61,5.16,1.61,7.98c0,3.34-0.74,6.44-2.23,9.31c-1.49,2.87-3.49,5.24-5.99,7.12l6.74,18.55
				c0.26,0.73,0.17,1.44-0.27,2.11c-0.44,0.68-1.08,1.02-1.92,1.02h-7.52c-1.1,0-1.83-0.52-2.19-1.56L368,152.8
				c-0.37-0.99-1.1-1.49-2.19-1.49h-8.07c-0.68,0-1.24,0.22-1.68,0.66c-0.44,0.44-0.67,1.01-0.67,1.68v12.91
				c0,0.68-0.24,1.24-0.7,1.68c-0.47,0.44-1.02,0.67-1.65,0.67h-7.05c-0.68,0-1.24-0.22-1.68-0.67c-0.44-0.44-0.67-1-0.67-1.68v-54
				c0-0.68,0.22-1.24,0.67-1.68c0.44-0.44,1.01-0.66,1.68-0.66H366.12z M357.73,121.96c-0.68,0-1.24,0.22-1.68,0.67
				c-0.44,0.44-0.67,1-0.67,1.68v12.91c0,0.68,0.22,1.24,0.67,1.68c0.44,0.44,1,0.66,1.68,0.66h8.38c1.2,0,2.34-0.23,3.41-0.7
				c1.07-0.47,2.01-1.1,2.82-1.88c0.81-0.78,1.45-1.71,1.92-2.78c0.47-1.07,0.71-2.2,0.71-3.4c0-1.25-0.24-2.41-0.71-3.48
				c-0.47-1.07-1.11-2-1.92-2.78c-0.81-0.78-1.75-1.41-2.82-1.88c-1.07-0.47-2.21-0.7-3.41-0.7H357.73z"/>
			<path class="st2" d="M418.75,110.22c4.07,0,7.89,0.77,11.44,2.31c3.55,1.54,6.66,3.64,9.32,6.3c2.66,2.66,4.77,5.77,6.31,9.31
				c1.54,3.55,2.31,7.36,2.31,11.43c0,4.07-0.77,7.88-2.31,11.43c-1.54,3.55-3.64,6.65-6.31,9.31c-2.66,2.66-5.77,4.76-9.32,6.3
				c-3.55,1.54-7.37,2.31-11.44,2.31h-15.28c-0.68,0-1.24-0.22-1.68-0.67c-0.44-0.44-0.67-1-0.67-1.68v-54
				c0-0.68,0.22-1.24,0.67-1.68c0.44-0.44,1.01-0.66,1.68-0.66H418.75z M436.38,139.57c0-2.4-0.46-4.67-1.37-6.81
				c-0.91-2.14-2.18-4.02-3.8-5.64c-1.62-1.62-3.5-2.88-5.64-3.8c-2.14-0.91-4.41-1.37-6.82-1.37h-3.53c-0.68,0-1.24,0.22-1.68,0.67
				c-0.44,0.44-0.67,1-0.67,1.68v30.52c0,0.68,0.22,1.24,0.67,1.68c0.44,0.44,1,0.67,1.68,0.67h3.53c2.4,0,4.67-0.46,6.82-1.37
				c2.14-0.91,4.02-2.18,5.64-3.8c1.62-1.62,2.89-3.48,3.8-5.6C435.92,144.31,436.38,142.03,436.38,139.57z"/>
			<path class="st2" d="M504.35,130.81c0,2.82-0.54,5.48-1.61,7.98c-1.07,2.5-2.55,4.68-4.43,6.54c-1.88,1.85-4.07,3.31-6.58,4.38
				c-2.51,1.07-5.17,1.61-7.99,1.61h-8.38c-0.68,0-1.24,0.22-1.68,0.66c-0.44,0.44-0.67,1.01-0.67,1.68v12.91
				c0,0.68-0.24,1.24-0.7,1.68c-0.47,0.44-1.02,0.67-1.65,0.67h-7.05c-0.68,0-1.24-0.22-1.68-0.67c-0.44-0.44-0.67-1-0.67-1.68v-54
				c0-0.68,0.22-1.24,0.67-1.68c0.44-0.44,1.01-0.66,1.68-0.66h20.14c2.82,0,5.48,0.54,7.99,1.6c2.51,1.07,4.7,2.54,6.58,4.42
				c1.88,1.88,3.36,4.07,4.43,6.57C503.81,125.33,504.35,127.99,504.35,130.81z M492.59,130.81c0-1.25-0.24-2.41-0.71-3.48
				c-0.47-1.07-1.11-2-1.92-2.78c-0.81-0.78-1.75-1.41-2.82-1.88c-1.07-0.47-2.21-0.7-3.41-0.7h-8.38c-0.68,0-1.24,0.22-1.68,0.67
				c-0.44,0.44-0.67,1-0.67,1.68v12.91c0,0.68,0.22,1.24,0.67,1.68c0.44,0.44,1,0.66,1.68,0.66h8.38c1.2,0,2.34-0.23,3.41-0.7
				c1.07-0.47,2.01-1.1,2.82-1.88c0.81-0.78,1.45-1.71,1.92-2.78C492.36,133.14,492.59,132.01,492.59,130.81z"/>
			<path class="st2" d="M545.2,108.27c4.18,0,8.12,0.8,11.83,2.39c3.71,1.59,6.93,3.76,9.68,6.5s4.91,5.96,6.5,9.67
				c1.59,3.7,2.39,7.64,2.39,11.82c0,4.18-0.8,8.1-2.39,11.78c-1.59,3.68-3.76,6.89-6.5,9.63s-5.97,4.91-9.68,6.5
				c-3.71,1.59-7.65,2.39-11.83,2.39c-4.18,0-8.11-0.79-11.79-2.39c-3.68-1.59-6.9-3.76-9.64-6.5c-2.74-2.74-4.91-5.95-6.5-9.63
				c-1.59-3.68-2.39-7.6-2.39-11.78c0-4.17,0.8-8.11,2.39-11.82c1.59-3.7,3.76-6.93,6.5-9.67c2.74-2.74,5.95-4.9,9.64-6.5
				C537.09,109.06,541.02,108.27,545.2,108.27z M545.2,157.18c2.56,0,4.98-0.48,7.25-1.45s4.26-2.3,5.95-3.99
				c1.7-1.7,3.03-3.67,4-5.91c0.97-2.24,1.45-4.64,1.45-7.2c0-2.56-0.48-4.97-1.45-7.24c-0.97-2.27-2.3-4.25-4-5.95
				c-1.7-1.69-3.68-3.03-5.95-3.99c-2.27-0.96-4.69-1.45-7.25-1.45c-2.56,0-4.96,0.48-7.21,1.45c-2.25,0.97-4.22,2.3-5.92,3.99
				c-1.7,1.7-3.03,3.68-4,5.95c-0.97,2.27-1.45,4.68-1.45,7.24c0,2.56,0.48,4.96,1.45,7.2c0.97,2.24,2.3,4.21,4,5.91
				c1.7,1.7,3.67,3.03,5.92,3.99C540.24,156.7,542.64,157.18,545.2,157.18z"/>
			<path class="st2" d="M588.09,168.26c-0.44-0.44-0.67-1-0.67-1.68v-54c0-0.68,0.22-1.24,0.67-1.68c0.44-0.44,1.01-0.66,1.68-0.66
				h7.05c0.63,0,1.18,0.22,1.65,0.66c0.47,0.44,0.7,1.01,0.7,1.68v54c0,0.68-0.24,1.24-0.7,1.68c-0.47,0.44-1.02,0.67-1.65,0.67
				h-7.05C589.09,168.92,588.53,168.7,588.09,168.26z"/>
			<path class="st2" d="M648.22,110.89c0.44-0.44,1-0.66,1.68-0.66h7.05c0.63,0,1.18,0.22,1.65,0.66c0.47,0.44,0.71,1.01,0.71,1.68
				v54c0,0.68-0.24,1.24-0.71,1.68c-0.47,0.44-1.02,0.67-1.65,0.67h-8.15c-0.89,0-1.54-0.36-1.96-1.1l-19.98-31.31
				c-0.21-0.31-0.47-0.52-0.78-0.63c-0.31-0.1-0.63-0.12-0.94-0.04c-0.31,0.08-0.58,0.26-0.78,0.55c-0.21,0.29-0.31,0.61-0.31,0.98
				v29.19c0,0.68-0.24,1.24-0.7,1.68c-0.47,0.44-1.02,0.67-1.65,0.67h-7.05c-0.68,0-1.24-0.22-1.68-0.67
				c-0.44-0.44-0.67-1-0.67-1.68v-54c0-0.68,0.22-1.24,0.67-1.68c0.44-0.44,1.01-0.66,1.68-0.66h8.07c0.89,0,1.54,0.37,1.96,1.1
				l19.98,31.15c0.21,0.31,0.47,0.52,0.78,0.63c0.31,0.1,0.63,0.12,0.94,0.04c0.31-0.08,0.59-0.23,0.82-0.47
				c0.24-0.23,0.35-0.56,0.35-0.98v-29.11C647.55,111.9,647.78,111.33,648.22,110.89z"/>
			<path class="st2" d="M673.13,110.89c0.47-0.44,1.02-0.66,1.65-0.66h38.4c0.68,0,1.24,0.22,1.68,0.66
				c0.44,0.44,0.67,1.01,0.67,1.68v6.26c0,0.68-0.22,1.24-0.67,1.68c-0.44,0.44-1.01,0.67-1.68,0.67H702.2
				c-0.63,0-1.18,0.22-1.65,0.67c-0.47,0.44-0.71,1-0.71,1.68v43.05c0,0.68-0.22,1.24-0.67,1.68c-0.44,0.44-1.01,0.67-1.68,0.67
				h-7.05c-0.63,0-1.18-0.22-1.65-0.67c-0.47-0.44-0.71-1-0.71-1.68v-43.05c0-0.68-0.22-1.24-0.67-1.68
				c-0.44-0.44-1.01-0.67-1.68-0.67h-10.97c-0.63,0-1.18-0.22-1.65-0.67c-0.47-0.44-0.71-1-0.71-1.68v-6.26
				C672.42,111.9,672.66,111.33,673.13,110.89z"/>
		</g>
		<g>
			<polygon class="st7" points="865.08,90.36 869.29,84.3 869.29,84.3 			"/>
			<polygon class="st7" points="855.78,90.35 840.75,94.27 855.78,90.35 			"/>
			<polygon class="st7" points="856.22,90.48 858.38,92.99 856.22,90.48 			"/>
			<g>
				<path class="st1" d="M852.75,100.24c0.33-0.06,0.66,0.14,0.75,0.46l3.29,10.79c0.06,0.21,0.23,0.38,0.44,0.44l6.71,2.06
					c0.37,0.11,0.76-0.11,0.84-0.49l3.42-15.12c0.07-0.31,0.47-0.38,0.64-0.11l18.83,29.33l-5.96-23.83l-11.72-19.45
					c-0.16-0.27-0.54-0.28-0.72-0.02l-4.21,6.05l-3.68,5.3c-0.16,0.23-0.5,0.25-0.68,0.04l-2.34-2.7l-2.17-2.51
					c-0.11-0.12-0.28-0.18-0.43-0.13l-15.03,3.92l-3.61,6l-1.91,3.17l6.57-1.2L852.75,100.24z"/>
				<path class="st1" d="M910.18,217.61l-14.76-59.05l-7,18.44c-0.1,0.26-0.34,0.43-0.62,0.43h-6.08h-14.06
					c-0.24,0-0.46-0.13-0.58-0.34l-8.81-15.77c-0.18-0.32-0.58-0.43-0.9-0.26l-5.4,2.92c-0.23,0.12-0.51,0.1-0.71-0.05l-12.89-9.59
					c-0.16-0.12-0.37-0.16-0.56-0.11l-38.7,9.92l13.36,14.46c0.25,0.27,0.61,0.41,0.97,0.37l15.13-1.49
					c0.35-0.03,0.69,0.09,0.94,0.33l17.45,17.33c0.45,0.45,1.18,0.45,1.64,0.01l9.08-8.77c0.56-0.54,1.49-0.39,1.85,0.3l21.35,40.95
					l23.66-7.17l4.85-1.47C909.98,218.83,910.33,218.22,910.18,217.61z M885.05,185.88l-3.07,8.09c-0.15,0.39-0.53,0.66-0.95,0.66
					h-3.55c-0.37,0-0.71-0.2-0.89-0.52l-4.59-8.22c-0.14-0.26,0.04-0.57,0.34-0.57h12.33C884.96,185.32,885.16,185.61,885.05,185.88
					z"/>
			</g>
			<g>
				<path class="st2" d="M856.22,90.48L856.22,90.48l2.17,2.51l2.34,2.7c0.18,0.21,0.52,0.2,0.68-0.04l3.68-5.3l4.21-6.05l0,0
					c0.18-0.26,0.56-0.24,0.72,0.02l11.72,19.45l-13.58-51.19c-0.3-0.98-1.62-1.15-2.15-0.27l-25.25,41.96l15.03-3.92
					C855.94,90.31,856.11,90.36,856.22,90.48z"/>
				<path class="st2" d="M899.76,146.41l-12.07-18.8l-18.83-29.33c-0.17-0.26-0.57-0.19-0.64,0.11l-3.42,15.12
					c-0.09,0.38-0.47,0.6-0.84,0.49l-6.71-2.06c-0.21-0.06-0.38-0.23-0.44-0.44l-3.29-10.79c-0.1-0.32-0.42-0.52-0.75-0.46l-10.95,2
					l-6.57,1.2l-6.76,1.23c-0.09,0.02-0.17,0.05-0.24,0.1l-33.82,21.8c-1.3,0.84-2.19,2.16-2.48,3.68l-2.11,11.05
					c-0.02,0.13-0.01,0.25,0.04,0.37l9.13,22.52l0.13-0.03l38.7-9.92c0.19-0.05,0.4-0.01,0.56,0.11l12.89,9.59
					c0.21,0.15,0.48,0.17,0.71,0.05l5.4-2.92c0.32-0.17,0.72-0.06,0.9,0.26l8.81,15.77c0.12,0.21,0.34,0.34,0.58,0.34h14.06h6.08
					c0.28,0,0.52-0.17,0.62-0.43l7-18.44l4.39-11.57C899.89,146.8,899.87,146.59,899.76,146.41z M818.32,140.18l-7.98,4.62
					l-0.29,0.17c-0.29,0.17-0.64,0.16-0.92,0l-7.06-4.16c-0.52-0.3-0.6-1.02-0.18-1.44l4.47-4.38c0.25-0.24,0.61-0.32,0.94-0.21
					l7.52,2.59l3.35,1.15C818.9,138.78,819,139.78,818.32,140.18z"/>
				<path class="st2" d="M884.66,185.32h-12.33c-0.29,0-0.48,0.32-0.34,0.57l4.59,8.22c0.18,0.32,0.52,0.52,0.89,0.52h3.55
					c0.42,0,0.8-0.26,0.95-0.66l3.07-8.09C885.16,185.61,884.96,185.32,884.66,185.32z"/>
				<path class="st2" d="M804.94,204.73l-28.82-0.29c-0.1,0-0.11-0.14-0.01-0.16l26.15-3.77l16.26-9.33l-21,5.13l-37.61-0.75
					c-0.4-0.01-0.77-0.19-1.02-0.5l-2.5-3.14c-0.38-0.47-0.45-1.12-0.18-1.66l2.92-5.94c0.08-0.15-0.02-0.34-0.19-0.36l-2.89-0.38
					c-0.22-0.03-0.3-0.32-0.12-0.45l8.91-6.54c0.34-0.25,0.34-0.77-0.01-1.01l-6.08-4.21c-0.44-0.31-0.98-0.45-1.52-0.4l-1.06,0.1
					l-11.58,1.09c-0.56,0.05-0.95,0.59-0.83,1.14l2.17,9.61l4.5,7.95l2.43,3.03l17.98,16.25c0.39,0.35,0.9,0.51,1.42,0.46
					l11.77-1.33l13.62,0.3c1.08,0.02,2.15,0.26,3.14,0.71l8.05,3.61l10.65-13.74l-13.95,4.5
					C805.33,204.7,805.14,204.73,804.94,204.73z"/>
				<path class="st2" d="M788.32,110.48l5.78-7.77c1.15-1.54,2.96-2.45,4.88-2.45h17.53l-35.19-36.58
					c-0.82-0.85-2.25-0.11-2.02,1.05L788.32,110.48z"/>
				<path class="st2" d="M778.37,140.46l-1-4.91c-0.23-1.15-1.12-2.06-2.26-2.32l-3.16-0.74l-1.32,4.31
					c-0.13,0.44-0.11,0.9,0.06,1.33l2.17,5.25c0.24,0.58,0.23,1.23-0.04,1.79l-4.42,9.52l-0.05,0.1l9.71-13.01
					C778.36,141.4,778.46,140.92,778.37,140.46z"/>
			</g>
			<g>
				<path class="st3" d="M880.88,227.65l-21.35-40.95c-0.36-0.69-1.29-0.84-1.85-0.3l-9.08,8.77c-0.46,0.44-1.18,0.44-1.64-0.01
					l-17.45-17.33c-0.25-0.25-0.59-0.37-0.94-0.33l-15.13,1.49c-0.36,0.04-0.72-0.1-0.97-0.37l-13.36-14.46l-0.13,0.03l-9.13-22.52
					c-0.05-0.12-0.06-0.25-0.04-0.37l2.11-11.05c0.29-1.51,1.19-2.84,2.48-3.68l33.82-21.8c0.07-0.05,0.15-0.08,0.24-0.1l6.76-1.23
					l1.91-3.17h-20.63h-17.53c-1.92,0-3.73,0.91-4.88,2.45l-5.78,7.77l-16.37,22l3.16,0.74c1.14,0.27,2.03,1.17,2.26,2.32l1,4.91
					c0.09,0.46-0.01,0.94-0.29,1.32l-9.71,13.01l0.05-0.1l-12.25,16.37l1.06-0.1c0.54-0.05,1.08,0.09,1.52,0.4l6.08,4.21
					c0.35,0.24,0.36,0.76,0.01,1.01l-8.91,6.54c-0.18,0.13-0.11,0.42,0.12,0.45l2.89,0.38c0.17,0.02,0.27,0.2,0.19,0.36l-2.92,5.94
					c-0.27,0.54-0.2,1.19,0.18,1.66l2.5,3.14c0.25,0.31,0.62,0.5,1.02,0.5l37.61,0.75l21-5.13l-16.26,9.33l-26.15,3.77
					c-0.1,0.01-0.09,0.16,0.01,0.16l28.82,0.29c0.2,0,0.39-0.03,0.58-0.09l13.95-4.5l-10.65,13.74l14.38,29.91
					c0.36,0.74,1.2,1.11,1.98,0.87L880.88,227.65z"/>
				<path class="st3" d="M814.81,137.37l-7.52-2.59c-0.33-0.11-0.69-0.03-0.94,0.21l-4.47,4.38c-0.43,0.42-0.34,1.13,0.18,1.44
					l7.06,4.16c0.28,0.17,0.64,0.17,0.92,0l0.29-0.17l7.98-4.62c0.68-0.39,0.58-1.4-0.16-1.65L814.81,137.37z"/>
			</g>
		</g>
	</g>
	<g>
		<path class="st2" d="M727.34,120.92v-8.16h-2.59c-0.18,0-0.26-0.14-0.26-0.41v-0.22c0-0.27,0.09-0.41,0.26-0.41h6.34
			c0.18,0,0.26,0.14,0.26,0.41v0.22c0,0.27-0.09,0.41-0.26,0.41h-2.54v8.16c0,0.19-0.18,0.29-0.55,0.29h-0.1
			C727.52,121.21,727.34,121.12,727.34,120.92z M732.21,120.92V112c0-0.19,0.18-0.29,0.53-0.29h0.5c0.29,0,0.47,0.08,0.55,0.24
			l2.57,4.44l0.34,0.84l0.36-0.77l2.54-4.51c0.11-0.16,0.3-0.24,0.58-0.24h0.46c0.35,0,0.53,0.1,0.53,0.29v8.93
			c0,0.19-0.18,0.29-0.53,0.29h-0.1c-0.37,0-0.55-0.1-0.55-0.29v-7.27h-0.07l-2.64,4.73c-0.06,0.11-0.16,0.17-0.29,0.17h-0.55
			c-0.13,0-0.22-0.06-0.29-0.17l-2.69-4.8h-0.07v7.34c0,0.19-0.18,0.29-0.55,0.29h-0.1C732.38,121.21,732.21,121.12,732.21,120.92z"
			/>
	</g>
</g>
</svg>
