<?xml version="1.0" encoding="UTF-8"?>
<svg version="1.1" xmlns="http://www.w3.org/2000/svg" width="400" height="150">
<path d="M0 0 C0.99 0 1.98 0 3 0 C3.19634033 0.73637695 3.39268066 1.47275391 3.5949707 2.23144531 C4.49161586 5.57351031 5.40189174 8.91171379 6.3125 12.25 C6.7755957 13.98830078 6.7755957 13.98830078 7.24804688 15.76171875 C7.55419922 16.87675781 7.86035156 17.99179687 8.17578125 19.140625 C8.45333252 20.16704102 8.73088379 21.19345703 9.0168457 22.25097656 C9.99665442 24.99064534 11.25336074 26.71188376 13 29 C12.71701181 30.67594945 12.37839356 32.34298244 12 34 C12.52191459 36.91250812 12.52191459 36.91250812 13.4375 39.875 C14.68476123 44.46718906 15.32276051 48.26617916 15 53 C9.65143528 55.1171402 4.22889436 56.94190741 -1.25 58.6875 C-2.29607422 59.02720825 -2.29607422 59.02720825 -3.36328125 59.3737793 C-6.77526649 60.44742061 -9.38452622 61 -13 61 C-13.67154933 59.71086513 -14.33708859 58.41859796 -15 57.125 C-15.37125 56.40570313 -15.7425 55.68640625 -16.125 54.9453125 C-17 53 -17 53 -17 51 C-17.85722656 51.020625 -18.71445312 51.04125 -19.59765625 51.0625 C-28.7180663 50.89798302 -28.7180663 50.89798302 -32.38671875 48.328125 C-35.6527306 44.68552897 -37.28291737 41.88299125 -38 37 C-36.35 37 -34.7 37 -33 37 C-31.45172616 34.17855884 -30.66238187 31.72647285 -30.125 28.5625 C-29.46342442 25.24924341 -29.14083498 24.1569304 -26.8125 21.5625 C-24.30073553 18.01138472 -24.95804768 15.62886327 -25.5703125 11.44921875 C-25.71210938 10.64097656 -25.85390625 9.83273438 -26 9 C-26.185625 7.80375 -26.37125 6.6075 -26.5625 5.375 C-26.706875 4.59125 -26.85125 3.8075 -27 3 C-24 3 -24 3 -22.24609375 4.6796875 C-21.35083984 5.76636719 -21.35083984 5.76636719 -20.4375 6.875 C-19.53837891 7.95394531 -19.53837891 7.95394531 -18.62109375 9.0546875 C-18.08613281 9.69664063 -17.55117188 10.33859375 -17 11 C-13.99382731 14.00617269 -11.17618402 13.59585316 -7 14 C-6.6596875 13.0409375 -6.6596875 13.0409375 -6.3125 12.0625 C-4.51434174 7.86679739 -2.26095979 3.96099444 0 0 Z " fill="#163985" transform="translate(382,45)"/>
<path d="M0 0 C3 0 3 0 4.75390625 1.6796875 C5.64916016 2.76636719 5.64916016 2.76636719 6.5625 3.875 C7.16191406 4.59429687 7.76132812 5.31359375 8.37890625 6.0546875 C9.18134766 7.01761719 9.18134766 7.01761719 10 8 C12.76223278 10.76223278 15.20706617 10.57856291 19 11 C19 11.66 19 12.32 19 13 C18.24074219 13.39832031 17.48148437 13.79664063 16.69921875 14.20703125 C15.70535156 14.73683594 14.71148437 15.26664063 13.6875 15.8125 C12.70136719 16.33457031 11.71523438 16.85664062 10.69921875 17.39453125 C8.36203933 18.78466257 6.64767806 19.85405503 5 22 C5.19278638 26.43408665 6.54223203 29.36250341 9 33 C9.66 33.99 10.32 34.98 11 36 C12.093125 36.144375 13.18625 36.28875 14.3125 36.4375 C18.40748677 37.062159 20.02870846 38.20878674 23 41 C24.32 40.34 25.64 39.68 27 39 C28.00484204 40.95585325 29.00373805 42.91476237 30 44.875 C30.556875 45.96554688 31.11375 47.05609375 31.6875 48.1796875 C33 51 33 51 33 53 C30.58570231 53.84080019 28.16896007 54.67281402 25.75 55.5 C25.06808594 55.73847656 24.38617188 55.97695312 23.68359375 56.22265625 C20.23586997 57.39421287 17.68297096 58 14 58 C13.32845067 56.71086513 12.66291141 55.41859796 12 54.125 C11.62875 53.40570313 11.2575 52.68640625 10.875 51.9453125 C10 50 10 50 10 48 C9.14277344 48.020625 8.28554688 48.04125 7.40234375 48.0625 C-1.7180663 47.89798302 -1.7180663 47.89798302 -5.38671875 45.328125 C-8.6527306 41.68552897 -10.28291737 38.88299125 -11 34 C-9.35 34 -7.7 34 -6 34 C-4.45172616 31.17855884 -3.66238187 28.72647285 -3.125 25.5625 C-2.46342442 22.24924341 -2.14083498 21.1569304 0.1875 18.5625 C2.69926447 15.01138472 2.04195232 12.62886327 1.4296875 8.44921875 C1.28789062 7.64097656 1.14609375 6.83273438 1 6 C0.814375 4.80375 0.62875 3.6075 0.4375 2.375 C0.293125 1.59125 0.14875 0.8075 0 0 Z " fill="#F5F7F9" transform="translate(355,48)"/>
<path d="M0 0 C6.50486766 -0.39717451 6.50486766 -0.39717451 8.69677734 1.36108398 C9.26066162 2.29416382 9.26066162 2.29416382 9.8359375 3.24609375 C10.26003906 3.91833984 10.68414062 4.59058594 11.12109375 5.28320312 C11.53488281 5.99412109 11.94867188 6.70503906 12.375 7.4375 C13.23691389 8.83207159 14.09888982 10.22660485 14.9609375 11.62109375 C15.63382812 12.73613281 16.30671875 13.85117188 17 15 C17.33 15.33 17.66 15.66 18 16 C18 10.72 18 5.44 18 0 C20.64 0 23.28 0 26 0 C26.02465504 4.39656173 26.04283842 8.7930872 26.05493164 13.18969727 C26.05997121 14.68644918 26.06680287 16.18319616 26.07543945 17.67993164 C26.08752159 19.82699807 26.09323191 21.97399962 26.09765625 24.12109375 C26.10551147 26.06133423 26.10551147 26.06133423 26.11352539 28.04077148 C26 31 26 31 25 32 C22.19921875 32.38671875 22.19921875 32.38671875 19 32 C16.76953125 29.76953125 16.76953125 29.76953125 14.8125 26.8125 C13.83216797 25.36810547 13.83216797 25.36810547 12.83203125 23.89453125 C11.18053733 21.28524128 9.57009068 18.65894614 8 16 C7.93941406 17.07121094 7.87882812 18.14242187 7.81640625 19.24609375 C7.73201463 20.64324391 7.64736594 22.04037857 7.5625 23.4375 C7.52318359 24.14455078 7.48386719 24.85160156 7.44335938 25.58007812 C7.11328125 30.88671875 7.11328125 30.88671875 6 32 C3.5 32.125 3.5 32.125 1 32 C0 31 0 31 -0.11352539 28.04077148 C-0.10828857 26.74727783 -0.10305176 25.45378418 -0.09765625 24.12109375 C-0.0962413 23.4344313 -0.09482635 22.74776886 -0.09336853 22.04029846 C-0.08775479 19.83932199 -0.07520007 17.63844591 -0.0625 15.4375 C-0.05748676 13.94856917 -0.05292355 12.45963676 -0.04882812 10.97070312 C-0.03778093 7.31376925 -0.02050713 3.65689442 0 0 Z " fill="#FFFFFF" transform="translate(269,64)"/>
<path d="M0 0 C5.00230198 2.45567552 8.49851535 5.9970307 11 11 C11.76457906 16.74886025 11.84306022 21.62715054 8.4375 26.5 C4.47698 31.03693371 0.41272962 32.74602846 -5.5625 33.375 C-12.22903855 32.64774125 -15.65877507 29.67611172 -19.80078125 24.71875 C-22.48024842 20.87847132 -22.70724531 16.50868883 -22 12 C-17.79935887 1.98726489 -10.58788719 -1.56214729 0 0 Z M-11.875 9.125 C-14.24329016 12.32915727 -15 14.02790584 -15 18 C-13.39588152 21.52906067 -12.25840638 22.82772908 -9 25 C-3.33567516 25.67268251 -3.33567516 25.67268251 1.4375 23.125 C4.04191134 19.58300058 4.43241556 17.41063875 4 13 C2.20006226 10.30009338 0.916227 8.4581135 -2 7 C-6.35192338 6.50732943 -8.29982008 6.48247571 -11.875 9.125 Z " fill="#FFFFFF" transform="translate(239,63)"/>
<path d="M0 0 C5.00230198 2.45567552 8.49851535 5.9970307 11 11 C11.76325018 17.84422703 11.19112923 22.48535628 7 28 C1.66815647 32.13489906 -2.26330318 33.45672521 -9 33 C-14.44357684 30.9314408 -18.41725703 27.78864237 -21.3125 22.6875 C-22.65500685 17.43951868 -22.85809894 13.05262797 -20.3125 8.25 C-14.70354265 0.36714102 -9.27446203 -0.94449967 0 0 Z M-11.875 9.125 C-14.24329016 12.32915727 -15 14.02790584 -15 18 C-13.6260627 20.87872577 -12.25010563 22.74989437 -10 25 C-6.96295432 25.50421994 -4.04197406 25.45467228 -1 25 C1.50160818 23.12379387 2.61945652 21.76108697 4 19 C4.43023798 15.12785818 4.31669086 13.47503629 2.125 10.1875 C-0.57944937 7.40350801 -1.42266704 7.06535845 -5.3125 6.625 C-9.09600818 6.69309685 -9.09600818 6.69309685 -11.875 9.125 Z " fill="#FFFFFF" transform="translate(110,63)"/>
<path d="M0 0 C2.71003427 -0.1358035 5.41318941 -0.23444624 8.125 -0.3125 C8.88554687 -0.35439453 9.64609375 -0.39628906 10.4296875 -0.43945312 C14.5959395 -0.52924304 17.19489224 -0.28883246 20.4921875 2.39453125 C24.23060834 6.27852923 24.25433194 8.58337706 24.24609375 13.7734375 C24 16 24 16 22.3125 18.4375 C20.62411782 21.73386521 21.26084393 22.83619245 22.3125 26.3125 C22.85548541 27.88188821 23.41194686 29.44693657 24 31 C23 32 23 32 19.9375 32.0625 C18.968125 32.041875 17.99875 32.02125 17 32 C14 26.375 14 26.375 14 23 C12.02 23 10.04 23 8 23 C8.020625 24.299375 8.04125 25.59875 8.0625 26.9375 C8.08399454 28.29165633 8.07148199 29.64756083 8 31 C7 32 7 32 4 32.125 C1 32 1 32 0 31 C-0.08790975 28.70848583 -0.10694038 26.41427476 -0.09765625 24.12109375 C-0.0962413 23.4344313 -0.09482635 22.74776886 -0.09336853 22.04029846 C-0.08775479 19.83932199 -0.07520007 17.63844591 -0.0625 15.4375 C-0.05748676 13.94856917 -0.05292355 12.45963676 -0.04882812 10.97070312 C-0.03778093 7.31376925 -0.02050713 3.65689442 0 0 Z M8 7 C8 9.64 8 12.28 8 15 C11.41656024 15.16677282 11.41656024 15.16677282 15 15 C15.66 14.34 16.32 13.68 17 13 C16.71016731 9.69316534 16.71016731 9.69316534 15 7 C12.66702567 6.95907063 10.33294775 6.95758277 8 7 Z " fill="#FFFFFF" transform="translate(126,64)"/>
<path d="M0 0 C2.7302389 -0.1083667 5.45614543 -0.18746694 8.1875 -0.25 C8.95642578 -0.28351562 9.72535156 -0.31703125 10.51757812 -0.3515625 C14.54193901 -0.42065024 16.48927754 -0.32659357 19.96875 1.8984375 C22.89346652 4.92439421 23.86587137 6.73919084 24.3125 10.9375 C24 14 24 14 22.4375 16.5 C20.5346335 19.80933305 21.10687176 21.35305968 22 25 C22.37593066 26.9924325 22.71979545 28.9918674 23 31 C22 32 22 32 18.9375 32.0625 C17.968125 32.041875 16.99875 32.02125 16 32 C15.01 29.03 14.02 26.06 13 23 C11.02 23 9.04 23 7 23 C7.020625 24.299375 7.04125 25.59875 7.0625 26.9375 C7.08399454 28.29165633 7.07148199 29.64756083 7 31 C6 32 6 32 3.5 32.125 C1 32 1 32 0 31 C-0.08790975 28.70848583 -0.10694038 26.41427476 -0.09765625 24.12109375 C-0.0962413 23.4344313 -0.09482635 22.74776886 -0.09336853 22.04029846 C-0.08775479 19.83932199 -0.07520007 17.63844591 -0.0625 15.4375 C-0.05748676 13.94856917 -0.05292355 12.45963676 -0.04882812 10.97070312 C-0.03778093 7.31376925 -0.02050713 3.65689442 0 0 Z M7 7 C7 9.64 7 12.28 7 15 C11.00254456 15.09181134 11.00254456 15.09181134 15 15 C16.35618499 13.87465895 16.35618499 13.87465895 16.0625 10.9375 C16.041875 9.968125 16.02125 8.99875 16 8 C13.04335481 6.5216774 10.25770263 6.93967217 7 7 Z " fill="#FFFFFF" transform="translate(3,64)"/>
<path d="M0 0 C2.37625177 -0.10883596 4.74743976 -0.18766696 7.125 -0.25 C7.79015625 -0.28351562 8.4553125 -0.31703125 9.140625 -0.3515625 C14.29059027 -0.45254221 17.03558557 0.79460453 21 4 C24.31664822 7.67520478 25.82430791 10.20794066 26.3125 15.1875 C25.92862564 19.87076724 24.71945673 23.17446454 22 27 C16.95718651 31.01366788 13.22886252 32.14031051 6.875 32.125 C5.79992187 32.12757812 4.72484375 32.13015625 3.6171875 32.1328125 C1 32 1 32 0 31 C-0.08790975 28.70848583 -0.10694038 26.41427476 -0.09765625 24.12109375 C-0.0962413 23.4344313 -0.09482635 22.74776886 -0.09336853 22.04029846 C-0.08775479 19.83932199 -0.07520007 17.63844591 -0.0625 15.4375 C-0.05748676 13.94856917 -0.05292355 12.45963676 -0.04882812 10.97070312 C-0.03778093 7.31376925 -0.02050713 3.65689442 0 0 Z M7 7 C7 12.61 7 18.22 7 24 C13.53453377 24.67574165 13.53453377 24.67574165 16.375 22.3125 C18.20829306 19.70358296 18.8448278 18.18103014 19 15 C18.22362448 12.03565711 17.37783439 10.39132848 15.25 8.1875 C12.53963884 6.53324138 12.53963884 6.53324138 7 7 Z " fill="#FFFFFF" transform="translate(157,64)"/>
<path d="M0 0 C6.93 0 13.86 0 21 0 C21.33 1.65 21.66 3.3 22 5 C20 7 20 7 16.9609375 7.1953125 C15.77757812 7.17210938 14.59421875 7.14890625 13.375 7.125 C12.18648437 7.10695313 10.99796875 7.08890625 9.7734375 7.0703125 C8.85820313 7.04710938 7.94296875 7.02390625 7 7 C7 8.65 7 10.3 7 12 C7.63808594 11.98839844 8.27617188 11.97679688 8.93359375 11.96484375 C9.75988281 11.95582031 10.58617187 11.94679688 11.4375 11.9375 C12.26121094 11.92589844 13.08492187 11.91429688 13.93359375 11.90234375 C16 12 16 12 17 13 C17.04080783 14.99958364 17.04254356 17.00045254 17 19 C13.7 19 10.4 19 7 19 C7 20.98 7 22.96 7 25 C7.99902344 24.98839844 8.99804688 24.97679688 10.02734375 24.96484375 C11.31769531 24.95582031 12.60804687 24.94679688 13.9375 24.9375 C15.22527344 24.92589844 16.51304688 24.91429688 17.83984375 24.90234375 C21 25 21 25 22 26 C22.125 28.5 22.125 28.5 22 31 C21 32 21 32 18.95874023 32.11352539 C17.64691772 32.10567017 17.64691772 32.10567017 16.30859375 32.09765625 C15.03326782 32.09390991 15.03326782 32.09390991 13.73217773 32.09008789 C12.64493408 32.08098389 11.55769043 32.07187988 10.4375 32.0625 C6.993125 32.041875 3.54875 32.02125 0 32 C0 21.44 0 10.88 0 0 Z " fill="#FFFFFF" transform="translate(33,64)"/>
<path d="M0 0 C16 0 16 0 21 3 C23.34483893 6.4390971 24.01080781 8.3839551 23.9375 12.5625 C22.89152618 16.39773733 21.88144374 18.27430997 19 21 C14.90896757 22.86764524 11.46687154 23.21270817 7 23 C7.020625 24.299375 7.04125 25.59875 7.0625 26.9375 C7.08399454 28.29165633 7.07148199 29.64756083 7 31 C6.67 31.33 6.34 31.66 6 32 C4.02 32 2.04 32 0 32 C0 21.44 0 10.88 0 0 Z M7 7 C7 9.64 7 12.28 7 15 C11.65052872 15.26932521 11.65052872 15.26932521 16 14 C16.16687448 11.58354218 16.16687448 11.58354218 16 9 C14.04366025 6.58878141 14.04366025 6.58878141 10.375 6.875 C8.704375 6.936875 8.704375 6.936875 7 7 Z " fill="#FFFFFF" transform="translate(189,64)"/>
<path d="M0 0 C1.6484375 1.09375 1.6484375 1.09375 3.9609375 3.09375 C3.2734375 5.03125 3.2734375 5.03125 1.9609375 7.09375 C-0.6015625 7.90625 -0.6015625 7.90625 -3.0390625 8.09375 C-3.3690625 7.76375 -3.6990625 7.43375 -4.0390625 7.09375 C-8.35325019 6.59595911 -10.37367827 6.62656533 -13.9765625 9.15625 C-16.55907588 12.83437512 -16.76031945 14.68606863 -16.0390625 19.09375 C-14.6860497 21.69689994 -14.6860497 21.69689994 -12.0390625 23.09375 C-8.49588731 23.60199234 -5.21198597 23.45214328 -1.7890625 22.40625 C-0.0390625 22.09375 -0.0390625 22.09375 2.2109375 23.34375 C2.7884375 23.92125 3.3659375 24.49875 3.9609375 25.09375 C3.9609375 26.08375 3.9609375 27.07375 3.9609375 28.09375 C-1.11329458 31.04603048 -5.0173001 32.95400177 -11.0390625 32.09375 C-17.097042 29.96033726 -21.11012486 26.95162529 -24.0390625 21.09375 C-24.75817046 13.98519099 -24.55299138 8.76509654 -20.0390625 3.09375 C-14.35709347 -1.42863352 -6.90213303 -3.06761468 0 0 Z " fill="#FFFFFF" transform="translate(82.0390625,63.90625)"/>
<path d="M0 0 C7.59 0 15.18 0 23 0 C23 1.98 23 3.96 23 6 C22 7 22 7 18.4375 7.0625 C17.303125 7.041875 16.16875 7.02125 15 7 C15.00785522 8.08269165 15.00785522 8.08269165 15.01586914 9.18725586 C15.03657358 12.43732849 15.04963918 15.68738728 15.0625 18.9375 C15.07087891 20.07380859 15.07925781 21.21011719 15.08789062 22.38085938 C15.09272461 24.00024414 15.09272461 24.00024414 15.09765625 25.65234375 C15.10551147 27.15269165 15.10551147 27.15269165 15.11352539 28.68334961 C15 31 15 31 14 32 C11.5 32.125 11.5 32.125 9 32 C8 31 8 31 7.88647461 28.68334961 C7.89171143 27.68311768 7.89694824 26.68288574 7.90234375 25.65234375 C7.90556641 24.57275391 7.90878906 23.49316406 7.91210938 22.38085938 C7.92048828 21.24455078 7.92886719 20.10824219 7.9375 18.9375 C7.94201172 17.79732422 7.94652344 16.65714844 7.95117188 15.48242188 C7.96300253 12.65489649 7.9794859 9.8274736 8 7 C6.329375 7.061875 6.329375 7.061875 4.625 7.125 C1 7 1 7 -1 5 C-0.67 3.35 -0.34 1.7 0 0 Z " fill="#FFFFFF" transform="translate(301,64)"/>
<path d="M0 0 C0.9075 0.495 1.815 0.99 2.75 1.5 C5 3 5 3 6 5 C8.32156597 5.40729228 10.6568787 5.74438677 13 6 C13.12375 5.195625 13.2475 4.39125 13.375 3.5625 C13.684375 2.2940625 13.684375 2.2940625 14 1 C14.66 0.67 15.32 0.34 16 0 C19.44419134 12.48519362 19.44419134 12.48519362 19 19 C14.545 20.485 14.545 20.485 10 22 C8.99515796 20.04414675 7.99626195 18.08523763 7 16.125 C6.443125 15.03445312 5.88625 13.94390625 5.3125 12.8203125 C4 10 4 10 4 8 C2.35 8.99 0.7 9.98 -1 11 C-1.515625 10.360625 -2.03125 9.72125 -2.5625 9.0625 C-4.92846557 6.6784572 -4.92846557 6.6784572 -8.5625 6.5625 C-12 6 -12 6 -13.9375 3.4375 C-14.288125 2.633125 -14.63875 1.82875 -15 1 C-4.46328475 -2.80549327 -4.46328475 -2.80549327 0 0 Z " fill="#016EDE" transform="translate(378,79)"/>
<path d="M0 0 C1.134375 0.020625 2.26875 0.04125 3.4375 0.0625 C3.46215504 4.45906173 3.48033842 8.8555872 3.49243164 13.25219727 C3.49747121 14.74894918 3.50430287 16.24569616 3.51293945 17.74243164 C3.52502159 19.88949807 3.53073191 22.03649962 3.53515625 24.18359375 C3.54039307 25.4770874 3.54562988 26.77058105 3.55102539 28.10327148 C3.4375 31.0625 3.4375 31.0625 2.4375 32.0625 C-0.5625 32.1875 -0.5625 32.1875 -3.5625 32.0625 C-5.44569268 30.17930732 -4.69304285 26.94319863 -4.6953125 24.4375 C-4.69626923 23.77540527 -4.69722595 23.11331055 -4.69821167 22.43115234 C-4.69889326 21.02897039 -4.69704042 19.6267853 -4.69287109 18.22460938 C-4.68752246 16.07154287 -4.6928167 13.91868498 -4.69921875 11.765625 C-4.69855796 10.40624954 -4.69727679 9.0468742 -4.6953125 7.6875 C-4.69418457 6.44226563 -4.69305664 5.19703125 -4.69189453 3.9140625 C-4.50047915 -0.30429918 -4.34912954 0.07630052 0 0 Z " fill="#FFFFFF" transform="translate(259.5625,63.9375)"/>
<path d="M0 0 C0.9075 0.495 1.815 0.99 2.75 1.5 C5 3 5 3 6 5 C8.32156597 5.40729228 10.6568787 5.74438677 13 6 C12.67 7.65 12.34 9.3 12 11 C11.67 10.34 11.34 9.68 11 9 C11.33 8.34 11.66 7.68 12 7 C10.35 7.33 8.7 7.66 7 8 C7 9.98 7 11.96 7 14 C4 10.25 4 10.25 4 8 C2.35 8.99 0.7 9.98 -1 11 C-1.515625 10.360625 -2.03125 9.72125 -2.5625 9.0625 C-4.92846557 6.6784572 -4.92846557 6.6784572 -8.5625 6.5625 C-12 6 -12 6 -13.9375 3.4375 C-14.288125 2.633125 -14.63875 1.82875 -15 1 C-4.46328475 -2.80549327 -4.46328475 -2.80549327 0 0 Z " fill="#0674E8" transform="translate(378,79)"/>
<path d="M0 0 C0.99 0 1.98 0 3 0 C3.86627405 2.91355841 4.71831006 5.83004328 5.5625 8.75 C5.80935547 9.575 6.05621094 10.4 6.31054688 11.25 C6.53935547 12.04921875 6.76816406 12.8484375 7.00390625 13.671875 C7.21861572 14.4050293 7.4333252 15.13818359 7.65454102 15.89355469 C8.03914672 18.23869816 7.72878764 19.75825808 7 22 C3 16.25 3 16.25 3 14 C2.34 14 1.68 14 1 14 C1 15.65 1 17.3 1 19 C0.01 18.67 -0.98 18.34 -2 18 C-2 17.01 -2 16.02 -2 15 C-3.98 15 -5.96 15 -8 15 C-1.91176471 2.60695187 -1.91176471 2.60695187 0 0 Z " fill="#103583" transform="translate(382,45)"/>
<path d="M0 0 C1.98 0 3.96 0 6 0 C6.33 0.99 6.66 1.98 7 3 C6.34 3 5.68 3 5 3 C5 4.65 5 6.3 5 8 C10.94 7.67 16.88 7.34 23 7 C22.01 7.99 21.02 8.98 20 10 C21.32 10.33 22.64 10.66 24 11 C23.01 12.485 23.01 12.485 22 14 C9.86250141 14.2693481 9.86250141 14.2693481 5.546875 11.328125 C2.29598863 7.69478141 0.7217658 4.85705925 0 0 Z " fill="#1E3977" transform="translate(344,82)"/>
<path d="M0 0 C3 0 3 0 4.71875 1.609375 C5.3065625 2.31578125 5.894375 3.0221875 6.5 3.75 C7.0878125 4.44609375 7.675625 5.1421875 8.28125 5.859375 C9.89985026 7.87526805 11.46396189 9.9207289 13 12 C11.3603125 12.185625 11.3603125 12.185625 9.6875 12.375 C5.92618198 12.75464801 5.92618198 12.75464801 3 15 C2.01 10.05 1.02 5.1 0 0 Z " fill="#113483" transform="translate(355,48)"/>
<path d="M0 0 C4.0042343 3.49087093 5.62671065 5.64951939 6 11 C3.74754119 8.31158141 2.11786042 6.35358125 1 3 C0.34 3 -0.32 3 -1 3 C-1 4.65 -1 6.3 -1 8 C-1.99 7.67 -2.98 7.34 -4 7 C-4 6.01 -4 5.02 -4 4 C-5.98 4 -7.96 4 -10 4 C-9.67 3.34 -9.34 2.68 -9 2 C-7.1875 1.62109375 -7.1875 1.62109375 -5 1.4375 C-2.21067942 1.37334592 -2.21067942 1.37334592 0 0 Z " fill="#007AEF" transform="translate(384,56)"/>
</svg>
