<?xml version="1.0" encoding="UTF-8"?>
<svg version="1.1" xmlns="http://www.w3.org/2000/svg" width="400" height="150">
<path d="M0 0 C3 1.625 3 1.625 5 4 C5.3125 7.75 5.3125 7.75 5 11 C3.125 10.8125 3.125 10.8125 1 10 C0.5359375 8.7625 0.5359375 8.7625 0.0625 7.5 C-0.74310145 4.78734358 -0.74310145 4.78734358 -3.3125 4.0625 C-6.36725537 3.99145918 -8.27151747 4.67473706 -11 6 C-11 7.65 -11 9.3 -11 11 C-10.26394531 11.10957031 -9.52789062 11.21914062 -8.76953125 11.33203125 C-7.79371094 11.49058594 -6.81789063 11.64914063 -5.8125 11.8125 C-4.84957031 11.96332031 -3.88664062 12.11414063 -2.89453125 12.26953125 C0 13 0 13 5 16 C5.33 10.72 5.66 5.44 6 0 C8.536875 -0.061875 11.07375 -0.12375 13.6875 -0.1875 C14.47729248 -0.21481201 15.26708496 -0.24212402 16.08081055 -0.27026367 C20.69112768 -0.32447527 23.24008528 0.41886935 27 3 C30.23136903 3 31.01509955 2.53660372 33.6875 0.9375 C38.30398359 -1.45560363 40.97458638 -1.23575745 46 0 C49.74192045 1.70826803 51.53251634 3.13117944 53 7 C53.33 4.69 53.66 2.38 54 0 C68 0 82 0 96 0 C96 1.32 96 2.64 96 4 C93.36 4 90.72 4 88 4 C88 12.25 88 20.5 88 29 C86.35 29.33 84.7 29.66 83 30 C83 21.42 83 12.84 83 4 C80.36 4 77.72 4 75 4 C75.185625 5.03125 75.37125 6.0625 75.5625 7.125 C76 11 76 11 75.4375 13.75 C74.87041835 17.96260652 75.72338242 21.48447458 76.625 25.609375 C77 28 77 28 76 30 C74.68 30 73.36 30 72 30 C71.01 24.555 71.01 24.555 70 19 C66.04 18.67 62.08 18.34 58 18 C58 21.96 58 25.92 58 30 C56.68 30 55.36 30 54 30 C53.505 26.535 53.505 26.535 53 23 C52.21625 23.969375 51.4325 24.93875 50.625 25.9375 C49.08711295 27.83962346 48.20740087 28.89629957 46 30 C41.27421573 30.39571785 36.6827666 30.51214636 32.125 29.125 C28.6954742 25.6954742 26.94003466 21.40016373 25 17 C24.01 17.33 23.02 17.66 22 18 C20.10787263 18.22179785 18.21115528 18.40614015 16.3125 18.5625 C15.31863281 18.64628906 14.32476562 18.73007813 13.30078125 18.81640625 C12.54152344 18.87699219 11.78226562 18.93757813 11 19 C11 22.3 11 25.6 11 29 C9.35 29.33 7.7 29.66 6 30 C5.67 29.01 5.34 28.02 5 27 C4.401875 27.495 3.80375 27.99 3.1875 28.5 C-1.49929275 30.70554953 -5.90353305 30.71166881 -11 30 C-14.00197464 28.19881522 -15.45166366 27.09667268 -17 24 C-17.039992 22.00039988 -17.04346799 19.99952758 -17 18 C-15.35 18 -13.7 18 -12 18 C-12 19.98 -12 21.96 -12 24 C-10.58566794 24.2236337 -9.16832382 24.42826476 -7.75 24.625 C-6.96109375 24.74101563 -6.1721875 24.85703125 -5.359375 24.9765625 C-2.67847541 25.00319395 -1.27305911 24.36592084 1 23 C0.67 21.68 0.34 20.36 0 19 C-0.73605469 18.82984375 -1.47210938 18.6596875 -2.23046875 18.484375 C-13.11418032 15.78141889 -13.11418032 15.78141889 -16 12 C-16.39010219 8.9529856 -16.29347532 6.05214333 -16 3 C-10.25239501 -0.56168075 -6.6323786 -1.73964029 0 0 Z M11 4 C11 6.97 11 9.94 11 13 C12.79133978 13.05391993 14.58313899 13.09275571 16.375 13.125 C17.37273437 13.14820312 18.37046875 13.17140625 19.3984375 13.1953125 C22.16262173 13.27216848 22.16262173 13.27216848 24 11 C23.67028521 7.70285207 23.3773161 6.3773161 21 4 C18.55987051 3.75712511 18.55987051 3.75712511 15.875 3.875 C14.96492188 3.89304687 14.05484375 3.91109375 13.1171875 3.9296875 C12.41851562 3.95289063 11.71984375 3.97609375 11 4 Z M35 5 C32.56015502 7.00415838 32.02876045 7.91371864 31 11 C30.65777263 16.30452423 30.47923391 19.72478403 34 24 C36.6740203 26.10101595 38.04284685 25.99846976 41.5 25.875 C45.30972781 24.92256805 46.64628244 24.07793835 49 21 C50.64976289 16.05071134 50.6919872 12.4105893 48.375 7.6875 C44.30498982 3.08196217 40.43494695 1.91530038 35 5 Z M58 4 C58 6.97 58 9.94 58 13 C59.77007714 13.08114106 61.54122098 13.13925505 63.3125 13.1875 C64.29863281 13.22230469 65.28476562 13.25710937 66.30078125 13.29296875 C69.0213395 13.22752545 69.0213395 13.22752545 70.8671875 11.6171875 C72.22782569 10.04501996 72.22782569 10.04501996 71.8125 7.9375 C71.06529664 5.81287474 71.06529664 5.81287474 69 4 C66.33050591 3.75684344 66.33050591 3.75684344 63.375 3.875 C62.37210937 3.89304687 61.36921875 3.91109375 60.3359375 3.9296875 C59.17964844 3.96449219 59.17964844 3.96449219 58 4 Z " fill="#FFFFFF" transform="translate(303,59)"/>
<path d="M0 0 C2.4375 1.1875 2.4375 1.1875 4 3 C4.25 5.6875 4.25 5.6875 4 8 C1.39417629 8.93065133 0.35801776 9.14917407 -2.25 8.0625 C-2.8275 7.711875 -3.405 7.36125 -4 7 C-4 7.66 -4 8.32 -4 9 C-3.2575 9.2475 -2.515 9.495 -1.75 9.75 C1.20124062 11.09147301 2.84814974 12.60905526 5 15 C5.14695313 14.40832031 5.29390625 13.81664063 5.4453125 13.20703125 C7.13600229 7.25075057 8.87355729 4.49034398 14 1 C17.70759732 -0.85379866 21.95373485 -0.45923868 26 0 C29.85544798 1.99657127 31.59805092 3.39707638 34 7 C33.78174436 9.46397571 33.39101504 10.61650979 31.6171875 12.35620117 C31.04226563 12.74783447 30.46734375 13.13946777 29.875 13.54296875 C29.25109375 13.97673828 28.6271875 14.41050781 27.984375 14.85742188 C27.32953125 15.29634766 26.6746875 15.73527344 26 16.1875 C24.70802206 17.07637065 23.41633995 17.96567149 22.125 18.85546875 C21.09375 19.56316406 20.0625 20.27085938 19 21 C18.67 21.33 18.34 21.66 18 22 C22.46599671 22.41178688 22.46599671 22.41178688 26.25 20.25 C27.83145927 18.21669523 28.98828546 16.36066727 30 14 C32.475 14.495 32.475 14.495 35 15 C35.75 16.625 35.75 16.625 36 19 C33.14980828 24.26189241 29.74687144 28.08437619 24 30 C17.89510298 30.58700933 14.869097 29.46454979 10 26 C8.0625 23.25 8.0625 23.25 7 21 C6.773125 21.7425 6.54625 22.485 6.3125 23.25 C4.69670814 26.63546867 3.19064508 28.04210415 0 30 C-3.51838293 30.51309751 -5.51668808 30.19332477 -8.8125 28.875 C-11 27 -11 27 -11.875 23.875 C-11.91625 22.92625 -11.9575 21.9775 -12 21 C-11 20 -11 20 -8.4375 19.9375 C-7.2309375 19.9684375 -7.2309375 19.9684375 -6 20 C-5.67 20.66 -5.34 21.32 -5 22 C-4.01 22 -3.02 22 -2 22 C-1.67 20.68 -1.34 19.36 -1 18 C-1.721875 17.773125 -2.44375 17.54625 -3.1875 17.3125 C-6.69277149 15.67670664 -8.62123641 14.05841033 -11 11 C-11.63007693 7.00951279 -11.63021887 4.98314143 -9.4375 1.5625 C-6.08147594 -0.58879747 -3.91578329 -0.48947291 0 0 Z M14 9 C13.26393501 12.56769552 13.26393501 12.56769552 13 16 C14.81618856 14.88096454 16.62785526 13.75458716 18.4375 12.625 C19.44683594 11.99851562 20.45617187 11.37203125 21.49609375 10.7265625 C24.08011063 9.24183698 24.08011063 9.24183698 25 7 C23.1128125 6.938125 23.1128125 6.938125 21.1875 6.875 C20.47980469 6.85179688 19.77210938 6.82859375 19.04296875 6.8046875 C16.68640281 6.86745538 16.68640281 6.86745538 14 9 Z " fill="#FFFFFF" transform="translate(247,60)"/>
<path d="M0 0 C5.75 -0.125 5.75 -0.125 8 1 C8 1.99 8 2.98 8 4 C9.60875 3.9071875 9.60875 3.9071875 11.25 3.8125 C15.10866187 4.00543309 16.28817788 4.39665076 19 7 C18.67 9.31 18.34 11.62 18 14 C18.99 14 19.98 14 21 14 C21 16.64 21 19.28 21 22 C20.01 22 19.02 22 18 22 C18.2475 22.9075 18.495 23.815 18.75 24.75 C19 28 19 28 17.4375 30.375 C14.41791735 32.3880551 12.55930982 32.32357362 9 32 C8.67 32.99 8.34 33.98 8 35 C5.36 35 2.72 35 0 35 C-0.495 33.515 -0.495 33.515 -1 32 C-4.13349732 30.95550089 -4.98968256 31.06576355 -8 32 C-9.5625 30.375 -9.5625 30.375 -11 28 C-10.6875 24.75 -10.6875 24.75 -10 22 C-11.32 22 -12.64 22 -14 22 C-14 19.36 -14 16.72 -14 14 C-12.68 14 -11.36 14 -10 14 C-10.226875 12.906875 -10.45375 11.81375 -10.6875 10.6875 C-11 7 -11 7 -10.0625 5.0625 C-6.74491303 3.35344005 -3.69558797 3.81824977 0 4 C0 2.68 0 1.36 0 0 Z M1 13 C-1.31543207 15.76988076 -1.31543207 15.76988076 -0.6875 18.625 C-0.2258486 20.93501965 -0.2258486 20.93501965 1 22 C3.45809998 22.2500773 3.45809998 22.2500773 6 22 C8.2491908 20.17296773 8.2491908 20.17296773 8.25 17.5 C8.2491908 14.82703227 8.2491908 14.82703227 6 13 C3.5 12.58333333 3.5 12.58333333 1 13 Z " fill="#FFFFFF" transform="translate(84,57)"/>
<path d="M0 0 C2.11051715 1.20351804 4.16176209 2.41176209 5.890625 4.140625 C6.24609375 6.44921875 6.24609375 6.44921875 5.890625 9.140625 C3.87890625 11.23828125 3.87890625 11.23828125 1.203125 13.203125 C0.33300781 13.85410156 -0.53710938 14.50507812 -1.43359375 15.17578125 C-2.75810547 16.14837891 -2.75810547 16.14837891 -4.109375 17.140625 C-5.78165266 18.46691418 -7.4500255 19.79819631 -9.109375 21.140625 C-5.03040896 21.53026707 -5.03040896 21.53026707 -1.421875 19.953125 C0.16655978 17.75957221 1.5541764 15.49532015 2.890625 13.140625 C5.365625 13.635625 5.365625 13.635625 7.890625 14.140625 C8.33859436 17.20174896 8.37944208 19.34568006 6.73046875 22.02734375 C3.87410662 25.51195944 1.42075114 28.14620707 -3.109375 29.140625 C-8.35603244 29.61759386 -11.66782389 29.00295794 -16.109375 26.140625 C-20.55663552 21.21257956 -21.45476526 18.18944995 -21.3984375 11.68359375 C-20.85239302 6.87987809 -17.76138367 3.15750173 -14.109375 0.140625 C-9.48055869 -1.40231377 -4.60648699 -1.87671692 0 0 Z M-12.609375 7.828125 C-14.37394114 10.5484978 -14.23551984 11.97123587 -14.109375 15.140625 C-12.29318644 14.02158954 -10.48151974 12.89521216 -8.671875 11.765625 C-7.66253906 11.13914062 -6.65320313 10.51265625 -5.61328125 9.8671875 C-3.02926437 8.38246198 -3.02926437 8.38246198 -2.109375 6.140625 C-7.70604567 5.6157852 -7.70604567 5.6157852 -12.609375 7.828125 Z " fill="#FFFFFF" transform="translate(37.109375,60.859375)"/>
<path d="M0 0 C4.54772066 2.23251742 6.75962513 4.51283085 9 9 C9.3984375 11.9375 9.3984375 11.9375 9.375 15 C9.38273437 16.010625 9.39046875 17.02125 9.3984375 18.0625 C8.93946228 21.44631728 8.0482039 23.28309027 6 26 C2.46716819 28.68034414 -1.20090315 29.88784606 -5.5625 30.5 C-11.21538342 29.67776241 -14.57520624 27.53439329 -18.4375 23.375 C-20.55335313 18.80475725 -20.68078414 14.95644066 -20 10 C-16.30705382 1.05918294 -8.83676857 -0.97733846 0 0 Z M-11.5 8.5 C-13.61136591 12.01894318 -13.94237143 15.00106731 -13 19 C-10.41832046 22.03727005 -8.87501007 22.87499856 -4.9375 23.4375 C-1.58051369 22.93752331 -0.23225897 22.562964 2 20 C3.11272738 15.99418142 3.43651903 13.91272161 1.625 10.125 C0.17208818 8.1280336 0.17208818 8.1280336 -1 7 C-6.53666687 6.47320437 -6.53666687 6.47320437 -11.5 8.5 Z " fill="#FFFFFF" transform="translate(188,60)"/>
<path d="M0 0 C0.75603516 -0.02900391 1.51207031 -0.05800781 2.29101562 -0.08789062 C7.59593942 -0.1477033 10.66053951 0.71497429 14.8125 4.3125 C16.74124845 7.38169014 17.0516453 9.70258534 17.0078125 13.296875 C17.00136719 14.23144531 16.99492187 15.16601562 16.98828125 16.12890625 C16.97152344 17.09699219 16.95476562 18.06507812 16.9375 19.0625 C16.92847656 20.04605469 16.91945312 21.02960938 16.91015625 22.04296875 C16.88662785 24.46639407 16.85375368 26.88932222 16.8125 29.3125 C14.4375 29.9375 14.4375 29.9375 11.8125 30.3125 C9.46596154 27.96596154 9.5428245 27.43630653 9.43359375 24.25 C9.38235352 23.05503906 9.38235352 23.05503906 9.33007812 21.8359375 C9.30365234 21.00320312 9.27722656 20.17046875 9.25 19.3125 C9.19012299 17.66651919 9.12649758 16.02066921 9.05859375 14.375 C9.03466553 13.64410156 9.0107373 12.91320312 8.98608398 12.16015625 C8.91596366 10.21810105 8.91596366 10.21810105 7.8125 8.3125 C4.39593976 8.14572718 4.39593976 8.14572718 0.8125 8.3125 C-1.54054888 10.66554888 -1.44956517 11.18084143 -1.53125 14.375 C-1.56089844 15.17164062 -1.59054688 15.96828125 -1.62109375 16.7890625 C-1.64300781 17.62179688 -1.66492188 18.45453125 -1.6875 19.3125 C-1.73081809 20.95858735 -1.78250904 22.60448197 -1.84375 24.25 C-1.86244141 24.98089844 -1.88113281 25.71179688 -1.90039062 26.46484375 C-2.1875 28.3125 -2.1875 28.3125 -4.1875 30.3125 C-6.8125 29.9375 -6.8125 29.9375 -9.1875 29.3125 C-9.21215881 25.34319011 -9.23034023 21.37390966 -9.24243164 17.40454102 C-9.24747057 16.05329614 -9.25430177 14.70205674 -9.26293945 13.35083008 C-9.27502419 11.41229566 -9.28019828 9.473722 -9.28515625 7.53515625 C-9.29039307 6.36734619 -9.29562988 5.19953613 -9.30102539 3.99633789 C-9.06757864 -1.52254412 -4.42979041 0.05523429 0 0 Z " fill="#FFFFFF" transform="translate(208.1875,59.6875)"/>
<path d="M0 0 C2.00720923 0.28674418 4.0085944 0.61866701 6 1 C6.01981934 1.56509277 6.03963867 2.13018555 6.06005859 2.71240234 C6.15518236 5.26707997 6.26491058 7.82092541 6.375 10.375 C6.4059375 11.26445313 6.436875 12.15390625 6.46875 13.0703125 C6.50742188 13.92109375 6.54609375 14.771875 6.5859375 15.6484375 C6.6173584 16.43395996 6.6487793 17.21948242 6.68115234 18.02880859 C6.8399465 20.23002939 6.8399465 20.23002939 9 22 C13.34194936 21.90304884 13.34194936 21.90304884 17 20 C17.14421154 18.59802598 17.22686124 17.18957169 17.28125 15.78125 C17.31863281 14.93175781 17.35601562 14.08226563 17.39453125 13.20703125 C17.42933594 12.31371094 17.46414062 11.42039062 17.5 10.5 C17.56859443 8.73940962 17.64128952 6.97897259 17.71875 5.21875 C17.74904297 4.43435547 17.77933594 3.64996094 17.81054688 2.84179688 C18 1 18 1 19 0 C21.5 -0.125 21.5 -0.125 24 0 C25 1 25 1 25.11352539 3.68383789 C25.10828857 4.85164795 25.10305176 6.01945801 25.09765625 7.22265625 C25.09443359 8.48271484 25.09121094 9.74277344 25.08789062 11.04101562 C25.07953403 12.38151109 25.07106907 13.72200588 25.0625 15.0625 C25.0574866 16.40689942 25.05292342 17.7513006 25.04882812 19.09570312 C25.03699488 22.39717941 25.02050971 25.69856803 25 29 C20.25 30.125 20.25 30.125 18 29 C16.57763434 29.16499442 15.16083355 29.38026357 13.75 29.625 C9.26573553 30.16483922 6.76586611 29.71492673 3 27 C-1.58300932 21.71704016 -1.52690414 17.33402831 -1.3125 10.6875 C-1.30283203 9.76904297 -1.29316406 8.85058594 -1.28320312 7.90429688 C-1.16870301 1.16870301 -1.16870301 1.16870301 0 0 Z " fill="#FFFFFF" transform="translate(116,60)"/>
<path d="M0 0 C1.65 0 3.3 0 5 0 C10.37129841 10.37357631 10.37129841 10.37357631 12 16 C14.59037598 12.79509037 16.37943156 9.44649547 18.1875 5.75 C18.98220703 4.13351563 18.98220703 4.13351563 19.79296875 2.484375 C20.19128906 1.66453125 20.58960937 0.8446875 21 0 C23.475 0.495 23.475 0.495 26 1 C26.52352144 5.18817149 25.24861771 7.77285303 23.26953125 11.40234375 C22.22696444 13.53559583 21.38282263 15.5912542 20.57421875 17.81640625 C20.19934326 18.83178467 20.19934326 18.83178467 19.81689453 19.86767578 C19.31888775 21.23405167 18.83640891 22.60619989 18.37060547 23.98388672 C17.66015625 25.90234375 17.66015625 25.90234375 16 29 C13.30859375 29.94140625 13.30859375 29.94140625 11 30 C8.03381815 25.42440718 5.94118359 20.5627893 3.8125 15.5625 C3.44447266 14.72912109 3.07644531 13.89574219 2.69726562 13.03710938 C0.77490416 8.5254447 -0.49652014 5.00589979 0 0 Z " fill="#FFFFFF" transform="translate(45,60)"/>
<path d="M0 0 C1.98 0 3.96 0 6 0 C6 2.97 6 5.94 6 9 C8.97 9 11.94 9 15 9 C15.04254356 10.99954746 15.04080783 13.00041636 15 15 C14.67 15.33 14.34 15.66 14 16 C11.36 16 8.72 16 6 16 C6 21.28 6 26.56 6 32 C7.32 32 8.64 32 10 32 C10 34.31 10 36.62 10 39 C6.92411151 39.20971967 4.65100371 39.29916699 1.82128906 37.9987793 C-0.95698179 34.94975738 -0.49520866 31.74266926 -0.390625 27.83203125 C-0.38496521 27.03721848 -0.37930542 26.2424057 -0.37347412 25.42350769 C-0.35109004 22.88589134 -0.30089262 20.3496892 -0.25 17.8125 C-0.2299375 16.09181727 -0.21168629 14.37111241 -0.1953125 12.65039062 C-0.15121894 8.43304918 -0.08217965 4.21676431 0 0 Z " fill="#FFFFFF" transform="translate(143,51)"/>
<path d="M0 0 C2.31 0 4.62 0 7 0 C7.04935824 5.23273331 7.08569949 10.46533176 7.10986328 15.69824219 C7.11993431 17.47919067 7.13359185 19.26012257 7.15087891 21.04101562 C7.17507913 23.59769783 7.18647184 26.15416185 7.1953125 28.7109375 C7.20563507 29.50994476 7.21595764 30.30895203 7.22659302 31.13217163 C7.22699226 33.0895722 7.12241069 35.04643077 7 37 C6.34 37.66 5.68 38.32 5 39 C3.35 38.67 1.7 38.34 0 38 C0 25.46 0 12.92 0 0 Z " fill="#FFFFFF" transform="translate(107,51)"/>
<path d="M0 0 C14 0 14 0 17 2 C17 3.32 17 4.64 17 6 C13.45648927 7.61989062 10.87280581 8.10414268 7 8 C6.98018066 8.59538574 6.96036133 9.19077148 6.93994141 9.80419922 C6.84483874 12.49492153 6.73510158 15.18485148 6.625 17.875 C6.5940625 18.81214844 6.563125 19.74929687 6.53125 20.71484375 C6.49257812 21.61074219 6.45390625 22.50664063 6.4140625 23.4296875 C6.3826416 24.25710449 6.3512207 25.08452148 6.31884766 25.93701172 C6 28 6 28 4 30 C2.68 29.67 1.36 29.34 0 29 C0 19.43 0 9.86 0 0 Z " fill="#FFFFFF" transform="translate(0,60)"/>
<path d="M0 0 C1.2065625 0.0309375 1.2065625 0.0309375 2.4375 0.0625 C4.61175477 4.41100954 3.62246474 10.28607366 3.625 15.0625 C3.63724609 16.27679688 3.64949219 17.49109375 3.66210938 18.7421875 C3.66404297 19.89976563 3.66597656 21.05734375 3.66796875 22.25 C3.67207764 23.31605469 3.67618652 24.38210937 3.68041992 25.48046875 C3.4375 28.0625 3.4375 28.0625 1.4375 30.0625 C-1.1875 29.6875 -1.1875 29.6875 -3.5625 29.0625 C-3.58715881 25.09319011 -3.60534023 21.12390966 -3.61743164 17.15454102 C-3.62247057 15.80329614 -3.62930177 14.45205674 -3.63793945 13.10083008 C-3.65002419 11.16229566 -3.65519828 9.223722 -3.66015625 7.28515625 C-3.66539307 6.11734619 -3.67062988 4.94953613 -3.67602539 3.74633789 C-3.52118943 0.08588267 -3.52118943 0.08588267 0 0 Z " fill="#FFFFFF" transform="translate(230.5625,59.9375)"/>
<path d="M0 0 C1.65 0.33 3.3 0.66 5 1 C5 10.24 5 19.48 5 29 C3.68 29.33 2.36 29.66 1 30 C-0.72729492 28.88647461 -0.72729492 28.88647461 -2 27 C-2.37231445 24.61157227 -2.37231445 24.61157227 -2.36328125 21.81640625 C-2.36263672 20.80642578 -2.36199219 19.79644531 -2.36132812 18.75585938 C-2.34521484 17.70205078 -2.32910156 16.64824219 -2.3125 15.5625 C-2.31572266 14.51255859 -2.31894531 13.46261719 -2.32226562 12.38085938 C-2.26242486 3.84539045 -2.26242486 3.84539045 0 0 Z " fill="#FFFFFF" transform="translate(161,60)"/>
<path d="M0 0 C1.4540625 0.0309375 1.4540625 0.0309375 2.9375 0.0625 C4.0625 4.8125 4.0625 4.8125 2.9375 7.0625 C0.6275 6.7325 -1.6825 6.4025 -4.0625 6.0625 C-4.105221 4.39638095 -4.10313832 2.72867115 -4.0625 1.0625 C-3.0625 0.0625 -3.0625 0.0625 0 0 Z " fill="#FFFFFF" transform="translate(163.0625,50.9375)"/>
<path d="M0 0 C1.99954746 -0.04254356 4.00041636 -0.04080783 6 0 C7 1 7 1 7.0625 3.5625 C7.041875 4.366875 7.02125 5.17125 7 6 C4.125 6.625 4.125 6.625 1 7 C0.34 6.34 -0.32 5.68 -1 5 C-0.625 2.375 -0.625 2.375 0 0 Z " fill="#FFFFFF" transform="translate(227,51)"/>
</svg>
