<?xml version="1.0" encoding="UTF-8"?>
<svg version="1.1" xmlns="http://www.w3.org/2000/svg" width="400" height="150">
<path d="M0 0 C0.8209826 -0.0034177 1.64196519 -0.0068354 2.48782605 -0.01035666 C5.2365588 -0.01694105 7.98431327 0.0050494 10.73295593 0.0269165 C12.7041115 0.02804486 14.67526875 0.02741135 16.64642334 0.02514648 C21.99734338 0.02399796 27.34790538 0.04752991 32.69874215 0.07544231 C38.29079137 0.10043275 43.88284863 0.10279611 49.47494507 0.10754395 C60.06423201 0.11998063 70.65335394 0.15281172 81.24256819 0.1929419 C93.29805423 0.23763797 105.35354811 0.25964123 117.40909636 0.27972364 C142.20814041 0.32154365 167.00703795 0.39190928 191.80595398 0.48101807 C191.43095398 2.41851807 191.43095398 2.41851807 190.80595398 4.48101807 C188.56284939 5.60257036 187.20442718 5.66475317 184.71112061 5.7709198 C183.84709594 5.80894242 182.98307127 5.84696505 182.09286404 5.88613987 C181.13588147 5.92252536 180.17889891 5.95891085 179.19291687 5.99639893 C178.17679605 6.03750007 177.16067522 6.07860121 176.11376286 6.12094784 C162.69686117 6.63667919 149.2728914 6.90876605 135.84943271 7.18819928 C132.80482622 7.25185327 129.76025364 7.31706022 126.71567875 7.38220543 C119.4978539 7.53658284 112.27997571 7.68825213 105.0620575 7.8381958 C98.54310583 7.97366492 92.02423324 8.11238274 85.50541687 8.25421143 C15.36555155 9.77909143 15.36555155 9.77909143 -15.19404602 9.48101807 C-12.76114962 1.51881166 -7.79591017 -0.11894968 0 0 Z " fill="#9AEDFE" transform="translate(201.1940460205078,95.51898193359375)"/>
<path d="M0 0 C0.66 0.33 1.32 0.66 2 1 C1.67 3.64 1.34 6.28 1 9 C1.969375 8.979375 2.93875 8.95875 3.9375 8.9375 C7 9 7 9 8 10 C8.4556962 15.24050633 8.4556962 15.24050633 6.875 17.875 C4.21965017 19.4682099 2.03210482 19.20214032 -1 19 C-1.33 22.63 -1.66 26.26 -2 30 C-0.02 30.33 1.96 30.66 4 31 C3.25 38.75 3.25 38.75 1 41 C-3.67062255 41.71092662 -7.77437596 41.57529292 -12.0625 39.5625 C-14.87301073 35.84537291 -15.1604273 32.59405454 -15 28 C-14.52788143 24.9358579 -13.85232879 21.97962875 -13 19 C-14.65 19 -16.3 19 -18 19 C-17.9175 20.093125 -17.835 21.18625 -17.75 22.3125 C-18 26 -18 26 -19.40625 27.6875 C-23.3921287 29.70445067 -27.33987812 29.57350128 -31.75 29.6875 C-32.63816406 29.72166016 -33.52632812 29.75582031 -34.44140625 29.79101562 C-36.62747803 29.87328714 -38.81315951 29.94250172 -41 30 C-38.17092329 32.34560055 -38.17092329 32.34560055 -34.9375 31.6875 C-32.0868577 31.1399374 -32.0868577 31.1399374 -30 30 C-28.125 29.8671875 -28.125 29.8671875 -26 29.875 C-24.948125 29.87113281 -24.948125 29.87113281 -23.875 29.8671875 C-22 30 -22 30 -20 31 C-21.36018991 34.11963955 -22.83260134 36.00834822 -25.4375 38.1875 C-26.03433594 38.69667969 -26.63117188 39.20585938 -27.24609375 39.73046875 C-31.80625383 43.03125277 -37.63425945 42.55269431 -43 42 C-47.43118719 39.86353475 -50.2290203 37.62422478 -52 33 C-52.94843018 26.29776005 -52.45394891 21.18061909 -48.41796875 15.65234375 C-44.51099468 11.09958884 -40.91492462 9.10278256 -35 8 C-29.25233645 7.89975005 -25.5636304 9.39154806 -21 13 C-19.98940643 13.989293 -18.98689169 14.98706131 -18 16 C-17.2886792 15.32626343 -17.2886792 15.32626343 -16.56298828 14.63891602 C-14.41926773 12.61102256 -12.27218402 10.58672562 -10.125 8.5625 C-9.37863281 7.85544922 -8.63226563 7.14839844 -7.86328125 6.41992188 C-7.14785156 5.74638672 -6.43242187 5.07285156 -5.6953125 4.37890625 C-5.03547363 3.7557251 -4.37563477 3.13254395 -3.69580078 2.49047852 C-2 1 -2 1 0 0 Z M-37 18 C-37.99 19.485 -37.99 19.485 -39 21 C-35.7 21 -32.4 21 -29 21 C-29.66 20.01 -30.32 19.02 -31 18 C-34 17.5 -34 17.5 -37 18 Z " fill="#FCFCFC" transform="translate(149,48)"/>
<path d="M0 0 C3.5291488 3.1405459 5.7002426 5.82238163 6.875 10.4375 C6.91625 11.283125 6.9575 12.12875 7 13 C3.37 13.66 -0.26 14.32 -4 15 C-4.66 13.35 -5.32 11.7 -6 10 C-12.71078101 9.5045982 -12.71078101 9.5045982 -19 11.5 C-21.65289489 14.81611861 -22.65547871 17.78171489 -23 22 C-22.34816968 25.66654556 -21.44152389 26.65781899 -18.5 28.9375 C-13.51479265 30.45086652 -9.8025392 29.99445781 -5 28 C-2.3920214 26.0489629 -0.11024689 23.98564063 2.1875 21.6796875 C4 20 4 20 6 20 C6.82793182 25.38155682 5.00685871 28.62985326 1.96875 32.87890625 C-2.27336228 37.44927722 -7.99458856 39.83728643 -14.0625 41 C-20.12587102 41 -24.81112672 39.42752605 -29.875 36.125 C-34.24859171 31.75140829 -35.69339733 27.85995509 -36.12109375 21.75390625 C-35.82843896 15.09836982 -33.35515501 9.04433746 -28.9375 4.0625 C-20.79559061 -3.22144475 -9.60480114 -5.41361519 0 0 Z " fill="#FDFDFD" transform="translate(229,50)"/>
<path d="M0 0 C2.78378667 2.3065661 3.92435351 4.44410936 5.1875 7.8125 C4.8575 8.8025 4.5275 9.7925 4.1875 10.8125 C0.8875 11.4725 -2.4125 12.1325 -5.8125 12.8125 C-6.4725 11.8225 -7.1325 10.8325 -7.8125 9.8125 C-10.87806598 9.07906572 -10.87806598 9.07906572 -13.8125 8.8125 C-13.72498595 10.77417508 -13.72498595 10.77417508 -12.8125 12.8125 C-10.40449456 14.03379435 -10.40449456 14.03379435 -7.5 14.8125 C-3.21689936 16.09342729 -0.67362277 17.31484304 2.1875 20.8125 C3.35647757 24.94288741 3.33543842 27.30776892 2.125 31.4375 C-0.64180871 36.25710227 -3.12151452 38.89881656 -8.33203125 40.66796875 C-14.75143199 42.14936892 -19.97995954 42.06759001 -25.8125 38.8125 C-28.67568464 36.15881667 -29.71679648 34.88916464 -30.0625 31 C-29.93875 29.9171875 -29.93875 29.9171875 -29.8125 28.8125 C-25.98260894 27.01019832 -23.03128192 26.61627759 -18.8125 26.8125 C-18.4825 27.8025 -18.1525 28.7925 -17.8125 29.8125 C-15.1725 29.8125 -12.5325 29.8125 -9.8125 29.8125 C-9.90403601 27.84581607 -9.90403601 27.84581607 -10.8125 25.8125 C-13.19123523 24.6642324 -13.19123523 24.6642324 -16.0625 23.9375 C-21.46940657 22.11407708 -24.11287193 20.92251028 -26.8125 15.8125 C-27.35024504 10.98146792 -26.27721918 7.62201082 -23.875 3.4375 C-17.63388216 -3.0381107 -7.83071726 -3.30630284 0 0 Z " fill="#FEFEFE" transform="translate(32.8125,49.1875)"/>
<path d="M0 0 C2.15403943 0.62996447 2.15403943 0.62996447 5.015625 0.5078125 C5.345625 0.1778125 5.675625 -0.1521875 6.015625 -0.4921875 C8.35507236 -0.20488695 10.6895393 0.12718029 13.015625 0.5078125 C14.53097741 6.40277305 13.07077517 11.30650675 11.765625 17.1328125 C11.43884766 18.70675781 11.43884766 18.70675781 11.10546875 20.3125 C10.77482422 21.82070312 10.77482422 21.82070312 10.4375 23.359375 C10.23737305 24.27541504 10.03724609 25.19145508 9.83105469 26.13525391 C8.94617037 28.70989637 8.18952303 29.88967276 6.015625 31.5078125 C3.015625 31.6953125 3.015625 31.6953125 0.015625 31.5078125 C-2.9098394 31.2842057 -2.9098394 31.2842057 -4.984375 32.5078125 C-9.9954908 33.05759319 -13.88133993 33.06935763 -18.421875 30.7578125 C-21.62073161 27.94906035 -23.71804201 26.0614216 -24.453125 21.7734375 C-24.52700841 14.64368888 -23.7491863 9.9420601 -18.984375 4.5078125 C-13.24419392 -1.23236858 -7.56266395 -2.08898759 0 0 Z M-10.859375 11.6953125 C-13.14292719 14.28602778 -13.14292719 14.28602778 -13.484375 17.1328125 C-13.10980747 19.5073613 -13.10980747 19.5073613 -11.921875 21.3828125 C-9.85318001 22.80743847 -9.85318001 22.80743847 -6.484375 22.4453125 C-3.02611957 21.79364327 -3.02611957 21.79364327 -1.046875 19.8203125 C0.31504764 16.85612794 0.36633645 14.73435787 0.015625 11.5078125 C-1.85401498 9.24482813 -1.85401498 9.24482813 -4.796875 9.0703125 C-8.15413241 9.26498635 -8.15413241 9.26498635 -10.859375 11.6953125 Z " fill="#FDFDFD" transform="translate(60.984375,57.4921875)"/>
<path d="M0 0 C5.42677456 4.41714209 5.42677456 4.41714209 6.00390625 8.3359375 C6.30878717 14.41388622 6.30878717 14.41388622 4.26953125 16.953125 C0.24384331 18.87765963 -3.66641103 18.50162295 -8.0625 18.375 C-9.39474609 18.35469727 -9.39474609 18.35469727 -10.75390625 18.33398438 C-12.94072578 18.29871309 -15.12629966 18.24942752 -17.3125 18.1875 C-16.00962969 19.76688294 -16.00962969 19.76688294 -14.3125 21.1875 C-11.31474356 20.94278519 -9.00572172 20.53411086 -6.3125 19.1875 C-4.4375 19.0546875 -4.4375 19.0546875 -2.3125 19.0625 C-1.260625 19.05863281 -1.260625 19.05863281 -0.1875 19.0546875 C1.6875 19.1875 1.6875 19.1875 3.6875 20.1875 C2.49588951 24.82154081 0.22094734 26.5923178 -3.55859375 29.171875 C-8.43344181 31.99472688 -13.85805205 31.74933155 -19.3125 31.1875 C-23.74368719 29.05103475 -26.5415203 26.81172478 -28.3125 22.1875 C-29.26093018 15.48526005 -28.76644891 10.36811909 -24.73046875 4.83984375 C-18.03845706 -2.95828558 -8.95984748 -4.90255805 0 0 Z M-13.3125 7.1875 C-14.3025 8.6725 -14.3025 8.6725 -15.3125 10.1875 C-12.0125 10.1875 -8.7125 10.1875 -5.3125 10.1875 C-5.3125 9.5275 -5.3125 8.8675 -5.3125 8.1875 C-8.10113007 6.79318496 -10.23328868 6.93089906 -13.3125 7.1875 Z " fill="#FCFCFC" transform="translate(392.3125,58.8125)"/>
<path d="M0 0 C2.74448549 1.54661613 3.81059787 2.41593235 4.79296875 5.4453125 C4.98826172 6.77175781 4.98826172 6.77175781 5.1875 8.125 C5.45833793 11.36314354 5.45833793 11.36314354 7 14 C7.55429688 13.07316406 8.10859375 12.14632812 8.6796875 11.19140625 C9.41119226 9.98160991 10.14297768 8.77198324 10.875 7.5625 C11.23980469 6.95083984 11.60460937 6.33917969 11.98046875 5.70898438 C14.7734375 1.11328125 14.7734375 1.11328125 17 0 C23.53333333 -0.23333333 23.53333333 -0.23333333 26 1 C25.42409929 5.0128869 24.1851861 7.70177652 22.0078125 11.10546875 C21.0811377 12.56919922 21.0811377 12.56919922 20.13574219 14.0625 C19.47219727 15.09375 18.80865234 16.125 18.125 17.1875 C16.75667227 19.336514 15.389496 21.48626156 14.0234375 23.63671875 C13.0039502 25.23845947 13.0039502 25.23845947 11.96386719 26.87255859 C10.15510918 29.75298998 8.396531 32.65524955 6.6640625 35.58203125 C5.91938721 36.83560425 5.91938721 36.83560425 5.15966797 38.11450195 C4.2362594 39.67713186 3.3208909 41.24454743 2.41455078 42.81713867 C1.35689789 44.59520072 0.18870143 46.30674184 -1 48 C-1.99 48 -2.98 48 -4 48 C-6.47231517 44.29152724 -6.60936624 40.30908982 -6 36 C-5.484375 35.21625 -4.96875 34.4325 -4.4375 33.625 C-0.77299841 26.93330145 -4.74580277 17.50070763 -6.62719727 10.53393555 C-7.52091626 7.18873267 -8 4.49647479 -8 1 C-5.19084526 -0.40457737 -3.11189466 -0.24895157 0 0 Z " fill="#FCFCFC" transform="translate(166,57)"/>
<path d="M0 0 C0.33 0.33 0.66 0.66 1 1 C0.93381063 2.46218333 0.79468775 3.92118874 0.625 5.375 C0.18944735 9.28931732 -0.21187301 13.20204291 -0.5625 17.125 C-0.64628906 18.05570313 -0.73007812 18.98640625 -0.81640625 19.9453125 C-0.87699219 20.62335938 -0.93757813 21.30140625 -1 22 C0.98 22 2.96 22 5 22 C5.10022461 21.44014404 5.20044922 20.88028809 5.30371094 20.3034668 C5.768743 17.76134426 6.25904007 15.22473693 6.75 12.6875 C6.90726562 11.80642578 7.06453125 10.92535156 7.2265625 10.01757812 C8.50700693 3.54148419 8.50700693 3.54148419 10.90625 0.90625 C13.96354353 -0.41705616 16.71729008 -0.18938711 20 0 C21.5374765 4.92984401 20.43328633 9.05150979 19.3125 13.9375 C19.15072266 14.72318359 18.98894531 15.50886719 18.82226562 16.31835938 C17.39418548 22.70995401 15.24399142 27.25976176 9.9375 31.375 C5.19688254 33.82210059 0.19087538 33.65187737 -5 33 C-9.61229018 31.23359099 -11.93030584 28.45780281 -14 24 C-14.38030668 16.77417311 -12.75540823 8.67656609 -10 2 C-6.34346173 -0.43769218 -4.30999899 -0.23944439 0 0 Z " fill="#FCFCFD" transform="translate(323,57)"/>
<path d="M0 0 C1.41218473 4.74157391 0.55250356 8.59839796 -0.4375 13.3125 C-0.58509766 14.05306641 -0.73269531 14.79363281 -0.88476562 15.55664062 C-1.24800079 17.37281643 -1.62284318 19.18666411 -2 21 C-0.15274948 21.69159401 -0.15274948 21.69159401 2 22 C5.62603977 19.58264015 5.64947972 18.03927298 6.49023438 13.92773438 C6.78756399 12.35539304 7.08185342 10.78247366 7.37304688 9.20898438 C8.55567787 3.46406978 8.55567787 3.46406978 10.93359375 0.98046875 C13.74087808 -0.35153194 15.93313546 -0.26668387 19 0 C19.66 0.33 20.32 0.66 21 1 C20.43993711 4.37928624 19.84782323 7.75220624 19.25 11.125 C19.01410156 12.55199219 19.01410156 12.55199219 18.7734375 14.0078125 C17.49744383 21.07485438 15.86917789 25.41074191 10.4375 30.3125 C5.39895041 33.80072664 -0.07700298 33.61768398 -6 33 C-10.18184696 30.94575939 -12.24533556 29.2601988 -14 25 C-14.59187824 17.54233421 -13.61191353 10.03657302 -11 3 C-7.53607496 -0.45670853 -4.78368887 -0.27598205 0 0 Z " fill="#FDFDFD" transform="translate(251,57)"/>
<path d="M0 0 C1.28132813 0.00902344 2.56265625 0.01804688 3.8828125 0.02734375 C4.87023437 0.03894531 5.85765625 0.05054688 6.875 0.0625 C6.3125 3.375 6.3125 3.375 4.875 7.0625 C1.3125 8.875 1.3125 8.875 -2.125 10.0625 C-2.455 10.7225 -2.785 11.3825 -3.125 12.0625 C-0.815 12.0625 1.495 12.0625 3.875 12.0625 C3.125 18.8125 3.125 18.8125 0.875 21.0625 C-2.25 21.1875 -2.25 21.1875 -5.125 21.0625 C-5.16238281 21.74054688 -5.19976562 22.41859375 -5.23828125 23.1171875 C-5.69981875 29.65111047 -6.51579292 35.99515722 -9.125 42.0625 C-11.53045638 43.26522819 -13.07496953 43.16321472 -15.75 43.125 C-16.97589844 43.11146484 -16.97589844 43.11146484 -18.2265625 43.09765625 C-18.85304688 43.08605469 -19.47953125 43.07445312 -20.125 43.0625 C-19.4872098 35.53657567 -17.92610167 28.39151118 -16.125 21.0625 C-17.775 21.0625 -19.425 21.0625 -21.125 21.0625 C-20.375 14.3125 -20.375 14.3125 -18.125 12.0625 C-16.805 12.0625 -15.485 12.0625 -14.125 12.0625 C-14.0425 11.175625 -13.96 10.28875 -13.875 9.375 C-13.02379084 5.61549285 -11.74534678 3.84165568 -9.125 1.0625 C-6.12186252 -0.43906874 -3.33432478 -0.03031204 0 0 Z " fill="#FDFDFD" transform="translate(96.125,45.9375)"/>
<path d="M0 0 C0.99 0.33 1.98 0.66 3 1 C2.67 3.31 2.34 5.62 2 8 C4.31 8.66 6.62 9.32 9 10 C8.40425532 15.36170213 8.40425532 15.36170213 6.8125 17.875 C4.19985125 19.49664405 2.00479298 19.20031953 -1 19 C-1 22.63 -1 26.26 -1 30 C0.98 30.33 2.96 30.66 5 31 C4.3888335 37.47836491 4.3888335 37.47836491 2.73046875 39.703125 C-0.02407365 41.76747732 -2.43667238 41.4665362 -5.7734375 41.36328125 C-9.03614855 40.83094418 -10.77002644 39.3693469 -13 37 C-15.76671741 31.46656517 -13.60202865 24.60710027 -12 19 C-13.65 19 -15.3 19 -17 19 C-17 15 -17 15 -15.56640625 13.359375 C-14.90511719 12.82828125 -14.24382812 12.2971875 -13.5625 11.75 C-12.84191406 11.15574219 -12.12132812 10.56148437 -11.37890625 9.94921875 C-10.59386719 9.30597656 -9.80882812 8.66273437 -9 8 C-7.32696581 6.52803926 -5.660136 5.04899261 -4 3.5625 C-3.236875 2.88316406 -2.47375 2.20382813 -1.6875 1.50390625 C-1.130625 1.00761719 -0.57375 0.51132812 0 0 Z " fill="#FCFCFC" transform="translate(302,48)"/>
<path d="M0 0 C1.24090897 0.00030212 2.48181793 0.00060425 3.7603302 0.00091553 C5.10414276 0.02133879 6.44794868 0.04220271 7.79174805 0.06347656 C9.17464885 0.0709429 10.55756027 0.07663398 11.94047546 0.08062744 C15.56899556 0.09585327 19.19686868 0.13510732 22.82513428 0.17944336 C26.53201547 0.22046283 30.23900187 0.23865261 33.94604492 0.25878906 C41.21131289 0.30160577 48.47604897 0.36981856 55.7409668 0.45410156 C54.87808366 4.33962257 54.13199787 6.12593098 50.7409668 8.45410156 C47.12993568 9.13926316 43.53379972 9.15520085 39.8659668 9.20410156 C38.76075684 9.2330249 37.65554687 9.26194824 36.5168457 9.29174805 C19.93105043 9.66139489 3.32952597 9.53969105 -13.2590332 9.45410156 C-11.14240109 2.52694191 -7.11586332 -0.05797037 0 0 Z " fill="#6558FF" transform="translate(199.259033203125,95.5458984375)"/>
<path d="M0 0 C1 1 1 1 1.14233398 4.13647461 C1.00503767 7.86325711 0.50503523 11.17568117 -0.27734375 14.81640625 C-0.54353516 16.07517578 -0.80972656 17.33394531 -1.08398438 18.63085938 C-1.368203 19.94146843 -1.65271059 21.25201485 -1.9375 22.5625 C-2.49054228 25.1466578 -3.04001757 27.73156075 -3.58984375 30.31640625 C-3.83597412 31.45537354 -4.08210449 32.59434082 -4.33569336 33.76782227 C-4.96638997 36.83647071 -5.50661367 39.90661104 -6 43 C-9.3 43 -12.6 43 -16 43 C-18.31642186 38.36715627 -17.81265955 35.91582383 -16.83984375 31.09375 C-16.69349991 30.33203491 -16.54715607 29.57031982 -16.39637756 28.78552246 C-16.08272598 27.17711196 -15.76203357 25.5700607 -15.43481445 23.96435547 C-14.94010625 21.51291481 -14.48165394 19.05650431 -14.02539062 16.59765625 C-13.71572627 15.03342011 -13.40394634 13.46960098 -13.08984375 11.90625 C-12.88946754 10.80766663 -12.88946754 10.80766663 -12.68504333 9.68688965 C-11.92372696 6.10732107 -11.15821286 4.16128387 -8.57250977 1.52539062 C-5.46751286 -0.31574259 -3.55270745 -0.40371676 0 0 Z " fill="#FCFCFC" transform="translate(286,46)"/>
<path d="M0 0 C2.4717493 0 4.63277439 -0.20371809 7.0625 -0.5625 C11 -1 11 -1 13 0 C11.375 7.75 11.375 7.75 8 10 C5.67612053 10.39387788 3.34206251 10.73486085 1 11 C0.79503906 12.27617188 0.59007812 13.55234375 0.37890625 14.8671875 C0.10694185 16.53648621 -0.16520291 18.20575553 -0.4375 19.875 C-0.57220703 20.71675781 -0.70691406 21.55851562 -0.84570312 22.42578125 C-0.97783203 23.23144531 -1.10996094 24.03710938 -1.24609375 24.8671875 C-1.36654053 25.61081543 -1.4869873 26.35444336 -1.61108398 27.12060547 C-2 29 -2 29 -3 31 C-4.45792884 31.05399736 -5.91642712 31.09279177 -7.375 31.125 C-8.18710937 31.14820313 -8.99921875 31.17140625 -9.8359375 31.1953125 C-12 31 -12 31 -14 29 C-13.79576707 26.25962083 -13.46935317 23.69778996 -13 21 C-12.86770996 20.21286621 -12.73541992 19.42573242 -12.59912109 18.61474609 C-12.16155305 16.13155986 -11.67976004 13.6603828 -11.1875 11.1875 C-11.03474609 10.34251953 -10.88199219 9.49753906 -10.72460938 8.62695312 C-9.49915647 2.52875073 -9.49915647 2.52875073 -7.0234375 -0.09375 C-4.31684818 -1.30596761 -2.80881456 -0.79222975 0 0 Z " fill="#FCFCFC" transform="translate(355,58)"/>
<path d="M0 0 C1.53982796 0.01306388 3.0796851 0.02302433 4.61955261 0.03001404 C8.66288281 0.05667895 12.70443881 0.12538326 16.74707031 0.20294189 C20.87605793 0.27468772 25.00533369 0.30654946 29.13476562 0.34179688 C37.22997882 0.41675973 45.32375279 0.53615003 53.41796875 0.68359375 C53.04296875 2.62109375 53.04296875 2.62109375 52.41796875 4.68359375 C50.11820698 5.83347464 48.64786557 5.87310801 46.08569336 5.98022461 C45.18557022 6.01926407 44.28544708 6.05830353 43.35804749 6.098526 C42.37621994 6.1356218 41.3943924 6.17271759 40.3828125 6.2109375 C38.8497068 6.2729258 38.8497068 6.2729258 37.28562927 6.33616638 C25.52072258 6.79085065 13.75165174 7.0256933 1.98046875 7.24609375 C-0.22721845 7.28946455 -2.43490079 7.33308335 -4.64257812 7.37695312 C-9.95567692 7.482008 -15.26882612 7.5840693 -20.58203125 7.68359375 C-16.46167363 -1.65065425 -8.95258161 -0.22241781 0 0 Z " fill="#FED700" transform="translate(339.58203125,95.31640625)"/>
<path d="M0 0 C22.77 0 45.54 0 69 0 C68.01 1.65 67.02 3.3 66 5 C65.505 4.01 65.505 4.01 65 3 C33.32 2.505 33.32 2.505 1 2 C0.34 3.32 -0.32 4.64 -1 6 C-3.125 7.25 -3.125 7.25 -5 8 C-4.360625 7.236875 -3.72125 6.47375 -3.0625 5.6875 C-0.85767219 3.11753287 -0.85767219 3.11753287 0 0 Z " fill="#8BE9FE" transform="translate(255,96)"/>
</svg>
