<?xml version="1.0" encoding="UTF-8"?>
<svg version="1.1" xmlns="http://www.w3.org/2000/svg" width="400" height="150">
<path d="M0 0 C11.88048482 4.24994182 21.77625167 4.46282916 33.3125 -0.5625 C42.91414537 -4.53713459 53.3205949 -4.44124015 62.921875 -0.5078125 C63.73140625 -0.15460938 64.5409375 0.19859375 65.375 0.5625 C73.63787758 4.00752419 81.71122249 4.41973092 90.16796875 1.46875 C93.71947461 -0.00658242 97.0982566 -1.70635348 100.5 -3.5 C100.83 -3.5 101.16 -3.5 101.5 -3.5 C101.5 2.77 101.5 9.04 101.5 15.5 C91.1324668 20.79645718 82.26478217 25.18785916 70.34472656 21.90673828 C68.04779353 21.14226057 65.77302085 20.33280227 63.5 19.5 C52.15592606 15.43943115 43.90138392 15.43364163 32.5625 19.5 C19.46725784 24.18057395 9.82969258 22.82054789 -3.18481445 18.66210938 C-15.22806032 14.89336545 -23.77671072 16.36637654 -35.47265625 20.34008789 C-44.4943171 23.32706262 -52.37587958 24.32997556 -61.1875 20.125 C-63.68755164 18.72562576 -65.46898535 17.53101465 -67.5 15.5 C-67.72705078 13.62060547 -67.72705078 13.62060547 -67.6953125 11.3671875 C-67.68886719 10.56152344 -67.68242188 9.75585938 -67.67578125 8.92578125 C-67.65064453 7.66314453 -67.65064453 7.66314453 -67.625 6.375 C-67.61597656 5.52550781 -67.60695313 4.67601563 -67.59765625 3.80078125 C-67.57405647 1.70040116 -67.53818483 -0.39983444 -67.5 -2.5 C-64.79965825 -1.4568914 -62.36909364 -0.42207955 -59.875 1.0625 C-50.17269768 5.1949621 -42.06271018 2.97400126 -32.5 -0.5 C-21.1546656 -4.3882419 -11.26771699 -4.05045833 0 0 Z " fill="#FFFFFF" transform="translate(67.5,65.5)"/>
<path d="M0 0 C3.00054857 0.02682763 5.99736755 0.00016297 8.99780273 -0.03173828 C10.92814943 -0.02843438 12.85849382 -0.02202857 14.78881836 -0.01220703 C16.11575462 -0.02738876 16.11575462 -0.02738876 17.46949768 -0.0428772 C23.93924549 0.07737477 28.718862 1.78127467 33.94116211 5.65185547 C38.49861138 10.66604269 38.94116211 14.86181896 38.94116211 21.65185547 C33.00116211 21.65185547 27.06116211 21.65185547 20.94116211 21.65185547 C20.28116211 19.34185547 19.62116211 17.03185547 18.94116211 14.65185547 C13.53678916 12.85039782 7.72148045 13.42449939 2.06616211 13.40185547 C0.78612305 13.38123047 -0.49391602 13.36060547 -1.81274414 13.33935547 C-3.04637695 13.33419922 -4.28000977 13.32904297 -5.55102539 13.32373047 C-7.24267822 13.30971191 -7.24267822 13.30971191 -8.96850586 13.29541016 C-12.46415233 13.69860528 -14.32074686 14.45518085 -17.05883789 16.65185547 C-19.31474212 21.74278952 -18.28598963 28.63147776 -18.30883789 34.08935547 C-18.32946289 35.3171875 -18.35008789 36.54501953 -18.37133789 37.81005859 C-18.37649414 38.9940625 -18.38165039 40.17806641 -18.38696289 41.39794922 C-18.39630859 42.4774585 -18.4056543 43.55696777 -18.4152832 44.66918945 C-18.00502084 48.10218621 -17.20802506 49.95323606 -15.05883789 52.65185547 C-10.07333315 54.85311663 -3.4012785 53.83645827 1.94116211 53.83935547 C3.12967773 53.85160156 4.31819336 53.86384766 5.54272461 53.87646484 C6.68483398 53.87839844 7.82694336 53.88033203 9.00366211 53.88232422 C10.56793945 53.88848755 10.56793945 53.88848755 12.16381836 53.89477539 C15.26808073 53.79471227 15.26808073 53.79471227 18.94116211 51.65185547 C19.60116211 48.35185547 20.26116211 45.05185547 20.94116211 41.65185547 C13.68116211 41.65185547 6.42116211 41.65185547 -1.05883789 41.65185547 C-1.05883789 31.65185547 -1.05883789 31.65185547 -0.05883789 30.65185547 C2.82550031 30.56320339 5.68578369 30.53664251 8.57006836 30.55419922 C9.86641457 30.55632164 9.86641457 30.55632164 11.18894958 30.55848694 C13.96055503 30.56410308 16.73208091 30.57665828 19.50366211 30.58935547 C21.3780099 30.59436839 23.25235896 30.59893166 25.12670898 30.60302734 C29.73155755 30.61407775 34.33634632 30.63135317 38.94116211 30.65185547 C39.05854151 34.15156746 39.12880172 37.65076502 39.19116211 41.15185547 C39.22467773 42.13412109 39.25819336 43.11638672 39.29272461 44.12841797 C39.377415 50.48019721 38.73204685 55.40967759 34.94116211 60.65185547 C22.62753672 71.05002802 0.38929702 68.27532485 -14.75805664 67.05029297 C-22.38408452 66.12975469 -29.12388869 63.83971924 -34.05883789 57.65185547 C-36.55965152 52.62338375 -37.44187018 48.95420864 -37.45727539 43.24951172 C-37.46014557 42.5681163 -37.46301575 41.88672089 -37.4659729 41.18467712 C-37.46800051 39.75356203 -37.46256249 38.32241839 -37.44995117 36.89135742 C-37.4339018 34.72299013 -37.44982948 32.55649327 -37.46899414 30.38818359 C-37.48201015 21.89373834 -37.33555532 14.92151757 -31.99633789 7.96435547 C-21.83113387 -0.03803918 -12.53191077 -0.13352581 0 0 Z " fill="#FFFFFF" transform="translate(361.058837890625,22.34814453125)"/>
<path d="M0 0 C1.80286634 -0.01648815 3.60566927 -0.04368295 5.40820312 -0.08203125 C25.57413806 -0.508294 25.57413806 -0.508294 32.66040039 5.35009766 C36.95526044 10.53692448 36.66040039 13.34506431 36.66040039 20.35009766 C31.05040039 20.35009766 25.44040039 20.35009766 19.66040039 20.35009766 C18.67040039 18.04009766 17.68040039 15.73009766 16.66040039 13.35009766 C14.78570649 12.28422343 14.78570649 12.28422343 12.66040039 12.35009766 C11.96640137 12.30216064 11.27240234 12.25422363 10.55737305 12.20483398 C8.13324288 12.18018451 5.70966508 12.16444542 3.28540039 12.16259766 C2.44750977 12.15035156 1.60961914 12.13810547 0.74633789 12.12548828 C-4.02421778 12.11423697 -7.85691526 12.50299808 -12.33959961 14.35009766 C-12.33959961 17.65009766 -12.33959961 20.95009766 -12.33959961 24.35009766 C-5.60861001 26.05868048 0.66896865 26.68661141 7.59790039 26.85009766 C27.3229945 27.3174518 27.3229945 27.3174518 33.66040039 32.35009766 C38.8396312 38.10479856 38.95472814 42.66866722 38.87133789 50.18212891 C38.50772179 55.64310407 36.73889725 58.22024381 33.03540039 62.10009766 C25.31083535 67.92307085 14.29120743 66.69085213 5.0949707 66.66577148 C2.66580572 66.6626047 0.23785363 66.6861542 -2.19116211 66.71142578 C-11.3545836 66.74868932 -19.1529972 66.50715999 -27.21459961 61.60009766 C-32.35703076 56.15517056 -32.33959961 51.82462075 -32.33959961 44.35009766 C-26.39959961 44.35009766 -20.45959961 44.35009766 -14.33959961 44.35009766 C-14.00959961 47.32009766 -13.67959961 50.29009766 -13.33959961 53.35009766 C-9.91818026 54.12113252 -6.75456924 54.47829899 -3.24975586 54.48291016 C-2.30036133 54.48419922 -1.3509668 54.48548828 -0.37280273 54.48681641 C0.6075293 54.48294922 1.58786133 54.47908203 2.59790039 54.47509766 C4.06259766 54.48089844 4.06259766 54.48089844 5.55688477 54.48681641 C10.36935707 54.48029102 14.93013902 54.35857978 19.66040039 53.35009766 C19.74126186 51.55916574 19.79952741 49.76720138 19.84790039 47.97509766 C19.88270508 46.97736328 19.91750977 45.97962891 19.95336914 44.95166016 C19.85668945 44.09314453 19.76000977 43.23462891 19.66040039 42.35009766 C12.83765645 37.80160169 2.46264455 39.070816 -5.52319336 38.83251953 C-13.81401052 38.50989596 -21.81450489 37.94303599 -28.33959961 32.35009766 C-32.26463788 25.85832791 -32.08751287 19.73466654 -31.33959961 12.35009766 C-30.33968013 8.60826061 -28.72034024 6.25021831 -25.39819336 4.08447266 C-17.12897894 -0.240494 -9.11320229 0.06095787 0 0 Z " fill="#FFFFFF" transform="translate(219.339599609375,22.64990234375)"/>
<path d="M0 0 C1.69125 0.99 3.3825 1.98 5.125 3 C13.43785826 7.10764475 20.89437005 7.48431716 29.7890625 4.8984375 C32.15891685 4.04528993 34.51331571 3.14699321 36.84375 2.19140625 C46.59426865 -1.48917319 57.0573283 -0.65932747 66.671875 3.0234375 C79.4277741 7.88446932 90.55950665 7.32739503 103.01171875 2.19140625 C113.78499797 -2.10382272 123.38938182 0.48875679 134 4 C134.8146875 4.36609375 135.629375 4.7321875 136.46875 5.109375 C143.24512008 7.49365336 152.53847155 7.10360243 159.0625 4.125 C160.37806214 3.42237022 161.69088021 2.71456122 163 2 C164.98928343 1.30200581 166.98504093 0.61998741 169 0 C169 3.63 169 7.26 169 11 C167.06374902 11.98163422 165.12595461 12.96022454 163.1875 13.9375 C162.10855469 14.48277344 161.02960938 15.02804688 159.91796875 15.58984375 C152.5615715 19.14494336 143.94336206 19.37372315 136.140625 16.91796875 C133.76516978 16.04847195 131.40255557 15.14253989 129.05859375 14.19140625 C116.85553868 9.43798122 105.79257328 12.77986277 93.9921875 17.1015625 C84.39886579 19.9820638 75.58085846 17.84260243 66.3125 15 C51.91334897 10.6103559 42.19185754 11.93809032 27.96484375 17.1015625 C19.92412064 19.53814526 12.64285873 18.74091373 5.1875 15 C3.475625 14.01 1.76375 13.02 0 12 C0 8.04 0 4.08 0 0 Z " fill="#FFFFFF" transform="translate(0,49)"/>
<path d="M0 0 C5.94 0 11.88 0 18 0 C18 21.78 18 43.56 18 66 C12.06 66 6.12 66 0 66 C0 44.22 0 22.44 0 0 Z " fill="#FFFFFF" transform="translate(282,23)"/>
<path d="M0 0 C11.24245253 3.63292651 18.2208041 2.65729555 29.13037109 -1.40161133 C41.43680896 -5.91523658 51.19375728 -4.31962206 63.375 0 C73.92758006 3.67178484 80.7654333 3.05468549 90.8125 -1.625 C92.18586183 -2.21217975 93.56066574 -2.79600933 94.9375 -3.375 C95.88625 -3.7875 96.835 -4.2 97.8125 -4.625 C97.8125 -1.985 97.8125 0.655 97.8125 3.375 C84.77647472 9.55120004 75.805202 12.04318851 62 7.4375 C48.90123838 3.3445099 40.94346107 2.76876761 27.8125 7.375 C14.70135001 11.48830196 5.12279509 10.43311363 -7.75 5.75 C-19.99496533 1.6170494 -30.64157999 4.38068942 -42.5 8.5625 C-51.64659932 11.66324506 -58.43158711 10.44024527 -67.1875 6.375 C-69.5 4.96875 -69.5 4.96875 -71.1875 3.375 C-71.4375 -0.3125 -71.4375 -0.3125 -71.1875 -3.625 C-68.48750274 -2.62214388 -66.08971511 -1.56537507 -63.625 -0.0625 C-58.50825003 2.9550705 -52.98187706 3.14108351 -47.1875 2.375 C-43.32076109 1.30912188 -39.54656878 -0.01516016 -35.78466797 -1.40258789 C-23.27320228 -5.95980777 -12.40537815 -4.1288062 0 0 Z " fill="#FFFFFF" transform="translate(71.1875,43.625)"/>
<path d="M0 0 C2.89728868 1.2328888 4.39683427 2.2245012 6.3125 4.6875 C7.37332445 8.25572771 7.2366705 11.27243956 7 15 C6.01 16.485 6.01 16.485 5 18 C5.3121764 20.64632287 5.3121764 20.64632287 6 23 C4.989375 22.835 3.97875 22.67 2.9375 22.5 C-0.92922977 21.89033157 -0.92922977 21.89033157 -4.5625 22.1875 C-8.87214611 21.95242839 -10.75135125 20.79534892 -14 18 C-16.27668877 14.43648715 -16.35016699 11.10100191 -15.65625 6.9375 C-14.74134217 4.23634354 -13.18753605 2.49038716 -10.87890625 0.84375 C-7.29002848 -0.76788742 -3.82426999 -0.64913808 0 0 Z M-9.9375 5 C-11.71953537 8.35441952 -11.29858742 11.23779845 -11 15 C-8.4345406 17.5654594 -6.52313332 17.54046087 -3 18 C-3 17.01 -3 16.02 -3 15 C-1.35 15 0.3 15 2 15 C2.98388172 10.8150658 2.98388172 10.8150658 2.1875 6.6875 C1.09312675 4.84902178 1.09312675 4.84902178 -1 4 C-5.62365191 3.60653979 -5.62365191 3.60653979 -9.9375 5 Z " fill="#FFFFFF" transform="translate(127,104)"/>
<path d="M0 0 C5 0 5 0 7.16796875 2.08203125 C8.16763672 3.43361328 8.16763672 3.43361328 9.1875 4.8125 C9.86167969 5.70582031 10.53585937 6.59914063 11.23046875 7.51953125 C12.51813062 9.32453189 13.77010314 11.15515472 15 13 C15.33 8.71 15.66 4.42 16 0 C17.32 0 18.64 0 20 0 C20 6.93 20 13.86 20 21 C18.35 21 16.7 21 15 21 C13.13548243 19.00801938 11.69707209 17.23044928 10.1875 15 C9.78080078 14.42765625 9.37410156 13.8553125 8.95507812 13.265625 C7.95525768 11.85411379 6.97561378 10.42834959 6 9 C5.67 12.96 5.34 16.92 5 21 C3.35 21 1.7 21 0 21 C0 14.07 0 7.14 0 0 Z " fill="#FFFFFF" transform="translate(341,104)"/>
<path d="M0 0 C1.48831242 0.00667405 2.97660807 0.01863442 4.46484375 0.03515625 C5.22345703 0.03966797 5.98207031 0.04417969 6.76367188 0.04882812 C8.64326246 0.06064945 10.52281274 0.07858547 12.40234375 0.09765625 C12.40234375 1.41765625 12.40234375 2.73765625 12.40234375 4.09765625 C8.44234375 4.09765625 4.48234375 4.09765625 0.40234375 4.09765625 C0.40234375 5.41765625 0.40234375 6.73765625 0.40234375 8.09765625 C4.36234375 8.09765625 8.32234375 8.09765625 12.40234375 8.09765625 C12.40234375 9.41765625 12.40234375 10.73765625 12.40234375 12.09765625 C8.44234375 12.09765625 4.48234375 12.09765625 0.40234375 12.09765625 C0.40234375 13.74765625 0.40234375 15.39765625 0.40234375 17.09765625 C4.69234375 17.09765625 8.98234375 17.09765625 13.40234375 17.09765625 C13.40234375 18.41765625 13.40234375 19.73765625 13.40234375 21.09765625 C7.46234375 21.09765625 1.52234375 21.09765625 -4.59765625 21.09765625 C-4.62449061 17.78510299 -4.64441405 14.47276442 -4.66015625 11.16015625 C-4.66853516 10.21462891 -4.67691406 9.26910156 -4.68554688 8.29492188 C-4.68876953 7.39580078 -4.69199219 6.49667969 -4.6953125 5.5703125 C-4.70054932 4.73765869 -4.70578613 3.90500488 -4.71118164 3.04711914 C-4.50650462 -0.46760339 -3.651354 0.09911384 0 0 Z " fill="#FFFFFF" transform="translate(194.59765625,103.90234375)"/>
<path d="M0 0 C3.0625 2.5 3.0625 2.5 5 5 C4.67 5.99 4.34 6.98 4 8 C2.0625 7.625 2.0625 7.625 0 7 C-0.33 6.34 -0.66 5.68 -1 5 C-3.32156597 4.59270772 -5.6568787 4.25561323 -8 4 C-7.67 4.99 -7.34 5.98 -7 7 C-4.73547192 7.95476308 -4.73547192 7.95476308 -2.0625 8.5625 C2.8011583 9.8011583 2.8011583 9.8011583 5 12 C5.56004213 17.26439607 5.56004213 17.26439607 3.75390625 19.63671875 C0.59118845 22.09504506 -3.09590994 22.12350373 -7 22 C-10.670261 20.43818681 -11.7727373 19.34089404 -14 16 C-14 15.01 -14 14.02 -14 13 C-12.35 13 -10.7 13 -9 13 C-8.67 13.99 -8.34 14.98 -8 16 C-3.89776415 17.01540112 -3.89776415 17.01540112 0 16 C0 15.34 0 14.68 0 14 C-1.03060547 13.83564453 -1.03060547 13.83564453 -2.08203125 13.66796875 C-2.98308594 13.50941406 -3.88414063 13.35085937 -4.8125 13.1875 C-5.70582031 13.03667969 -6.59914063 12.88585937 -7.51953125 12.73046875 C-10.23355225 11.93122162 -11.37128006 11.29872848 -13 9 C-12.875 5.4375 -12.875 5.4375 -12 2 C-8.00547208 -0.66301861 -4.69874395 -0.84758428 0 0 Z " fill="#FFFFFF" transform="translate(14,104)"/>
<path d="M0 0 C5 0 5 0 6.4855957 1.28515625 C6.87835693 1.87167969 7.27111816 2.45820312 7.67578125 3.0625 C8.11083984 3.69414063 8.54589844 4.32578125 8.99414062 4.9765625 C9.42919922 5.64429687 9.86425781 6.31203125 10.3125 7 C10.76689453 7.66773437 11.22128906 8.33546875 11.68945312 9.0234375 C12.8081725 10.67207658 13.90613038 12.33476935 15 14 C15.33 9.38 15.66 4.76 16 0 C17.32 0 18.64 0 20 0 C20 6.93 20 13.86 20 21 C18.02 21 16.04 21 14 21 C12.03474425 18.81237587 10.63224623 16.96593685 9.125 14.5 C8.7228125 13.87996094 8.320625 13.25992188 7.90625 12.62109375 C6.91868699 11.09272242 5.95676686 9.54783616 5 8 C4.67 12.29 4.34 16.58 4 21 C2.68 21 1.36 21 0 21 C0 14.07 0 7.14 0 0 Z " fill="#FFFFFF" transform="translate(302,104)"/>
<path d="M0 0 C2.5625 1.25 2.5625 1.25 4 3 C4 4.32 4 5.64 4 7 C2.68 7 1.36 7 0 7 C-0.33 6.34 -0.66 5.68 -1 5 C-3.31 5 -5.62 5 -8 5 C-8 5.66 -8 6.32 -8 7 C-6.84371094 7.29003906 -6.84371094 7.29003906 -5.6640625 7.5859375 C-4.66117188 7.84632812 -3.65828125 8.10671875 -2.625 8.375 C-1.62726563 8.63023438 -0.62953125 8.88546875 0.3984375 9.1484375 C3 10 3 10 5 12 C4.9375 15.4375 4.9375 15.4375 4 19 C1.16391137 21.58584552 -0.68710923 21.96647599 -4.5 22.375 C-8.28336026 21.96963997 -10.14909515 21.51550428 -13 19 C-13.8125 15.8125 -13.8125 15.8125 -14 13 C-12.68 13 -11.36 13 -10 13 C-9.67 14.32 -9.34 15.64 -9 17 C-6.03 16.67 -3.06 16.34 0 16 C-0.33 15.34 -0.66 14.68 -1 14 C-3.01943037 13.38538467 -3.01943037 13.38538467 -5.375 13 C-8.67525619 12.39799887 -10.11408973 11.92394018 -13 10 C-13.76045884 4.02496626 -13.76045884 4.02496626 -11.5625 1.0625 C-7.70471276 -0.53707032 -4.11470988 -0.55869455 0 0 Z " fill="#FFFFFF" transform="translate(89,104)"/>
<path d="M0 0 C1.65 0 3.3 0 5 0 C5.33 5.28 5.66 10.56 6 16 C8.31 16 10.62 16 13 16 C14.99616554 14.00383446 14.40983427 10.18298037 14.5625 7.4375 C14.60568359 6.72658203 14.64886719 6.01566406 14.69335938 5.28320312 C14.79971777 3.52238088 14.90038846 1.7612168 15 0 C16.32 0 17.64 0 19 0 C19.10812003 2.75105422 19.18734945 5.49785087 19.25 8.25 C19.30027344 9.41595703 19.30027344 9.41595703 19.3515625 10.60546875 C19.4507459 16.40769754 19.4507459 16.40769754 17.109375 19.484375 C13.92003011 21.77597837 12.42951707 22.1309869 8.5625 21.75 C7.38880859 21.64945313 7.38880859 21.64945313 6.19140625 21.546875 C3.58203938 20.8956961 2.63884546 20.10493912 1 18 C-0.2062252 14.38132441 -0.10816918 11.07493749 -0.0625 7.3125 C-0.05798828 6.61060547 -0.05347656 5.90871094 -0.04882812 5.18554688 C-0.03706927 3.45699462 -0.01913454 1.72848635 0 0 Z " fill="#FFFFFF" transform="translate(152,104)"/>
<path d="M0 0 C1.32 0 2.64 0 4 0 C4 2.64 4 5.28 4 8 C7.63 8 11.26 8 15 8 C15 5.36 15 2.72 15 0 C16.32 0 17.64 0 19 0 C19 6.93 19 13.86 19 21 C17.68 21 16.36 21 15 21 C15 18.03 15 15.06 15 12 C11.37 12 7.74 12 4 12 C4 14.97 4 17.94 4 21 C2.68 21 1.36 21 0 21 C0 14.07 0 7.14 0 0 Z " fill="#FFFFFF" transform="translate(226,104)"/>
<path d="M0 0 C1.32 0 2.64 0 4 0 C5.37316498 2.90808906 6.72008134 5.82760613 8.0625 8.75 C8.64741211 9.9875 8.64741211 9.9875 9.24414062 11.25 C9.60830078 12.04921875 9.97246094 12.8484375 10.34765625 13.671875 C10.68804932 14.4050293 11.02844238 15.13818359 11.37915039 15.89355469 C12.09847116 18.33409719 11.82742385 19.62789536 11 22 C10.01 21.67 9.02 21.34 8 21 C7.71382813 20.33484375 7.42765625 19.6696875 7.1328125 18.984375 C6.75898438 18.32953125 6.38515625 17.6746875 6 17 C3.58320293 16.29823412 3.58320293 16.29823412 0.875 16.25 C-0.03507812 16.19328125 -0.94515625 16.1365625 -1.8828125 16.078125 C-2.93082031 16.03945312 -2.93082031 16.03945312 -4 16 C-4.33 17.65 -4.66 19.3 -5 21 C-6.65 21.33 -8.3 21.66 -10 22 C-9.36042408 19.11342911 -8.449403 16.59695589 -7.1875 13.92578125 C-6.83429688 13.17619141 -6.48109375 12.42660156 -6.1171875 11.65429688 C-5.56417969 10.49510742 -5.56417969 10.49510742 -5 9.3125 C-4.63132812 8.52810547 -4.26265625 7.74371094 -3.8828125 6.93554688 C-1.13585283 1.13585283 -1.13585283 1.13585283 0 0 Z M1 6 C0.34 7.65 -0.32 9.3 -1 11 C1.475 11.495 1.475 11.495 4 12 C3.34 10.02 2.68 8.04 2 6 C1.67 6 1.34 6 1 6 Z " fill="#FFFFFF" transform="translate(272,104)"/>
<path d="M0 0 C1.32 0 2.64 0 4 0 C5.34287473 2.74569923 6.67446996 5.49594266 8 8.25 C8.3815625 9.02730469 8.763125 9.80460937 9.15625 10.60546875 C9.5171875 11.35957031 9.878125 12.11367187 10.25 12.890625 C10.58515625 13.58188477 10.9203125 14.27314453 11.265625 14.98535156 C12 17 12 17 12 21 C10.68 21 9.36 21 8 21 C7.505 18.525 7.505 18.525 7 16 C5.3739713 16.06000106 3.74898451 16.1487885 2.125 16.25 C1.22007812 16.29640625 0.31515625 16.3428125 -0.6171875 16.390625 C-3.17110544 16.75611148 -3.17110544 16.75611148 -4.3203125 19.046875 C-4.54460937 19.69140625 -4.76890625 20.3359375 -5 21 C-6.32 21 -7.64 21 -9 21 C-8.38367054 16.04001528 -6.20164371 12.06328034 -3.9375 7.6875 C-3.37192383 6.57665039 -3.37192383 6.57665039 -2.79492188 5.44335938 C-1.86871843 3.62612478 -0.93509371 1.81267596 0 0 Z M1 6 C0.67 7.65 0.34 9.3 0 11 C1.32 10.67 2.64 10.34 4 10 C3.34 8.68 2.68 7.36 2 6 C1.67 6 1.34 6 1 6 Z " fill="#FFFFFF" transform="translate(388,104)"/>
<path d="M0 0 C1.32 0 2.64 0 4 0 C4.33 5.61 4.66 11.22 5 17 C8.96 16.505 8.96 16.505 13 16 C13.33 10.72 13.66 5.44 14 0 C15.32 0 16.64 0 18 0 C18.08086376 2.93804996 18.1404283 5.87388075 18.1875 8.8125 C18.21263672 9.64587891 18.23777344 10.47925781 18.26367188 11.33789062 C18.27333984 12.14033203 18.28300781 12.94277344 18.29296875 13.76953125 C18.3086792 14.50792236 18.32438965 15.24631348 18.34057617 16.00708008 C17.90414043 18.56093308 17.00639225 19.41415097 15 21 C10.72421092 22.26512111 7.09672351 22.47981654 3 20.6875 C1 19 1 19 0 17 C-0.07194869 14.11629667 -0.09291708 11.25760336 -0.0625 8.375 C-0.05798828 7.57320313 -0.05347656 6.77140625 -0.04882812 5.9453125 C-0.03703168 3.96350994 -0.01909605 1.98174567 0 0 Z " fill="#FFFFFF" transform="translate(38,104)"/>
<path d="M0 0 C1.9375 1.1875 1.9375 1.1875 3 3 C3.5 5.4375 3.5 5.4375 3 8 C0.8125 10.375 0.8125 10.375 -2 12 C-4.92738742 11.9303003 -6.41595862 11.40278716 -8.8125 9.75 C-10.45364719 7.3314673 -10.42967368 5.86449123 -10 3 C-7.66004009 -0.99169632 -4.2277022 -0.45296809 0 0 Z M-7 3 C-6 5 -6 5 -6 5 Z M-1 6 C0 8 0 8 0 8 Z " fill="#FFFFFF" transform="translate(175,82)"/>
</svg>
