<svg xmlns="http://www.w3.org/2000/svg" xmlns:xlink="http://www.w3.org/1999/xlink" id="Layer_1" x="0px" y="0px" width="203px" height="26px" viewBox="0 0 203 26">
<g>
	<g>
		<g>
			<path d="M37.5504,22.6214c-3.0522,0-4.5641-1.7425-4.5641-4.6499v-7.6757h-2.7621v-2.996h2.7621V3.464l3.6348-0.902v4.7378     h3.8094v2.996H36.621v7.3541c0,1.1643,0.5233,1.6589,1.6852,1.6589c0.7562,0,1.3677-0.0294,2.3567-0.1465v3.0539     C39.6447,22.4768,38.6274,22.6214,37.5504,22.6214"></path>
			<path d="M51.5344,22.4194v-9.333c0-1.7436-0.5804-2.8195-2.4987-2.8195c-2.1836,0-3.1118,2.3254-3.1118,4.1861v7.9664h-3.6341     V1.4297h3.6341v7.4699c0.8732-1.2793,2.5581-1.9771,4.127-1.9771c3.2282,0,5.1191,2.2969,5.1191,5.4094v10.0875H51.5344z"></path>
			<path d="M70.7796,15.9941H60.6632c-0.0282,1.1621,0.3773,2.2674,1.1027,2.9645c0.5223,0.4946,1.2508,0.932,2.2398,0.932     c1.0462,0,1.6854-0.2042,2.2113-0.7287c0.3169-0.3194,0.5799-0.7256,0.7251-1.2789h3.4877     c-0.0871,0.9027-0.6967,2.0954-1.2792,2.7922c-1.2762,1.5108-3.1684,2.1212-5.0852,2.1212c-2.0647,0-3.5789-0.7259-4.7695-1.8611     c-1.5112-1.4528-2.3259-3.5753-2.3259-6.0449c0-2.4154,0.7266-4.5647,2.1809-6.0497c1.1337-1.1611,2.7607-1.9178,4.8249-1.9178     c2.2412,0,4.2745,0.9016,5.5229,2.7905c1.1062,1.6574,1.3675,3.3729,1.3101,5.2629     C70.8089,14.9763,70.7796,15.6757,70.7796,15.9941 M66.2449,10.7038c-0.495-0.5244-1.2513-0.8736-2.2988-0.8736     c-1.1045,0-2.0035,0.4652-2.5297,1.164c-0.5199,0.6678-0.7533,1.3663-0.7816,2.3535h6.5401     C67.1473,12.215,66.8257,11.3423,66.2449,10.7038"></path>
		</g>
		<polygon points="78.4255,5.2944 78.4255,22.4191 74.6757,22.4191 74.6757,5.2944 68.5708,5.2944 68.5708,1.8061 84.5301,1.8061     84.5301,5.2944   "></polygon>
		<g>
			<path d="M90.7472,10.5277c-2.556,0-3.8948,1.8323-3.8948,4.2747v7.617h-3.6608V7.3001h3.0804l0.3192,2.2689     c0.6972-1.7441,2.499-2.4704,4.2739-2.4704c0.3775,0,0.7565,0.029,1.1338,0.0865v3.4885     C91.5919,10.5861,91.1559,10.5277,90.7472,10.5277"></path>
			<path d="M104.2949,22.6514c-1.5692,0-2.4409-0.9888-2.5581-2.1212c-0.6978,1.2199-2.4422,2.2664-4.5934,2.2664     c-3.6035,0-5.4657-2.2664-5.4657-4.7386c0-2.8781,2.2391-4.5341,5.1164-4.7373l4.4503-0.3225v-0.9288     c0-1.4255-0.4968-2.3829-2.5604-2.3829c-1.6863,0-2.6743,0.7545-2.7616,2.1501h-3.5173c0.202-3.404,2.906-4.9135,6.279-4.9135     c2.5888,0,4.7981,0.8146,5.6692,3.0817c0.3774,0.9601,0.4371,2.0357,0.4371,3.0528v5.611c0,0.6975,0.232,0.9601,0.8436,0.9601     c0.231,0,0.4646-0.059,0.4646-0.059v2.6739C105.4873,22.5071,105.1682,22.6514,104.2949,22.6514 M101.2445,15.7025     l-3.8397,0.2916c-1.1047,0.0871-2.1795,0.7568-2.1795,1.9773c0,1.1624,1.0169,1.8889,2.1503,1.8889     c2.2688,0,3.8689-1.2205,3.8689-3.4594V15.7025z"></path>
			<path d="M117.61,22.4194l-0.2313-1.6567c-0.903,1.3953-2.589,2.0054-4.2453,2.0054c-1.5127,0-2.7619-0.5258-3.692-1.2779     c-1.804-1.4837-2.6754-3.7517-2.6754-6.5998c0-2.9671,0.9008-5.2625,2.7032-6.747c0.9304-0.7545,2.1515-1.2205,3.6933-1.2205     c1.9193,0,3.3133,0.6399,3.954,1.4237V1.4292h3.6324v20.9902H117.61z M113.8608,9.977c-1.133,0-1.9205,0.5212-2.4422,1.1907     c-0.7565,0.989-0.9588,2.3562-0.9588,3.6657c0,1.3057,0.2023,2.7007,0.9588,3.6895c0.5217,0.6675,1.3092,1.1918,2.4422,1.1918     c2.8481,0,3.4304-2.7045,3.4304-4.8813C117.2912,12.6494,116.7089,9.977,113.8608,9.977"></path>
			<path d="M136.5941,15.9941h-10.117c-0.029,1.1621,0.3781,2.2674,1.105,2.9645c0.5208,0.4946,1.2492,0.932,2.2371,0.932     c1.0475,0,1.686-0.2042,2.2105-0.7287c0.3188-0.3194,0.5814-0.7256,0.725-1.2789h3.4907     c-0.0884,0.9027-0.6994,2.0954-1.2785,2.7922c-1.2795,1.5108-3.1691,2.1212-5.0893,2.1212c-2.0632,0-3.5753-0.7259-4.7676-1.8611     c-1.5121-1.4528-2.3251-3.5753-2.3251-6.0449c0-2.4154,0.7253-4.5647,2.1806-6.0497c1.1337-1.1611,2.7607-1.9178,4.8248-1.9178     c2.2396,0,4.2747,0.9016,5.5242,2.7905c1.1049,1.6574,1.3653,3.3729,1.3082,5.2629     C136.6225,14.9763,136.5941,15.6757,136.5941,15.9941 M132.0594,10.7038c-0.4949-0.5244-1.2508-0.8736-2.2989-0.8736     c-1.1037,0-2.0044,0.4652-2.5271,1.164c-0.5246,0.6678-0.7562,1.3663-0.7852,2.3535h6.5401     C132.9589,12.215,132.6395,11.3423,132.0594,10.7038"></path>
			<path d="M152.5246,20.2095c-1.3666,1.4256-3.4304,2.209-5.7861,2.209h-8.0226V1.807h8.0226c2.3557,0,4.4195,0.7834,5.7861,2.209     c2.1209,2.1806,2.4132,5.2341,2.4132,8.0835C154.9378,14.9485,154.6456,18.028,152.5246,20.2095 M149.646,6.3414     c-0.6966-0.6973-1.715-1.1633-2.9074-1.1633h-4.2728v13.868h4.2728c1.1924,0,2.2109-0.4643,2.9074-1.1631     c1.4537-1.4537,1.4824-3.8947,1.4824-5.7836C151.1284,10.2075,151.0997,7.7942,149.646,6.3414"></path>
			<path d="M169.7628,15.9941h-10.1173c-0.0294,1.1621,0.3772,2.2674,1.1062,2.9645c0.523,0.4946,1.2476,0.932,2.2377,0.932     c1.0466,0,1.686-0.2042,2.2099-0.7287c0.32-0.3194,0.5798-0.7256,0.7268-1.2789h3.4875     c-0.0864,0.9027-0.6975,2.0954-1.2798,2.7922c-1.2779,1.5108-3.1681,2.1212-5.0874,2.1212c-2.0651,0-3.575-0.7259-4.7693-1.8611     c-1.5105-1.4528-2.3242-3.5753-2.3242-6.0449c0-2.4154,0.7275-4.5647,2.1796-6.0497c1.134-1.1611,2.7635-1.9178,4.8266-1.9178     c2.2399,0,4.2737,0.9016,5.5248,2.7905c1.1037,1.6574,1.3663,3.3729,1.3079,5.2629     C169.7921,14.9763,169.7628,15.6757,169.7628,15.9941 M165.2287,10.7038c-0.4952-0.5244-1.252-0.8736-2.2967-0.8736     c-1.105,0-2.0079,0.4652-2.5306,1.164c-0.5233,0.6678-0.7559,1.3663-0.7852,2.3535h6.5414     C166.1295,12.215,165.8085,11.3423,165.2287,10.7038"></path>
		</g>`
		<polygon points="185.4323,1.4297 185.4323,22.4194 189.0657,22.4194 189.0657,18.437 191.4785,15.8212 195.7226,22.4194     199.9379,22.4194 193.9498,13.146 199.3572,7.2998 194.7937,7.2998 189.0657,13.4361 189.0657,1.4297   "></polygon>
		<g>
			<path d="M179.3562,13.4642c-1.484-0.232-1.8621-0.2606-3.2278-0.4371c-0.8149-0.1155-1.7441-0.4348-1.7441-1.5089     c0-0.7874,0.5242-1.3387,1.1631-1.6022c0.5533-0.2296,1.0469-0.2296,1.5683-0.2296c0.7565,0,1.5437,0.2604,1.9776,0.6973     c0.35,0.3781,0.6113,0.8436,0.6113,1.4242h3.4579c0-1.104-0.5201-2.2388-1.336-3.1129c-1.104-1.1905-2.9362-1.7725-4.7389-1.7725     c-1.8889,0-3.4882,0.5539-4.5925,1.5099c-0.9014,0.7879-1.5395,1.8631-1.5395,3.405c0,1.9178,1.394,3.6044,3.4594,4.0413     c1.3357,0.2904,2.8465,0.3772,4.1841,0.5807c0.933,0.1461,1.5134,0.7285,1.5134,1.598c0,1.6567-1.8612,1.9211-3.0826,1.9211     c-1.0456,0-1.7163-0.207-2.2955-0.6697c-0.3898-0.3156-0.6827-0.8758-0.7755-1.4405h-3.4206     c0.1045,1.2836,0.7745,2.4072,1.5787,3.1842c1.2502,1.1898,2.9652,1.744,4.8854,1.744c2.0638,0,3.9524-0.5211,5.1735-1.744     c0.7846-0.7843,1.3086-1.8621,1.3086-3.3139C183.4844,15.3544,181.7416,13.8426,179.3562,13.4642"></path>
		</g>
		<polygon fill="#0099fa" points="5.9572,0.4652 5.9572,4.3714 9.9522,4.3714 9.9522,14.566 13.7973,14.566 13.7973,4.3103     13.7973,0.4652   "></polygon>
		<g>
			<path fill="#0099fa" d="M3.8467,13.6592c0-3.0409,1.6898-5.687,4.1816-7.0494V6.6094H2.3227C0.8635,8.5809,0,11.0182,0,13.6592     c0,5.2401,3.3946,9.6862,8.1037,11.2626v-4.1734C5.5709,19.3974,3.8467,16.7305,3.8467,13.6592"></path>
			<path fill="#0099fa" d="M15.7221,2.424v4.185c2.4923,1.3631,4.1841,4.0088,4.1841,7.0508c0,4.4331-3.5964,8.0286-8.0309,8.0286     c-0.6614,0-1.304-0.0805-1.9188-0.231v3.9224c0.6251,0.1007,1.2653,0.155,1.9188,0.155c6.5583,0,11.8756-5.3168,11.8756-11.8749     C23.7508,8.447,20.3924,4.0223,15.7221,2.424"></path>
		</g>
	</g>
	<g>
		<path fill="#231F20" d="M201.6006,8.2114c-0.8023,0-1.3994-0.6279-1.3994-1.4225s0.5971-1.4264,1.3994-1.4264    S203,5.9905,203,6.785C203,7.5797,202.4029,8.2114,201.6006,8.2114z M201.6006,5.6106c-0.6861,0-1.1394,0.4999-1.1394,1.1783    c0,0.6783,0.4532,1.1744,1.1394,1.1744s1.1397-0.4999,1.1397-1.1783C202.7402,6.1068,202.2867,5.6106,201.6006,5.6106z     M201.9146,7.506l-0.2481-0.5465h-0.2907V7.506h-0.2598V6.0216h0.5463c0.2831,0,0.5274,0.1627,0.5274,0.4651    c0,0.1938-0.0855,0.3489-0.2673,0.4302l0.2752,0.5892H201.9146z M201.6624,6.2617h-0.2904v0.4575h0.2904    c0.1553,0,0.256-0.0698,0.256-0.2326C201.9184,6.3354,201.8022,6.2617,201.6624,6.2617z"></path>
	</g>
</g>
</svg>
