<?xml version="1.0" encoding="UTF-8"?>
<svg version="1.1" xmlns="http://www.w3.org/2000/svg" width="400" height="150">
<path d="M0 0 C40.59 0 81.18 0 123 0 C127.64385909 34.8289432 127.64385909 34.8289432 129.140625 46.90234375 C129.22521721 47.58321108 129.30980942 48.26407841 129.39696503 48.96557808 C129.83939187 52.52675315 130.28032788 56.08810827 130.71972656 59.6496582 C131.16854617 63.28513866 131.62277352 66.91992434 132.07803726 70.55460262 C132.43434137 73.40677597 132.7868424 76.25941006 133.13829803 79.11218452 C133.38380148 81.09717298 133.63328086 83.08166843 133.88287354 85.06614685 C134.03012878 86.27013626 134.17738403 87.47412567 134.32910156 88.71459961 C134.45915588 89.7632872 134.58921021 90.81197479 134.72320557 91.8924408 C135.02223214 95.24959925 135 98.6295505 135 102 C94.74 102 54.48 102 13 102 C11.7004283 95.50214148 10.54415794 89.18567656 9.76318359 82.63476562 C9.65560226 81.75869659 9.54802094 80.88262756 9.43717957 79.98001099 C9.08723476 77.12252783 8.74273813 74.26441824 8.3984375 71.40625 C8.15497417 69.40747472 7.91120502 67.40873666 7.66714478 65.41003418 C7.15890071 61.2414092 6.65314696 57.07249279 6.14941406 52.90332031 C5.50278224 47.5517082 4.85171744 42.20064758 4.19904137 36.84976959 C3.5764474 31.74378572 2.95614202 26.63752456 2.3359375 21.53125 C2.21716625 20.55517288 2.098395 19.57909576 1.97602463 18.57344055 C1.64208433 15.82580554 1.30978548 13.07797736 0.97802734 10.33007812 C0.87831131 9.51141266 0.77859528 8.69274719 0.67585754 7.84927368 C0 2.22948803 0 2.22948803 0 0 Z " fill="#AA8FFF" transform="translate(136,45)"/>
<path d="M0 0 C40.26 0 80.52 0 122 0 C124.25 11.25 124.25 11.25 124.6328125 15.3515625 C124.71660156 16.22167969 124.80039063 17.09179688 124.88671875 17.98828125 C124.96535156 18.85839844 125.04398437 19.72851562 125.125 20.625 C125.21136719 21.53378906 125.29773438 22.44257812 125.38671875 23.37890625 C125.59576902 25.58554799 125.80013705 27.79251054 126 30 C125.54488037 30.31001953 125.08976074 30.62003906 124.62084961 30.93945312 C113.70672219 38.37887323 102.83424152 45.87517949 92.00756836 53.44140625 C91.09499268 54.07820313 90.18241699 54.715 89.2421875 55.37109375 C87.92879395 56.29124268 87.92879395 56.29124268 86.58886719 57.22998047 C84.8666074 58.40749683 83.12192904 59.55288953 81.35644531 60.66455078 C80.13199707 61.43581299 80.13199707 61.43581299 78.8828125 62.22265625 C78.15723145 62.66488525 77.43165039 63.10711426 76.68408203 63.56274414 C74.56679056 65.08811147 74.56679056 65.08811147 74 69 C92.81 69 111.62 69 131 69 C132.98 85.335 132.98 85.335 135 102 C94.41 102 53.82 102 12 102 C8.07520671 73.21818254 8.07520671 73.21818254 10.42675781 70.12060547 C11.09545898 69.70697754 11.76416016 69.29334961 12.453125 68.8671875 C13.20779053 68.37822998 13.96245605 67.88927246 14.73999023 67.38549805 C15.56829346 66.88703369 16.39659668 66.38856934 17.25 65.875 C18.9972607 64.75572584 20.74331562 63.63456759 22.48828125 62.51171875 C23.85073975 61.65199463 23.85073975 61.65199463 25.24072266 60.77490234 C29.7362737 57.88314371 34.07971481 54.78133162 38.4375 51.6875 C44.84851481 47.15960081 51.30269815 42.77651387 57.98046875 38.6484375 C60.42697847 36.98697447 60.42697847 36.98697447 61 33 C42.19 33 23.38 33 4 33 C2.77167379 26.85836893 1.64310193 20.98779564 0.875 14.8125 C0.78863281 14.15314453 0.70226562 13.49378906 0.61328125 12.81445312 C0.07195821 8.45379527 0 4.44649755 0 0 Z " fill="#FFFFFA" transform="translate(1,45)"/>
<path d="M0 0 C11.19737144 -0.09321983 22.39464856 -0.16402639 33.59233093 -0.20724869 C38.79346554 -0.22800698 43.9943321 -0.25610632 49.1953125 -0.30175781 C54.2268838 -0.34563932 59.25819942 -0.36922519 64.28994751 -0.37950897 C66.19703183 -0.38682522 68.10410426 -0.40110884 70.01107788 -0.42292023 C85.07517549 -0.58815995 100.97046789 -0.33593339 113 10 C113.63292969 10.52464844 114.26585937 11.04929687 114.91796875 11.58984375 C122.17907475 18.16973725 126.24468626 27.35593688 127.20483398 37.07299805 C127.30216461 39.17836112 127.32937155 41.26750292 127.3125 43.375 C127.30686035 44.11814453 127.3012207 44.86128906 127.29541016 45.62695312 C127.08098521 55.36736574 124.54685069 63.58665436 118 71 C107.43637295 80.25215635 96.18045803 82.07781716 82.5703125 82.31640625 C81.57998016 82.33718735 80.58964783 82.35796844 79.56930542 82.37937927 C76.42127082 82.4445032 73.27315633 82.50358629 70.125 82.5625 C67.9843669 82.60572059 65.84374174 82.64933599 63.703125 82.69335938 C58.46883085 82.80014632 53.23445672 82.90151748 48 83 C48.66 89.27 49.32 95.54 50 102 C37.46 102 24.92 102 12 102 C10.43215583 89.43952502 8.86689369 76.87873569 7.30618286 64.31737232 C6.58139058 58.48473466 5.85546476 52.65224273 5.12695312 46.82006836 C4.42402772 41.19238884 3.72407375 35.56434702 3.02618408 29.93604088 C2.75931738 27.78811135 2.49137775 25.64031486 2.22235107 23.4926548 C1.84591908 20.48608891 1.4732942 17.47907396 1.1015625 14.47192383 C0.98935364 13.58287857 0.87714478 12.69383331 0.76153564 11.77784729 C0.27690015 7.82738646 -0.14396255 3.98969617 0 0 Z M41 29 C41.49122453 37.13105861 42.35266241 45.01920915 44 53 C49.46263311 53.04952523 54.92513482 53.08577896 60.38793945 53.10986328 C62.24538449 53.11990615 64.10281379 53.13354304 65.96020508 53.15087891 C68.63366591 53.17520261 71.30691726 53.18650033 73.98046875 53.1953125 C74.80773972 53.20563507 75.63501068 53.21595764 76.48735046 53.22659302 C82.08367476 53.22767625 86.03472068 52.80593235 90.3125 48.875 C92.48130399 45.18000061 92.76957558 42.13140572 92 38 C90.56295188 34.6885413 89.42769827 32.6840822 86.10414124 31.09159851 C80.53802547 29.20747416 75.66394958 28.59149987 69.80859375 28.70703125 C68.97787857 28.71127609 68.14716339 28.71552094 67.29127502 28.71989441 C64.67300118 28.73650686 62.05553585 28.7741237 59.4375 28.8125 C57.64779768 28.82756947 55.85808313 28.84125388 54.06835938 28.85351562 C49.71193446 28.8863528 45.35610365 28.93801064 41 29 Z " fill="#FFFFFA" transform="translate(272,45)"/>
<path d="M0 0 C6.82860907 3.73640873 10.06878161 6.83539223 12.68359375 14.1875 C14.03920086 19.84568622 13.22679773 24.11001458 10.5 29.1875 C7.198247 33.1496036 4.37886556 35.48026501 -0.88671875 36.05078125 C-8.00201191 36.26301134 -13.16129848 35.11929342 -18.4453125 30.1640625 C-23.29361624 24.8004801 -25.13789461 20.26620277 -24.93359375 13.01953125 C-24.39479859 8.18747942 -22.25199775 5.11228535 -18.6875 2 C-12.85679085 -2.25155875 -6.70746409 -2.16003081 0 0 Z " fill="#FFFFFA" transform="translate(165.6875,2.1875)"/>
</svg>
