<?xml version="1.0" encoding="UTF-8"?>
<svg version="1.1" xmlns="http://www.w3.org/2000/svg" width="400" height="150">
<path d="M0 0 C2.25991129 -0.01400672 4.514158 -0.08132451 6.77294922 -0.15087891 C19.76858693 -0.34772032 29.2231034 3.64211941 38.78466797 12.73583984 C39.65349609 13.54279297 40.52232422 14.34974609 41.41748047 15.18115234 C46.65966797 20.86171092 46.65966797 20.86171092 46.65966797 24.61083984 C47.31966797 24.61083984 47.97966797 24.61083984 48.65966797 24.61083984 C53.73164517 34.13926302 55.46588981 44.87343084 54.65966797 55.61083984 C54.57458984 56.96048828 54.57458984 56.96048828 54.48779297 58.33740234 C53.06619875 71.1655978 45.28780866 83.44475945 35.31591797 91.50537109 C30.0631697 95.35576527 24.71253858 98.24134875 18.65966797 100.61083984 C17.51800171 101.12094604 17.51800171 101.12094604 16.35327148 101.64135742 C11.7939562 103.28234727 7.21013286 102.97974014 2.40966797 102.98583984 C0.91113281 103.02257812 0.91113281 103.02257812 -0.61767578 103.06005859 C-7.46300429 103.08690302 -12.33206169 101.83760607 -18.34033203 98.61083984 C-19.35095703 98.15708984 -20.36158203 97.70333984 -21.40283203 97.23583984 C-26.97378117 94.15403819 -32.01601317 90.29551861 -36.34033203 85.61083984 C-36.01033203 84.62083984 -35.68033203 83.63083984 -35.34033203 82.61083984 C-29.64791957 80.70702297 -24.36893095 80.29115551 -18.40283203 80.36083984 C-17.58451904 80.36470703 -16.76620605 80.36857422 -15.9230957 80.37255859 C-9.59667412 80.46026483 -3.38593283 81.00982204 2.8762207 81.89892578 C10.80336901 83.01366552 18.39806014 83.46230035 25.65966797 79.61083984 C28.02484854 77.51277412 30.00226684 75.30817893 31.65966797 72.61083984 C31.65966797 71.95083984 31.65966797 71.29083984 31.65966797 70.61083984 C30.845625 71.243125 30.845625 71.243125 30.01513672 71.88818359 C29.29970703 72.43603516 28.58427734 72.98388672 27.84716797 73.54833984 C27.13947266 74.09361328 26.43177734 74.63888672 25.70263672 75.20068359 C21.46575456 78.12518543 17.20894168 77.74058804 12.27294922 77.70849609 C11.4559404 77.70708115 10.63893158 77.7056662 9.79716492 77.70420837 C7.18879529 77.69861279 4.58051163 77.68606113 1.97216797 77.67333984 C0.203289 77.66832427 -1.56559131 77.66376146 -3.33447266 77.65966797 C-7.66979222 77.6486448 -12.00504755 77.63138322 -16.34033203 77.61083984 C-15.80307532 74.04687107 -15.05804982 71.78904964 -12.82080078 68.96630859 C-12.29929443 68.29784912 -11.77778809 67.62938965 -11.24047852 66.94067383 C-10.67530518 66.23370361 -10.11013184 65.5267334 -9.52783203 64.79833984 C-8.33437576 63.27288304 -7.14168441 61.74682752 -5.94970703 60.22021484 C-5.34449219 59.45 -4.73927734 58.67978516 -4.11572266 57.88623047 C-1.45490556 54.47605234 1.13611741 51.01536215 3.72216797 47.54833984 C4.69992463 46.24096746 5.67778967 44.93367612 6.65576172 43.62646484 C7.14286621 42.97484375 7.6299707 42.32322266 8.13183594 41.65185547 C9.75397454 39.48485663 11.3801888 37.3209639 13.00732422 35.15771484 C13.82994751 34.06342163 13.82994751 34.06342163 14.66918945 32.94702148 C15.7215276 31.54734973 16.7743981 30.14807802 17.82788086 28.74926758 C18.30088623 28.11964111 18.7738916 27.49001465 19.26123047 26.84130859 C19.67711426 26.28854248 20.09299805 25.73577637 20.52148438 25.16625977 C21.61037636 23.67820081 22.63685056 22.14506596 23.65966797 20.61083984 C7.48966797 20.94083984 -8.68033203 21.27083984 -25.34033203 21.61083984 C-26.00033203 24.91083984 -26.66033203 28.21083984 -27.34033203 31.61083984 C-26.28845703 30.64146484 -25.23658203 29.67208984 -24.15283203 28.67333984 C-19.93515148 24.78645777 -15.85071801 24.47887429 -10.25830078 24.51318359 C-9.32695313 24.51640625 -8.39560547 24.51962891 -7.43603516 24.52294922 C-6.47632813 24.53132813 -5.51662109 24.53970703 -4.52783203 24.54833984 C-3.54878906 24.55285156 -2.56974609 24.55736328 -1.56103516 24.56201172 C0.84592908 24.57375301 3.25276654 24.59017565 5.65966797 24.61083984 C4.83796459 28.52741844 3.23696342 30.65228993 0.65966797 33.73583984 C-2.12192911 36.98953489 -2.12192911 36.98953489 -4.34033203 40.61083984 C-5.00033203 40.61083984 -5.66033203 40.61083984 -6.34033203 40.61083984 C-6.57494141 41.31982422 -6.80955078 42.02880859 -7.05126953 42.75927734 C-8.57695081 46.13426927 -10.53431531 48.44355748 -12.96533203 51.23583984 C-18.17229668 57.31548538 -22.89532987 63.67546765 -27.47802734 70.24072266 C-28.64915662 71.91473156 -29.83739534 73.57552656 -31.02783203 75.23583984 C-31.73294922 76.23873047 -32.43806641 77.24162109 -33.16455078 78.27490234 C-35.59246488 80.88153185 -36.84624164 81.35383144 -40.34033203 81.61083984 C-41.46873831 79.55014068 -42.59311974 77.48740888 -43.71533203 75.42333984 C-44.34181641 74.27478516 -44.96830078 73.12623047 -45.61376953 71.94287109 C-48.30422818 66.75065112 -49.59160034 63.11964691 -49.53564453 57.21630859 C-49.52919922 56.01425781 -49.52275391 54.81220703 -49.51611328 53.57373047 C-49.49935547 52.32785156 -49.48259766 51.08197266 -49.46533203 49.79833984 C-49.45630859 48.533125 -49.44728516 47.26791016 -49.43798828 45.96435547 C-49.41445597 42.84632421 -49.38157748 39.72867887 -49.34033203 36.61083984 C-48.68033203 36.61083984 -48.02033203 36.61083984 -47.34033203 36.61083984 C-47.23720703 35.93021484 -47.13408203 35.24958984 -47.02783203 34.54833984 C-44.27980591 22.80677369 -35.36292419 12.34945442 -25.34033203 5.86083984 C-16.94627956 0.72310083 -9.67706125 0.02285756 0 0 Z M-29.34033203 33.61083984 C-28.34033203 35.61083984 -28.34033203 35.61083984 -28.34033203 35.61083984 Z M34.65966797 64.61083984 C34.65966797 67.61083984 34.65966797 67.61083984 34.65966797 67.61083984 Z " fill="#FFFFFF" transform="translate(55.34033203125,28.38916015625)"/>
<path d="M0 0 C5.94 0 11.88 0 18 0 C18 1.32 18 2.64 18 4 C17.34 4.66 16.68 5.32 16 6 C15.69309346 8.57685678 15.48985507 11.04103303 15.375 13.625 C15.25125 16.05875 15.1275 18.4925 15 21 C21.27 20.67 27.54 20.34 34 20 C34 14.72 34 9.44 34 4 C33.34 4 32.68 4 32 4 C32 2.68 32 1.36 32 0 C37.61 0 43.22 0 49 0 C49 1.32 49 2.64 49 4 C48.34 4 47.68 4 47 4 C47.11841748 10.03243784 47.24267766 16.06471664 47.37231445 22.09692383 C47.41558198 24.14832298 47.45726275 26.19975625 47.49731445 28.2512207 C47.55521544 31.20274122 47.6188526 34.15409132 47.68359375 37.10546875 C47.70030624 38.02023483 47.71701874 38.93500092 47.73423767 39.87748718 C47.7641555 41.1682592 47.7641555 41.1682592 47.79467773 42.48510742 C47.81799416 43.61428841 47.81799416 43.61428841 47.84178162 44.76628113 C47.98685073 47.48174114 47.98685073 47.48174114 49 52 C43.06 52.33 37.12 52.66 31 53 C31 51.68 31 50.36 31 49 C31.66 48.67 32.32 48.34 33 48 C33.09087891 46.19402344 33.09087891 46.19402344 33.18359375 44.3515625 C33.26799732 42.77602923 33.35264541 41.20050904 33.4375 39.625 C33.47681641 38.8309375 33.51613281 38.036875 33.55664062 37.21875 C33.88671875 31.2265625 33.88671875 31.2265625 35 29 C28.4 29 21.8 29 15 29 C15.12375 31.51625 15.2475 34.0325 15.375 36.625 C15.40899902 37.40568848 15.44299805 38.18637695 15.47802734 38.99072266 C15.71972521 43.29863177 16.42277413 46.93511706 18 51 C15.88074396 53.11925604 11.3803907 52.41831017 8.4375 52.5625 C7.63119141 52.60568359 6.82488281 52.64886719 5.99414062 52.69335938 C3.99631195 52.79975262 1.9981793 52.90040888 0 53 C-0.33 52.34 -0.66 51.68 -1 51 C-0.34 50.01 0.32 49.02 1 48 C1.29504076 45.94989748 1.29504076 45.94989748 1.24291992 43.68383789 C1.24599655 42.81606216 1.24907318 41.94828644 1.25224304 41.05421448 C1.24505753 40.11980026 1.23787201 39.18538605 1.23046875 38.22265625 C1.23001053 37.25976181 1.22955231 36.29686737 1.2290802 35.30479431 C1.22605876 33.26804371 1.21817569 31.23129539 1.20581055 29.19458008 C1.18759181 26.07820435 1.18530065 22.96212648 1.18554688 19.84570312 C1.18063005 17.86718493 1.17480101 15.88866875 1.16796875 13.91015625 C1.16685593 12.97776627 1.1657431 12.04537628 1.16459656 11.08473206 C1.15502678 9.77834023 1.15502678 9.77834023 1.14526367 8.44555664 C1.14145187 7.68183243 1.13764008 6.91810822 1.13371277 6.13124084 C1.04329077 3.65944298 1.04329077 3.65944298 0 0 Z " fill="#FFFFFF" transform="translate(348,56)"/>
<path d="M0 0 C3.83326795 -0.05859888 7.66641888 -0.09379643 11.5 -0.125 C12.57765625 -0.14175781 13.6553125 -0.15851562 14.765625 -0.17578125 C20.88824592 -0.2131143 26.14105614 0.19396633 32 2 C32 2.66 32 3.32 32 4 C32.598125 4.2475 33.19625 4.495 33.8125 4.75 C36.51690582 6.29537476 37.56742238 7.20647365 39 10 C39.5898983 14.25683367 39.49156311 17.83577159 37.8125 21.8125 C35.76812869 24.27984468 33.5671445 26.09109768 31 28 C30.34 28.66 29.68 29.32 29 30 C30.86876421 32.23465493 32.74464262 34.4626327 34.625 36.6875 C35.40810547 37.62625977 35.40810547 37.62625977 36.20703125 38.58398438 C38.77020602 41.60599908 41.24919726 44.29002176 44.3984375 46.70703125 C45.25695312 47.46371094 46.11546875 48.22039062 47 49 C47 50.32 47 51.64 47 53 C39.37810482 53.27456395 33.42704135 53.21286795 27.5625 47.9375 C26.00261695 46.32862889 24.48011481 44.68254615 23 43 C22.28457031 42.21625 21.56914062 41.4325 20.83203125 40.625 C19.18085188 38.77937036 17.57334477 36.91197858 16 35 C15.94593878 36.93719378 15.90717975 38.87481921 15.875 40.8125 C15.85179687 41.89144531 15.82859375 42.97039062 15.8046875 44.08203125 C15.76976283 47.19402868 15.76976283 47.19402868 18 50 C18 50.99 18 51.98 18 53 C11.73 53 5.46 53 -1 53 C0 49 0 49 1.04589844 47.26928711 C2.49330262 43.82670219 2.28486901 40.36579098 2.265625 36.69140625 C2.26753845 35.88767075 2.2694519 35.08393524 2.27142334 34.25584412 C2.27278208 32.55882453 2.26910734 30.86179444 2.26074219 29.16479492 C2.25005209 26.57511887 2.26064058 23.98613871 2.2734375 21.39648438 C2.27211558 19.74479014 2.2695525 18.09309634 2.265625 16.44140625 C2.27169769 15.28494347 2.27169769 15.28494347 2.27789307 14.1051178 C2.24163162 9.92077226 1.72899866 6.79753007 0 3 C0 2.01 0 1.02 0 0 Z M15 8 C15 13.28 15 18.56 15 24 C20.45636705 24 22.07511241 23.65105823 26 20 C26.87080737 16.5097479 26.67831796 13.31424104 25 10.0625 C21.78963377 8.35699294 18.60700273 8.29565596 15 8 Z " fill="#FFFFFF" transform="translate(225,56)"/>
<path d="M0 0 C5.94 0 11.88 0 18 0 C17.67 1.65 17.34 3.3 17 5 C16.78410731 9.5900095 16.7719793 14.18003842 16.75976562 18.77441406 C16.75002977 20.99321565 16.71895536 23.21110163 16.6875 25.4296875 C16.6809716 26.84895288 16.67572049 28.26822482 16.671875 29.6875 C16.6625293 30.97011719 16.65318359 32.25273438 16.64355469 33.57421875 C17.02355729 37.22640818 17.77601735 39.11057637 20 42 C23.97946324 43.48298349 27.97101838 43.30011964 32 42.125 C33.93499993 41.15487671 33.93499993 41.15487671 35 40 C36.88564815 26.80046294 36.3562929 13.2238558 35 0 C40.61 0 46.22 0 52 0 C52 1.32 52 2.64 52 4 C51.01 4 50.02 4 49 4 C49.01571045 4.92224365 49.0314209 5.8444873 49.04760742 6.79467773 C49.09910193 10.25567381 49.1365261 13.7162557 49.16479492 17.17749023 C49.17977042 18.66811598 49.20015819 20.15869851 49.22631836 21.64916992 C49.55008561 40.58638005 49.55008561 40.58638005 43.6875 47.875 C37.74680423 52.57229433 33.15047082 53.44044206 25.8125 53.25 C25.00619141 53.24484375 24.19988281 53.2396875 23.36914062 53.234375 C19.92693936 53.18859344 17.29691425 53.09897142 14 52 C14 51.34 14 50.68 14 50 C12.9171875 49.7215625 12.9171875 49.7215625 11.8125 49.4375 C7.97677214 47.47701687 5.71726579 44.95631619 4 41 C2.57329628 32.03993712 2.67211094 22.91941736 2.48242188 13.86523438 C2.44826172 12.65544922 2.41410156 11.44566406 2.37890625 10.19921875 C2.34132202 8.55699341 2.34132202 8.55699341 2.30297852 6.8815918 C2.13802595 3.69066034 2.13802595 3.69066034 0 0 Z " fill="#FFFFFF" transform="translate(167,56)"/>
<path d="M0 0 C13.53 0 27.06 0 41 0 C41 1.32 41 2.64 41 4 C40.34 4 39.68 4 39 4 C38.76410156 4.68707031 38.52820313 5.37414063 38.28515625 6.08203125 C36.7385668 9.59358844 34.6617416 12.58480595 32.4375 15.6875 C29.5019847 19.70970455 29.5019847 19.70970455 27 24 C26.34 24 25.68 24 25 24 C24.74347656 24.71800781 24.48695313 25.43601562 24.22265625 26.17578125 C22.92579778 29.17140001 21.35053627 31.54758982 19.4375 34.1875 C17.02799361 37.47878323 17.02799361 37.47878323 15 41 C14.34 41 13.68 41 13 41 C13 41.66 13 42.32 13 43 C16.3977052 42.75003014 19.79247073 42.47135037 23.1875 42.1875 C24.14720703 42.11724609 25.10691406 42.04699219 26.09570312 41.97460938 C31.24128112 41.52949017 34.66153737 40.98218241 39 38 C40.32 38 41.64 38 43 38 C42 42 42 42 37 52 C22.15 52.33 7.3 52.66 -8 53 C-8 51.68 -8 50.36 -8 49 C-7.34 49 -6.68 49 -6 49 C-5.73832031 48.27425781 -5.47664063 47.54851562 -5.20703125 46.80078125 C-3.97241864 43.93600054 -2.52133343 41.70444655 -0.6875 39.1875 C2.04653798 35.38263048 4.57805684 31.53141895 6.95703125 27.49609375 C8 26 8 26 10 25 C10.93832318 23.35793444 11.87272851 21.7134275 12.78125 20.0546875 C14.89415409 16.49254791 17.45743362 13.26296019 20 10 C8.61944426 9.42896693 8.61944426 9.42896693 -2 13 C-2.99 13 -3.98 13 -5 13 C-4.67 11.35 -4.34 9.7 -4 8 C-3.34 8 -2.68 8 -2 8 C-1.7834375 6.576875 -1.7834375 6.576875 -1.5625 5.125 C-1 2 -1 2 0 0 Z " fill="#FFFFFF" transform="translate(122,56)"/>
<path d="M0 0 C0 3.63 0 7.26 0 11 C-2.99127768 10.58261242 -5.60705625 10.17579063 -8.375 8.9375 C-12.65685857 7.4082648 -16.82546271 7.02315707 -21 8.8984375 C-22.69104033 9.89192369 -24.34806716 10.94276298 -26 12 C-26.66 12 -27.32 12 -28 12 C-30.79878522 19.52173528 -31.32140006 27.96625246 -28.8125 35.625 C-25.53733368 39.91659725 -22.41929845 41.11269808 -17.1875 41.875 C-12.01062474 42.27618854 -8.7020669 41.10782309 -4 39 C-2.02 38.505 -2.02 38.505 0 38 C0 41.63 0 45.26 0 49 C-5.29018576 51.61389257 -9.43329644 52.52190638 -15.3125 52.4375 C-16.05870605 52.42920166 -16.80491211 52.42090332 -17.57373047 52.41235352 C-25.5881859 52.16804217 -31.80380013 50.27020493 -37.875 44.875 C-43.35813612 38.79558903 -45.71976049 31.57388912 -45.3125 23.44140625 C-44.29060822 15.45787675 -41.23705901 9.25790781 -35 4 C-32.77734375 3.28125 -32.77734375 3.28125 -31 3 C-31 2.34 -31 1.68 -31 1 C-19.95563361 -2.43111649 -11.19624232 -4.41956934 0 0 Z " fill="#FFFFFF" transform="translate(342,57)"/>
<path d="M0 0 C5.61 0 11.22 0 17 0 C16.67 1.32 16.34 2.64 16 4 C15.34 4 14.68 4 14 4 C14.09337381 10.08751688 14.19943093 16.1746284 14.31738281 22.26171875 C14.35572685 24.33359681 14.39057005 26.40554269 14.421875 28.47753906 C14.46740809 31.45141887 14.52542118 34.42482962 14.5859375 37.3984375 C14.59748871 38.32868744 14.60903992 39.25893738 14.62094116 40.21737671 C14.64081085 41.07811798 14.66068054 41.93885925 14.68115234 42.82568359 C14.69447601 43.58513275 14.70779968 44.34458191 14.7215271 45.12704468 C14.84617052 47.2431226 14.84617052 47.2431226 17 49 C17 50.32 17 51.64 17 53 C11.06 52.67 5.12 52.34 -1 52 C0 48 0 48 1 46 C1.0993164 43.0804725 1.1398001 40.1853274 1.1328125 37.265625 C1.13424759 35.95945221 1.13424759 35.95945221 1.13571167 34.62689209 C1.13639304 32.78088306 1.13454177 30.93487164 1.13037109 29.08886719 C1.12504793 26.27533507 1.13030418 23.46196447 1.13671875 20.6484375 C1.13605746 18.85416632 1.13477523 17.05989523 1.1328125 15.265625 C1.13483673 14.42791565 1.13686096 13.5902063 1.13894653 12.72711182 C1.13421829 11.53622955 1.13421829 11.53622955 1.12939453 10.32128906 C1.12859894 9.63004944 1.12780334 8.93880981 1.12698364 8.22662354 C0.96939183 5.46329402 0.45502674 2.73016041 0 0 Z " fill="#FFFFFF" transform="translate(275,56)"/>
</svg>
